%TF.GenerationSoftware,KiCad,Pcbnew,7.0.6-7.0.6~ubuntu22.04.1*%
%TF.CreationDate,2023-07-15T17:43:01-03:00*%
%TF.ProjectId,FRANZININHO-WIFI-MAKEYMAKEY,4652414e-5a49-44e4-994e-484f2d574946,1.0.0*%
%TF.SameCoordinates,Original*%
%TF.FileFunction,Drillmap*%
%TF.FilePolarity,Positive*%
%FSLAX45Y45*%
G04 Gerber Fmt 4.5, Leading zero omitted, Abs format (unit mm)*
G04 Created by KiCad (PCBNEW 7.0.6-7.0.6~ubuntu22.04.1) date 2023-07-15 17:43:01*
%MOMM*%
%LPD*%
G01*
G04 APERTURE LIST*
%ADD10C,0.100000*%
%ADD11C,0.200000*%
%ADD12C,0.040000*%
%ADD13C,0.075000*%
%ADD14C,0.080000*%
%ADD15C,0.088900*%
%ADD16C,0.090000*%
%ADD17C,0.120000*%
%ADD18C,0.400000*%
G04 APERTURE END LIST*
D10*
X18542000Y-6985000D02*
G75*
G03*
X18288000Y-6731000I-254000J0D01*
G01*
X18288000Y-12192000D02*
G75*
G03*
X18542000Y-11938000I0J254000D01*
G01*
X18542000Y-11938000D02*
X18542000Y-6985000D01*
X11938000Y-6985000D02*
X11938000Y-11938000D01*
X11938000Y-11938000D02*
G75*
G03*
X12192000Y-12192000I254000J0D01*
G01*
X12192000Y-6731000D02*
G75*
G03*
X11938000Y-6985000I0J-254000D01*
G01*
X12192000Y-12192000D02*
X18288000Y-12192000D01*
X18288000Y-6731000D02*
X12192000Y-6731000D01*
D11*
D12*
X12235500Y-8171500D02*
X12275500Y-8211500D01*
X12275500Y-8171500D02*
X12235500Y-8211500D01*
X12616500Y-6838000D02*
X12656500Y-6878000D01*
X12656500Y-6838000D02*
X12616500Y-6878000D01*
X12807000Y-10136000D02*
X12847000Y-10176000D01*
X12847000Y-10136000D02*
X12807000Y-10176000D01*
X12807000Y-11124250D02*
X12847000Y-11164250D01*
X12847000Y-11124250D02*
X12807000Y-11164250D01*
X13061000Y-9473250D02*
X13101000Y-9513250D01*
X13101000Y-9473250D02*
X13061000Y-9513250D01*
X13156250Y-8012750D02*
X13196250Y-8052750D01*
X13196250Y-8012750D02*
X13156250Y-8052750D01*
X13156250Y-8139750D02*
X13196250Y-8179750D01*
X13196250Y-8139750D02*
X13156250Y-8179750D01*
X13251500Y-8552500D02*
X13291500Y-8592500D01*
X13291500Y-8552500D02*
X13251500Y-8592500D01*
X13315000Y-11124250D02*
X13355000Y-11164250D01*
X13355000Y-11124250D02*
X13315000Y-11164250D01*
X13346750Y-8139750D02*
X13386750Y-8179750D01*
X13386750Y-8139750D02*
X13346750Y-8179750D01*
X13378500Y-6838000D02*
X13418500Y-6878000D01*
X13418500Y-6838000D02*
X13378500Y-6878000D01*
X13378500Y-7727000D02*
X13418500Y-7767000D01*
X13418500Y-7727000D02*
X13378500Y-7767000D01*
X13442000Y-8552500D02*
X13482000Y-8592500D01*
X13482000Y-8552500D02*
X13442000Y-8592500D01*
X13537250Y-8012750D02*
X13577250Y-8052750D01*
X13577250Y-8012750D02*
X13537250Y-8052750D01*
X13537250Y-8139750D02*
X13577250Y-8179750D01*
X13577250Y-8139750D02*
X13537250Y-8179750D01*
X13632500Y-8552500D02*
X13672500Y-8592500D01*
X13672500Y-8552500D02*
X13632500Y-8592500D01*
X13696000Y-9949500D02*
X13736000Y-9989500D01*
X13736000Y-9949500D02*
X13696000Y-9989500D01*
X13727750Y-8139750D02*
X13767750Y-8179750D01*
X13767750Y-8139750D02*
X13727750Y-8179750D01*
X13759500Y-9759000D02*
X13799500Y-9799000D01*
X13799500Y-9759000D02*
X13759500Y-9799000D01*
X13823000Y-8552500D02*
X13863000Y-8592500D01*
X13863000Y-8552500D02*
X13823000Y-8592500D01*
X13823000Y-11124250D02*
X13863000Y-11164250D01*
X13863000Y-11124250D02*
X13823000Y-11164250D01*
X13918250Y-8139750D02*
X13958250Y-8179750D01*
X13958250Y-8139750D02*
X13918250Y-8179750D01*
X13950000Y-11600500D02*
X13990000Y-11640500D01*
X13990000Y-11600500D02*
X13950000Y-11640500D01*
X14013500Y-8552500D02*
X14053500Y-8592500D01*
X14053500Y-8552500D02*
X14013500Y-8592500D01*
X14077000Y-9759000D02*
X14117000Y-9799000D01*
X14117000Y-9759000D02*
X14077000Y-9799000D01*
X14107550Y-9600250D02*
X14147550Y-9640250D01*
X14147550Y-9600250D02*
X14107550Y-9640250D01*
X14108750Y-8139750D02*
X14148750Y-8179750D01*
X14148750Y-8139750D02*
X14108750Y-8179750D01*
X14140500Y-6838000D02*
X14180500Y-6878000D01*
X14180500Y-6838000D02*
X14140500Y-6878000D01*
X14172250Y-7727000D02*
X14212250Y-7767000D01*
X14212250Y-7727000D02*
X14172250Y-7767000D01*
X14204000Y-8552500D02*
X14244000Y-8592500D01*
X14244000Y-8552500D02*
X14204000Y-8592500D01*
X14299250Y-8139750D02*
X14339250Y-8179750D01*
X14339250Y-8139750D02*
X14299250Y-8179750D01*
X14390895Y-8552500D02*
X14430895Y-8592500D01*
X14430895Y-8552500D02*
X14390895Y-8592500D01*
X14458000Y-9568500D02*
X14498000Y-9608500D01*
X14498000Y-9568500D02*
X14458000Y-9608500D01*
X14458000Y-9759000D02*
X14498000Y-9799000D01*
X14498000Y-9759000D02*
X14458000Y-9799000D01*
X14458000Y-9949500D02*
X14498000Y-9989500D01*
X14498000Y-9949500D02*
X14458000Y-9989500D01*
X14458000Y-10140000D02*
X14498000Y-10180000D01*
X14498000Y-10140000D02*
X14458000Y-10180000D01*
X14458000Y-10521000D02*
X14498000Y-10561000D01*
X14498000Y-10521000D02*
X14458000Y-10561000D01*
X14458000Y-10711500D02*
X14498000Y-10751500D01*
X14498000Y-10711500D02*
X14458000Y-10751500D01*
X14493495Y-8139750D02*
X14533495Y-8179750D01*
X14533495Y-8139750D02*
X14493495Y-8179750D01*
X14807250Y-8711250D02*
X14847250Y-8751250D01*
X14847250Y-8711250D02*
X14807250Y-8751250D01*
X14839000Y-9568500D02*
X14879000Y-9608500D01*
X14879000Y-9568500D02*
X14839000Y-9608500D01*
X14839000Y-9949500D02*
X14879000Y-9989500D01*
X14879000Y-9949500D02*
X14839000Y-9989500D01*
X14839000Y-10330500D02*
X14879000Y-10370500D01*
X14879000Y-10330500D02*
X14839000Y-10370500D01*
X14839000Y-10711500D02*
X14879000Y-10751500D01*
X14879000Y-10711500D02*
X14839000Y-10751500D01*
X14902500Y-7409500D02*
X14942500Y-7449500D01*
X14942500Y-7409500D02*
X14902500Y-7449500D01*
X14966000Y-7981000D02*
X15006000Y-8021000D01*
X15006000Y-7981000D02*
X14966000Y-8021000D01*
X15029500Y-10235250D02*
X15069500Y-10275250D01*
X15069500Y-10235250D02*
X15029500Y-10275250D01*
X15188250Y-11895200D02*
X15228250Y-11935200D01*
X15228250Y-11895200D02*
X15188250Y-11935200D01*
X15220000Y-7187250D02*
X15260000Y-7227250D01*
X15260000Y-7187250D02*
X15220000Y-7227250D01*
X15220000Y-9378000D02*
X15260000Y-9418000D01*
X15260000Y-9378000D02*
X15220000Y-9418000D01*
X15220000Y-9568500D02*
X15260000Y-9608500D01*
X15260000Y-9568500D02*
X15220000Y-9608500D01*
X15220000Y-9949500D02*
X15260000Y-9989500D01*
X15260000Y-9949500D02*
X15220000Y-9989500D01*
X15220000Y-10330500D02*
X15260000Y-10370500D01*
X15260000Y-10330500D02*
X15220000Y-10370500D01*
X15220000Y-10521000D02*
X15260000Y-10561000D01*
X15260000Y-10521000D02*
X15220000Y-10561000D01*
X15220000Y-10711500D02*
X15260000Y-10751500D01*
X15260000Y-10711500D02*
X15220000Y-10751500D01*
X15220000Y-10902000D02*
X15260000Y-10942000D01*
X15260000Y-10902000D02*
X15220000Y-10942000D01*
X15347000Y-8647750D02*
X15387000Y-8687750D01*
X15387000Y-8647750D02*
X15347000Y-8687750D01*
X15410500Y-8298500D02*
X15450500Y-8338500D01*
X15450500Y-8298500D02*
X15410500Y-8338500D01*
X15410500Y-12045000D02*
X15450500Y-12085000D01*
X15450500Y-12045000D02*
X15410500Y-12085000D01*
X15537500Y-7409500D02*
X15577500Y-7449500D01*
X15577500Y-7409500D02*
X15537500Y-7449500D01*
X15601000Y-9473250D02*
X15641000Y-9513250D01*
X15641000Y-9473250D02*
X15601000Y-9513250D01*
X15601000Y-9949500D02*
X15641000Y-9989500D01*
X15641000Y-9949500D02*
X15601000Y-9989500D01*
X15601000Y-10076500D02*
X15641000Y-10116500D01*
X15641000Y-10076500D02*
X15601000Y-10116500D01*
X15601000Y-10711500D02*
X15641000Y-10751500D01*
X15641000Y-10711500D02*
X15601000Y-10751500D01*
X15791500Y-10425750D02*
X15831500Y-10465750D01*
X15831500Y-10425750D02*
X15791500Y-10465750D01*
X15855000Y-8647750D02*
X15895000Y-8687750D01*
X15895000Y-8647750D02*
X15855000Y-8687750D01*
X15982000Y-9536750D02*
X16022000Y-9576750D01*
X16022000Y-9536750D02*
X15982000Y-9576750D01*
X15982000Y-9759000D02*
X16022000Y-9799000D01*
X16022000Y-9759000D02*
X15982000Y-9799000D01*
X15982000Y-9949500D02*
X16022000Y-9989500D01*
X16022000Y-9949500D02*
X15982000Y-9989500D01*
X15982000Y-10330500D02*
X16022000Y-10370500D01*
X16022000Y-10330500D02*
X15982000Y-10370500D01*
X15982000Y-10711500D02*
X16022000Y-10751500D01*
X16022000Y-10711500D02*
X15982000Y-10751500D01*
X15982000Y-10902000D02*
X16022000Y-10942000D01*
X16022000Y-10902000D02*
X15982000Y-10942000D01*
X16172500Y-10425750D02*
X16212500Y-10465750D01*
X16212500Y-10425750D02*
X16172500Y-10465750D01*
X16299500Y-6838000D02*
X16339500Y-6878000D01*
X16339500Y-6838000D02*
X16299500Y-6878000D01*
X16299500Y-7727000D02*
X16339500Y-7767000D01*
X16339500Y-7727000D02*
X16299500Y-7767000D01*
X16299500Y-8171500D02*
X16339500Y-8211500D01*
X16339500Y-8171500D02*
X16299500Y-8211500D01*
X16331250Y-9251000D02*
X16371250Y-9291000D01*
X16371250Y-9251000D02*
X16331250Y-9291000D01*
X16363000Y-8434450D02*
X16403000Y-8474450D01*
X16403000Y-8434450D02*
X16363000Y-8474450D01*
X16363000Y-10330500D02*
X16403000Y-10370500D01*
X16403000Y-10330500D02*
X16363000Y-10370500D01*
X16363000Y-10711500D02*
X16403000Y-10751500D01*
X16403000Y-10711500D02*
X16363000Y-10751500D01*
X16363000Y-10902000D02*
X16403000Y-10942000D01*
X16403000Y-10902000D02*
X16363000Y-10942000D01*
X16394750Y-8647750D02*
X16434750Y-8687750D01*
X16434750Y-8647750D02*
X16394750Y-8687750D01*
X16490000Y-11600500D02*
X16530000Y-11640500D01*
X16530000Y-11600500D02*
X16490000Y-11640500D01*
X16521750Y-8838250D02*
X16561750Y-8878250D01*
X16561750Y-8838250D02*
X16521750Y-8878250D01*
X16585250Y-9854250D02*
X16625250Y-9894250D01*
X16625250Y-9854250D02*
X16585250Y-9894250D01*
X16617000Y-9219250D02*
X16657000Y-9259250D01*
X16657000Y-9219250D02*
X16617000Y-9259250D01*
X16712250Y-8838250D02*
X16752250Y-8878250D01*
X16752250Y-8838250D02*
X16712250Y-8878250D01*
X16744000Y-10425750D02*
X16784000Y-10465750D01*
X16784000Y-10425750D02*
X16744000Y-10465750D01*
X16871000Y-11060750D02*
X16911000Y-11100750D01*
X16911000Y-11060750D02*
X16871000Y-11100750D01*
X16902750Y-8835450D02*
X16942750Y-8875450D01*
X16942750Y-8835450D02*
X16902750Y-8875450D01*
X16902750Y-9663750D02*
X16942750Y-9703750D01*
X16942750Y-9663750D02*
X16902750Y-9703750D01*
X17029750Y-10203500D02*
X17069750Y-10243500D01*
X17069750Y-10203500D02*
X17029750Y-10243500D01*
X17061500Y-6838000D02*
X17101500Y-6878000D01*
X17101500Y-6838000D02*
X17061500Y-6878000D01*
X17061500Y-7727000D02*
X17101500Y-7767000D01*
X17101500Y-7727000D02*
X17061500Y-7767000D01*
X17283750Y-9505000D02*
X17323750Y-9545000D01*
X17323750Y-9505000D02*
X17283750Y-9545000D01*
X17379000Y-11060750D02*
X17419000Y-11100750D01*
X17419000Y-11060750D02*
X17379000Y-11100750D01*
X17451450Y-9473250D02*
X17491450Y-9513250D01*
X17491450Y-9473250D02*
X17451450Y-9513250D01*
X17474250Y-10108250D02*
X17514250Y-10148250D01*
X17514250Y-10108250D02*
X17474250Y-10148250D01*
X17497050Y-9640950D02*
X17537050Y-9680950D01*
X17537050Y-9640950D02*
X17497050Y-9680950D01*
X17633000Y-10552750D02*
X17673000Y-10592750D01*
X17673000Y-10552750D02*
X17633000Y-10592750D01*
X17728250Y-10203500D02*
X17768250Y-10243500D01*
X17768250Y-10203500D02*
X17728250Y-10243500D01*
X17728250Y-10330500D02*
X17768250Y-10370500D01*
X17768250Y-10330500D02*
X17728250Y-10370500D01*
X17823500Y-6838000D02*
X17863500Y-6878000D01*
X17863500Y-6838000D02*
X17823500Y-6878000D01*
X17887000Y-9473250D02*
X17927000Y-9513250D01*
X17927000Y-9473250D02*
X17887000Y-9513250D01*
X18014000Y-8997000D02*
X18054000Y-9037000D01*
X18054000Y-8997000D02*
X18014000Y-9037000D01*
X18204500Y-8171500D02*
X18244500Y-8211500D01*
X18244500Y-8171500D02*
X18204500Y-8211500D01*
D13*
X13072500Y-11629500D02*
G75*
G03*
X13072500Y-11629500I-37500J0D01*
G01*
X13272500Y-11629500D02*
G75*
G03*
X13272500Y-11629500I-37500J0D01*
G01*
X13472500Y-11629500D02*
G75*
G03*
X13472500Y-11629500I-37500J0D01*
G01*
X13672500Y-11629500D02*
G75*
G03*
X13672500Y-11629500I-37500J0D01*
G01*
X14342500Y-11629500D02*
G75*
G03*
X14342500Y-11629500I-37500J0D01*
G01*
X14542500Y-11629500D02*
G75*
G03*
X14542500Y-11629500I-37500J0D01*
G01*
X14742500Y-11629500D02*
G75*
G03*
X14742500Y-11629500I-37500J0D01*
G01*
X14942500Y-11629500D02*
G75*
G03*
X14942500Y-11629500I-37500J0D01*
G01*
X15612500Y-11629500D02*
G75*
G03*
X15612500Y-11629500I-37500J0D01*
G01*
X15812500Y-11629500D02*
G75*
G03*
X15812500Y-11629500I-37500J0D01*
G01*
X16012500Y-11629500D02*
G75*
G03*
X16012500Y-11629500I-37500J0D01*
G01*
X16212500Y-11629500D02*
G75*
G03*
X16212500Y-11629500I-37500J0D01*
G01*
X16882500Y-11629500D02*
G75*
G03*
X16882500Y-11629500I-37500J0D01*
G01*
X17082500Y-11629500D02*
G75*
G03*
X17082500Y-11629500I-37500J0D01*
G01*
X17282500Y-11629500D02*
G75*
G03*
X17282500Y-11629500I-37500J0D01*
G01*
X17482500Y-11629500D02*
G75*
G03*
X17482500Y-11629500I-37500J0D01*
G01*
D14*
X15113000Y-7072000D02*
X15113000Y-7152000D01*
X15073000Y-7112000D02*
X15153000Y-7112000D01*
X15367000Y-7072000D02*
X15367000Y-7152000D01*
X15327000Y-7112000D02*
X15407000Y-7112000D01*
D15*
X12985431Y-9048431D02*
X12985431Y-8985569D01*
X12922569Y-8985569D01*
X12922569Y-9048431D01*
X12985431Y-9048431D01*
X12985431Y-11334431D02*
X12985431Y-11271569D01*
X12922569Y-11271569D01*
X12922569Y-11334431D01*
X12985431Y-11334431D01*
X13239431Y-9048431D02*
X13239431Y-8985569D01*
X13176569Y-8985569D01*
X13176569Y-9048431D01*
X13239431Y-9048431D01*
X13239431Y-11334431D02*
X13239431Y-11271569D01*
X13176569Y-11271569D01*
X13176569Y-11334431D01*
X13239431Y-11334431D01*
X13493431Y-9048431D02*
X13493431Y-8985569D01*
X13430569Y-8985569D01*
X13430569Y-9048431D01*
X13493431Y-9048431D01*
X13493431Y-11334431D02*
X13493431Y-11271569D01*
X13430569Y-11271569D01*
X13430569Y-11334431D01*
X13493431Y-11334431D01*
X13747431Y-9048431D02*
X13747431Y-8985569D01*
X13684569Y-8985569D01*
X13684569Y-9048431D01*
X13747431Y-9048431D01*
X13747431Y-11334431D02*
X13747431Y-11271569D01*
X13684569Y-11271569D01*
X13684569Y-11334431D01*
X13747431Y-11334431D01*
X14001431Y-9048431D02*
X14001431Y-8985569D01*
X13938569Y-8985569D01*
X13938569Y-9048431D01*
X14001431Y-9048431D01*
X14001431Y-11334431D02*
X14001431Y-11271569D01*
X13938569Y-11271569D01*
X13938569Y-11334431D01*
X14001431Y-11334431D01*
X14255431Y-9048431D02*
X14255431Y-8985569D01*
X14192569Y-8985569D01*
X14192569Y-9048431D01*
X14255431Y-9048431D01*
X14255431Y-11334431D02*
X14255431Y-11271569D01*
X14192569Y-11271569D01*
X14192569Y-11334431D01*
X14255431Y-11334431D01*
X14509431Y-9048431D02*
X14509431Y-8985569D01*
X14446569Y-8985569D01*
X14446569Y-9048431D01*
X14509431Y-9048431D01*
X14509431Y-11334431D02*
X14509431Y-11271569D01*
X14446569Y-11271569D01*
X14446569Y-11334431D01*
X14509431Y-11334431D01*
X14763431Y-9048431D02*
X14763431Y-8985569D01*
X14700569Y-8985569D01*
X14700569Y-9048431D01*
X14763431Y-9048431D01*
X14763431Y-11334431D02*
X14763431Y-11271569D01*
X14700569Y-11271569D01*
X14700569Y-11334431D01*
X14763431Y-11334431D01*
X15017431Y-9048431D02*
X15017431Y-8985569D01*
X14954569Y-8985569D01*
X14954569Y-9048431D01*
X15017431Y-9048431D01*
X15017431Y-11334431D02*
X15017431Y-11271569D01*
X14954569Y-11271569D01*
X14954569Y-11334431D01*
X15017431Y-11334431D01*
X15271431Y-9048431D02*
X15271431Y-8985569D01*
X15208569Y-8985569D01*
X15208569Y-9048431D01*
X15271431Y-9048431D01*
X15271431Y-11334431D02*
X15271431Y-11271569D01*
X15208569Y-11271569D01*
X15208569Y-11334431D01*
X15271431Y-11334431D01*
X15525431Y-9048431D02*
X15525431Y-8985569D01*
X15462569Y-8985569D01*
X15462569Y-9048431D01*
X15525431Y-9048431D01*
X15525431Y-11334431D02*
X15525431Y-11271569D01*
X15462569Y-11271569D01*
X15462569Y-11334431D01*
X15525431Y-11334431D01*
X15779431Y-9048431D02*
X15779431Y-8985569D01*
X15716569Y-8985569D01*
X15716569Y-9048431D01*
X15779431Y-9048431D01*
X15779431Y-11334431D02*
X15779431Y-11271569D01*
X15716569Y-11271569D01*
X15716569Y-11334431D01*
X15779431Y-11334431D01*
X16033431Y-9048431D02*
X16033431Y-8985569D01*
X15970569Y-8985569D01*
X15970569Y-9048431D01*
X16033431Y-9048431D01*
X16033431Y-11334431D02*
X16033431Y-11271569D01*
X15970569Y-11271569D01*
X15970569Y-11334431D01*
X16033431Y-11334431D01*
X16287431Y-9048431D02*
X16287431Y-8985569D01*
X16224569Y-8985569D01*
X16224569Y-9048431D01*
X16287431Y-9048431D01*
X16287431Y-11334431D02*
X16287431Y-11271569D01*
X16224569Y-11271569D01*
X16224569Y-11334431D01*
X16287431Y-11334431D01*
X16541431Y-9048431D02*
X16541431Y-8985569D01*
X16478569Y-8985569D01*
X16478569Y-9048431D01*
X16541431Y-9048431D01*
X16541431Y-11334431D02*
X16541431Y-11271569D01*
X16478569Y-11271569D01*
X16478569Y-11334431D01*
X16541431Y-11334431D01*
X16795431Y-9048431D02*
X16795431Y-8985569D01*
X16732569Y-8985569D01*
X16732569Y-9048431D01*
X16795431Y-9048431D01*
X16795431Y-11334431D02*
X16795431Y-11271569D01*
X16732569Y-11271569D01*
X16732569Y-11334431D01*
X16795431Y-11334431D01*
X17049431Y-9048431D02*
X17049431Y-8985569D01*
X16986569Y-8985569D01*
X16986569Y-9048431D01*
X17049431Y-9048431D01*
X17049431Y-11334431D02*
X17049431Y-11271569D01*
X16986569Y-11271569D01*
X16986569Y-11334431D01*
X17049431Y-11334431D01*
X17303431Y-9048431D02*
X17303431Y-8985569D01*
X17240569Y-8985569D01*
X17240569Y-9048431D01*
X17303431Y-9048431D01*
X17303431Y-11334431D02*
X17303431Y-11271569D01*
X17240569Y-11271569D01*
X17240569Y-11334431D01*
X17303431Y-11334431D01*
X17557431Y-9048431D02*
X17557431Y-8985569D01*
X17494569Y-8985569D01*
X17494569Y-9048431D01*
X17557431Y-9048431D01*
X17557431Y-11334431D02*
X17557431Y-11271569D01*
X17494569Y-11271569D01*
X17494569Y-11334431D01*
X17557431Y-11334431D01*
X17811431Y-9048431D02*
X17811431Y-8985569D01*
X17748569Y-8985569D01*
X17748569Y-9048431D01*
X17811431Y-9048431D01*
X17811431Y-11334431D02*
X17811431Y-11271569D01*
X17748569Y-11271569D01*
X17748569Y-11334431D01*
X17811431Y-11334431D01*
D16*
X16757500Y-8204750D02*
X16802500Y-8159750D01*
X16757500Y-8114750D01*
X16712500Y-8159750D01*
X16757500Y-8204750D01*
X16973400Y-8204750D02*
X17018400Y-8159750D01*
X16973400Y-8114750D01*
X16928400Y-8159750D01*
X16973400Y-8204750D01*
X17189300Y-8204750D02*
X17234300Y-8159750D01*
X17189300Y-8114750D01*
X17144300Y-8159750D01*
X17189300Y-8204750D01*
X17405200Y-8204750D02*
X17450200Y-8159750D01*
X17405200Y-8114750D01*
X17360200Y-8159750D01*
X17405200Y-8204750D01*
D10*
X12144500Y-9282000D02*
X12244500Y-9382000D01*
X12244500Y-9282000D02*
X12144500Y-9382000D01*
X12244500Y-9332000D02*
G75*
G03*
X12244500Y-9332000I-50000J0D01*
G01*
X12398500Y-9282000D02*
X12498500Y-9382000D01*
X12498500Y-9282000D02*
X12398500Y-9382000D01*
X12498500Y-9332000D02*
G75*
G03*
X12498500Y-9332000I-50000J0D01*
G01*
X12652500Y-9282000D02*
X12752500Y-9382000D01*
X12752500Y-9282000D02*
X12652500Y-9382000D01*
X12752500Y-9332000D02*
G75*
G03*
X12752500Y-9332000I-50000J0D01*
G01*
X12906500Y-9282000D02*
X13006500Y-9382000D01*
X13006500Y-9282000D02*
X12906500Y-9382000D01*
X13006500Y-9332000D02*
G75*
G03*
X13006500Y-9332000I-50000J0D01*
G01*
X13160500Y-9282000D02*
X13260500Y-9382000D01*
X13260500Y-9282000D02*
X13160500Y-9382000D01*
X13260500Y-9332000D02*
G75*
G03*
X13260500Y-9332000I-50000J0D01*
G01*
X13414500Y-9282000D02*
X13514500Y-9382000D01*
X13514500Y-9282000D02*
X13414500Y-9382000D01*
X13514500Y-9332000D02*
G75*
G03*
X13514500Y-9332000I-50000J0D01*
G01*
X14811000Y-8141500D02*
X14911000Y-8241500D01*
X14911000Y-8141500D02*
X14811000Y-8241500D01*
X14911000Y-8191500D02*
G75*
G03*
X14911000Y-8191500I-50000J0D01*
G01*
X14961000Y-8371500D02*
X15061000Y-8471500D01*
X15061000Y-8371500D02*
X14961000Y-8471500D01*
X15061000Y-8421500D02*
G75*
G03*
X15061000Y-8421500I-50000J0D01*
G01*
X15191000Y-7841500D02*
X15291000Y-7941500D01*
X15291000Y-7841500D02*
X15191000Y-7941500D01*
X15291000Y-7891500D02*
G75*
G03*
X15291000Y-7891500I-50000J0D01*
G01*
X15191000Y-8441500D02*
X15291000Y-8541500D01*
X15291000Y-8441500D02*
X15191000Y-8541500D01*
X15291000Y-8491500D02*
G75*
G03*
X15291000Y-8491500I-50000J0D01*
G01*
X15421000Y-7911500D02*
X15521000Y-8011500D01*
X15521000Y-7911500D02*
X15421000Y-8011500D01*
X15521000Y-7961500D02*
G75*
G03*
X15521000Y-7961500I-50000J0D01*
G01*
X15571000Y-8141500D02*
X15671000Y-8241500D01*
X15671000Y-8141500D02*
X15571000Y-8241500D01*
X15671000Y-8191500D02*
G75*
G03*
X15671000Y-8191500I-50000J0D01*
G01*
X16965500Y-9287000D02*
X17065500Y-9387000D01*
X17065500Y-9287000D02*
X16965500Y-9387000D01*
X17065500Y-9337000D02*
G75*
G03*
X17065500Y-9337000I-50000J0D01*
G01*
X17219500Y-9287000D02*
X17319500Y-9387000D01*
X17319500Y-9287000D02*
X17219500Y-9387000D01*
X17319500Y-9337000D02*
G75*
G03*
X17319500Y-9337000I-50000J0D01*
G01*
X17473500Y-9287000D02*
X17573500Y-9387000D01*
X17573500Y-9287000D02*
X17473500Y-9387000D01*
X17573500Y-9337000D02*
G75*
G03*
X17573500Y-9337000I-50000J0D01*
G01*
X17727500Y-9287000D02*
X17827500Y-9387000D01*
X17827500Y-9287000D02*
X17727500Y-9387000D01*
X17827500Y-9337000D02*
G75*
G03*
X17827500Y-9337000I-50000J0D01*
G01*
X17981500Y-9287000D02*
X18081500Y-9387000D01*
X18081500Y-9287000D02*
X17981500Y-9387000D01*
X18081500Y-9337000D02*
G75*
G03*
X18081500Y-9337000I-50000J0D01*
G01*
X18235500Y-9287000D02*
X18335500Y-9387000D01*
X18335500Y-9287000D02*
X18235500Y-9387000D01*
X18335500Y-9337000D02*
G75*
G03*
X18335500Y-9337000I-50000J0D01*
G01*
D17*
X12142000Y-9846000D02*
X12262000Y-9966000D01*
X12262000Y-9846000D02*
X12142000Y-9966000D01*
X12202000Y-9846000D02*
X12202000Y-9966000D01*
X12142000Y-9906000D02*
X12262000Y-9906000D01*
X12142000Y-10346000D02*
X12262000Y-10466000D01*
X12262000Y-10346000D02*
X12142000Y-10466000D01*
X12202000Y-10346000D02*
X12202000Y-10466000D01*
X12142000Y-10406000D02*
X12262000Y-10406000D01*
X13392000Y-9846000D02*
X13512000Y-9966000D01*
X13512000Y-9846000D02*
X13392000Y-9966000D01*
X13452000Y-9846000D02*
X13452000Y-9966000D01*
X13392000Y-9906000D02*
X13512000Y-9906000D01*
X13392000Y-10346000D02*
X13512000Y-10466000D01*
X13512000Y-10346000D02*
X13392000Y-10466000D01*
X13452000Y-10346000D02*
X13452000Y-10466000D01*
X13392000Y-10406000D02*
X13512000Y-10406000D01*
X16968000Y-9850000D02*
X17088000Y-9970000D01*
X17088000Y-9850000D02*
X16968000Y-9970000D01*
X17028000Y-9850000D02*
X17028000Y-9970000D01*
X16968000Y-9910000D02*
X17088000Y-9910000D01*
X16968000Y-10350000D02*
X17088000Y-10470000D01*
X17088000Y-10350000D02*
X16968000Y-10470000D01*
X17028000Y-10350000D02*
X17028000Y-10470000D01*
X16968000Y-10410000D02*
X17088000Y-10410000D01*
X18218000Y-9850000D02*
X18338000Y-9970000D01*
X18338000Y-9850000D02*
X18218000Y-9970000D01*
X18278000Y-9850000D02*
X18278000Y-9970000D01*
X18218000Y-9910000D02*
X18338000Y-9910000D01*
X18218000Y-10350000D02*
X18338000Y-10470000D01*
X18338000Y-10350000D02*
X18218000Y-10470000D01*
X18278000Y-10350000D02*
X18278000Y-10470000D01*
X18218000Y-10410000D02*
X18338000Y-10410000D01*
D18*
X12055500Y-6848500D02*
X12455500Y-7248500D01*
X12455500Y-6848500D02*
X12055500Y-7248500D01*
X12396923Y-7189923D02*
X12396923Y-6907077D01*
X12114077Y-6907077D01*
X12114077Y-7189923D01*
X12396923Y-7189923D01*
X12055500Y-7356500D02*
X12455500Y-7756500D01*
X12455500Y-7356500D02*
X12055500Y-7756500D01*
X12396923Y-7697923D02*
X12396923Y-7415077D01*
X12114077Y-7415077D01*
X12114077Y-7697923D01*
X12396923Y-7697923D01*
X12055500Y-8404250D02*
X12455500Y-8804250D01*
X12455500Y-8404250D02*
X12055500Y-8804250D01*
X12396923Y-8745673D02*
X12396923Y-8462827D01*
X12114077Y-8462827D01*
X12114077Y-8745673D01*
X12396923Y-8745673D01*
X12563500Y-8404250D02*
X12963500Y-8804250D01*
X12963500Y-8404250D02*
X12563500Y-8804250D01*
X12904923Y-8745673D02*
X12904923Y-8462827D01*
X12622077Y-8462827D01*
X12622077Y-8745673D01*
X12904923Y-8745673D01*
X12817500Y-6848500D02*
X13217500Y-7248500D01*
X13217500Y-6848500D02*
X12817500Y-7248500D01*
X13158923Y-7189923D02*
X13158923Y-6907077D01*
X12876077Y-6907077D01*
X12876077Y-7189923D01*
X13158923Y-7189923D01*
X12817500Y-7356500D02*
X13217500Y-7756500D01*
X13217500Y-7356500D02*
X12817500Y-7756500D01*
X13158923Y-7697923D02*
X13158923Y-7415077D01*
X12876077Y-7415077D01*
X12876077Y-7697923D01*
X13158923Y-7697923D01*
X13579500Y-6848500D02*
X13979500Y-7248500D01*
X13979500Y-6848500D02*
X13579500Y-7248500D01*
X13920923Y-7189923D02*
X13920923Y-6907077D01*
X13638077Y-6907077D01*
X13638077Y-7189923D01*
X13920923Y-7189923D01*
X13579500Y-7356500D02*
X13979500Y-7756500D01*
X13979500Y-7356500D02*
X13579500Y-7756500D01*
X13920923Y-7697923D02*
X13920923Y-7415077D01*
X13638077Y-7415077D01*
X13638077Y-7697923D01*
X13920923Y-7697923D01*
X14341500Y-6848500D02*
X14741500Y-7248500D01*
X14741500Y-6848500D02*
X14341500Y-7248500D01*
X14682923Y-7189923D02*
X14682923Y-6907077D01*
X14400077Y-6907077D01*
X14400077Y-7189923D01*
X14682923Y-7189923D01*
X14341500Y-7356500D02*
X14741500Y-7756500D01*
X14741500Y-7356500D02*
X14341500Y-7756500D01*
X14682923Y-7697923D02*
X14682923Y-7415077D01*
X14400077Y-7415077D01*
X14400077Y-7697923D01*
X14682923Y-7697923D01*
X15738500Y-6848500D02*
X16138500Y-7248500D01*
X16138500Y-6848500D02*
X15738500Y-7248500D01*
X16079923Y-7189923D02*
X16079923Y-6907077D01*
X15797077Y-6907077D01*
X15797077Y-7189923D01*
X16079923Y-7189923D01*
X15738500Y-7356500D02*
X16138500Y-7756500D01*
X16138500Y-7356500D02*
X15738500Y-7756500D01*
X16079923Y-7697923D02*
X16079923Y-7415077D01*
X15797077Y-7415077D01*
X15797077Y-7697923D01*
X16079923Y-7697923D01*
X16500500Y-6848500D02*
X16900500Y-7248500D01*
X16900500Y-6848500D02*
X16500500Y-7248500D01*
X16841923Y-7189923D02*
X16841923Y-6907077D01*
X16559077Y-6907077D01*
X16559077Y-7189923D01*
X16841923Y-7189923D01*
X16500500Y-7356500D02*
X16900500Y-7756500D01*
X16900500Y-7356500D02*
X16500500Y-7756500D01*
X16841923Y-7697923D02*
X16841923Y-7415077D01*
X16559077Y-7415077D01*
X16559077Y-7697923D01*
X16841923Y-7697923D01*
X17262500Y-6848500D02*
X17662500Y-7248500D01*
X17662500Y-6848500D02*
X17262500Y-7248500D01*
X17603923Y-7189923D02*
X17603923Y-6907077D01*
X17321077Y-6907077D01*
X17321077Y-7189923D01*
X17603923Y-7189923D01*
X17262500Y-7356500D02*
X17662500Y-7756500D01*
X17662500Y-7356500D02*
X17262500Y-7756500D01*
X17603923Y-7697923D02*
X17603923Y-7415077D01*
X17321077Y-7415077D01*
X17321077Y-7697923D01*
X17603923Y-7697923D01*
X17516500Y-8404250D02*
X17916500Y-8804250D01*
X17916500Y-8404250D02*
X17516500Y-8804250D01*
X17857923Y-8745673D02*
X17857923Y-8462827D01*
X17575077Y-8462827D01*
X17575077Y-8745673D01*
X17857923Y-8745673D01*
X18024500Y-6848500D02*
X18424500Y-7248500D01*
X18424500Y-6848500D02*
X18024500Y-7248500D01*
X18365923Y-7189923D02*
X18365923Y-6907077D01*
X18083077Y-6907077D01*
X18083077Y-7189923D01*
X18365923Y-7189923D01*
X18024500Y-7356500D02*
X18424500Y-7756500D01*
X18424500Y-7356500D02*
X18024500Y-7756500D01*
X18365923Y-7697923D02*
X18365923Y-7415077D01*
X18083077Y-7415077D01*
X18083077Y-7697923D01*
X18365923Y-7697923D01*
X18024500Y-8404250D02*
X18424500Y-8804250D01*
X18424500Y-8404250D02*
X18024500Y-8804250D01*
X18365923Y-8745673D02*
X18365923Y-8462827D01*
X18083077Y-8462827D01*
X18083077Y-8745673D01*
X18365923Y-8745673D01*
D11*
X12193777Y-12508484D02*
X12193777Y-12308484D01*
X12193777Y-12308484D02*
X12241396Y-12308484D01*
X12241396Y-12308484D02*
X12269967Y-12318008D01*
X12269967Y-12318008D02*
X12289015Y-12337055D01*
X12289015Y-12337055D02*
X12298539Y-12356103D01*
X12298539Y-12356103D02*
X12308062Y-12394198D01*
X12308062Y-12394198D02*
X12308062Y-12422769D01*
X12308062Y-12422769D02*
X12298539Y-12460865D01*
X12298539Y-12460865D02*
X12289015Y-12479912D01*
X12289015Y-12479912D02*
X12269967Y-12498960D01*
X12269967Y-12498960D02*
X12241396Y-12508484D01*
X12241396Y-12508484D02*
X12193777Y-12508484D01*
X12393777Y-12508484D02*
X12393777Y-12375150D01*
X12393777Y-12413246D02*
X12403301Y-12394198D01*
X12403301Y-12394198D02*
X12412824Y-12384674D01*
X12412824Y-12384674D02*
X12431872Y-12375150D01*
X12431872Y-12375150D02*
X12450920Y-12375150D01*
X12517586Y-12508484D02*
X12517586Y-12375150D01*
X12517586Y-12308484D02*
X12508062Y-12318008D01*
X12508062Y-12318008D02*
X12517586Y-12327531D01*
X12517586Y-12327531D02*
X12527110Y-12318008D01*
X12527110Y-12318008D02*
X12517586Y-12308484D01*
X12517586Y-12308484D02*
X12517586Y-12327531D01*
X12641396Y-12508484D02*
X12622348Y-12498960D01*
X12622348Y-12498960D02*
X12612824Y-12479912D01*
X12612824Y-12479912D02*
X12612824Y-12308484D01*
X12746158Y-12508484D02*
X12727110Y-12498960D01*
X12727110Y-12498960D02*
X12717586Y-12479912D01*
X12717586Y-12479912D02*
X12717586Y-12308484D01*
X12974729Y-12508484D02*
X12974729Y-12308484D01*
X12974729Y-12308484D02*
X13041396Y-12451341D01*
X13041396Y-12451341D02*
X13108062Y-12308484D01*
X13108062Y-12308484D02*
X13108062Y-12508484D01*
X13289015Y-12508484D02*
X13289015Y-12403722D01*
X13289015Y-12403722D02*
X13279491Y-12384674D01*
X13279491Y-12384674D02*
X13260443Y-12375150D01*
X13260443Y-12375150D02*
X13222348Y-12375150D01*
X13222348Y-12375150D02*
X13203301Y-12384674D01*
X13289015Y-12498960D02*
X13269967Y-12508484D01*
X13269967Y-12508484D02*
X13222348Y-12508484D01*
X13222348Y-12508484D02*
X13203301Y-12498960D01*
X13203301Y-12498960D02*
X13193777Y-12479912D01*
X13193777Y-12479912D02*
X13193777Y-12460865D01*
X13193777Y-12460865D02*
X13203301Y-12441817D01*
X13203301Y-12441817D02*
X13222348Y-12432293D01*
X13222348Y-12432293D02*
X13269967Y-12432293D01*
X13269967Y-12432293D02*
X13289015Y-12422769D01*
X13384253Y-12375150D02*
X13384253Y-12575150D01*
X13384253Y-12384674D02*
X13403301Y-12375150D01*
X13403301Y-12375150D02*
X13441396Y-12375150D01*
X13441396Y-12375150D02*
X13460443Y-12384674D01*
X13460443Y-12384674D02*
X13469967Y-12394198D01*
X13469967Y-12394198D02*
X13479491Y-12413246D01*
X13479491Y-12413246D02*
X13479491Y-12470388D01*
X13479491Y-12470388D02*
X13469967Y-12489436D01*
X13469967Y-12489436D02*
X13460443Y-12498960D01*
X13460443Y-12498960D02*
X13441396Y-12508484D01*
X13441396Y-12508484D02*
X13403301Y-12508484D01*
X13403301Y-12508484D02*
X13384253Y-12498960D01*
X13565205Y-12489436D02*
X13574729Y-12498960D01*
X13574729Y-12498960D02*
X13565205Y-12508484D01*
X13565205Y-12508484D02*
X13555682Y-12498960D01*
X13555682Y-12498960D02*
X13565205Y-12489436D01*
X13565205Y-12489436D02*
X13565205Y-12508484D01*
X13565205Y-12384674D02*
X13574729Y-12394198D01*
X13574729Y-12394198D02*
X13565205Y-12403722D01*
X13565205Y-12403722D02*
X13555682Y-12394198D01*
X13555682Y-12394198D02*
X13565205Y-12384674D01*
X13565205Y-12384674D02*
X13565205Y-12403722D01*
D12*
X11893000Y-12817000D02*
X11933000Y-12857000D01*
X11933000Y-12817000D02*
X11893000Y-12857000D01*
D11*
X12231872Y-12728484D02*
X12250920Y-12728484D01*
X12250920Y-12728484D02*
X12269967Y-12738008D01*
X12269967Y-12738008D02*
X12279491Y-12747531D01*
X12279491Y-12747531D02*
X12289015Y-12766579D01*
X12289015Y-12766579D02*
X12298539Y-12804674D01*
X12298539Y-12804674D02*
X12298539Y-12852293D01*
X12298539Y-12852293D02*
X12289015Y-12890388D01*
X12289015Y-12890388D02*
X12279491Y-12909436D01*
X12279491Y-12909436D02*
X12269967Y-12918960D01*
X12269967Y-12918960D02*
X12250920Y-12928484D01*
X12250920Y-12928484D02*
X12231872Y-12928484D01*
X12231872Y-12928484D02*
X12212824Y-12918960D01*
X12212824Y-12918960D02*
X12203301Y-12909436D01*
X12203301Y-12909436D02*
X12193777Y-12890388D01*
X12193777Y-12890388D02*
X12184253Y-12852293D01*
X12184253Y-12852293D02*
X12184253Y-12804674D01*
X12184253Y-12804674D02*
X12193777Y-12766579D01*
X12193777Y-12766579D02*
X12203301Y-12747531D01*
X12203301Y-12747531D02*
X12212824Y-12738008D01*
X12212824Y-12738008D02*
X12231872Y-12728484D01*
X12384253Y-12909436D02*
X12393777Y-12918960D01*
X12393777Y-12918960D02*
X12384253Y-12928484D01*
X12384253Y-12928484D02*
X12374729Y-12918960D01*
X12374729Y-12918960D02*
X12384253Y-12909436D01*
X12384253Y-12909436D02*
X12384253Y-12928484D01*
X12565205Y-12795150D02*
X12565205Y-12928484D01*
X12517586Y-12718960D02*
X12469967Y-12861817D01*
X12469967Y-12861817D02*
X12593777Y-12861817D01*
X12708062Y-12728484D02*
X12727110Y-12728484D01*
X12727110Y-12728484D02*
X12746158Y-12738008D01*
X12746158Y-12738008D02*
X12755682Y-12747531D01*
X12755682Y-12747531D02*
X12765205Y-12766579D01*
X12765205Y-12766579D02*
X12774729Y-12804674D01*
X12774729Y-12804674D02*
X12774729Y-12852293D01*
X12774729Y-12852293D02*
X12765205Y-12890388D01*
X12765205Y-12890388D02*
X12755682Y-12909436D01*
X12755682Y-12909436D02*
X12746158Y-12918960D01*
X12746158Y-12918960D02*
X12727110Y-12928484D01*
X12727110Y-12928484D02*
X12708062Y-12928484D01*
X12708062Y-12928484D02*
X12689015Y-12918960D01*
X12689015Y-12918960D02*
X12679491Y-12909436D01*
X12679491Y-12909436D02*
X12669967Y-12890388D01*
X12669967Y-12890388D02*
X12660443Y-12852293D01*
X12660443Y-12852293D02*
X12660443Y-12804674D01*
X12660443Y-12804674D02*
X12669967Y-12766579D01*
X12669967Y-12766579D02*
X12679491Y-12747531D01*
X12679491Y-12747531D02*
X12689015Y-12738008D01*
X12689015Y-12738008D02*
X12708062Y-12728484D01*
X12898539Y-12728484D02*
X12917586Y-12728484D01*
X12917586Y-12728484D02*
X12936634Y-12738008D01*
X12936634Y-12738008D02*
X12946158Y-12747531D01*
X12946158Y-12747531D02*
X12955682Y-12766579D01*
X12955682Y-12766579D02*
X12965205Y-12804674D01*
X12965205Y-12804674D02*
X12965205Y-12852293D01*
X12965205Y-12852293D02*
X12955682Y-12890388D01*
X12955682Y-12890388D02*
X12946158Y-12909436D01*
X12946158Y-12909436D02*
X12936634Y-12918960D01*
X12936634Y-12918960D02*
X12917586Y-12928484D01*
X12917586Y-12928484D02*
X12898539Y-12928484D01*
X12898539Y-12928484D02*
X12879491Y-12918960D01*
X12879491Y-12918960D02*
X12869967Y-12909436D01*
X12869967Y-12909436D02*
X12860443Y-12890388D01*
X12860443Y-12890388D02*
X12850920Y-12852293D01*
X12850920Y-12852293D02*
X12850920Y-12804674D01*
X12850920Y-12804674D02*
X12860443Y-12766579D01*
X12860443Y-12766579D02*
X12869967Y-12747531D01*
X12869967Y-12747531D02*
X12879491Y-12738008D01*
X12879491Y-12738008D02*
X12898539Y-12728484D01*
X13050920Y-12928484D02*
X13050920Y-12795150D01*
X13050920Y-12814198D02*
X13060443Y-12804674D01*
X13060443Y-12804674D02*
X13079491Y-12795150D01*
X13079491Y-12795150D02*
X13108063Y-12795150D01*
X13108063Y-12795150D02*
X13127110Y-12804674D01*
X13127110Y-12804674D02*
X13136634Y-12823722D01*
X13136634Y-12823722D02*
X13136634Y-12928484D01*
X13136634Y-12823722D02*
X13146158Y-12804674D01*
X13146158Y-12804674D02*
X13165205Y-12795150D01*
X13165205Y-12795150D02*
X13193777Y-12795150D01*
X13193777Y-12795150D02*
X13212824Y-12804674D01*
X13212824Y-12804674D02*
X13222348Y-12823722D01*
X13222348Y-12823722D02*
X13222348Y-12928484D01*
X13317586Y-12928484D02*
X13317586Y-12795150D01*
X13317586Y-12814198D02*
X13327110Y-12804674D01*
X13327110Y-12804674D02*
X13346158Y-12795150D01*
X13346158Y-12795150D02*
X13374729Y-12795150D01*
X13374729Y-12795150D02*
X13393777Y-12804674D01*
X13393777Y-12804674D02*
X13403301Y-12823722D01*
X13403301Y-12823722D02*
X13403301Y-12928484D01*
X13403301Y-12823722D02*
X13412824Y-12804674D01*
X13412824Y-12804674D02*
X13431872Y-12795150D01*
X13431872Y-12795150D02*
X13460443Y-12795150D01*
X13460443Y-12795150D02*
X13479491Y-12804674D01*
X13479491Y-12804674D02*
X13489015Y-12823722D01*
X13489015Y-12823722D02*
X13489015Y-12928484D01*
X13879491Y-12718960D02*
X13708063Y-12976103D01*
X14136634Y-12728484D02*
X14155682Y-12728484D01*
X14155682Y-12728484D02*
X14174729Y-12738008D01*
X14174729Y-12738008D02*
X14184253Y-12747531D01*
X14184253Y-12747531D02*
X14193777Y-12766579D01*
X14193777Y-12766579D02*
X14203301Y-12804674D01*
X14203301Y-12804674D02*
X14203301Y-12852293D01*
X14203301Y-12852293D02*
X14193777Y-12890388D01*
X14193777Y-12890388D02*
X14184253Y-12909436D01*
X14184253Y-12909436D02*
X14174729Y-12918960D01*
X14174729Y-12918960D02*
X14155682Y-12928484D01*
X14155682Y-12928484D02*
X14136634Y-12928484D01*
X14136634Y-12928484D02*
X14117586Y-12918960D01*
X14117586Y-12918960D02*
X14108063Y-12909436D01*
X14108063Y-12909436D02*
X14098539Y-12890388D01*
X14098539Y-12890388D02*
X14089015Y-12852293D01*
X14089015Y-12852293D02*
X14089015Y-12804674D01*
X14089015Y-12804674D02*
X14098539Y-12766579D01*
X14098539Y-12766579D02*
X14108063Y-12747531D01*
X14108063Y-12747531D02*
X14117586Y-12738008D01*
X14117586Y-12738008D02*
X14136634Y-12728484D01*
X14289015Y-12909436D02*
X14298539Y-12918960D01*
X14298539Y-12918960D02*
X14289015Y-12928484D01*
X14289015Y-12928484D02*
X14279491Y-12918960D01*
X14279491Y-12918960D02*
X14289015Y-12909436D01*
X14289015Y-12909436D02*
X14289015Y-12928484D01*
X14422348Y-12728484D02*
X14441396Y-12728484D01*
X14441396Y-12728484D02*
X14460444Y-12738008D01*
X14460444Y-12738008D02*
X14469967Y-12747531D01*
X14469967Y-12747531D02*
X14479491Y-12766579D01*
X14479491Y-12766579D02*
X14489015Y-12804674D01*
X14489015Y-12804674D02*
X14489015Y-12852293D01*
X14489015Y-12852293D02*
X14479491Y-12890388D01*
X14479491Y-12890388D02*
X14469967Y-12909436D01*
X14469967Y-12909436D02*
X14460444Y-12918960D01*
X14460444Y-12918960D02*
X14441396Y-12928484D01*
X14441396Y-12928484D02*
X14422348Y-12928484D01*
X14422348Y-12928484D02*
X14403301Y-12918960D01*
X14403301Y-12918960D02*
X14393777Y-12909436D01*
X14393777Y-12909436D02*
X14384253Y-12890388D01*
X14384253Y-12890388D02*
X14374729Y-12852293D01*
X14374729Y-12852293D02*
X14374729Y-12804674D01*
X14374729Y-12804674D02*
X14384253Y-12766579D01*
X14384253Y-12766579D02*
X14393777Y-12747531D01*
X14393777Y-12747531D02*
X14403301Y-12738008D01*
X14403301Y-12738008D02*
X14422348Y-12728484D01*
X14679491Y-12928484D02*
X14565206Y-12928484D01*
X14622348Y-12928484D02*
X14622348Y-12728484D01*
X14622348Y-12728484D02*
X14603301Y-12757055D01*
X14603301Y-12757055D02*
X14584253Y-12776103D01*
X14584253Y-12776103D02*
X14565206Y-12785627D01*
X14860444Y-12728484D02*
X14765206Y-12728484D01*
X14765206Y-12728484D02*
X14755682Y-12823722D01*
X14755682Y-12823722D02*
X14765206Y-12814198D01*
X14765206Y-12814198D02*
X14784253Y-12804674D01*
X14784253Y-12804674D02*
X14831872Y-12804674D01*
X14831872Y-12804674D02*
X14850920Y-12814198D01*
X14850920Y-12814198D02*
X14860444Y-12823722D01*
X14860444Y-12823722D02*
X14869967Y-12842769D01*
X14869967Y-12842769D02*
X14869967Y-12890388D01*
X14869967Y-12890388D02*
X14860444Y-12909436D01*
X14860444Y-12909436D02*
X14850920Y-12918960D01*
X14850920Y-12918960D02*
X14831872Y-12928484D01*
X14831872Y-12928484D02*
X14784253Y-12928484D01*
X14784253Y-12928484D02*
X14765206Y-12918960D01*
X14765206Y-12918960D02*
X14755682Y-12909436D01*
X14936634Y-12728484D02*
X15069967Y-12728484D01*
X15069967Y-12728484D02*
X14984253Y-12928484D01*
X15136634Y-12728484D02*
X15136634Y-12766579D01*
X15212825Y-12728484D02*
X15212825Y-12766579D01*
X15508063Y-13004674D02*
X15498539Y-12995150D01*
X15498539Y-12995150D02*
X15479491Y-12966579D01*
X15479491Y-12966579D02*
X15469968Y-12947531D01*
X15469968Y-12947531D02*
X15460444Y-12918960D01*
X15460444Y-12918960D02*
X15450920Y-12871341D01*
X15450920Y-12871341D02*
X15450920Y-12833246D01*
X15450920Y-12833246D02*
X15460444Y-12785627D01*
X15460444Y-12785627D02*
X15469968Y-12757055D01*
X15469968Y-12757055D02*
X15479491Y-12738008D01*
X15479491Y-12738008D02*
X15498539Y-12709436D01*
X15498539Y-12709436D02*
X15508063Y-12699912D01*
X15689015Y-12928484D02*
X15574729Y-12928484D01*
X15631872Y-12928484D02*
X15631872Y-12728484D01*
X15631872Y-12728484D02*
X15612825Y-12757055D01*
X15612825Y-12757055D02*
X15593777Y-12776103D01*
X15593777Y-12776103D02*
X15574729Y-12785627D01*
X15812825Y-12728484D02*
X15831872Y-12728484D01*
X15831872Y-12728484D02*
X15850920Y-12738008D01*
X15850920Y-12738008D02*
X15860444Y-12747531D01*
X15860444Y-12747531D02*
X15869968Y-12766579D01*
X15869968Y-12766579D02*
X15879491Y-12804674D01*
X15879491Y-12804674D02*
X15879491Y-12852293D01*
X15879491Y-12852293D02*
X15869968Y-12890388D01*
X15869968Y-12890388D02*
X15860444Y-12909436D01*
X15860444Y-12909436D02*
X15850920Y-12918960D01*
X15850920Y-12918960D02*
X15831872Y-12928484D01*
X15831872Y-12928484D02*
X15812825Y-12928484D01*
X15812825Y-12928484D02*
X15793777Y-12918960D01*
X15793777Y-12918960D02*
X15784253Y-12909436D01*
X15784253Y-12909436D02*
X15774729Y-12890388D01*
X15774729Y-12890388D02*
X15765206Y-12852293D01*
X15765206Y-12852293D02*
X15765206Y-12804674D01*
X15765206Y-12804674D02*
X15774729Y-12766579D01*
X15774729Y-12766579D02*
X15784253Y-12747531D01*
X15784253Y-12747531D02*
X15793777Y-12738008D01*
X15793777Y-12738008D02*
X15812825Y-12728484D01*
X16050920Y-12728484D02*
X16012825Y-12728484D01*
X16012825Y-12728484D02*
X15993777Y-12738008D01*
X15993777Y-12738008D02*
X15984253Y-12747531D01*
X15984253Y-12747531D02*
X15965206Y-12776103D01*
X15965206Y-12776103D02*
X15955682Y-12814198D01*
X15955682Y-12814198D02*
X15955682Y-12890388D01*
X15955682Y-12890388D02*
X15965206Y-12909436D01*
X15965206Y-12909436D02*
X15974729Y-12918960D01*
X15974729Y-12918960D02*
X15993777Y-12928484D01*
X15993777Y-12928484D02*
X16031872Y-12928484D01*
X16031872Y-12928484D02*
X16050920Y-12918960D01*
X16050920Y-12918960D02*
X16060444Y-12909436D01*
X16060444Y-12909436D02*
X16069968Y-12890388D01*
X16069968Y-12890388D02*
X16069968Y-12842769D01*
X16069968Y-12842769D02*
X16060444Y-12823722D01*
X16060444Y-12823722D02*
X16050920Y-12814198D01*
X16050920Y-12814198D02*
X16031872Y-12804674D01*
X16031872Y-12804674D02*
X15993777Y-12804674D01*
X15993777Y-12804674D02*
X15974729Y-12814198D01*
X15974729Y-12814198D02*
X15965206Y-12823722D01*
X15965206Y-12823722D02*
X15955682Y-12842769D01*
X16308063Y-12928484D02*
X16308063Y-12728484D01*
X16393777Y-12928484D02*
X16393777Y-12823722D01*
X16393777Y-12823722D02*
X16384253Y-12804674D01*
X16384253Y-12804674D02*
X16365206Y-12795150D01*
X16365206Y-12795150D02*
X16336634Y-12795150D01*
X16336634Y-12795150D02*
X16317587Y-12804674D01*
X16317587Y-12804674D02*
X16308063Y-12814198D01*
X16517587Y-12928484D02*
X16498539Y-12918960D01*
X16498539Y-12918960D02*
X16489015Y-12909436D01*
X16489015Y-12909436D02*
X16479491Y-12890388D01*
X16479491Y-12890388D02*
X16479491Y-12833246D01*
X16479491Y-12833246D02*
X16489015Y-12814198D01*
X16489015Y-12814198D02*
X16498539Y-12804674D01*
X16498539Y-12804674D02*
X16517587Y-12795150D01*
X16517587Y-12795150D02*
X16546158Y-12795150D01*
X16546158Y-12795150D02*
X16565206Y-12804674D01*
X16565206Y-12804674D02*
X16574730Y-12814198D01*
X16574730Y-12814198D02*
X16584253Y-12833246D01*
X16584253Y-12833246D02*
X16584253Y-12890388D01*
X16584253Y-12890388D02*
X16574730Y-12909436D01*
X16574730Y-12909436D02*
X16565206Y-12918960D01*
X16565206Y-12918960D02*
X16546158Y-12928484D01*
X16546158Y-12928484D02*
X16517587Y-12928484D01*
X16698539Y-12928484D02*
X16679491Y-12918960D01*
X16679491Y-12918960D02*
X16669968Y-12899912D01*
X16669968Y-12899912D02*
X16669968Y-12728484D01*
X16850920Y-12918960D02*
X16831873Y-12928484D01*
X16831873Y-12928484D02*
X16793777Y-12928484D01*
X16793777Y-12928484D02*
X16774730Y-12918960D01*
X16774730Y-12918960D02*
X16765206Y-12899912D01*
X16765206Y-12899912D02*
X16765206Y-12823722D01*
X16765206Y-12823722D02*
X16774730Y-12804674D01*
X16774730Y-12804674D02*
X16793777Y-12795150D01*
X16793777Y-12795150D02*
X16831873Y-12795150D01*
X16831873Y-12795150D02*
X16850920Y-12804674D01*
X16850920Y-12804674D02*
X16860444Y-12823722D01*
X16860444Y-12823722D02*
X16860444Y-12842769D01*
X16860444Y-12842769D02*
X16765206Y-12861817D01*
X16936634Y-12918960D02*
X16955682Y-12928484D01*
X16955682Y-12928484D02*
X16993777Y-12928484D01*
X16993777Y-12928484D02*
X17012825Y-12918960D01*
X17012825Y-12918960D02*
X17022349Y-12899912D01*
X17022349Y-12899912D02*
X17022349Y-12890388D01*
X17022349Y-12890388D02*
X17012825Y-12871341D01*
X17012825Y-12871341D02*
X16993777Y-12861817D01*
X16993777Y-12861817D02*
X16965206Y-12861817D01*
X16965206Y-12861817D02*
X16946158Y-12852293D01*
X16946158Y-12852293D02*
X16936634Y-12833246D01*
X16936634Y-12833246D02*
X16936634Y-12823722D01*
X16936634Y-12823722D02*
X16946158Y-12804674D01*
X16946158Y-12804674D02*
X16965206Y-12795150D01*
X16965206Y-12795150D02*
X16993777Y-12795150D01*
X16993777Y-12795150D02*
X17012825Y-12804674D01*
X17089015Y-13004674D02*
X17098539Y-12995150D01*
X17098539Y-12995150D02*
X17117587Y-12966579D01*
X17117587Y-12966579D02*
X17127111Y-12947531D01*
X17127111Y-12947531D02*
X17136634Y-12918960D01*
X17136634Y-12918960D02*
X17146158Y-12871341D01*
X17146158Y-12871341D02*
X17146158Y-12833246D01*
X17146158Y-12833246D02*
X17136634Y-12785627D01*
X17136634Y-12785627D02*
X17127111Y-12757055D01*
X17127111Y-12757055D02*
X17117587Y-12738008D01*
X17117587Y-12738008D02*
X17098539Y-12709436D01*
X17098539Y-12709436D02*
X17089015Y-12699912D01*
D13*
X11933000Y-13101000D02*
G75*
G03*
X11933000Y-13101000I-37500J0D01*
G01*
D11*
X12231872Y-12992484D02*
X12250920Y-12992484D01*
X12250920Y-12992484D02*
X12269967Y-13002008D01*
X12269967Y-13002008D02*
X12279491Y-13011531D01*
X12279491Y-13011531D02*
X12289015Y-13030579D01*
X12289015Y-13030579D02*
X12298539Y-13068674D01*
X12298539Y-13068674D02*
X12298539Y-13116293D01*
X12298539Y-13116293D02*
X12289015Y-13154388D01*
X12289015Y-13154388D02*
X12279491Y-13173436D01*
X12279491Y-13173436D02*
X12269967Y-13182960D01*
X12269967Y-13182960D02*
X12250920Y-13192484D01*
X12250920Y-13192484D02*
X12231872Y-13192484D01*
X12231872Y-13192484D02*
X12212824Y-13182960D01*
X12212824Y-13182960D02*
X12203301Y-13173436D01*
X12203301Y-13173436D02*
X12193777Y-13154388D01*
X12193777Y-13154388D02*
X12184253Y-13116293D01*
X12184253Y-13116293D02*
X12184253Y-13068674D01*
X12184253Y-13068674D02*
X12193777Y-13030579D01*
X12193777Y-13030579D02*
X12203301Y-13011531D01*
X12203301Y-13011531D02*
X12212824Y-13002008D01*
X12212824Y-13002008D02*
X12231872Y-12992484D01*
X12384253Y-13173436D02*
X12393777Y-13182960D01*
X12393777Y-13182960D02*
X12384253Y-13192484D01*
X12384253Y-13192484D02*
X12374729Y-13182960D01*
X12374729Y-13182960D02*
X12384253Y-13173436D01*
X12384253Y-13173436D02*
X12384253Y-13192484D01*
X12460443Y-12992484D02*
X12593777Y-12992484D01*
X12593777Y-12992484D02*
X12508062Y-13192484D01*
X12765205Y-12992484D02*
X12669967Y-12992484D01*
X12669967Y-12992484D02*
X12660443Y-13087722D01*
X12660443Y-13087722D02*
X12669967Y-13078198D01*
X12669967Y-13078198D02*
X12689015Y-13068674D01*
X12689015Y-13068674D02*
X12736634Y-13068674D01*
X12736634Y-13068674D02*
X12755682Y-13078198D01*
X12755682Y-13078198D02*
X12765205Y-13087722D01*
X12765205Y-13087722D02*
X12774729Y-13106769D01*
X12774729Y-13106769D02*
X12774729Y-13154388D01*
X12774729Y-13154388D02*
X12765205Y-13173436D01*
X12765205Y-13173436D02*
X12755682Y-13182960D01*
X12755682Y-13182960D02*
X12736634Y-13192484D01*
X12736634Y-13192484D02*
X12689015Y-13192484D01*
X12689015Y-13192484D02*
X12669967Y-13182960D01*
X12669967Y-13182960D02*
X12660443Y-13173436D01*
X12898539Y-12992484D02*
X12917586Y-12992484D01*
X12917586Y-12992484D02*
X12936634Y-13002008D01*
X12936634Y-13002008D02*
X12946158Y-13011531D01*
X12946158Y-13011531D02*
X12955682Y-13030579D01*
X12955682Y-13030579D02*
X12965205Y-13068674D01*
X12965205Y-13068674D02*
X12965205Y-13116293D01*
X12965205Y-13116293D02*
X12955682Y-13154388D01*
X12955682Y-13154388D02*
X12946158Y-13173436D01*
X12946158Y-13173436D02*
X12936634Y-13182960D01*
X12936634Y-13182960D02*
X12917586Y-13192484D01*
X12917586Y-13192484D02*
X12898539Y-13192484D01*
X12898539Y-13192484D02*
X12879491Y-13182960D01*
X12879491Y-13182960D02*
X12869967Y-13173436D01*
X12869967Y-13173436D02*
X12860443Y-13154388D01*
X12860443Y-13154388D02*
X12850920Y-13116293D01*
X12850920Y-13116293D02*
X12850920Y-13068674D01*
X12850920Y-13068674D02*
X12860443Y-13030579D01*
X12860443Y-13030579D02*
X12869967Y-13011531D01*
X12869967Y-13011531D02*
X12879491Y-13002008D01*
X12879491Y-13002008D02*
X12898539Y-12992484D01*
X13050920Y-13192484D02*
X13050920Y-13059150D01*
X13050920Y-13078198D02*
X13060443Y-13068674D01*
X13060443Y-13068674D02*
X13079491Y-13059150D01*
X13079491Y-13059150D02*
X13108063Y-13059150D01*
X13108063Y-13059150D02*
X13127110Y-13068674D01*
X13127110Y-13068674D02*
X13136634Y-13087722D01*
X13136634Y-13087722D02*
X13136634Y-13192484D01*
X13136634Y-13087722D02*
X13146158Y-13068674D01*
X13146158Y-13068674D02*
X13165205Y-13059150D01*
X13165205Y-13059150D02*
X13193777Y-13059150D01*
X13193777Y-13059150D02*
X13212824Y-13068674D01*
X13212824Y-13068674D02*
X13222348Y-13087722D01*
X13222348Y-13087722D02*
X13222348Y-13192484D01*
X13317586Y-13192484D02*
X13317586Y-13059150D01*
X13317586Y-13078198D02*
X13327110Y-13068674D01*
X13327110Y-13068674D02*
X13346158Y-13059150D01*
X13346158Y-13059150D02*
X13374729Y-13059150D01*
X13374729Y-13059150D02*
X13393777Y-13068674D01*
X13393777Y-13068674D02*
X13403301Y-13087722D01*
X13403301Y-13087722D02*
X13403301Y-13192484D01*
X13403301Y-13087722D02*
X13412824Y-13068674D01*
X13412824Y-13068674D02*
X13431872Y-13059150D01*
X13431872Y-13059150D02*
X13460443Y-13059150D01*
X13460443Y-13059150D02*
X13479491Y-13068674D01*
X13479491Y-13068674D02*
X13489015Y-13087722D01*
X13489015Y-13087722D02*
X13489015Y-13192484D01*
X13879491Y-12982960D02*
X13708063Y-13240103D01*
X14136634Y-12992484D02*
X14155682Y-12992484D01*
X14155682Y-12992484D02*
X14174729Y-13002008D01*
X14174729Y-13002008D02*
X14184253Y-13011531D01*
X14184253Y-13011531D02*
X14193777Y-13030579D01*
X14193777Y-13030579D02*
X14203301Y-13068674D01*
X14203301Y-13068674D02*
X14203301Y-13116293D01*
X14203301Y-13116293D02*
X14193777Y-13154388D01*
X14193777Y-13154388D02*
X14184253Y-13173436D01*
X14184253Y-13173436D02*
X14174729Y-13182960D01*
X14174729Y-13182960D02*
X14155682Y-13192484D01*
X14155682Y-13192484D02*
X14136634Y-13192484D01*
X14136634Y-13192484D02*
X14117586Y-13182960D01*
X14117586Y-13182960D02*
X14108063Y-13173436D01*
X14108063Y-13173436D02*
X14098539Y-13154388D01*
X14098539Y-13154388D02*
X14089015Y-13116293D01*
X14089015Y-13116293D02*
X14089015Y-13068674D01*
X14089015Y-13068674D02*
X14098539Y-13030579D01*
X14098539Y-13030579D02*
X14108063Y-13011531D01*
X14108063Y-13011531D02*
X14117586Y-13002008D01*
X14117586Y-13002008D02*
X14136634Y-12992484D01*
X14289015Y-13173436D02*
X14298539Y-13182960D01*
X14298539Y-13182960D02*
X14289015Y-13192484D01*
X14289015Y-13192484D02*
X14279491Y-13182960D01*
X14279491Y-13182960D02*
X14289015Y-13173436D01*
X14289015Y-13173436D02*
X14289015Y-13192484D01*
X14422348Y-12992484D02*
X14441396Y-12992484D01*
X14441396Y-12992484D02*
X14460444Y-13002008D01*
X14460444Y-13002008D02*
X14469967Y-13011531D01*
X14469967Y-13011531D02*
X14479491Y-13030579D01*
X14479491Y-13030579D02*
X14489015Y-13068674D01*
X14489015Y-13068674D02*
X14489015Y-13116293D01*
X14489015Y-13116293D02*
X14479491Y-13154388D01*
X14479491Y-13154388D02*
X14469967Y-13173436D01*
X14469967Y-13173436D02*
X14460444Y-13182960D01*
X14460444Y-13182960D02*
X14441396Y-13192484D01*
X14441396Y-13192484D02*
X14422348Y-13192484D01*
X14422348Y-13192484D02*
X14403301Y-13182960D01*
X14403301Y-13182960D02*
X14393777Y-13173436D01*
X14393777Y-13173436D02*
X14384253Y-13154388D01*
X14384253Y-13154388D02*
X14374729Y-13116293D01*
X14374729Y-13116293D02*
X14374729Y-13068674D01*
X14374729Y-13068674D02*
X14384253Y-13030579D01*
X14384253Y-13030579D02*
X14393777Y-13011531D01*
X14393777Y-13011531D02*
X14403301Y-13002008D01*
X14403301Y-13002008D02*
X14422348Y-12992484D01*
X14565206Y-13011531D02*
X14574729Y-13002008D01*
X14574729Y-13002008D02*
X14593777Y-12992484D01*
X14593777Y-12992484D02*
X14641396Y-12992484D01*
X14641396Y-12992484D02*
X14660444Y-13002008D01*
X14660444Y-13002008D02*
X14669967Y-13011531D01*
X14669967Y-13011531D02*
X14679491Y-13030579D01*
X14679491Y-13030579D02*
X14679491Y-13049627D01*
X14679491Y-13049627D02*
X14669967Y-13078198D01*
X14669967Y-13078198D02*
X14555682Y-13192484D01*
X14555682Y-13192484D02*
X14679491Y-13192484D01*
X14774729Y-13192484D02*
X14812825Y-13192484D01*
X14812825Y-13192484D02*
X14831872Y-13182960D01*
X14831872Y-13182960D02*
X14841396Y-13173436D01*
X14841396Y-13173436D02*
X14860444Y-13144865D01*
X14860444Y-13144865D02*
X14869967Y-13106769D01*
X14869967Y-13106769D02*
X14869967Y-13030579D01*
X14869967Y-13030579D02*
X14860444Y-13011531D01*
X14860444Y-13011531D02*
X14850920Y-13002008D01*
X14850920Y-13002008D02*
X14831872Y-12992484D01*
X14831872Y-12992484D02*
X14793777Y-12992484D01*
X14793777Y-12992484D02*
X14774729Y-13002008D01*
X14774729Y-13002008D02*
X14765206Y-13011531D01*
X14765206Y-13011531D02*
X14755682Y-13030579D01*
X14755682Y-13030579D02*
X14755682Y-13078198D01*
X14755682Y-13078198D02*
X14765206Y-13097246D01*
X14765206Y-13097246D02*
X14774729Y-13106769D01*
X14774729Y-13106769D02*
X14793777Y-13116293D01*
X14793777Y-13116293D02*
X14831872Y-13116293D01*
X14831872Y-13116293D02*
X14850920Y-13106769D01*
X14850920Y-13106769D02*
X14860444Y-13097246D01*
X14860444Y-13097246D02*
X14869967Y-13078198D01*
X15050920Y-12992484D02*
X14955682Y-12992484D01*
X14955682Y-12992484D02*
X14946158Y-13087722D01*
X14946158Y-13087722D02*
X14955682Y-13078198D01*
X14955682Y-13078198D02*
X14974729Y-13068674D01*
X14974729Y-13068674D02*
X15022348Y-13068674D01*
X15022348Y-13068674D02*
X15041396Y-13078198D01*
X15041396Y-13078198D02*
X15050920Y-13087722D01*
X15050920Y-13087722D02*
X15060444Y-13106769D01*
X15060444Y-13106769D02*
X15060444Y-13154388D01*
X15060444Y-13154388D02*
X15050920Y-13173436D01*
X15050920Y-13173436D02*
X15041396Y-13182960D01*
X15041396Y-13182960D02*
X15022348Y-13192484D01*
X15022348Y-13192484D02*
X14974729Y-13192484D01*
X14974729Y-13192484D02*
X14955682Y-13182960D01*
X14955682Y-13182960D02*
X14946158Y-13173436D01*
X15136634Y-12992484D02*
X15136634Y-13030579D01*
X15212825Y-12992484D02*
X15212825Y-13030579D01*
X15508063Y-13268674D02*
X15498539Y-13259150D01*
X15498539Y-13259150D02*
X15479491Y-13230579D01*
X15479491Y-13230579D02*
X15469968Y-13211531D01*
X15469968Y-13211531D02*
X15460444Y-13182960D01*
X15460444Y-13182960D02*
X15450920Y-13135341D01*
X15450920Y-13135341D02*
X15450920Y-13097246D01*
X15450920Y-13097246D02*
X15460444Y-13049627D01*
X15460444Y-13049627D02*
X15469968Y-13021055D01*
X15469968Y-13021055D02*
X15479491Y-13002008D01*
X15479491Y-13002008D02*
X15498539Y-12973436D01*
X15498539Y-12973436D02*
X15508063Y-12963912D01*
X15689015Y-13192484D02*
X15574729Y-13192484D01*
X15631872Y-13192484D02*
X15631872Y-12992484D01*
X15631872Y-12992484D02*
X15612825Y-13021055D01*
X15612825Y-13021055D02*
X15593777Y-13040103D01*
X15593777Y-13040103D02*
X15574729Y-13049627D01*
X15860444Y-12992484D02*
X15822348Y-12992484D01*
X15822348Y-12992484D02*
X15803301Y-13002008D01*
X15803301Y-13002008D02*
X15793777Y-13011531D01*
X15793777Y-13011531D02*
X15774729Y-13040103D01*
X15774729Y-13040103D02*
X15765206Y-13078198D01*
X15765206Y-13078198D02*
X15765206Y-13154388D01*
X15765206Y-13154388D02*
X15774729Y-13173436D01*
X15774729Y-13173436D02*
X15784253Y-13182960D01*
X15784253Y-13182960D02*
X15803301Y-13192484D01*
X15803301Y-13192484D02*
X15841396Y-13192484D01*
X15841396Y-13192484D02*
X15860444Y-13182960D01*
X15860444Y-13182960D02*
X15869968Y-13173436D01*
X15869968Y-13173436D02*
X15879491Y-13154388D01*
X15879491Y-13154388D02*
X15879491Y-13106769D01*
X15879491Y-13106769D02*
X15869968Y-13087722D01*
X15869968Y-13087722D02*
X15860444Y-13078198D01*
X15860444Y-13078198D02*
X15841396Y-13068674D01*
X15841396Y-13068674D02*
X15803301Y-13068674D01*
X15803301Y-13068674D02*
X15784253Y-13078198D01*
X15784253Y-13078198D02*
X15774729Y-13087722D01*
X15774729Y-13087722D02*
X15765206Y-13106769D01*
X16117587Y-13192484D02*
X16117587Y-12992484D01*
X16203301Y-13192484D02*
X16203301Y-13087722D01*
X16203301Y-13087722D02*
X16193777Y-13068674D01*
X16193777Y-13068674D02*
X16174730Y-13059150D01*
X16174730Y-13059150D02*
X16146158Y-13059150D01*
X16146158Y-13059150D02*
X16127110Y-13068674D01*
X16127110Y-13068674D02*
X16117587Y-13078198D01*
X16327110Y-13192484D02*
X16308063Y-13182960D01*
X16308063Y-13182960D02*
X16298539Y-13173436D01*
X16298539Y-13173436D02*
X16289015Y-13154388D01*
X16289015Y-13154388D02*
X16289015Y-13097246D01*
X16289015Y-13097246D02*
X16298539Y-13078198D01*
X16298539Y-13078198D02*
X16308063Y-13068674D01*
X16308063Y-13068674D02*
X16327110Y-13059150D01*
X16327110Y-13059150D02*
X16355682Y-13059150D01*
X16355682Y-13059150D02*
X16374730Y-13068674D01*
X16374730Y-13068674D02*
X16384253Y-13078198D01*
X16384253Y-13078198D02*
X16393777Y-13097246D01*
X16393777Y-13097246D02*
X16393777Y-13154388D01*
X16393777Y-13154388D02*
X16384253Y-13173436D01*
X16384253Y-13173436D02*
X16374730Y-13182960D01*
X16374730Y-13182960D02*
X16355682Y-13192484D01*
X16355682Y-13192484D02*
X16327110Y-13192484D01*
X16508063Y-13192484D02*
X16489015Y-13182960D01*
X16489015Y-13182960D02*
X16479491Y-13163912D01*
X16479491Y-13163912D02*
X16479491Y-12992484D01*
X16660444Y-13182960D02*
X16641396Y-13192484D01*
X16641396Y-13192484D02*
X16603301Y-13192484D01*
X16603301Y-13192484D02*
X16584253Y-13182960D01*
X16584253Y-13182960D02*
X16574730Y-13163912D01*
X16574730Y-13163912D02*
X16574730Y-13087722D01*
X16574730Y-13087722D02*
X16584253Y-13068674D01*
X16584253Y-13068674D02*
X16603301Y-13059150D01*
X16603301Y-13059150D02*
X16641396Y-13059150D01*
X16641396Y-13059150D02*
X16660444Y-13068674D01*
X16660444Y-13068674D02*
X16669968Y-13087722D01*
X16669968Y-13087722D02*
X16669968Y-13106769D01*
X16669968Y-13106769D02*
X16574730Y-13125817D01*
X16746158Y-13182960D02*
X16765206Y-13192484D01*
X16765206Y-13192484D02*
X16803301Y-13192484D01*
X16803301Y-13192484D02*
X16822349Y-13182960D01*
X16822349Y-13182960D02*
X16831873Y-13163912D01*
X16831873Y-13163912D02*
X16831873Y-13154388D01*
X16831873Y-13154388D02*
X16822349Y-13135341D01*
X16822349Y-13135341D02*
X16803301Y-13125817D01*
X16803301Y-13125817D02*
X16774730Y-13125817D01*
X16774730Y-13125817D02*
X16755682Y-13116293D01*
X16755682Y-13116293D02*
X16746158Y-13097246D01*
X16746158Y-13097246D02*
X16746158Y-13087722D01*
X16746158Y-13087722D02*
X16755682Y-13068674D01*
X16755682Y-13068674D02*
X16774730Y-13059150D01*
X16774730Y-13059150D02*
X16803301Y-13059150D01*
X16803301Y-13059150D02*
X16822349Y-13068674D01*
X16898539Y-13268674D02*
X16908063Y-13259150D01*
X16908063Y-13259150D02*
X16927111Y-13230579D01*
X16927111Y-13230579D02*
X16936634Y-13211531D01*
X16936634Y-13211531D02*
X16946158Y-13182960D01*
X16946158Y-13182960D02*
X16955682Y-13135341D01*
X16955682Y-13135341D02*
X16955682Y-13097246D01*
X16955682Y-13097246D02*
X16946158Y-13049627D01*
X16946158Y-13049627D02*
X16936634Y-13021055D01*
X16936634Y-13021055D02*
X16927111Y-13002008D01*
X16927111Y-13002008D02*
X16908063Y-12973436D01*
X16908063Y-12973436D02*
X16898539Y-12963912D01*
D14*
X11893000Y-13325000D02*
X11893000Y-13405000D01*
X11853000Y-13365000D02*
X11933000Y-13365000D01*
D11*
X12231872Y-13256484D02*
X12250920Y-13256484D01*
X12250920Y-13256484D02*
X12269967Y-13266008D01*
X12269967Y-13266008D02*
X12279491Y-13275531D01*
X12279491Y-13275531D02*
X12289015Y-13294579D01*
X12289015Y-13294579D02*
X12298539Y-13332674D01*
X12298539Y-13332674D02*
X12298539Y-13380293D01*
X12298539Y-13380293D02*
X12289015Y-13418388D01*
X12289015Y-13418388D02*
X12279491Y-13437436D01*
X12279491Y-13437436D02*
X12269967Y-13446960D01*
X12269967Y-13446960D02*
X12250920Y-13456484D01*
X12250920Y-13456484D02*
X12231872Y-13456484D01*
X12231872Y-13456484D02*
X12212824Y-13446960D01*
X12212824Y-13446960D02*
X12203301Y-13437436D01*
X12203301Y-13437436D02*
X12193777Y-13418388D01*
X12193777Y-13418388D02*
X12184253Y-13380293D01*
X12184253Y-13380293D02*
X12184253Y-13332674D01*
X12184253Y-13332674D02*
X12193777Y-13294579D01*
X12193777Y-13294579D02*
X12203301Y-13275531D01*
X12203301Y-13275531D02*
X12212824Y-13266008D01*
X12212824Y-13266008D02*
X12231872Y-13256484D01*
X12384253Y-13437436D02*
X12393777Y-13446960D01*
X12393777Y-13446960D02*
X12384253Y-13456484D01*
X12384253Y-13456484D02*
X12374729Y-13446960D01*
X12374729Y-13446960D02*
X12384253Y-13437436D01*
X12384253Y-13437436D02*
X12384253Y-13456484D01*
X12508062Y-13342198D02*
X12489015Y-13332674D01*
X12489015Y-13332674D02*
X12479491Y-13323150D01*
X12479491Y-13323150D02*
X12469967Y-13304103D01*
X12469967Y-13304103D02*
X12469967Y-13294579D01*
X12469967Y-13294579D02*
X12479491Y-13275531D01*
X12479491Y-13275531D02*
X12489015Y-13266008D01*
X12489015Y-13266008D02*
X12508062Y-13256484D01*
X12508062Y-13256484D02*
X12546158Y-13256484D01*
X12546158Y-13256484D02*
X12565205Y-13266008D01*
X12565205Y-13266008D02*
X12574729Y-13275531D01*
X12574729Y-13275531D02*
X12584253Y-13294579D01*
X12584253Y-13294579D02*
X12584253Y-13304103D01*
X12584253Y-13304103D02*
X12574729Y-13323150D01*
X12574729Y-13323150D02*
X12565205Y-13332674D01*
X12565205Y-13332674D02*
X12546158Y-13342198D01*
X12546158Y-13342198D02*
X12508062Y-13342198D01*
X12508062Y-13342198D02*
X12489015Y-13351722D01*
X12489015Y-13351722D02*
X12479491Y-13361246D01*
X12479491Y-13361246D02*
X12469967Y-13380293D01*
X12469967Y-13380293D02*
X12469967Y-13418388D01*
X12469967Y-13418388D02*
X12479491Y-13437436D01*
X12479491Y-13437436D02*
X12489015Y-13446960D01*
X12489015Y-13446960D02*
X12508062Y-13456484D01*
X12508062Y-13456484D02*
X12546158Y-13456484D01*
X12546158Y-13456484D02*
X12565205Y-13446960D01*
X12565205Y-13446960D02*
X12574729Y-13437436D01*
X12574729Y-13437436D02*
X12584253Y-13418388D01*
X12584253Y-13418388D02*
X12584253Y-13380293D01*
X12584253Y-13380293D02*
X12574729Y-13361246D01*
X12574729Y-13361246D02*
X12565205Y-13351722D01*
X12565205Y-13351722D02*
X12546158Y-13342198D01*
X12708062Y-13256484D02*
X12727110Y-13256484D01*
X12727110Y-13256484D02*
X12746158Y-13266008D01*
X12746158Y-13266008D02*
X12755682Y-13275531D01*
X12755682Y-13275531D02*
X12765205Y-13294579D01*
X12765205Y-13294579D02*
X12774729Y-13332674D01*
X12774729Y-13332674D02*
X12774729Y-13380293D01*
X12774729Y-13380293D02*
X12765205Y-13418388D01*
X12765205Y-13418388D02*
X12755682Y-13437436D01*
X12755682Y-13437436D02*
X12746158Y-13446960D01*
X12746158Y-13446960D02*
X12727110Y-13456484D01*
X12727110Y-13456484D02*
X12708062Y-13456484D01*
X12708062Y-13456484D02*
X12689015Y-13446960D01*
X12689015Y-13446960D02*
X12679491Y-13437436D01*
X12679491Y-13437436D02*
X12669967Y-13418388D01*
X12669967Y-13418388D02*
X12660443Y-13380293D01*
X12660443Y-13380293D02*
X12660443Y-13332674D01*
X12660443Y-13332674D02*
X12669967Y-13294579D01*
X12669967Y-13294579D02*
X12679491Y-13275531D01*
X12679491Y-13275531D02*
X12689015Y-13266008D01*
X12689015Y-13266008D02*
X12708062Y-13256484D01*
X12898539Y-13256484D02*
X12917586Y-13256484D01*
X12917586Y-13256484D02*
X12936634Y-13266008D01*
X12936634Y-13266008D02*
X12946158Y-13275531D01*
X12946158Y-13275531D02*
X12955682Y-13294579D01*
X12955682Y-13294579D02*
X12965205Y-13332674D01*
X12965205Y-13332674D02*
X12965205Y-13380293D01*
X12965205Y-13380293D02*
X12955682Y-13418388D01*
X12955682Y-13418388D02*
X12946158Y-13437436D01*
X12946158Y-13437436D02*
X12936634Y-13446960D01*
X12936634Y-13446960D02*
X12917586Y-13456484D01*
X12917586Y-13456484D02*
X12898539Y-13456484D01*
X12898539Y-13456484D02*
X12879491Y-13446960D01*
X12879491Y-13446960D02*
X12869967Y-13437436D01*
X12869967Y-13437436D02*
X12860443Y-13418388D01*
X12860443Y-13418388D02*
X12850920Y-13380293D01*
X12850920Y-13380293D02*
X12850920Y-13332674D01*
X12850920Y-13332674D02*
X12860443Y-13294579D01*
X12860443Y-13294579D02*
X12869967Y-13275531D01*
X12869967Y-13275531D02*
X12879491Y-13266008D01*
X12879491Y-13266008D02*
X12898539Y-13256484D01*
X13050920Y-13456484D02*
X13050920Y-13323150D01*
X13050920Y-13342198D02*
X13060443Y-13332674D01*
X13060443Y-13332674D02*
X13079491Y-13323150D01*
X13079491Y-13323150D02*
X13108063Y-13323150D01*
X13108063Y-13323150D02*
X13127110Y-13332674D01*
X13127110Y-13332674D02*
X13136634Y-13351722D01*
X13136634Y-13351722D02*
X13136634Y-13456484D01*
X13136634Y-13351722D02*
X13146158Y-13332674D01*
X13146158Y-13332674D02*
X13165205Y-13323150D01*
X13165205Y-13323150D02*
X13193777Y-13323150D01*
X13193777Y-13323150D02*
X13212824Y-13332674D01*
X13212824Y-13332674D02*
X13222348Y-13351722D01*
X13222348Y-13351722D02*
X13222348Y-13456484D01*
X13317586Y-13456484D02*
X13317586Y-13323150D01*
X13317586Y-13342198D02*
X13327110Y-13332674D01*
X13327110Y-13332674D02*
X13346158Y-13323150D01*
X13346158Y-13323150D02*
X13374729Y-13323150D01*
X13374729Y-13323150D02*
X13393777Y-13332674D01*
X13393777Y-13332674D02*
X13403301Y-13351722D01*
X13403301Y-13351722D02*
X13403301Y-13456484D01*
X13403301Y-13351722D02*
X13412824Y-13332674D01*
X13412824Y-13332674D02*
X13431872Y-13323150D01*
X13431872Y-13323150D02*
X13460443Y-13323150D01*
X13460443Y-13323150D02*
X13479491Y-13332674D01*
X13479491Y-13332674D02*
X13489015Y-13351722D01*
X13489015Y-13351722D02*
X13489015Y-13456484D01*
X13879491Y-13246960D02*
X13708063Y-13504103D01*
X14136634Y-13256484D02*
X14155682Y-13256484D01*
X14155682Y-13256484D02*
X14174729Y-13266008D01*
X14174729Y-13266008D02*
X14184253Y-13275531D01*
X14184253Y-13275531D02*
X14193777Y-13294579D01*
X14193777Y-13294579D02*
X14203301Y-13332674D01*
X14203301Y-13332674D02*
X14203301Y-13380293D01*
X14203301Y-13380293D02*
X14193777Y-13418388D01*
X14193777Y-13418388D02*
X14184253Y-13437436D01*
X14184253Y-13437436D02*
X14174729Y-13446960D01*
X14174729Y-13446960D02*
X14155682Y-13456484D01*
X14155682Y-13456484D02*
X14136634Y-13456484D01*
X14136634Y-13456484D02*
X14117586Y-13446960D01*
X14117586Y-13446960D02*
X14108063Y-13437436D01*
X14108063Y-13437436D02*
X14098539Y-13418388D01*
X14098539Y-13418388D02*
X14089015Y-13380293D01*
X14089015Y-13380293D02*
X14089015Y-13332674D01*
X14089015Y-13332674D02*
X14098539Y-13294579D01*
X14098539Y-13294579D02*
X14108063Y-13275531D01*
X14108063Y-13275531D02*
X14117586Y-13266008D01*
X14117586Y-13266008D02*
X14136634Y-13256484D01*
X14289015Y-13437436D02*
X14298539Y-13446960D01*
X14298539Y-13446960D02*
X14289015Y-13456484D01*
X14289015Y-13456484D02*
X14279491Y-13446960D01*
X14279491Y-13446960D02*
X14289015Y-13437436D01*
X14289015Y-13437436D02*
X14289015Y-13456484D01*
X14422348Y-13256484D02*
X14441396Y-13256484D01*
X14441396Y-13256484D02*
X14460444Y-13266008D01*
X14460444Y-13266008D02*
X14469967Y-13275531D01*
X14469967Y-13275531D02*
X14479491Y-13294579D01*
X14479491Y-13294579D02*
X14489015Y-13332674D01*
X14489015Y-13332674D02*
X14489015Y-13380293D01*
X14489015Y-13380293D02*
X14479491Y-13418388D01*
X14479491Y-13418388D02*
X14469967Y-13437436D01*
X14469967Y-13437436D02*
X14460444Y-13446960D01*
X14460444Y-13446960D02*
X14441396Y-13456484D01*
X14441396Y-13456484D02*
X14422348Y-13456484D01*
X14422348Y-13456484D02*
X14403301Y-13446960D01*
X14403301Y-13446960D02*
X14393777Y-13437436D01*
X14393777Y-13437436D02*
X14384253Y-13418388D01*
X14384253Y-13418388D02*
X14374729Y-13380293D01*
X14374729Y-13380293D02*
X14374729Y-13332674D01*
X14374729Y-13332674D02*
X14384253Y-13294579D01*
X14384253Y-13294579D02*
X14393777Y-13275531D01*
X14393777Y-13275531D02*
X14403301Y-13266008D01*
X14403301Y-13266008D02*
X14422348Y-13256484D01*
X14555682Y-13256484D02*
X14679491Y-13256484D01*
X14679491Y-13256484D02*
X14612825Y-13332674D01*
X14612825Y-13332674D02*
X14641396Y-13332674D01*
X14641396Y-13332674D02*
X14660444Y-13342198D01*
X14660444Y-13342198D02*
X14669967Y-13351722D01*
X14669967Y-13351722D02*
X14679491Y-13370769D01*
X14679491Y-13370769D02*
X14679491Y-13418388D01*
X14679491Y-13418388D02*
X14669967Y-13437436D01*
X14669967Y-13437436D02*
X14660444Y-13446960D01*
X14660444Y-13446960D02*
X14641396Y-13456484D01*
X14641396Y-13456484D02*
X14584253Y-13456484D01*
X14584253Y-13456484D02*
X14565206Y-13446960D01*
X14565206Y-13446960D02*
X14555682Y-13437436D01*
X14869967Y-13456484D02*
X14755682Y-13456484D01*
X14812825Y-13456484D02*
X14812825Y-13256484D01*
X14812825Y-13256484D02*
X14793777Y-13285055D01*
X14793777Y-13285055D02*
X14774729Y-13304103D01*
X14774729Y-13304103D02*
X14755682Y-13313627D01*
X15050920Y-13256484D02*
X14955682Y-13256484D01*
X14955682Y-13256484D02*
X14946158Y-13351722D01*
X14946158Y-13351722D02*
X14955682Y-13342198D01*
X14955682Y-13342198D02*
X14974729Y-13332674D01*
X14974729Y-13332674D02*
X15022348Y-13332674D01*
X15022348Y-13332674D02*
X15041396Y-13342198D01*
X15041396Y-13342198D02*
X15050920Y-13351722D01*
X15050920Y-13351722D02*
X15060444Y-13370769D01*
X15060444Y-13370769D02*
X15060444Y-13418388D01*
X15060444Y-13418388D02*
X15050920Y-13437436D01*
X15050920Y-13437436D02*
X15041396Y-13446960D01*
X15041396Y-13446960D02*
X15022348Y-13456484D01*
X15022348Y-13456484D02*
X14974729Y-13456484D01*
X14974729Y-13456484D02*
X14955682Y-13446960D01*
X14955682Y-13446960D02*
X14946158Y-13437436D01*
X15136634Y-13256484D02*
X15136634Y-13294579D01*
X15212825Y-13256484D02*
X15212825Y-13294579D01*
X15508063Y-13532674D02*
X15498539Y-13523150D01*
X15498539Y-13523150D02*
X15479491Y-13494579D01*
X15479491Y-13494579D02*
X15469968Y-13475531D01*
X15469968Y-13475531D02*
X15460444Y-13446960D01*
X15460444Y-13446960D02*
X15450920Y-13399341D01*
X15450920Y-13399341D02*
X15450920Y-13361246D01*
X15450920Y-13361246D02*
X15460444Y-13313627D01*
X15460444Y-13313627D02*
X15469968Y-13285055D01*
X15469968Y-13285055D02*
X15479491Y-13266008D01*
X15479491Y-13266008D02*
X15498539Y-13237436D01*
X15498539Y-13237436D02*
X15508063Y-13227912D01*
X15574729Y-13275531D02*
X15584253Y-13266008D01*
X15584253Y-13266008D02*
X15603301Y-13256484D01*
X15603301Y-13256484D02*
X15650920Y-13256484D01*
X15650920Y-13256484D02*
X15669968Y-13266008D01*
X15669968Y-13266008D02*
X15679491Y-13275531D01*
X15679491Y-13275531D02*
X15689015Y-13294579D01*
X15689015Y-13294579D02*
X15689015Y-13313627D01*
X15689015Y-13313627D02*
X15679491Y-13342198D01*
X15679491Y-13342198D02*
X15565206Y-13456484D01*
X15565206Y-13456484D02*
X15689015Y-13456484D01*
X15927110Y-13456484D02*
X15927110Y-13256484D01*
X16012825Y-13456484D02*
X16012825Y-13351722D01*
X16012825Y-13351722D02*
X16003301Y-13332674D01*
X16003301Y-13332674D02*
X15984253Y-13323150D01*
X15984253Y-13323150D02*
X15955682Y-13323150D01*
X15955682Y-13323150D02*
X15936634Y-13332674D01*
X15936634Y-13332674D02*
X15927110Y-13342198D01*
X16136634Y-13456484D02*
X16117587Y-13446960D01*
X16117587Y-13446960D02*
X16108063Y-13437436D01*
X16108063Y-13437436D02*
X16098539Y-13418388D01*
X16098539Y-13418388D02*
X16098539Y-13361246D01*
X16098539Y-13361246D02*
X16108063Y-13342198D01*
X16108063Y-13342198D02*
X16117587Y-13332674D01*
X16117587Y-13332674D02*
X16136634Y-13323150D01*
X16136634Y-13323150D02*
X16165206Y-13323150D01*
X16165206Y-13323150D02*
X16184253Y-13332674D01*
X16184253Y-13332674D02*
X16193777Y-13342198D01*
X16193777Y-13342198D02*
X16203301Y-13361246D01*
X16203301Y-13361246D02*
X16203301Y-13418388D01*
X16203301Y-13418388D02*
X16193777Y-13437436D01*
X16193777Y-13437436D02*
X16184253Y-13446960D01*
X16184253Y-13446960D02*
X16165206Y-13456484D01*
X16165206Y-13456484D02*
X16136634Y-13456484D01*
X16317587Y-13456484D02*
X16298539Y-13446960D01*
X16298539Y-13446960D02*
X16289015Y-13427912D01*
X16289015Y-13427912D02*
X16289015Y-13256484D01*
X16469968Y-13446960D02*
X16450920Y-13456484D01*
X16450920Y-13456484D02*
X16412825Y-13456484D01*
X16412825Y-13456484D02*
X16393777Y-13446960D01*
X16393777Y-13446960D02*
X16384253Y-13427912D01*
X16384253Y-13427912D02*
X16384253Y-13351722D01*
X16384253Y-13351722D02*
X16393777Y-13332674D01*
X16393777Y-13332674D02*
X16412825Y-13323150D01*
X16412825Y-13323150D02*
X16450920Y-13323150D01*
X16450920Y-13323150D02*
X16469968Y-13332674D01*
X16469968Y-13332674D02*
X16479491Y-13351722D01*
X16479491Y-13351722D02*
X16479491Y-13370769D01*
X16479491Y-13370769D02*
X16384253Y-13389817D01*
X16555682Y-13446960D02*
X16574730Y-13456484D01*
X16574730Y-13456484D02*
X16612825Y-13456484D01*
X16612825Y-13456484D02*
X16631872Y-13446960D01*
X16631872Y-13446960D02*
X16641396Y-13427912D01*
X16641396Y-13427912D02*
X16641396Y-13418388D01*
X16641396Y-13418388D02*
X16631872Y-13399341D01*
X16631872Y-13399341D02*
X16612825Y-13389817D01*
X16612825Y-13389817D02*
X16584253Y-13389817D01*
X16584253Y-13389817D02*
X16565206Y-13380293D01*
X16565206Y-13380293D02*
X16555682Y-13361246D01*
X16555682Y-13361246D02*
X16555682Y-13351722D01*
X16555682Y-13351722D02*
X16565206Y-13332674D01*
X16565206Y-13332674D02*
X16584253Y-13323150D01*
X16584253Y-13323150D02*
X16612825Y-13323150D01*
X16612825Y-13323150D02*
X16631872Y-13332674D01*
X16708063Y-13532674D02*
X16717587Y-13523150D01*
X16717587Y-13523150D02*
X16736634Y-13494579D01*
X16736634Y-13494579D02*
X16746158Y-13475531D01*
X16746158Y-13475531D02*
X16755682Y-13446960D01*
X16755682Y-13446960D02*
X16765206Y-13399341D01*
X16765206Y-13399341D02*
X16765206Y-13361246D01*
X16765206Y-13361246D02*
X16755682Y-13313627D01*
X16755682Y-13313627D02*
X16746158Y-13285055D01*
X16746158Y-13285055D02*
X16736634Y-13266008D01*
X16736634Y-13266008D02*
X16717587Y-13237436D01*
X16717587Y-13237436D02*
X16708063Y-13227912D01*
D15*
X11919981Y-13660431D02*
X11919981Y-13597569D01*
X11857119Y-13597569D01*
X11857119Y-13660431D01*
X11919981Y-13660431D01*
D11*
X12231872Y-13520484D02*
X12250920Y-13520484D01*
X12250920Y-13520484D02*
X12269967Y-13530008D01*
X12269967Y-13530008D02*
X12279491Y-13539531D01*
X12279491Y-13539531D02*
X12289015Y-13558579D01*
X12289015Y-13558579D02*
X12298539Y-13596674D01*
X12298539Y-13596674D02*
X12298539Y-13644293D01*
X12298539Y-13644293D02*
X12289015Y-13682388D01*
X12289015Y-13682388D02*
X12279491Y-13701436D01*
X12279491Y-13701436D02*
X12269967Y-13710960D01*
X12269967Y-13710960D02*
X12250920Y-13720484D01*
X12250920Y-13720484D02*
X12231872Y-13720484D01*
X12231872Y-13720484D02*
X12212824Y-13710960D01*
X12212824Y-13710960D02*
X12203301Y-13701436D01*
X12203301Y-13701436D02*
X12193777Y-13682388D01*
X12193777Y-13682388D02*
X12184253Y-13644293D01*
X12184253Y-13644293D02*
X12184253Y-13596674D01*
X12184253Y-13596674D02*
X12193777Y-13558579D01*
X12193777Y-13558579D02*
X12203301Y-13539531D01*
X12203301Y-13539531D02*
X12212824Y-13530008D01*
X12212824Y-13530008D02*
X12231872Y-13520484D01*
X12384253Y-13701436D02*
X12393777Y-13710960D01*
X12393777Y-13710960D02*
X12384253Y-13720484D01*
X12384253Y-13720484D02*
X12374729Y-13710960D01*
X12374729Y-13710960D02*
X12384253Y-13701436D01*
X12384253Y-13701436D02*
X12384253Y-13720484D01*
X12508062Y-13606198D02*
X12489015Y-13596674D01*
X12489015Y-13596674D02*
X12479491Y-13587150D01*
X12479491Y-13587150D02*
X12469967Y-13568103D01*
X12469967Y-13568103D02*
X12469967Y-13558579D01*
X12469967Y-13558579D02*
X12479491Y-13539531D01*
X12479491Y-13539531D02*
X12489015Y-13530008D01*
X12489015Y-13530008D02*
X12508062Y-13520484D01*
X12508062Y-13520484D02*
X12546158Y-13520484D01*
X12546158Y-13520484D02*
X12565205Y-13530008D01*
X12565205Y-13530008D02*
X12574729Y-13539531D01*
X12574729Y-13539531D02*
X12584253Y-13558579D01*
X12584253Y-13558579D02*
X12584253Y-13568103D01*
X12584253Y-13568103D02*
X12574729Y-13587150D01*
X12574729Y-13587150D02*
X12565205Y-13596674D01*
X12565205Y-13596674D02*
X12546158Y-13606198D01*
X12546158Y-13606198D02*
X12508062Y-13606198D01*
X12508062Y-13606198D02*
X12489015Y-13615722D01*
X12489015Y-13615722D02*
X12479491Y-13625246D01*
X12479491Y-13625246D02*
X12469967Y-13644293D01*
X12469967Y-13644293D02*
X12469967Y-13682388D01*
X12469967Y-13682388D02*
X12479491Y-13701436D01*
X12479491Y-13701436D02*
X12489015Y-13710960D01*
X12489015Y-13710960D02*
X12508062Y-13720484D01*
X12508062Y-13720484D02*
X12546158Y-13720484D01*
X12546158Y-13720484D02*
X12565205Y-13710960D01*
X12565205Y-13710960D02*
X12574729Y-13701436D01*
X12574729Y-13701436D02*
X12584253Y-13682388D01*
X12584253Y-13682388D02*
X12584253Y-13644293D01*
X12584253Y-13644293D02*
X12574729Y-13625246D01*
X12574729Y-13625246D02*
X12565205Y-13615722D01*
X12565205Y-13615722D02*
X12546158Y-13606198D01*
X12698539Y-13606198D02*
X12679491Y-13596674D01*
X12679491Y-13596674D02*
X12669967Y-13587150D01*
X12669967Y-13587150D02*
X12660443Y-13568103D01*
X12660443Y-13568103D02*
X12660443Y-13558579D01*
X12660443Y-13558579D02*
X12669967Y-13539531D01*
X12669967Y-13539531D02*
X12679491Y-13530008D01*
X12679491Y-13530008D02*
X12698539Y-13520484D01*
X12698539Y-13520484D02*
X12736634Y-13520484D01*
X12736634Y-13520484D02*
X12755682Y-13530008D01*
X12755682Y-13530008D02*
X12765205Y-13539531D01*
X12765205Y-13539531D02*
X12774729Y-13558579D01*
X12774729Y-13558579D02*
X12774729Y-13568103D01*
X12774729Y-13568103D02*
X12765205Y-13587150D01*
X12765205Y-13587150D02*
X12755682Y-13596674D01*
X12755682Y-13596674D02*
X12736634Y-13606198D01*
X12736634Y-13606198D02*
X12698539Y-13606198D01*
X12698539Y-13606198D02*
X12679491Y-13615722D01*
X12679491Y-13615722D02*
X12669967Y-13625246D01*
X12669967Y-13625246D02*
X12660443Y-13644293D01*
X12660443Y-13644293D02*
X12660443Y-13682388D01*
X12660443Y-13682388D02*
X12669967Y-13701436D01*
X12669967Y-13701436D02*
X12679491Y-13710960D01*
X12679491Y-13710960D02*
X12698539Y-13720484D01*
X12698539Y-13720484D02*
X12736634Y-13720484D01*
X12736634Y-13720484D02*
X12755682Y-13710960D01*
X12755682Y-13710960D02*
X12765205Y-13701436D01*
X12765205Y-13701436D02*
X12774729Y-13682388D01*
X12774729Y-13682388D02*
X12774729Y-13644293D01*
X12774729Y-13644293D02*
X12765205Y-13625246D01*
X12765205Y-13625246D02*
X12755682Y-13615722D01*
X12755682Y-13615722D02*
X12736634Y-13606198D01*
X12869967Y-13720484D02*
X12908062Y-13720484D01*
X12908062Y-13720484D02*
X12927110Y-13710960D01*
X12927110Y-13710960D02*
X12936634Y-13701436D01*
X12936634Y-13701436D02*
X12955682Y-13672865D01*
X12955682Y-13672865D02*
X12965205Y-13634769D01*
X12965205Y-13634769D02*
X12965205Y-13558579D01*
X12965205Y-13558579D02*
X12955682Y-13539531D01*
X12955682Y-13539531D02*
X12946158Y-13530008D01*
X12946158Y-13530008D02*
X12927110Y-13520484D01*
X12927110Y-13520484D02*
X12889015Y-13520484D01*
X12889015Y-13520484D02*
X12869967Y-13530008D01*
X12869967Y-13530008D02*
X12860443Y-13539531D01*
X12860443Y-13539531D02*
X12850920Y-13558579D01*
X12850920Y-13558579D02*
X12850920Y-13606198D01*
X12850920Y-13606198D02*
X12860443Y-13625246D01*
X12860443Y-13625246D02*
X12869967Y-13634769D01*
X12869967Y-13634769D02*
X12889015Y-13644293D01*
X12889015Y-13644293D02*
X12927110Y-13644293D01*
X12927110Y-13644293D02*
X12946158Y-13634769D01*
X12946158Y-13634769D02*
X12955682Y-13625246D01*
X12955682Y-13625246D02*
X12965205Y-13606198D01*
X13050920Y-13720484D02*
X13050920Y-13587150D01*
X13050920Y-13606198D02*
X13060443Y-13596674D01*
X13060443Y-13596674D02*
X13079491Y-13587150D01*
X13079491Y-13587150D02*
X13108063Y-13587150D01*
X13108063Y-13587150D02*
X13127110Y-13596674D01*
X13127110Y-13596674D02*
X13136634Y-13615722D01*
X13136634Y-13615722D02*
X13136634Y-13720484D01*
X13136634Y-13615722D02*
X13146158Y-13596674D01*
X13146158Y-13596674D02*
X13165205Y-13587150D01*
X13165205Y-13587150D02*
X13193777Y-13587150D01*
X13193777Y-13587150D02*
X13212824Y-13596674D01*
X13212824Y-13596674D02*
X13222348Y-13615722D01*
X13222348Y-13615722D02*
X13222348Y-13720484D01*
X13317586Y-13720484D02*
X13317586Y-13587150D01*
X13317586Y-13606198D02*
X13327110Y-13596674D01*
X13327110Y-13596674D02*
X13346158Y-13587150D01*
X13346158Y-13587150D02*
X13374729Y-13587150D01*
X13374729Y-13587150D02*
X13393777Y-13596674D01*
X13393777Y-13596674D02*
X13403301Y-13615722D01*
X13403301Y-13615722D02*
X13403301Y-13720484D01*
X13403301Y-13615722D02*
X13412824Y-13596674D01*
X13412824Y-13596674D02*
X13431872Y-13587150D01*
X13431872Y-13587150D02*
X13460443Y-13587150D01*
X13460443Y-13587150D02*
X13479491Y-13596674D01*
X13479491Y-13596674D02*
X13489015Y-13615722D01*
X13489015Y-13615722D02*
X13489015Y-13720484D01*
X13879491Y-13510960D02*
X13708063Y-13768103D01*
X14136634Y-13520484D02*
X14155682Y-13520484D01*
X14155682Y-13520484D02*
X14174729Y-13530008D01*
X14174729Y-13530008D02*
X14184253Y-13539531D01*
X14184253Y-13539531D02*
X14193777Y-13558579D01*
X14193777Y-13558579D02*
X14203301Y-13596674D01*
X14203301Y-13596674D02*
X14203301Y-13644293D01*
X14203301Y-13644293D02*
X14193777Y-13682388D01*
X14193777Y-13682388D02*
X14184253Y-13701436D01*
X14184253Y-13701436D02*
X14174729Y-13710960D01*
X14174729Y-13710960D02*
X14155682Y-13720484D01*
X14155682Y-13720484D02*
X14136634Y-13720484D01*
X14136634Y-13720484D02*
X14117586Y-13710960D01*
X14117586Y-13710960D02*
X14108063Y-13701436D01*
X14108063Y-13701436D02*
X14098539Y-13682388D01*
X14098539Y-13682388D02*
X14089015Y-13644293D01*
X14089015Y-13644293D02*
X14089015Y-13596674D01*
X14089015Y-13596674D02*
X14098539Y-13558579D01*
X14098539Y-13558579D02*
X14108063Y-13539531D01*
X14108063Y-13539531D02*
X14117586Y-13530008D01*
X14117586Y-13530008D02*
X14136634Y-13520484D01*
X14289015Y-13701436D02*
X14298539Y-13710960D01*
X14298539Y-13710960D02*
X14289015Y-13720484D01*
X14289015Y-13720484D02*
X14279491Y-13710960D01*
X14279491Y-13710960D02*
X14289015Y-13701436D01*
X14289015Y-13701436D02*
X14289015Y-13720484D01*
X14422348Y-13520484D02*
X14441396Y-13520484D01*
X14441396Y-13520484D02*
X14460444Y-13530008D01*
X14460444Y-13530008D02*
X14469967Y-13539531D01*
X14469967Y-13539531D02*
X14479491Y-13558579D01*
X14479491Y-13558579D02*
X14489015Y-13596674D01*
X14489015Y-13596674D02*
X14489015Y-13644293D01*
X14489015Y-13644293D02*
X14479491Y-13682388D01*
X14479491Y-13682388D02*
X14469967Y-13701436D01*
X14469967Y-13701436D02*
X14460444Y-13710960D01*
X14460444Y-13710960D02*
X14441396Y-13720484D01*
X14441396Y-13720484D02*
X14422348Y-13720484D01*
X14422348Y-13720484D02*
X14403301Y-13710960D01*
X14403301Y-13710960D02*
X14393777Y-13701436D01*
X14393777Y-13701436D02*
X14384253Y-13682388D01*
X14384253Y-13682388D02*
X14374729Y-13644293D01*
X14374729Y-13644293D02*
X14374729Y-13596674D01*
X14374729Y-13596674D02*
X14384253Y-13558579D01*
X14384253Y-13558579D02*
X14393777Y-13539531D01*
X14393777Y-13539531D02*
X14403301Y-13530008D01*
X14403301Y-13530008D02*
X14422348Y-13520484D01*
X14555682Y-13520484D02*
X14679491Y-13520484D01*
X14679491Y-13520484D02*
X14612825Y-13596674D01*
X14612825Y-13596674D02*
X14641396Y-13596674D01*
X14641396Y-13596674D02*
X14660444Y-13606198D01*
X14660444Y-13606198D02*
X14669967Y-13615722D01*
X14669967Y-13615722D02*
X14679491Y-13634769D01*
X14679491Y-13634769D02*
X14679491Y-13682388D01*
X14679491Y-13682388D02*
X14669967Y-13701436D01*
X14669967Y-13701436D02*
X14660444Y-13710960D01*
X14660444Y-13710960D02*
X14641396Y-13720484D01*
X14641396Y-13720484D02*
X14584253Y-13720484D01*
X14584253Y-13720484D02*
X14565206Y-13710960D01*
X14565206Y-13710960D02*
X14555682Y-13701436D01*
X14860444Y-13520484D02*
X14765206Y-13520484D01*
X14765206Y-13520484D02*
X14755682Y-13615722D01*
X14755682Y-13615722D02*
X14765206Y-13606198D01*
X14765206Y-13606198D02*
X14784253Y-13596674D01*
X14784253Y-13596674D02*
X14831872Y-13596674D01*
X14831872Y-13596674D02*
X14850920Y-13606198D01*
X14850920Y-13606198D02*
X14860444Y-13615722D01*
X14860444Y-13615722D02*
X14869967Y-13634769D01*
X14869967Y-13634769D02*
X14869967Y-13682388D01*
X14869967Y-13682388D02*
X14860444Y-13701436D01*
X14860444Y-13701436D02*
X14850920Y-13710960D01*
X14850920Y-13710960D02*
X14831872Y-13720484D01*
X14831872Y-13720484D02*
X14784253Y-13720484D01*
X14784253Y-13720484D02*
X14765206Y-13710960D01*
X14765206Y-13710960D02*
X14755682Y-13701436D01*
X14993777Y-13520484D02*
X15012825Y-13520484D01*
X15012825Y-13520484D02*
X15031872Y-13530008D01*
X15031872Y-13530008D02*
X15041396Y-13539531D01*
X15041396Y-13539531D02*
X15050920Y-13558579D01*
X15050920Y-13558579D02*
X15060444Y-13596674D01*
X15060444Y-13596674D02*
X15060444Y-13644293D01*
X15060444Y-13644293D02*
X15050920Y-13682388D01*
X15050920Y-13682388D02*
X15041396Y-13701436D01*
X15041396Y-13701436D02*
X15031872Y-13710960D01*
X15031872Y-13710960D02*
X15012825Y-13720484D01*
X15012825Y-13720484D02*
X14993777Y-13720484D01*
X14993777Y-13720484D02*
X14974729Y-13710960D01*
X14974729Y-13710960D02*
X14965206Y-13701436D01*
X14965206Y-13701436D02*
X14955682Y-13682388D01*
X14955682Y-13682388D02*
X14946158Y-13644293D01*
X14946158Y-13644293D02*
X14946158Y-13596674D01*
X14946158Y-13596674D02*
X14955682Y-13558579D01*
X14955682Y-13558579D02*
X14965206Y-13539531D01*
X14965206Y-13539531D02*
X14974729Y-13530008D01*
X14974729Y-13530008D02*
X14993777Y-13520484D01*
X15136634Y-13520484D02*
X15136634Y-13558579D01*
X15212825Y-13520484D02*
X15212825Y-13558579D01*
X15508063Y-13796674D02*
X15498539Y-13787150D01*
X15498539Y-13787150D02*
X15479491Y-13758579D01*
X15479491Y-13758579D02*
X15469968Y-13739531D01*
X15469968Y-13739531D02*
X15460444Y-13710960D01*
X15460444Y-13710960D02*
X15450920Y-13663341D01*
X15450920Y-13663341D02*
X15450920Y-13625246D01*
X15450920Y-13625246D02*
X15460444Y-13577627D01*
X15460444Y-13577627D02*
X15469968Y-13549055D01*
X15469968Y-13549055D02*
X15479491Y-13530008D01*
X15479491Y-13530008D02*
X15498539Y-13501436D01*
X15498539Y-13501436D02*
X15508063Y-13491912D01*
X15669968Y-13587150D02*
X15669968Y-13720484D01*
X15622348Y-13510960D02*
X15574729Y-13653817D01*
X15574729Y-13653817D02*
X15698539Y-13653817D01*
X15812825Y-13520484D02*
X15831872Y-13520484D01*
X15831872Y-13520484D02*
X15850920Y-13530008D01*
X15850920Y-13530008D02*
X15860444Y-13539531D01*
X15860444Y-13539531D02*
X15869968Y-13558579D01*
X15869968Y-13558579D02*
X15879491Y-13596674D01*
X15879491Y-13596674D02*
X15879491Y-13644293D01*
X15879491Y-13644293D02*
X15869968Y-13682388D01*
X15869968Y-13682388D02*
X15860444Y-13701436D01*
X15860444Y-13701436D02*
X15850920Y-13710960D01*
X15850920Y-13710960D02*
X15831872Y-13720484D01*
X15831872Y-13720484D02*
X15812825Y-13720484D01*
X15812825Y-13720484D02*
X15793777Y-13710960D01*
X15793777Y-13710960D02*
X15784253Y-13701436D01*
X15784253Y-13701436D02*
X15774729Y-13682388D01*
X15774729Y-13682388D02*
X15765206Y-13644293D01*
X15765206Y-13644293D02*
X15765206Y-13596674D01*
X15765206Y-13596674D02*
X15774729Y-13558579D01*
X15774729Y-13558579D02*
X15784253Y-13539531D01*
X15784253Y-13539531D02*
X15793777Y-13530008D01*
X15793777Y-13530008D02*
X15812825Y-13520484D01*
X16117587Y-13720484D02*
X16117587Y-13520484D01*
X16203301Y-13720484D02*
X16203301Y-13615722D01*
X16203301Y-13615722D02*
X16193777Y-13596674D01*
X16193777Y-13596674D02*
X16174730Y-13587150D01*
X16174730Y-13587150D02*
X16146158Y-13587150D01*
X16146158Y-13587150D02*
X16127110Y-13596674D01*
X16127110Y-13596674D02*
X16117587Y-13606198D01*
X16327110Y-13720484D02*
X16308063Y-13710960D01*
X16308063Y-13710960D02*
X16298539Y-13701436D01*
X16298539Y-13701436D02*
X16289015Y-13682388D01*
X16289015Y-13682388D02*
X16289015Y-13625246D01*
X16289015Y-13625246D02*
X16298539Y-13606198D01*
X16298539Y-13606198D02*
X16308063Y-13596674D01*
X16308063Y-13596674D02*
X16327110Y-13587150D01*
X16327110Y-13587150D02*
X16355682Y-13587150D01*
X16355682Y-13587150D02*
X16374730Y-13596674D01*
X16374730Y-13596674D02*
X16384253Y-13606198D01*
X16384253Y-13606198D02*
X16393777Y-13625246D01*
X16393777Y-13625246D02*
X16393777Y-13682388D01*
X16393777Y-13682388D02*
X16384253Y-13701436D01*
X16384253Y-13701436D02*
X16374730Y-13710960D01*
X16374730Y-13710960D02*
X16355682Y-13720484D01*
X16355682Y-13720484D02*
X16327110Y-13720484D01*
X16508063Y-13720484D02*
X16489015Y-13710960D01*
X16489015Y-13710960D02*
X16479491Y-13691912D01*
X16479491Y-13691912D02*
X16479491Y-13520484D01*
X16660444Y-13710960D02*
X16641396Y-13720484D01*
X16641396Y-13720484D02*
X16603301Y-13720484D01*
X16603301Y-13720484D02*
X16584253Y-13710960D01*
X16584253Y-13710960D02*
X16574730Y-13691912D01*
X16574730Y-13691912D02*
X16574730Y-13615722D01*
X16574730Y-13615722D02*
X16584253Y-13596674D01*
X16584253Y-13596674D02*
X16603301Y-13587150D01*
X16603301Y-13587150D02*
X16641396Y-13587150D01*
X16641396Y-13587150D02*
X16660444Y-13596674D01*
X16660444Y-13596674D02*
X16669968Y-13615722D01*
X16669968Y-13615722D02*
X16669968Y-13634769D01*
X16669968Y-13634769D02*
X16574730Y-13653817D01*
X16746158Y-13710960D02*
X16765206Y-13720484D01*
X16765206Y-13720484D02*
X16803301Y-13720484D01*
X16803301Y-13720484D02*
X16822349Y-13710960D01*
X16822349Y-13710960D02*
X16831873Y-13691912D01*
X16831873Y-13691912D02*
X16831873Y-13682388D01*
X16831873Y-13682388D02*
X16822349Y-13663341D01*
X16822349Y-13663341D02*
X16803301Y-13653817D01*
X16803301Y-13653817D02*
X16774730Y-13653817D01*
X16774730Y-13653817D02*
X16755682Y-13644293D01*
X16755682Y-13644293D02*
X16746158Y-13625246D01*
X16746158Y-13625246D02*
X16746158Y-13615722D01*
X16746158Y-13615722D02*
X16755682Y-13596674D01*
X16755682Y-13596674D02*
X16774730Y-13587150D01*
X16774730Y-13587150D02*
X16803301Y-13587150D01*
X16803301Y-13587150D02*
X16822349Y-13596674D01*
X16898539Y-13796674D02*
X16908063Y-13787150D01*
X16908063Y-13787150D02*
X16927111Y-13758579D01*
X16927111Y-13758579D02*
X16936634Y-13739531D01*
X16936634Y-13739531D02*
X16946158Y-13710960D01*
X16946158Y-13710960D02*
X16955682Y-13663341D01*
X16955682Y-13663341D02*
X16955682Y-13625246D01*
X16955682Y-13625246D02*
X16946158Y-13577627D01*
X16946158Y-13577627D02*
X16936634Y-13549055D01*
X16936634Y-13549055D02*
X16927111Y-13530008D01*
X16927111Y-13530008D02*
X16908063Y-13501436D01*
X16908063Y-13501436D02*
X16898539Y-13491912D01*
D16*
X11888000Y-13938000D02*
X11933000Y-13893000D01*
X11888000Y-13848000D01*
X11843000Y-13893000D01*
X11888000Y-13938000D01*
D11*
X12231872Y-13784484D02*
X12250920Y-13784484D01*
X12250920Y-13784484D02*
X12269967Y-13794008D01*
X12269967Y-13794008D02*
X12279491Y-13803531D01*
X12279491Y-13803531D02*
X12289015Y-13822579D01*
X12289015Y-13822579D02*
X12298539Y-13860674D01*
X12298539Y-13860674D02*
X12298539Y-13908293D01*
X12298539Y-13908293D02*
X12289015Y-13946388D01*
X12289015Y-13946388D02*
X12279491Y-13965436D01*
X12279491Y-13965436D02*
X12269967Y-13974960D01*
X12269967Y-13974960D02*
X12250920Y-13984484D01*
X12250920Y-13984484D02*
X12231872Y-13984484D01*
X12231872Y-13984484D02*
X12212824Y-13974960D01*
X12212824Y-13974960D02*
X12203301Y-13965436D01*
X12203301Y-13965436D02*
X12193777Y-13946388D01*
X12193777Y-13946388D02*
X12184253Y-13908293D01*
X12184253Y-13908293D02*
X12184253Y-13860674D01*
X12184253Y-13860674D02*
X12193777Y-13822579D01*
X12193777Y-13822579D02*
X12203301Y-13803531D01*
X12203301Y-13803531D02*
X12212824Y-13794008D01*
X12212824Y-13794008D02*
X12231872Y-13784484D01*
X12384253Y-13965436D02*
X12393777Y-13974960D01*
X12393777Y-13974960D02*
X12384253Y-13984484D01*
X12384253Y-13984484D02*
X12374729Y-13974960D01*
X12374729Y-13974960D02*
X12384253Y-13965436D01*
X12384253Y-13965436D02*
X12384253Y-13984484D01*
X12489015Y-13984484D02*
X12527110Y-13984484D01*
X12527110Y-13984484D02*
X12546158Y-13974960D01*
X12546158Y-13974960D02*
X12555682Y-13965436D01*
X12555682Y-13965436D02*
X12574729Y-13936865D01*
X12574729Y-13936865D02*
X12584253Y-13898769D01*
X12584253Y-13898769D02*
X12584253Y-13822579D01*
X12584253Y-13822579D02*
X12574729Y-13803531D01*
X12574729Y-13803531D02*
X12565205Y-13794008D01*
X12565205Y-13794008D02*
X12546158Y-13784484D01*
X12546158Y-13784484D02*
X12508062Y-13784484D01*
X12508062Y-13784484D02*
X12489015Y-13794008D01*
X12489015Y-13794008D02*
X12479491Y-13803531D01*
X12479491Y-13803531D02*
X12469967Y-13822579D01*
X12469967Y-13822579D02*
X12469967Y-13870198D01*
X12469967Y-13870198D02*
X12479491Y-13889246D01*
X12479491Y-13889246D02*
X12489015Y-13898769D01*
X12489015Y-13898769D02*
X12508062Y-13908293D01*
X12508062Y-13908293D02*
X12546158Y-13908293D01*
X12546158Y-13908293D02*
X12565205Y-13898769D01*
X12565205Y-13898769D02*
X12574729Y-13889246D01*
X12574729Y-13889246D02*
X12584253Y-13870198D01*
X12708062Y-13784484D02*
X12727110Y-13784484D01*
X12727110Y-13784484D02*
X12746158Y-13794008D01*
X12746158Y-13794008D02*
X12755682Y-13803531D01*
X12755682Y-13803531D02*
X12765205Y-13822579D01*
X12765205Y-13822579D02*
X12774729Y-13860674D01*
X12774729Y-13860674D02*
X12774729Y-13908293D01*
X12774729Y-13908293D02*
X12765205Y-13946388D01*
X12765205Y-13946388D02*
X12755682Y-13965436D01*
X12755682Y-13965436D02*
X12746158Y-13974960D01*
X12746158Y-13974960D02*
X12727110Y-13984484D01*
X12727110Y-13984484D02*
X12708062Y-13984484D01*
X12708062Y-13984484D02*
X12689015Y-13974960D01*
X12689015Y-13974960D02*
X12679491Y-13965436D01*
X12679491Y-13965436D02*
X12669967Y-13946388D01*
X12669967Y-13946388D02*
X12660443Y-13908293D01*
X12660443Y-13908293D02*
X12660443Y-13860674D01*
X12660443Y-13860674D02*
X12669967Y-13822579D01*
X12669967Y-13822579D02*
X12679491Y-13803531D01*
X12679491Y-13803531D02*
X12689015Y-13794008D01*
X12689015Y-13794008D02*
X12708062Y-13784484D01*
X12898539Y-13784484D02*
X12917586Y-13784484D01*
X12917586Y-13784484D02*
X12936634Y-13794008D01*
X12936634Y-13794008D02*
X12946158Y-13803531D01*
X12946158Y-13803531D02*
X12955682Y-13822579D01*
X12955682Y-13822579D02*
X12965205Y-13860674D01*
X12965205Y-13860674D02*
X12965205Y-13908293D01*
X12965205Y-13908293D02*
X12955682Y-13946388D01*
X12955682Y-13946388D02*
X12946158Y-13965436D01*
X12946158Y-13965436D02*
X12936634Y-13974960D01*
X12936634Y-13974960D02*
X12917586Y-13984484D01*
X12917586Y-13984484D02*
X12898539Y-13984484D01*
X12898539Y-13984484D02*
X12879491Y-13974960D01*
X12879491Y-13974960D02*
X12869967Y-13965436D01*
X12869967Y-13965436D02*
X12860443Y-13946388D01*
X12860443Y-13946388D02*
X12850920Y-13908293D01*
X12850920Y-13908293D02*
X12850920Y-13860674D01*
X12850920Y-13860674D02*
X12860443Y-13822579D01*
X12860443Y-13822579D02*
X12869967Y-13803531D01*
X12869967Y-13803531D02*
X12879491Y-13794008D01*
X12879491Y-13794008D02*
X12898539Y-13784484D01*
X13050920Y-13984484D02*
X13050920Y-13851150D01*
X13050920Y-13870198D02*
X13060443Y-13860674D01*
X13060443Y-13860674D02*
X13079491Y-13851150D01*
X13079491Y-13851150D02*
X13108063Y-13851150D01*
X13108063Y-13851150D02*
X13127110Y-13860674D01*
X13127110Y-13860674D02*
X13136634Y-13879722D01*
X13136634Y-13879722D02*
X13136634Y-13984484D01*
X13136634Y-13879722D02*
X13146158Y-13860674D01*
X13146158Y-13860674D02*
X13165205Y-13851150D01*
X13165205Y-13851150D02*
X13193777Y-13851150D01*
X13193777Y-13851150D02*
X13212824Y-13860674D01*
X13212824Y-13860674D02*
X13222348Y-13879722D01*
X13222348Y-13879722D02*
X13222348Y-13984484D01*
X13317586Y-13984484D02*
X13317586Y-13851150D01*
X13317586Y-13870198D02*
X13327110Y-13860674D01*
X13327110Y-13860674D02*
X13346158Y-13851150D01*
X13346158Y-13851150D02*
X13374729Y-13851150D01*
X13374729Y-13851150D02*
X13393777Y-13860674D01*
X13393777Y-13860674D02*
X13403301Y-13879722D01*
X13403301Y-13879722D02*
X13403301Y-13984484D01*
X13403301Y-13879722D02*
X13412824Y-13860674D01*
X13412824Y-13860674D02*
X13431872Y-13851150D01*
X13431872Y-13851150D02*
X13460443Y-13851150D01*
X13460443Y-13851150D02*
X13479491Y-13860674D01*
X13479491Y-13860674D02*
X13489015Y-13879722D01*
X13489015Y-13879722D02*
X13489015Y-13984484D01*
X13879491Y-13774960D02*
X13708063Y-14032103D01*
X14136634Y-13784484D02*
X14155682Y-13784484D01*
X14155682Y-13784484D02*
X14174729Y-13794008D01*
X14174729Y-13794008D02*
X14184253Y-13803531D01*
X14184253Y-13803531D02*
X14193777Y-13822579D01*
X14193777Y-13822579D02*
X14203301Y-13860674D01*
X14203301Y-13860674D02*
X14203301Y-13908293D01*
X14203301Y-13908293D02*
X14193777Y-13946388D01*
X14193777Y-13946388D02*
X14184253Y-13965436D01*
X14184253Y-13965436D02*
X14174729Y-13974960D01*
X14174729Y-13974960D02*
X14155682Y-13984484D01*
X14155682Y-13984484D02*
X14136634Y-13984484D01*
X14136634Y-13984484D02*
X14117586Y-13974960D01*
X14117586Y-13974960D02*
X14108063Y-13965436D01*
X14108063Y-13965436D02*
X14098539Y-13946388D01*
X14098539Y-13946388D02*
X14089015Y-13908293D01*
X14089015Y-13908293D02*
X14089015Y-13860674D01*
X14089015Y-13860674D02*
X14098539Y-13822579D01*
X14098539Y-13822579D02*
X14108063Y-13803531D01*
X14108063Y-13803531D02*
X14117586Y-13794008D01*
X14117586Y-13794008D02*
X14136634Y-13784484D01*
X14289015Y-13965436D02*
X14298539Y-13974960D01*
X14298539Y-13974960D02*
X14289015Y-13984484D01*
X14289015Y-13984484D02*
X14279491Y-13974960D01*
X14279491Y-13974960D02*
X14289015Y-13965436D01*
X14289015Y-13965436D02*
X14289015Y-13984484D01*
X14422348Y-13784484D02*
X14441396Y-13784484D01*
X14441396Y-13784484D02*
X14460444Y-13794008D01*
X14460444Y-13794008D02*
X14469967Y-13803531D01*
X14469967Y-13803531D02*
X14479491Y-13822579D01*
X14479491Y-13822579D02*
X14489015Y-13860674D01*
X14489015Y-13860674D02*
X14489015Y-13908293D01*
X14489015Y-13908293D02*
X14479491Y-13946388D01*
X14479491Y-13946388D02*
X14469967Y-13965436D01*
X14469967Y-13965436D02*
X14460444Y-13974960D01*
X14460444Y-13974960D02*
X14441396Y-13984484D01*
X14441396Y-13984484D02*
X14422348Y-13984484D01*
X14422348Y-13984484D02*
X14403301Y-13974960D01*
X14403301Y-13974960D02*
X14393777Y-13965436D01*
X14393777Y-13965436D02*
X14384253Y-13946388D01*
X14384253Y-13946388D02*
X14374729Y-13908293D01*
X14374729Y-13908293D02*
X14374729Y-13860674D01*
X14374729Y-13860674D02*
X14384253Y-13822579D01*
X14384253Y-13822579D02*
X14393777Y-13803531D01*
X14393777Y-13803531D02*
X14403301Y-13794008D01*
X14403301Y-13794008D02*
X14422348Y-13784484D01*
X14555682Y-13784484D02*
X14679491Y-13784484D01*
X14679491Y-13784484D02*
X14612825Y-13860674D01*
X14612825Y-13860674D02*
X14641396Y-13860674D01*
X14641396Y-13860674D02*
X14660444Y-13870198D01*
X14660444Y-13870198D02*
X14669967Y-13879722D01*
X14669967Y-13879722D02*
X14679491Y-13898769D01*
X14679491Y-13898769D02*
X14679491Y-13946388D01*
X14679491Y-13946388D02*
X14669967Y-13965436D01*
X14669967Y-13965436D02*
X14660444Y-13974960D01*
X14660444Y-13974960D02*
X14641396Y-13984484D01*
X14641396Y-13984484D02*
X14584253Y-13984484D01*
X14584253Y-13984484D02*
X14565206Y-13974960D01*
X14565206Y-13974960D02*
X14555682Y-13965436D01*
X14860444Y-13784484D02*
X14765206Y-13784484D01*
X14765206Y-13784484D02*
X14755682Y-13879722D01*
X14755682Y-13879722D02*
X14765206Y-13870198D01*
X14765206Y-13870198D02*
X14784253Y-13860674D01*
X14784253Y-13860674D02*
X14831872Y-13860674D01*
X14831872Y-13860674D02*
X14850920Y-13870198D01*
X14850920Y-13870198D02*
X14860444Y-13879722D01*
X14860444Y-13879722D02*
X14869967Y-13898769D01*
X14869967Y-13898769D02*
X14869967Y-13946388D01*
X14869967Y-13946388D02*
X14860444Y-13965436D01*
X14860444Y-13965436D02*
X14850920Y-13974960D01*
X14850920Y-13974960D02*
X14831872Y-13984484D01*
X14831872Y-13984484D02*
X14784253Y-13984484D01*
X14784253Y-13984484D02*
X14765206Y-13974960D01*
X14765206Y-13974960D02*
X14755682Y-13965436D01*
X15041396Y-13851150D02*
X15041396Y-13984484D01*
X14993777Y-13774960D02*
X14946158Y-13917817D01*
X14946158Y-13917817D02*
X15069967Y-13917817D01*
X15136634Y-13784484D02*
X15136634Y-13822579D01*
X15212825Y-13784484D02*
X15212825Y-13822579D01*
X15508063Y-14060674D02*
X15498539Y-14051150D01*
X15498539Y-14051150D02*
X15479491Y-14022579D01*
X15479491Y-14022579D02*
X15469968Y-14003531D01*
X15469968Y-14003531D02*
X15460444Y-13974960D01*
X15460444Y-13974960D02*
X15450920Y-13927341D01*
X15450920Y-13927341D02*
X15450920Y-13889246D01*
X15450920Y-13889246D02*
X15460444Y-13841627D01*
X15460444Y-13841627D02*
X15469968Y-13813055D01*
X15469968Y-13813055D02*
X15479491Y-13794008D01*
X15479491Y-13794008D02*
X15498539Y-13765436D01*
X15498539Y-13765436D02*
X15508063Y-13755912D01*
X15669968Y-13851150D02*
X15669968Y-13984484D01*
X15622348Y-13774960D02*
X15574729Y-13917817D01*
X15574729Y-13917817D02*
X15698539Y-13917817D01*
X15927110Y-13984484D02*
X15927110Y-13784484D01*
X16012825Y-13984484D02*
X16012825Y-13879722D01*
X16012825Y-13879722D02*
X16003301Y-13860674D01*
X16003301Y-13860674D02*
X15984253Y-13851150D01*
X15984253Y-13851150D02*
X15955682Y-13851150D01*
X15955682Y-13851150D02*
X15936634Y-13860674D01*
X15936634Y-13860674D02*
X15927110Y-13870198D01*
X16136634Y-13984484D02*
X16117587Y-13974960D01*
X16117587Y-13974960D02*
X16108063Y-13965436D01*
X16108063Y-13965436D02*
X16098539Y-13946388D01*
X16098539Y-13946388D02*
X16098539Y-13889246D01*
X16098539Y-13889246D02*
X16108063Y-13870198D01*
X16108063Y-13870198D02*
X16117587Y-13860674D01*
X16117587Y-13860674D02*
X16136634Y-13851150D01*
X16136634Y-13851150D02*
X16165206Y-13851150D01*
X16165206Y-13851150D02*
X16184253Y-13860674D01*
X16184253Y-13860674D02*
X16193777Y-13870198D01*
X16193777Y-13870198D02*
X16203301Y-13889246D01*
X16203301Y-13889246D02*
X16203301Y-13946388D01*
X16203301Y-13946388D02*
X16193777Y-13965436D01*
X16193777Y-13965436D02*
X16184253Y-13974960D01*
X16184253Y-13974960D02*
X16165206Y-13984484D01*
X16165206Y-13984484D02*
X16136634Y-13984484D01*
X16317587Y-13984484D02*
X16298539Y-13974960D01*
X16298539Y-13974960D02*
X16289015Y-13955912D01*
X16289015Y-13955912D02*
X16289015Y-13784484D01*
X16469968Y-13974960D02*
X16450920Y-13984484D01*
X16450920Y-13984484D02*
X16412825Y-13984484D01*
X16412825Y-13984484D02*
X16393777Y-13974960D01*
X16393777Y-13974960D02*
X16384253Y-13955912D01*
X16384253Y-13955912D02*
X16384253Y-13879722D01*
X16384253Y-13879722D02*
X16393777Y-13860674D01*
X16393777Y-13860674D02*
X16412825Y-13851150D01*
X16412825Y-13851150D02*
X16450920Y-13851150D01*
X16450920Y-13851150D02*
X16469968Y-13860674D01*
X16469968Y-13860674D02*
X16479491Y-13879722D01*
X16479491Y-13879722D02*
X16479491Y-13898769D01*
X16479491Y-13898769D02*
X16384253Y-13917817D01*
X16555682Y-13974960D02*
X16574730Y-13984484D01*
X16574730Y-13984484D02*
X16612825Y-13984484D01*
X16612825Y-13984484D02*
X16631872Y-13974960D01*
X16631872Y-13974960D02*
X16641396Y-13955912D01*
X16641396Y-13955912D02*
X16641396Y-13946388D01*
X16641396Y-13946388D02*
X16631872Y-13927341D01*
X16631872Y-13927341D02*
X16612825Y-13917817D01*
X16612825Y-13917817D02*
X16584253Y-13917817D01*
X16584253Y-13917817D02*
X16565206Y-13908293D01*
X16565206Y-13908293D02*
X16555682Y-13889246D01*
X16555682Y-13889246D02*
X16555682Y-13879722D01*
X16555682Y-13879722D02*
X16565206Y-13860674D01*
X16565206Y-13860674D02*
X16584253Y-13851150D01*
X16584253Y-13851150D02*
X16612825Y-13851150D01*
X16612825Y-13851150D02*
X16631872Y-13860674D01*
X16708063Y-14060674D02*
X16717587Y-14051150D01*
X16717587Y-14051150D02*
X16736634Y-14022579D01*
X16736634Y-14022579D02*
X16746158Y-14003531D01*
X16746158Y-14003531D02*
X16755682Y-13974960D01*
X16755682Y-13974960D02*
X16765206Y-13927341D01*
X16765206Y-13927341D02*
X16765206Y-13889246D01*
X16765206Y-13889246D02*
X16755682Y-13841627D01*
X16755682Y-13841627D02*
X16746158Y-13813055D01*
X16746158Y-13813055D02*
X16736634Y-13794008D01*
X16736634Y-13794008D02*
X16717587Y-13765436D01*
X16717587Y-13765436D02*
X16708063Y-13755912D01*
D10*
X11833000Y-14107000D02*
X11933000Y-14207000D01*
X11933000Y-14107000D02*
X11833000Y-14207000D01*
X11933000Y-14157000D02*
G75*
G03*
X11933000Y-14157000I-50000J0D01*
G01*
D11*
X12298539Y-14248484D02*
X12184253Y-14248484D01*
X12241396Y-14248484D02*
X12241396Y-14048484D01*
X12241396Y-14048484D02*
X12222348Y-14077055D01*
X12222348Y-14077055D02*
X12203301Y-14096103D01*
X12203301Y-14096103D02*
X12184253Y-14105627D01*
X12384253Y-14229436D02*
X12393777Y-14238960D01*
X12393777Y-14238960D02*
X12384253Y-14248484D01*
X12384253Y-14248484D02*
X12374729Y-14238960D01*
X12374729Y-14238960D02*
X12384253Y-14229436D01*
X12384253Y-14229436D02*
X12384253Y-14248484D01*
X12517586Y-14048484D02*
X12536634Y-14048484D01*
X12536634Y-14048484D02*
X12555682Y-14058008D01*
X12555682Y-14058008D02*
X12565205Y-14067531D01*
X12565205Y-14067531D02*
X12574729Y-14086579D01*
X12574729Y-14086579D02*
X12584253Y-14124674D01*
X12584253Y-14124674D02*
X12584253Y-14172293D01*
X12584253Y-14172293D02*
X12574729Y-14210388D01*
X12574729Y-14210388D02*
X12565205Y-14229436D01*
X12565205Y-14229436D02*
X12555682Y-14238960D01*
X12555682Y-14238960D02*
X12536634Y-14248484D01*
X12536634Y-14248484D02*
X12517586Y-14248484D01*
X12517586Y-14248484D02*
X12498539Y-14238960D01*
X12498539Y-14238960D02*
X12489015Y-14229436D01*
X12489015Y-14229436D02*
X12479491Y-14210388D01*
X12479491Y-14210388D02*
X12469967Y-14172293D01*
X12469967Y-14172293D02*
X12469967Y-14124674D01*
X12469967Y-14124674D02*
X12479491Y-14086579D01*
X12479491Y-14086579D02*
X12489015Y-14067531D01*
X12489015Y-14067531D02*
X12498539Y-14058008D01*
X12498539Y-14058008D02*
X12517586Y-14048484D01*
X12708062Y-14048484D02*
X12727110Y-14048484D01*
X12727110Y-14048484D02*
X12746158Y-14058008D01*
X12746158Y-14058008D02*
X12755682Y-14067531D01*
X12755682Y-14067531D02*
X12765205Y-14086579D01*
X12765205Y-14086579D02*
X12774729Y-14124674D01*
X12774729Y-14124674D02*
X12774729Y-14172293D01*
X12774729Y-14172293D02*
X12765205Y-14210388D01*
X12765205Y-14210388D02*
X12755682Y-14229436D01*
X12755682Y-14229436D02*
X12746158Y-14238960D01*
X12746158Y-14238960D02*
X12727110Y-14248484D01*
X12727110Y-14248484D02*
X12708062Y-14248484D01*
X12708062Y-14248484D02*
X12689015Y-14238960D01*
X12689015Y-14238960D02*
X12679491Y-14229436D01*
X12679491Y-14229436D02*
X12669967Y-14210388D01*
X12669967Y-14210388D02*
X12660443Y-14172293D01*
X12660443Y-14172293D02*
X12660443Y-14124674D01*
X12660443Y-14124674D02*
X12669967Y-14086579D01*
X12669967Y-14086579D02*
X12679491Y-14067531D01*
X12679491Y-14067531D02*
X12689015Y-14058008D01*
X12689015Y-14058008D02*
X12708062Y-14048484D01*
X12898539Y-14048484D02*
X12917586Y-14048484D01*
X12917586Y-14048484D02*
X12936634Y-14058008D01*
X12936634Y-14058008D02*
X12946158Y-14067531D01*
X12946158Y-14067531D02*
X12955682Y-14086579D01*
X12955682Y-14086579D02*
X12965205Y-14124674D01*
X12965205Y-14124674D02*
X12965205Y-14172293D01*
X12965205Y-14172293D02*
X12955682Y-14210388D01*
X12955682Y-14210388D02*
X12946158Y-14229436D01*
X12946158Y-14229436D02*
X12936634Y-14238960D01*
X12936634Y-14238960D02*
X12917586Y-14248484D01*
X12917586Y-14248484D02*
X12898539Y-14248484D01*
X12898539Y-14248484D02*
X12879491Y-14238960D01*
X12879491Y-14238960D02*
X12869967Y-14229436D01*
X12869967Y-14229436D02*
X12860443Y-14210388D01*
X12860443Y-14210388D02*
X12850920Y-14172293D01*
X12850920Y-14172293D02*
X12850920Y-14124674D01*
X12850920Y-14124674D02*
X12860443Y-14086579D01*
X12860443Y-14086579D02*
X12869967Y-14067531D01*
X12869967Y-14067531D02*
X12879491Y-14058008D01*
X12879491Y-14058008D02*
X12898539Y-14048484D01*
X13050920Y-14248484D02*
X13050920Y-14115150D01*
X13050920Y-14134198D02*
X13060443Y-14124674D01*
X13060443Y-14124674D02*
X13079491Y-14115150D01*
X13079491Y-14115150D02*
X13108063Y-14115150D01*
X13108063Y-14115150D02*
X13127110Y-14124674D01*
X13127110Y-14124674D02*
X13136634Y-14143722D01*
X13136634Y-14143722D02*
X13136634Y-14248484D01*
X13136634Y-14143722D02*
X13146158Y-14124674D01*
X13146158Y-14124674D02*
X13165205Y-14115150D01*
X13165205Y-14115150D02*
X13193777Y-14115150D01*
X13193777Y-14115150D02*
X13212824Y-14124674D01*
X13212824Y-14124674D02*
X13222348Y-14143722D01*
X13222348Y-14143722D02*
X13222348Y-14248484D01*
X13317586Y-14248484D02*
X13317586Y-14115150D01*
X13317586Y-14134198D02*
X13327110Y-14124674D01*
X13327110Y-14124674D02*
X13346158Y-14115150D01*
X13346158Y-14115150D02*
X13374729Y-14115150D01*
X13374729Y-14115150D02*
X13393777Y-14124674D01*
X13393777Y-14124674D02*
X13403301Y-14143722D01*
X13403301Y-14143722D02*
X13403301Y-14248484D01*
X13403301Y-14143722D02*
X13412824Y-14124674D01*
X13412824Y-14124674D02*
X13431872Y-14115150D01*
X13431872Y-14115150D02*
X13460443Y-14115150D01*
X13460443Y-14115150D02*
X13479491Y-14124674D01*
X13479491Y-14124674D02*
X13489015Y-14143722D01*
X13489015Y-14143722D02*
X13489015Y-14248484D01*
X13879491Y-14038960D02*
X13708063Y-14296103D01*
X14136634Y-14048484D02*
X14155682Y-14048484D01*
X14155682Y-14048484D02*
X14174729Y-14058008D01*
X14174729Y-14058008D02*
X14184253Y-14067531D01*
X14184253Y-14067531D02*
X14193777Y-14086579D01*
X14193777Y-14086579D02*
X14203301Y-14124674D01*
X14203301Y-14124674D02*
X14203301Y-14172293D01*
X14203301Y-14172293D02*
X14193777Y-14210388D01*
X14193777Y-14210388D02*
X14184253Y-14229436D01*
X14184253Y-14229436D02*
X14174729Y-14238960D01*
X14174729Y-14238960D02*
X14155682Y-14248484D01*
X14155682Y-14248484D02*
X14136634Y-14248484D01*
X14136634Y-14248484D02*
X14117586Y-14238960D01*
X14117586Y-14238960D02*
X14108063Y-14229436D01*
X14108063Y-14229436D02*
X14098539Y-14210388D01*
X14098539Y-14210388D02*
X14089015Y-14172293D01*
X14089015Y-14172293D02*
X14089015Y-14124674D01*
X14089015Y-14124674D02*
X14098539Y-14086579D01*
X14098539Y-14086579D02*
X14108063Y-14067531D01*
X14108063Y-14067531D02*
X14117586Y-14058008D01*
X14117586Y-14058008D02*
X14136634Y-14048484D01*
X14289015Y-14229436D02*
X14298539Y-14238960D01*
X14298539Y-14238960D02*
X14289015Y-14248484D01*
X14289015Y-14248484D02*
X14279491Y-14238960D01*
X14279491Y-14238960D02*
X14289015Y-14229436D01*
X14289015Y-14229436D02*
X14289015Y-14248484D01*
X14422348Y-14048484D02*
X14441396Y-14048484D01*
X14441396Y-14048484D02*
X14460444Y-14058008D01*
X14460444Y-14058008D02*
X14469967Y-14067531D01*
X14469967Y-14067531D02*
X14479491Y-14086579D01*
X14479491Y-14086579D02*
X14489015Y-14124674D01*
X14489015Y-14124674D02*
X14489015Y-14172293D01*
X14489015Y-14172293D02*
X14479491Y-14210388D01*
X14479491Y-14210388D02*
X14469967Y-14229436D01*
X14469967Y-14229436D02*
X14460444Y-14238960D01*
X14460444Y-14238960D02*
X14441396Y-14248484D01*
X14441396Y-14248484D02*
X14422348Y-14248484D01*
X14422348Y-14248484D02*
X14403301Y-14238960D01*
X14403301Y-14238960D02*
X14393777Y-14229436D01*
X14393777Y-14229436D02*
X14384253Y-14210388D01*
X14384253Y-14210388D02*
X14374729Y-14172293D01*
X14374729Y-14172293D02*
X14374729Y-14124674D01*
X14374729Y-14124674D02*
X14384253Y-14086579D01*
X14384253Y-14086579D02*
X14393777Y-14067531D01*
X14393777Y-14067531D02*
X14403301Y-14058008D01*
X14403301Y-14058008D02*
X14422348Y-14048484D01*
X14555682Y-14048484D02*
X14679491Y-14048484D01*
X14679491Y-14048484D02*
X14612825Y-14124674D01*
X14612825Y-14124674D02*
X14641396Y-14124674D01*
X14641396Y-14124674D02*
X14660444Y-14134198D01*
X14660444Y-14134198D02*
X14669967Y-14143722D01*
X14669967Y-14143722D02*
X14679491Y-14162769D01*
X14679491Y-14162769D02*
X14679491Y-14210388D01*
X14679491Y-14210388D02*
X14669967Y-14229436D01*
X14669967Y-14229436D02*
X14660444Y-14238960D01*
X14660444Y-14238960D02*
X14641396Y-14248484D01*
X14641396Y-14248484D02*
X14584253Y-14248484D01*
X14584253Y-14248484D02*
X14565206Y-14238960D01*
X14565206Y-14238960D02*
X14555682Y-14229436D01*
X14774729Y-14248484D02*
X14812825Y-14248484D01*
X14812825Y-14248484D02*
X14831872Y-14238960D01*
X14831872Y-14238960D02*
X14841396Y-14229436D01*
X14841396Y-14229436D02*
X14860444Y-14200865D01*
X14860444Y-14200865D02*
X14869967Y-14162769D01*
X14869967Y-14162769D02*
X14869967Y-14086579D01*
X14869967Y-14086579D02*
X14860444Y-14067531D01*
X14860444Y-14067531D02*
X14850920Y-14058008D01*
X14850920Y-14058008D02*
X14831872Y-14048484D01*
X14831872Y-14048484D02*
X14793777Y-14048484D01*
X14793777Y-14048484D02*
X14774729Y-14058008D01*
X14774729Y-14058008D02*
X14765206Y-14067531D01*
X14765206Y-14067531D02*
X14755682Y-14086579D01*
X14755682Y-14086579D02*
X14755682Y-14134198D01*
X14755682Y-14134198D02*
X14765206Y-14153246D01*
X14765206Y-14153246D02*
X14774729Y-14162769D01*
X14774729Y-14162769D02*
X14793777Y-14172293D01*
X14793777Y-14172293D02*
X14831872Y-14172293D01*
X14831872Y-14172293D02*
X14850920Y-14162769D01*
X14850920Y-14162769D02*
X14860444Y-14153246D01*
X14860444Y-14153246D02*
X14869967Y-14134198D01*
X15041396Y-14115150D02*
X15041396Y-14248484D01*
X14993777Y-14038960D02*
X14946158Y-14181817D01*
X14946158Y-14181817D02*
X15069967Y-14181817D01*
X15136634Y-14048484D02*
X15136634Y-14086579D01*
X15212825Y-14048484D02*
X15212825Y-14086579D01*
X15508063Y-14324674D02*
X15498539Y-14315150D01*
X15498539Y-14315150D02*
X15479491Y-14286579D01*
X15479491Y-14286579D02*
X15469968Y-14267531D01*
X15469968Y-14267531D02*
X15460444Y-14238960D01*
X15460444Y-14238960D02*
X15450920Y-14191341D01*
X15450920Y-14191341D02*
X15450920Y-14153246D01*
X15450920Y-14153246D02*
X15460444Y-14105627D01*
X15460444Y-14105627D02*
X15469968Y-14077055D01*
X15469968Y-14077055D02*
X15479491Y-14058008D01*
X15479491Y-14058008D02*
X15498539Y-14029436D01*
X15498539Y-14029436D02*
X15508063Y-14019912D01*
X15689015Y-14248484D02*
X15574729Y-14248484D01*
X15631872Y-14248484D02*
X15631872Y-14048484D01*
X15631872Y-14048484D02*
X15612825Y-14077055D01*
X15612825Y-14077055D02*
X15593777Y-14096103D01*
X15593777Y-14096103D02*
X15574729Y-14105627D01*
X15803301Y-14134198D02*
X15784253Y-14124674D01*
X15784253Y-14124674D02*
X15774729Y-14115150D01*
X15774729Y-14115150D02*
X15765206Y-14096103D01*
X15765206Y-14096103D02*
X15765206Y-14086579D01*
X15765206Y-14086579D02*
X15774729Y-14067531D01*
X15774729Y-14067531D02*
X15784253Y-14058008D01*
X15784253Y-14058008D02*
X15803301Y-14048484D01*
X15803301Y-14048484D02*
X15841396Y-14048484D01*
X15841396Y-14048484D02*
X15860444Y-14058008D01*
X15860444Y-14058008D02*
X15869968Y-14067531D01*
X15869968Y-14067531D02*
X15879491Y-14086579D01*
X15879491Y-14086579D02*
X15879491Y-14096103D01*
X15879491Y-14096103D02*
X15869968Y-14115150D01*
X15869968Y-14115150D02*
X15860444Y-14124674D01*
X15860444Y-14124674D02*
X15841396Y-14134198D01*
X15841396Y-14134198D02*
X15803301Y-14134198D01*
X15803301Y-14134198D02*
X15784253Y-14143722D01*
X15784253Y-14143722D02*
X15774729Y-14153246D01*
X15774729Y-14153246D02*
X15765206Y-14172293D01*
X15765206Y-14172293D02*
X15765206Y-14210388D01*
X15765206Y-14210388D02*
X15774729Y-14229436D01*
X15774729Y-14229436D02*
X15784253Y-14238960D01*
X15784253Y-14238960D02*
X15803301Y-14248484D01*
X15803301Y-14248484D02*
X15841396Y-14248484D01*
X15841396Y-14248484D02*
X15860444Y-14238960D01*
X15860444Y-14238960D02*
X15869968Y-14229436D01*
X15869968Y-14229436D02*
X15879491Y-14210388D01*
X15879491Y-14210388D02*
X15879491Y-14172293D01*
X15879491Y-14172293D02*
X15869968Y-14153246D01*
X15869968Y-14153246D02*
X15860444Y-14143722D01*
X15860444Y-14143722D02*
X15841396Y-14134198D01*
X16117587Y-14248484D02*
X16117587Y-14048484D01*
X16203301Y-14248484D02*
X16203301Y-14143722D01*
X16203301Y-14143722D02*
X16193777Y-14124674D01*
X16193777Y-14124674D02*
X16174730Y-14115150D01*
X16174730Y-14115150D02*
X16146158Y-14115150D01*
X16146158Y-14115150D02*
X16127110Y-14124674D01*
X16127110Y-14124674D02*
X16117587Y-14134198D01*
X16327110Y-14248484D02*
X16308063Y-14238960D01*
X16308063Y-14238960D02*
X16298539Y-14229436D01*
X16298539Y-14229436D02*
X16289015Y-14210388D01*
X16289015Y-14210388D02*
X16289015Y-14153246D01*
X16289015Y-14153246D02*
X16298539Y-14134198D01*
X16298539Y-14134198D02*
X16308063Y-14124674D01*
X16308063Y-14124674D02*
X16327110Y-14115150D01*
X16327110Y-14115150D02*
X16355682Y-14115150D01*
X16355682Y-14115150D02*
X16374730Y-14124674D01*
X16374730Y-14124674D02*
X16384253Y-14134198D01*
X16384253Y-14134198D02*
X16393777Y-14153246D01*
X16393777Y-14153246D02*
X16393777Y-14210388D01*
X16393777Y-14210388D02*
X16384253Y-14229436D01*
X16384253Y-14229436D02*
X16374730Y-14238960D01*
X16374730Y-14238960D02*
X16355682Y-14248484D01*
X16355682Y-14248484D02*
X16327110Y-14248484D01*
X16508063Y-14248484D02*
X16489015Y-14238960D01*
X16489015Y-14238960D02*
X16479491Y-14219912D01*
X16479491Y-14219912D02*
X16479491Y-14048484D01*
X16660444Y-14238960D02*
X16641396Y-14248484D01*
X16641396Y-14248484D02*
X16603301Y-14248484D01*
X16603301Y-14248484D02*
X16584253Y-14238960D01*
X16584253Y-14238960D02*
X16574730Y-14219912D01*
X16574730Y-14219912D02*
X16574730Y-14143722D01*
X16574730Y-14143722D02*
X16584253Y-14124674D01*
X16584253Y-14124674D02*
X16603301Y-14115150D01*
X16603301Y-14115150D02*
X16641396Y-14115150D01*
X16641396Y-14115150D02*
X16660444Y-14124674D01*
X16660444Y-14124674D02*
X16669968Y-14143722D01*
X16669968Y-14143722D02*
X16669968Y-14162769D01*
X16669968Y-14162769D02*
X16574730Y-14181817D01*
X16746158Y-14238960D02*
X16765206Y-14248484D01*
X16765206Y-14248484D02*
X16803301Y-14248484D01*
X16803301Y-14248484D02*
X16822349Y-14238960D01*
X16822349Y-14238960D02*
X16831873Y-14219912D01*
X16831873Y-14219912D02*
X16831873Y-14210388D01*
X16831873Y-14210388D02*
X16822349Y-14191341D01*
X16822349Y-14191341D02*
X16803301Y-14181817D01*
X16803301Y-14181817D02*
X16774730Y-14181817D01*
X16774730Y-14181817D02*
X16755682Y-14172293D01*
X16755682Y-14172293D02*
X16746158Y-14153246D01*
X16746158Y-14153246D02*
X16746158Y-14143722D01*
X16746158Y-14143722D02*
X16755682Y-14124674D01*
X16755682Y-14124674D02*
X16774730Y-14115150D01*
X16774730Y-14115150D02*
X16803301Y-14115150D01*
X16803301Y-14115150D02*
X16822349Y-14124674D01*
X16898539Y-14324674D02*
X16908063Y-14315150D01*
X16908063Y-14315150D02*
X16927111Y-14286579D01*
X16927111Y-14286579D02*
X16936634Y-14267531D01*
X16936634Y-14267531D02*
X16946158Y-14238960D01*
X16946158Y-14238960D02*
X16955682Y-14191341D01*
X16955682Y-14191341D02*
X16955682Y-14153246D01*
X16955682Y-14153246D02*
X16946158Y-14105627D01*
X16946158Y-14105627D02*
X16936634Y-14077055D01*
X16936634Y-14077055D02*
X16927111Y-14058008D01*
X16927111Y-14058008D02*
X16908063Y-14029436D01*
X16908063Y-14029436D02*
X16898539Y-14019912D01*
D17*
X11813000Y-14361000D02*
X11933000Y-14481000D01*
X11933000Y-14361000D02*
X11813000Y-14481000D01*
X11873000Y-14361000D02*
X11873000Y-14481000D01*
X11813000Y-14421000D02*
X11933000Y-14421000D01*
D11*
X12298539Y-14512484D02*
X12184253Y-14512484D01*
X12241396Y-14512484D02*
X12241396Y-14312484D01*
X12241396Y-14312484D02*
X12222348Y-14341055D01*
X12222348Y-14341055D02*
X12203301Y-14360103D01*
X12203301Y-14360103D02*
X12184253Y-14369627D01*
X12384253Y-14493436D02*
X12393777Y-14502960D01*
X12393777Y-14502960D02*
X12384253Y-14512484D01*
X12384253Y-14512484D02*
X12374729Y-14502960D01*
X12374729Y-14502960D02*
X12384253Y-14493436D01*
X12384253Y-14493436D02*
X12384253Y-14512484D01*
X12469967Y-14331531D02*
X12479491Y-14322008D01*
X12479491Y-14322008D02*
X12498539Y-14312484D01*
X12498539Y-14312484D02*
X12546158Y-14312484D01*
X12546158Y-14312484D02*
X12565205Y-14322008D01*
X12565205Y-14322008D02*
X12574729Y-14331531D01*
X12574729Y-14331531D02*
X12584253Y-14350579D01*
X12584253Y-14350579D02*
X12584253Y-14369627D01*
X12584253Y-14369627D02*
X12574729Y-14398198D01*
X12574729Y-14398198D02*
X12460443Y-14512484D01*
X12460443Y-14512484D02*
X12584253Y-14512484D01*
X12708062Y-14312484D02*
X12727110Y-14312484D01*
X12727110Y-14312484D02*
X12746158Y-14322008D01*
X12746158Y-14322008D02*
X12755682Y-14331531D01*
X12755682Y-14331531D02*
X12765205Y-14350579D01*
X12765205Y-14350579D02*
X12774729Y-14388674D01*
X12774729Y-14388674D02*
X12774729Y-14436293D01*
X12774729Y-14436293D02*
X12765205Y-14474388D01*
X12765205Y-14474388D02*
X12755682Y-14493436D01*
X12755682Y-14493436D02*
X12746158Y-14502960D01*
X12746158Y-14502960D02*
X12727110Y-14512484D01*
X12727110Y-14512484D02*
X12708062Y-14512484D01*
X12708062Y-14512484D02*
X12689015Y-14502960D01*
X12689015Y-14502960D02*
X12679491Y-14493436D01*
X12679491Y-14493436D02*
X12669967Y-14474388D01*
X12669967Y-14474388D02*
X12660443Y-14436293D01*
X12660443Y-14436293D02*
X12660443Y-14388674D01*
X12660443Y-14388674D02*
X12669967Y-14350579D01*
X12669967Y-14350579D02*
X12679491Y-14331531D01*
X12679491Y-14331531D02*
X12689015Y-14322008D01*
X12689015Y-14322008D02*
X12708062Y-14312484D01*
X12898539Y-14312484D02*
X12917586Y-14312484D01*
X12917586Y-14312484D02*
X12936634Y-14322008D01*
X12936634Y-14322008D02*
X12946158Y-14331531D01*
X12946158Y-14331531D02*
X12955682Y-14350579D01*
X12955682Y-14350579D02*
X12965205Y-14388674D01*
X12965205Y-14388674D02*
X12965205Y-14436293D01*
X12965205Y-14436293D02*
X12955682Y-14474388D01*
X12955682Y-14474388D02*
X12946158Y-14493436D01*
X12946158Y-14493436D02*
X12936634Y-14502960D01*
X12936634Y-14502960D02*
X12917586Y-14512484D01*
X12917586Y-14512484D02*
X12898539Y-14512484D01*
X12898539Y-14512484D02*
X12879491Y-14502960D01*
X12879491Y-14502960D02*
X12869967Y-14493436D01*
X12869967Y-14493436D02*
X12860443Y-14474388D01*
X12860443Y-14474388D02*
X12850920Y-14436293D01*
X12850920Y-14436293D02*
X12850920Y-14388674D01*
X12850920Y-14388674D02*
X12860443Y-14350579D01*
X12860443Y-14350579D02*
X12869967Y-14331531D01*
X12869967Y-14331531D02*
X12879491Y-14322008D01*
X12879491Y-14322008D02*
X12898539Y-14312484D01*
X13050920Y-14512484D02*
X13050920Y-14379150D01*
X13050920Y-14398198D02*
X13060443Y-14388674D01*
X13060443Y-14388674D02*
X13079491Y-14379150D01*
X13079491Y-14379150D02*
X13108063Y-14379150D01*
X13108063Y-14379150D02*
X13127110Y-14388674D01*
X13127110Y-14388674D02*
X13136634Y-14407722D01*
X13136634Y-14407722D02*
X13136634Y-14512484D01*
X13136634Y-14407722D02*
X13146158Y-14388674D01*
X13146158Y-14388674D02*
X13165205Y-14379150D01*
X13165205Y-14379150D02*
X13193777Y-14379150D01*
X13193777Y-14379150D02*
X13212824Y-14388674D01*
X13212824Y-14388674D02*
X13222348Y-14407722D01*
X13222348Y-14407722D02*
X13222348Y-14512484D01*
X13317586Y-14512484D02*
X13317586Y-14379150D01*
X13317586Y-14398198D02*
X13327110Y-14388674D01*
X13327110Y-14388674D02*
X13346158Y-14379150D01*
X13346158Y-14379150D02*
X13374729Y-14379150D01*
X13374729Y-14379150D02*
X13393777Y-14388674D01*
X13393777Y-14388674D02*
X13403301Y-14407722D01*
X13403301Y-14407722D02*
X13403301Y-14512484D01*
X13403301Y-14407722D02*
X13412824Y-14388674D01*
X13412824Y-14388674D02*
X13431872Y-14379150D01*
X13431872Y-14379150D02*
X13460443Y-14379150D01*
X13460443Y-14379150D02*
X13479491Y-14388674D01*
X13479491Y-14388674D02*
X13489015Y-14407722D01*
X13489015Y-14407722D02*
X13489015Y-14512484D01*
X13879491Y-14302960D02*
X13708063Y-14560103D01*
X14136634Y-14312484D02*
X14155682Y-14312484D01*
X14155682Y-14312484D02*
X14174729Y-14322008D01*
X14174729Y-14322008D02*
X14184253Y-14331531D01*
X14184253Y-14331531D02*
X14193777Y-14350579D01*
X14193777Y-14350579D02*
X14203301Y-14388674D01*
X14203301Y-14388674D02*
X14203301Y-14436293D01*
X14203301Y-14436293D02*
X14193777Y-14474388D01*
X14193777Y-14474388D02*
X14184253Y-14493436D01*
X14184253Y-14493436D02*
X14174729Y-14502960D01*
X14174729Y-14502960D02*
X14155682Y-14512484D01*
X14155682Y-14512484D02*
X14136634Y-14512484D01*
X14136634Y-14512484D02*
X14117586Y-14502960D01*
X14117586Y-14502960D02*
X14108063Y-14493436D01*
X14108063Y-14493436D02*
X14098539Y-14474388D01*
X14098539Y-14474388D02*
X14089015Y-14436293D01*
X14089015Y-14436293D02*
X14089015Y-14388674D01*
X14089015Y-14388674D02*
X14098539Y-14350579D01*
X14098539Y-14350579D02*
X14108063Y-14331531D01*
X14108063Y-14331531D02*
X14117586Y-14322008D01*
X14117586Y-14322008D02*
X14136634Y-14312484D01*
X14289015Y-14493436D02*
X14298539Y-14502960D01*
X14298539Y-14502960D02*
X14289015Y-14512484D01*
X14289015Y-14512484D02*
X14279491Y-14502960D01*
X14279491Y-14502960D02*
X14289015Y-14493436D01*
X14289015Y-14493436D02*
X14289015Y-14512484D01*
X14422348Y-14312484D02*
X14441396Y-14312484D01*
X14441396Y-14312484D02*
X14460444Y-14322008D01*
X14460444Y-14322008D02*
X14469967Y-14331531D01*
X14469967Y-14331531D02*
X14479491Y-14350579D01*
X14479491Y-14350579D02*
X14489015Y-14388674D01*
X14489015Y-14388674D02*
X14489015Y-14436293D01*
X14489015Y-14436293D02*
X14479491Y-14474388D01*
X14479491Y-14474388D02*
X14469967Y-14493436D01*
X14469967Y-14493436D02*
X14460444Y-14502960D01*
X14460444Y-14502960D02*
X14441396Y-14512484D01*
X14441396Y-14512484D02*
X14422348Y-14512484D01*
X14422348Y-14512484D02*
X14403301Y-14502960D01*
X14403301Y-14502960D02*
X14393777Y-14493436D01*
X14393777Y-14493436D02*
X14384253Y-14474388D01*
X14384253Y-14474388D02*
X14374729Y-14436293D01*
X14374729Y-14436293D02*
X14374729Y-14388674D01*
X14374729Y-14388674D02*
X14384253Y-14350579D01*
X14384253Y-14350579D02*
X14393777Y-14331531D01*
X14393777Y-14331531D02*
X14403301Y-14322008D01*
X14403301Y-14322008D02*
X14422348Y-14312484D01*
X14660444Y-14379150D02*
X14660444Y-14512484D01*
X14612825Y-14302960D02*
X14565206Y-14445817D01*
X14565206Y-14445817D02*
X14689015Y-14445817D01*
X14746158Y-14312484D02*
X14879491Y-14312484D01*
X14879491Y-14312484D02*
X14793777Y-14512484D01*
X14946158Y-14331531D02*
X14955682Y-14322008D01*
X14955682Y-14322008D02*
X14974729Y-14312484D01*
X14974729Y-14312484D02*
X15022348Y-14312484D01*
X15022348Y-14312484D02*
X15041396Y-14322008D01*
X15041396Y-14322008D02*
X15050920Y-14331531D01*
X15050920Y-14331531D02*
X15060444Y-14350579D01*
X15060444Y-14350579D02*
X15060444Y-14369627D01*
X15060444Y-14369627D02*
X15050920Y-14398198D01*
X15050920Y-14398198D02*
X14936634Y-14512484D01*
X14936634Y-14512484D02*
X15060444Y-14512484D01*
X15136634Y-14312484D02*
X15136634Y-14350579D01*
X15212825Y-14312484D02*
X15212825Y-14350579D01*
X15508063Y-14588674D02*
X15498539Y-14579150D01*
X15498539Y-14579150D02*
X15479491Y-14550579D01*
X15479491Y-14550579D02*
X15469968Y-14531531D01*
X15469968Y-14531531D02*
X15460444Y-14502960D01*
X15460444Y-14502960D02*
X15450920Y-14455341D01*
X15450920Y-14455341D02*
X15450920Y-14417246D01*
X15450920Y-14417246D02*
X15460444Y-14369627D01*
X15460444Y-14369627D02*
X15469968Y-14341055D01*
X15469968Y-14341055D02*
X15479491Y-14322008D01*
X15479491Y-14322008D02*
X15498539Y-14293436D01*
X15498539Y-14293436D02*
X15508063Y-14283912D01*
X15612825Y-14398198D02*
X15593777Y-14388674D01*
X15593777Y-14388674D02*
X15584253Y-14379150D01*
X15584253Y-14379150D02*
X15574729Y-14360103D01*
X15574729Y-14360103D02*
X15574729Y-14350579D01*
X15574729Y-14350579D02*
X15584253Y-14331531D01*
X15584253Y-14331531D02*
X15593777Y-14322008D01*
X15593777Y-14322008D02*
X15612825Y-14312484D01*
X15612825Y-14312484D02*
X15650920Y-14312484D01*
X15650920Y-14312484D02*
X15669968Y-14322008D01*
X15669968Y-14322008D02*
X15679491Y-14331531D01*
X15679491Y-14331531D02*
X15689015Y-14350579D01*
X15689015Y-14350579D02*
X15689015Y-14360103D01*
X15689015Y-14360103D02*
X15679491Y-14379150D01*
X15679491Y-14379150D02*
X15669968Y-14388674D01*
X15669968Y-14388674D02*
X15650920Y-14398198D01*
X15650920Y-14398198D02*
X15612825Y-14398198D01*
X15612825Y-14398198D02*
X15593777Y-14407722D01*
X15593777Y-14407722D02*
X15584253Y-14417246D01*
X15584253Y-14417246D02*
X15574729Y-14436293D01*
X15574729Y-14436293D02*
X15574729Y-14474388D01*
X15574729Y-14474388D02*
X15584253Y-14493436D01*
X15584253Y-14493436D02*
X15593777Y-14502960D01*
X15593777Y-14502960D02*
X15612825Y-14512484D01*
X15612825Y-14512484D02*
X15650920Y-14512484D01*
X15650920Y-14512484D02*
X15669968Y-14502960D01*
X15669968Y-14502960D02*
X15679491Y-14493436D01*
X15679491Y-14493436D02*
X15689015Y-14474388D01*
X15689015Y-14474388D02*
X15689015Y-14436293D01*
X15689015Y-14436293D02*
X15679491Y-14417246D01*
X15679491Y-14417246D02*
X15669968Y-14407722D01*
X15669968Y-14407722D02*
X15650920Y-14398198D01*
X15927110Y-14512484D02*
X15927110Y-14312484D01*
X16012825Y-14512484D02*
X16012825Y-14407722D01*
X16012825Y-14407722D02*
X16003301Y-14388674D01*
X16003301Y-14388674D02*
X15984253Y-14379150D01*
X15984253Y-14379150D02*
X15955682Y-14379150D01*
X15955682Y-14379150D02*
X15936634Y-14388674D01*
X15936634Y-14388674D02*
X15927110Y-14398198D01*
X16136634Y-14512484D02*
X16117587Y-14502960D01*
X16117587Y-14502960D02*
X16108063Y-14493436D01*
X16108063Y-14493436D02*
X16098539Y-14474388D01*
X16098539Y-14474388D02*
X16098539Y-14417246D01*
X16098539Y-14417246D02*
X16108063Y-14398198D01*
X16108063Y-14398198D02*
X16117587Y-14388674D01*
X16117587Y-14388674D02*
X16136634Y-14379150D01*
X16136634Y-14379150D02*
X16165206Y-14379150D01*
X16165206Y-14379150D02*
X16184253Y-14388674D01*
X16184253Y-14388674D02*
X16193777Y-14398198D01*
X16193777Y-14398198D02*
X16203301Y-14417246D01*
X16203301Y-14417246D02*
X16203301Y-14474388D01*
X16203301Y-14474388D02*
X16193777Y-14493436D01*
X16193777Y-14493436D02*
X16184253Y-14502960D01*
X16184253Y-14502960D02*
X16165206Y-14512484D01*
X16165206Y-14512484D02*
X16136634Y-14512484D01*
X16317587Y-14512484D02*
X16298539Y-14502960D01*
X16298539Y-14502960D02*
X16289015Y-14483912D01*
X16289015Y-14483912D02*
X16289015Y-14312484D01*
X16469968Y-14502960D02*
X16450920Y-14512484D01*
X16450920Y-14512484D02*
X16412825Y-14512484D01*
X16412825Y-14512484D02*
X16393777Y-14502960D01*
X16393777Y-14502960D02*
X16384253Y-14483912D01*
X16384253Y-14483912D02*
X16384253Y-14407722D01*
X16384253Y-14407722D02*
X16393777Y-14388674D01*
X16393777Y-14388674D02*
X16412825Y-14379150D01*
X16412825Y-14379150D02*
X16450920Y-14379150D01*
X16450920Y-14379150D02*
X16469968Y-14388674D01*
X16469968Y-14388674D02*
X16479491Y-14407722D01*
X16479491Y-14407722D02*
X16479491Y-14426769D01*
X16479491Y-14426769D02*
X16384253Y-14445817D01*
X16555682Y-14502960D02*
X16574730Y-14512484D01*
X16574730Y-14512484D02*
X16612825Y-14512484D01*
X16612825Y-14512484D02*
X16631872Y-14502960D01*
X16631872Y-14502960D02*
X16641396Y-14483912D01*
X16641396Y-14483912D02*
X16641396Y-14474388D01*
X16641396Y-14474388D02*
X16631872Y-14455341D01*
X16631872Y-14455341D02*
X16612825Y-14445817D01*
X16612825Y-14445817D02*
X16584253Y-14445817D01*
X16584253Y-14445817D02*
X16565206Y-14436293D01*
X16565206Y-14436293D02*
X16555682Y-14417246D01*
X16555682Y-14417246D02*
X16555682Y-14407722D01*
X16555682Y-14407722D02*
X16565206Y-14388674D01*
X16565206Y-14388674D02*
X16584253Y-14379150D01*
X16584253Y-14379150D02*
X16612825Y-14379150D01*
X16612825Y-14379150D02*
X16631872Y-14388674D01*
X16708063Y-14588674D02*
X16717587Y-14579150D01*
X16717587Y-14579150D02*
X16736634Y-14550579D01*
X16736634Y-14550579D02*
X16746158Y-14531531D01*
X16746158Y-14531531D02*
X16755682Y-14502960D01*
X16755682Y-14502960D02*
X16765206Y-14455341D01*
X16765206Y-14455341D02*
X16765206Y-14417246D01*
X16765206Y-14417246D02*
X16755682Y-14369627D01*
X16755682Y-14369627D02*
X16746158Y-14341055D01*
X16746158Y-14341055D02*
X16736634Y-14322008D01*
X16736634Y-14322008D02*
X16717587Y-14293436D01*
X16717587Y-14293436D02*
X16708063Y-14283912D01*
X11733000Y-14585000D02*
X11933000Y-14785000D01*
X11933000Y-14585000D02*
X11733000Y-14785000D01*
X11903711Y-14755711D02*
X11903711Y-14614289D01*
X11762289Y-14614289D01*
X11762289Y-14755711D01*
X11903711Y-14755711D01*
X12279491Y-14643150D02*
X12279491Y-14776484D01*
X12231872Y-14566960D02*
X12184253Y-14709817D01*
X12184253Y-14709817D02*
X12308062Y-14709817D01*
X12384253Y-14757436D02*
X12393777Y-14766960D01*
X12393777Y-14766960D02*
X12384253Y-14776484D01*
X12384253Y-14776484D02*
X12374729Y-14766960D01*
X12374729Y-14766960D02*
X12384253Y-14757436D01*
X12384253Y-14757436D02*
X12384253Y-14776484D01*
X12517586Y-14576484D02*
X12536634Y-14576484D01*
X12536634Y-14576484D02*
X12555682Y-14586008D01*
X12555682Y-14586008D02*
X12565205Y-14595531D01*
X12565205Y-14595531D02*
X12574729Y-14614579D01*
X12574729Y-14614579D02*
X12584253Y-14652674D01*
X12584253Y-14652674D02*
X12584253Y-14700293D01*
X12584253Y-14700293D02*
X12574729Y-14738388D01*
X12574729Y-14738388D02*
X12565205Y-14757436D01*
X12565205Y-14757436D02*
X12555682Y-14766960D01*
X12555682Y-14766960D02*
X12536634Y-14776484D01*
X12536634Y-14776484D02*
X12517586Y-14776484D01*
X12517586Y-14776484D02*
X12498539Y-14766960D01*
X12498539Y-14766960D02*
X12489015Y-14757436D01*
X12489015Y-14757436D02*
X12479491Y-14738388D01*
X12479491Y-14738388D02*
X12469967Y-14700293D01*
X12469967Y-14700293D02*
X12469967Y-14652674D01*
X12469967Y-14652674D02*
X12479491Y-14614579D01*
X12479491Y-14614579D02*
X12489015Y-14595531D01*
X12489015Y-14595531D02*
X12498539Y-14586008D01*
X12498539Y-14586008D02*
X12517586Y-14576484D01*
X12708062Y-14576484D02*
X12727110Y-14576484D01*
X12727110Y-14576484D02*
X12746158Y-14586008D01*
X12746158Y-14586008D02*
X12755682Y-14595531D01*
X12755682Y-14595531D02*
X12765205Y-14614579D01*
X12765205Y-14614579D02*
X12774729Y-14652674D01*
X12774729Y-14652674D02*
X12774729Y-14700293D01*
X12774729Y-14700293D02*
X12765205Y-14738388D01*
X12765205Y-14738388D02*
X12755682Y-14757436D01*
X12755682Y-14757436D02*
X12746158Y-14766960D01*
X12746158Y-14766960D02*
X12727110Y-14776484D01*
X12727110Y-14776484D02*
X12708062Y-14776484D01*
X12708062Y-14776484D02*
X12689015Y-14766960D01*
X12689015Y-14766960D02*
X12679491Y-14757436D01*
X12679491Y-14757436D02*
X12669967Y-14738388D01*
X12669967Y-14738388D02*
X12660443Y-14700293D01*
X12660443Y-14700293D02*
X12660443Y-14652674D01*
X12660443Y-14652674D02*
X12669967Y-14614579D01*
X12669967Y-14614579D02*
X12679491Y-14595531D01*
X12679491Y-14595531D02*
X12689015Y-14586008D01*
X12689015Y-14586008D02*
X12708062Y-14576484D01*
X12898539Y-14576484D02*
X12917586Y-14576484D01*
X12917586Y-14576484D02*
X12936634Y-14586008D01*
X12936634Y-14586008D02*
X12946158Y-14595531D01*
X12946158Y-14595531D02*
X12955682Y-14614579D01*
X12955682Y-14614579D02*
X12965205Y-14652674D01*
X12965205Y-14652674D02*
X12965205Y-14700293D01*
X12965205Y-14700293D02*
X12955682Y-14738388D01*
X12955682Y-14738388D02*
X12946158Y-14757436D01*
X12946158Y-14757436D02*
X12936634Y-14766960D01*
X12936634Y-14766960D02*
X12917586Y-14776484D01*
X12917586Y-14776484D02*
X12898539Y-14776484D01*
X12898539Y-14776484D02*
X12879491Y-14766960D01*
X12879491Y-14766960D02*
X12869967Y-14757436D01*
X12869967Y-14757436D02*
X12860443Y-14738388D01*
X12860443Y-14738388D02*
X12850920Y-14700293D01*
X12850920Y-14700293D02*
X12850920Y-14652674D01*
X12850920Y-14652674D02*
X12860443Y-14614579D01*
X12860443Y-14614579D02*
X12869967Y-14595531D01*
X12869967Y-14595531D02*
X12879491Y-14586008D01*
X12879491Y-14586008D02*
X12898539Y-14576484D01*
X13050920Y-14776484D02*
X13050920Y-14643150D01*
X13050920Y-14662198D02*
X13060443Y-14652674D01*
X13060443Y-14652674D02*
X13079491Y-14643150D01*
X13079491Y-14643150D02*
X13108063Y-14643150D01*
X13108063Y-14643150D02*
X13127110Y-14652674D01*
X13127110Y-14652674D02*
X13136634Y-14671722D01*
X13136634Y-14671722D02*
X13136634Y-14776484D01*
X13136634Y-14671722D02*
X13146158Y-14652674D01*
X13146158Y-14652674D02*
X13165205Y-14643150D01*
X13165205Y-14643150D02*
X13193777Y-14643150D01*
X13193777Y-14643150D02*
X13212824Y-14652674D01*
X13212824Y-14652674D02*
X13222348Y-14671722D01*
X13222348Y-14671722D02*
X13222348Y-14776484D01*
X13317586Y-14776484D02*
X13317586Y-14643150D01*
X13317586Y-14662198D02*
X13327110Y-14652674D01*
X13327110Y-14652674D02*
X13346158Y-14643150D01*
X13346158Y-14643150D02*
X13374729Y-14643150D01*
X13374729Y-14643150D02*
X13393777Y-14652674D01*
X13393777Y-14652674D02*
X13403301Y-14671722D01*
X13403301Y-14671722D02*
X13403301Y-14776484D01*
X13403301Y-14671722D02*
X13412824Y-14652674D01*
X13412824Y-14652674D02*
X13431872Y-14643150D01*
X13431872Y-14643150D02*
X13460443Y-14643150D01*
X13460443Y-14643150D02*
X13479491Y-14652674D01*
X13479491Y-14652674D02*
X13489015Y-14671722D01*
X13489015Y-14671722D02*
X13489015Y-14776484D01*
X13879491Y-14566960D02*
X13708063Y-14824103D01*
X14136634Y-14576484D02*
X14155682Y-14576484D01*
X14155682Y-14576484D02*
X14174729Y-14586008D01*
X14174729Y-14586008D02*
X14184253Y-14595531D01*
X14184253Y-14595531D02*
X14193777Y-14614579D01*
X14193777Y-14614579D02*
X14203301Y-14652674D01*
X14203301Y-14652674D02*
X14203301Y-14700293D01*
X14203301Y-14700293D02*
X14193777Y-14738388D01*
X14193777Y-14738388D02*
X14184253Y-14757436D01*
X14184253Y-14757436D02*
X14174729Y-14766960D01*
X14174729Y-14766960D02*
X14155682Y-14776484D01*
X14155682Y-14776484D02*
X14136634Y-14776484D01*
X14136634Y-14776484D02*
X14117586Y-14766960D01*
X14117586Y-14766960D02*
X14108063Y-14757436D01*
X14108063Y-14757436D02*
X14098539Y-14738388D01*
X14098539Y-14738388D02*
X14089015Y-14700293D01*
X14089015Y-14700293D02*
X14089015Y-14652674D01*
X14089015Y-14652674D02*
X14098539Y-14614579D01*
X14098539Y-14614579D02*
X14108063Y-14595531D01*
X14108063Y-14595531D02*
X14117586Y-14586008D01*
X14117586Y-14586008D02*
X14136634Y-14576484D01*
X14289015Y-14757436D02*
X14298539Y-14766960D01*
X14298539Y-14766960D02*
X14289015Y-14776484D01*
X14289015Y-14776484D02*
X14279491Y-14766960D01*
X14279491Y-14766960D02*
X14289015Y-14757436D01*
X14289015Y-14757436D02*
X14289015Y-14776484D01*
X14489015Y-14776484D02*
X14374729Y-14776484D01*
X14431872Y-14776484D02*
X14431872Y-14576484D01*
X14431872Y-14576484D02*
X14412825Y-14605055D01*
X14412825Y-14605055D02*
X14393777Y-14624103D01*
X14393777Y-14624103D02*
X14374729Y-14633627D01*
X14669967Y-14576484D02*
X14574729Y-14576484D01*
X14574729Y-14576484D02*
X14565206Y-14671722D01*
X14565206Y-14671722D02*
X14574729Y-14662198D01*
X14574729Y-14662198D02*
X14593777Y-14652674D01*
X14593777Y-14652674D02*
X14641396Y-14652674D01*
X14641396Y-14652674D02*
X14660444Y-14662198D01*
X14660444Y-14662198D02*
X14669967Y-14671722D01*
X14669967Y-14671722D02*
X14679491Y-14690769D01*
X14679491Y-14690769D02*
X14679491Y-14738388D01*
X14679491Y-14738388D02*
X14669967Y-14757436D01*
X14669967Y-14757436D02*
X14660444Y-14766960D01*
X14660444Y-14766960D02*
X14641396Y-14776484D01*
X14641396Y-14776484D02*
X14593777Y-14776484D01*
X14593777Y-14776484D02*
X14574729Y-14766960D01*
X14574729Y-14766960D02*
X14565206Y-14757436D01*
X14746158Y-14576484D02*
X14879491Y-14576484D01*
X14879491Y-14576484D02*
X14793777Y-14776484D01*
X15050920Y-14576484D02*
X14955682Y-14576484D01*
X14955682Y-14576484D02*
X14946158Y-14671722D01*
X14946158Y-14671722D02*
X14955682Y-14662198D01*
X14955682Y-14662198D02*
X14974729Y-14652674D01*
X14974729Y-14652674D02*
X15022348Y-14652674D01*
X15022348Y-14652674D02*
X15041396Y-14662198D01*
X15041396Y-14662198D02*
X15050920Y-14671722D01*
X15050920Y-14671722D02*
X15060444Y-14690769D01*
X15060444Y-14690769D02*
X15060444Y-14738388D01*
X15060444Y-14738388D02*
X15050920Y-14757436D01*
X15050920Y-14757436D02*
X15041396Y-14766960D01*
X15041396Y-14766960D02*
X15022348Y-14776484D01*
X15022348Y-14776484D02*
X14974729Y-14776484D01*
X14974729Y-14776484D02*
X14955682Y-14766960D01*
X14955682Y-14766960D02*
X14946158Y-14757436D01*
X15136634Y-14576484D02*
X15136634Y-14614579D01*
X15212825Y-14576484D02*
X15212825Y-14614579D01*
X15508063Y-14852674D02*
X15498539Y-14843150D01*
X15498539Y-14843150D02*
X15479491Y-14814579D01*
X15479491Y-14814579D02*
X15469968Y-14795531D01*
X15469968Y-14795531D02*
X15460444Y-14766960D01*
X15460444Y-14766960D02*
X15450920Y-14719341D01*
X15450920Y-14719341D02*
X15450920Y-14681246D01*
X15450920Y-14681246D02*
X15460444Y-14633627D01*
X15460444Y-14633627D02*
X15469968Y-14605055D01*
X15469968Y-14605055D02*
X15479491Y-14586008D01*
X15479491Y-14586008D02*
X15498539Y-14557436D01*
X15498539Y-14557436D02*
X15508063Y-14547912D01*
X15574729Y-14595531D02*
X15584253Y-14586008D01*
X15584253Y-14586008D02*
X15603301Y-14576484D01*
X15603301Y-14576484D02*
X15650920Y-14576484D01*
X15650920Y-14576484D02*
X15669968Y-14586008D01*
X15669968Y-14586008D02*
X15679491Y-14595531D01*
X15679491Y-14595531D02*
X15689015Y-14614579D01*
X15689015Y-14614579D02*
X15689015Y-14633627D01*
X15689015Y-14633627D02*
X15679491Y-14662198D01*
X15679491Y-14662198D02*
X15565206Y-14776484D01*
X15565206Y-14776484D02*
X15689015Y-14776484D01*
X15812825Y-14576484D02*
X15831872Y-14576484D01*
X15831872Y-14576484D02*
X15850920Y-14586008D01*
X15850920Y-14586008D02*
X15860444Y-14595531D01*
X15860444Y-14595531D02*
X15869968Y-14614579D01*
X15869968Y-14614579D02*
X15879491Y-14652674D01*
X15879491Y-14652674D02*
X15879491Y-14700293D01*
X15879491Y-14700293D02*
X15869968Y-14738388D01*
X15869968Y-14738388D02*
X15860444Y-14757436D01*
X15860444Y-14757436D02*
X15850920Y-14766960D01*
X15850920Y-14766960D02*
X15831872Y-14776484D01*
X15831872Y-14776484D02*
X15812825Y-14776484D01*
X15812825Y-14776484D02*
X15793777Y-14766960D01*
X15793777Y-14766960D02*
X15784253Y-14757436D01*
X15784253Y-14757436D02*
X15774729Y-14738388D01*
X15774729Y-14738388D02*
X15765206Y-14700293D01*
X15765206Y-14700293D02*
X15765206Y-14652674D01*
X15765206Y-14652674D02*
X15774729Y-14614579D01*
X15774729Y-14614579D02*
X15784253Y-14595531D01*
X15784253Y-14595531D02*
X15793777Y-14586008D01*
X15793777Y-14586008D02*
X15812825Y-14576484D01*
X16117587Y-14776484D02*
X16117587Y-14576484D01*
X16203301Y-14776484D02*
X16203301Y-14671722D01*
X16203301Y-14671722D02*
X16193777Y-14652674D01*
X16193777Y-14652674D02*
X16174730Y-14643150D01*
X16174730Y-14643150D02*
X16146158Y-14643150D01*
X16146158Y-14643150D02*
X16127110Y-14652674D01*
X16127110Y-14652674D02*
X16117587Y-14662198D01*
X16327110Y-14776484D02*
X16308063Y-14766960D01*
X16308063Y-14766960D02*
X16298539Y-14757436D01*
X16298539Y-14757436D02*
X16289015Y-14738388D01*
X16289015Y-14738388D02*
X16289015Y-14681246D01*
X16289015Y-14681246D02*
X16298539Y-14662198D01*
X16298539Y-14662198D02*
X16308063Y-14652674D01*
X16308063Y-14652674D02*
X16327110Y-14643150D01*
X16327110Y-14643150D02*
X16355682Y-14643150D01*
X16355682Y-14643150D02*
X16374730Y-14652674D01*
X16374730Y-14652674D02*
X16384253Y-14662198D01*
X16384253Y-14662198D02*
X16393777Y-14681246D01*
X16393777Y-14681246D02*
X16393777Y-14738388D01*
X16393777Y-14738388D02*
X16384253Y-14757436D01*
X16384253Y-14757436D02*
X16374730Y-14766960D01*
X16374730Y-14766960D02*
X16355682Y-14776484D01*
X16355682Y-14776484D02*
X16327110Y-14776484D01*
X16508063Y-14776484D02*
X16489015Y-14766960D01*
X16489015Y-14766960D02*
X16479491Y-14747912D01*
X16479491Y-14747912D02*
X16479491Y-14576484D01*
X16660444Y-14766960D02*
X16641396Y-14776484D01*
X16641396Y-14776484D02*
X16603301Y-14776484D01*
X16603301Y-14776484D02*
X16584253Y-14766960D01*
X16584253Y-14766960D02*
X16574730Y-14747912D01*
X16574730Y-14747912D02*
X16574730Y-14671722D01*
X16574730Y-14671722D02*
X16584253Y-14652674D01*
X16584253Y-14652674D02*
X16603301Y-14643150D01*
X16603301Y-14643150D02*
X16641396Y-14643150D01*
X16641396Y-14643150D02*
X16660444Y-14652674D01*
X16660444Y-14652674D02*
X16669968Y-14671722D01*
X16669968Y-14671722D02*
X16669968Y-14690769D01*
X16669968Y-14690769D02*
X16574730Y-14709817D01*
X16746158Y-14766960D02*
X16765206Y-14776484D01*
X16765206Y-14776484D02*
X16803301Y-14776484D01*
X16803301Y-14776484D02*
X16822349Y-14766960D01*
X16822349Y-14766960D02*
X16831873Y-14747912D01*
X16831873Y-14747912D02*
X16831873Y-14738388D01*
X16831873Y-14738388D02*
X16822349Y-14719341D01*
X16822349Y-14719341D02*
X16803301Y-14709817D01*
X16803301Y-14709817D02*
X16774730Y-14709817D01*
X16774730Y-14709817D02*
X16755682Y-14700293D01*
X16755682Y-14700293D02*
X16746158Y-14681246D01*
X16746158Y-14681246D02*
X16746158Y-14671722D01*
X16746158Y-14671722D02*
X16755682Y-14652674D01*
X16755682Y-14652674D02*
X16774730Y-14643150D01*
X16774730Y-14643150D02*
X16803301Y-14643150D01*
X16803301Y-14643150D02*
X16822349Y-14652674D01*
X16898539Y-14852674D02*
X16908063Y-14843150D01*
X16908063Y-14843150D02*
X16927111Y-14814579D01*
X16927111Y-14814579D02*
X16936634Y-14795531D01*
X16936634Y-14795531D02*
X16946158Y-14766960D01*
X16946158Y-14766960D02*
X16955682Y-14719341D01*
X16955682Y-14719341D02*
X16955682Y-14681246D01*
X16955682Y-14681246D02*
X16946158Y-14633627D01*
X16946158Y-14633627D02*
X16936634Y-14605055D01*
X16936634Y-14605055D02*
X16927111Y-14586008D01*
X16927111Y-14586008D02*
X16908063Y-14557436D01*
X16908063Y-14557436D02*
X16898539Y-14547912D01*
M02*
