%TF.GenerationSoftware,KiCad,Pcbnew,7.0.6-7.0.6~ubuntu22.04.1*%
%TF.CreationDate,2023-07-15T17:42:53-03:00*%
%TF.ProjectId,FRANZININHO-WIFI-MAKEYMAKEY,4652414e-5a49-44e4-994e-484f2d574946,1.0.0*%
%TF.SameCoordinates,Original*%
%TF.FileFunction,Legend,Top*%
%TF.FilePolarity,Positive*%
%FSLAX46Y46*%
G04 Gerber Fmt 4.6, Leading zero omitted, Abs format (unit mm)*
G04 Created by KiCad (PCBNEW 7.0.6-7.0.6~ubuntu22.04.1) date 2023-07-15 17:42:53*
%MOMM*%
%LPD*%
G01*
G04 APERTURE LIST*
%ADD10C,0.150000*%
%ADD11C,0.120000*%
%ADD12C,0.010000*%
G04 APERTURE END LIST*
D10*
X151688969Y-68602219D02*
X151212779Y-68602219D01*
X151212779Y-68602219D02*
X151212779Y-67602219D01*
X152022303Y-68602219D02*
X152022303Y-67602219D01*
X152022303Y-67602219D02*
X152260398Y-67602219D01*
X152260398Y-67602219D02*
X152403255Y-67649838D01*
X152403255Y-67649838D02*
X152498493Y-67745076D01*
X152498493Y-67745076D02*
X152546112Y-67840314D01*
X152546112Y-67840314D02*
X152593731Y-68030790D01*
X152593731Y-68030790D02*
X152593731Y-68173647D01*
X152593731Y-68173647D02*
X152546112Y-68364123D01*
X152546112Y-68364123D02*
X152498493Y-68459361D01*
X152498493Y-68459361D02*
X152403255Y-68554600D01*
X152403255Y-68554600D02*
X152260398Y-68602219D01*
X152260398Y-68602219D02*
X152022303Y-68602219D01*
X153593731Y-68602219D02*
X153260398Y-68126028D01*
X153022303Y-68602219D02*
X153022303Y-67602219D01*
X153022303Y-67602219D02*
X153403255Y-67602219D01*
X153403255Y-67602219D02*
X153498493Y-67649838D01*
X153498493Y-67649838D02*
X153546112Y-67697457D01*
X153546112Y-67697457D02*
X153593731Y-67792695D01*
X153593731Y-67792695D02*
X153593731Y-67935552D01*
X153593731Y-67935552D02*
X153546112Y-68030790D01*
X153546112Y-68030790D02*
X153498493Y-68078409D01*
X153498493Y-68078409D02*
X153403255Y-68126028D01*
X153403255Y-68126028D02*
X153022303Y-68126028D01*
X120824788Y-89011238D02*
X120729550Y-88963619D01*
X120729550Y-88963619D02*
X120586693Y-88963619D01*
X120586693Y-88963619D02*
X120443836Y-89011238D01*
X120443836Y-89011238D02*
X120348598Y-89106476D01*
X120348598Y-89106476D02*
X120300979Y-89201714D01*
X120300979Y-89201714D02*
X120253360Y-89392190D01*
X120253360Y-89392190D02*
X120253360Y-89535047D01*
X120253360Y-89535047D02*
X120300979Y-89725523D01*
X120300979Y-89725523D02*
X120348598Y-89820761D01*
X120348598Y-89820761D02*
X120443836Y-89916000D01*
X120443836Y-89916000D02*
X120586693Y-89963619D01*
X120586693Y-89963619D02*
X120681931Y-89963619D01*
X120681931Y-89963619D02*
X120824788Y-89916000D01*
X120824788Y-89916000D02*
X120872407Y-89868380D01*
X120872407Y-89868380D02*
X120872407Y-89535047D01*
X120872407Y-89535047D02*
X120681931Y-89535047D01*
X121300979Y-89963619D02*
X121300979Y-88963619D01*
X121300979Y-88963619D02*
X121872407Y-89963619D01*
X121872407Y-89963619D02*
X121872407Y-88963619D01*
X122348598Y-89963619D02*
X122348598Y-88963619D01*
X122348598Y-88963619D02*
X122586693Y-88963619D01*
X122586693Y-88963619D02*
X122729550Y-89011238D01*
X122729550Y-89011238D02*
X122824788Y-89106476D01*
X122824788Y-89106476D02*
X122872407Y-89201714D01*
X122872407Y-89201714D02*
X122920026Y-89392190D01*
X122920026Y-89392190D02*
X122920026Y-89535047D01*
X122920026Y-89535047D02*
X122872407Y-89725523D01*
X122872407Y-89725523D02*
X122824788Y-89820761D01*
X122824788Y-89820761D02*
X122729550Y-89916000D01*
X122729550Y-89916000D02*
X122586693Y-89963619D01*
X122586693Y-89963619D02*
X122348598Y-89963619D01*
X182826188Y-89239838D02*
X182730950Y-89192219D01*
X182730950Y-89192219D02*
X182588093Y-89192219D01*
X182588093Y-89192219D02*
X182445236Y-89239838D01*
X182445236Y-89239838D02*
X182349998Y-89335076D01*
X182349998Y-89335076D02*
X182302379Y-89430314D01*
X182302379Y-89430314D02*
X182254760Y-89620790D01*
X182254760Y-89620790D02*
X182254760Y-89763647D01*
X182254760Y-89763647D02*
X182302379Y-89954123D01*
X182302379Y-89954123D02*
X182349998Y-90049361D01*
X182349998Y-90049361D02*
X182445236Y-90144600D01*
X182445236Y-90144600D02*
X182588093Y-90192219D01*
X182588093Y-90192219D02*
X182683331Y-90192219D01*
X182683331Y-90192219D02*
X182826188Y-90144600D01*
X182826188Y-90144600D02*
X182873807Y-90096980D01*
X182873807Y-90096980D02*
X182873807Y-89763647D01*
X182873807Y-89763647D02*
X182683331Y-89763647D01*
X183302379Y-90192219D02*
X183302379Y-89192219D01*
X183302379Y-89192219D02*
X183873807Y-90192219D01*
X183873807Y-90192219D02*
X183873807Y-89192219D01*
X184349998Y-90192219D02*
X184349998Y-89192219D01*
X184349998Y-89192219D02*
X184588093Y-89192219D01*
X184588093Y-89192219D02*
X184730950Y-89239838D01*
X184730950Y-89239838D02*
X184826188Y-89335076D01*
X184826188Y-89335076D02*
X184873807Y-89430314D01*
X184873807Y-89430314D02*
X184921426Y-89620790D01*
X184921426Y-89620790D02*
X184921426Y-89763647D01*
X184921426Y-89763647D02*
X184873807Y-89954123D01*
X184873807Y-89954123D02*
X184826188Y-90049361D01*
X184826188Y-90049361D02*
X184730950Y-90144600D01*
X184730950Y-90144600D02*
X184588093Y-90192219D01*
X184588093Y-90192219D02*
X184349998Y-90192219D01*
X181476455Y-78562745D02*
X181911884Y-78562745D01*
X181694169Y-79324745D02*
X181694169Y-78562745D01*
X182274740Y-78889317D02*
X182202169Y-78853031D01*
X182202169Y-78853031D02*
X182165883Y-78816745D01*
X182165883Y-78816745D02*
X182129597Y-78744174D01*
X182129597Y-78744174D02*
X182129597Y-78707888D01*
X182129597Y-78707888D02*
X182165883Y-78635317D01*
X182165883Y-78635317D02*
X182202169Y-78599031D01*
X182202169Y-78599031D02*
X182274740Y-78562745D01*
X182274740Y-78562745D02*
X182419883Y-78562745D01*
X182419883Y-78562745D02*
X182492455Y-78599031D01*
X182492455Y-78599031D02*
X182528740Y-78635317D01*
X182528740Y-78635317D02*
X182565026Y-78707888D01*
X182565026Y-78707888D02*
X182565026Y-78744174D01*
X182565026Y-78744174D02*
X182528740Y-78816745D01*
X182528740Y-78816745D02*
X182492455Y-78853031D01*
X182492455Y-78853031D02*
X182419883Y-78889317D01*
X182419883Y-78889317D02*
X182274740Y-78889317D01*
X182274740Y-78889317D02*
X182202169Y-78925602D01*
X182202169Y-78925602D02*
X182165883Y-78961888D01*
X182165883Y-78961888D02*
X182129597Y-79034460D01*
X182129597Y-79034460D02*
X182129597Y-79179602D01*
X182129597Y-79179602D02*
X182165883Y-79252174D01*
X182165883Y-79252174D02*
X182202169Y-79288460D01*
X182202169Y-79288460D02*
X182274740Y-79324745D01*
X182274740Y-79324745D02*
X182419883Y-79324745D01*
X182419883Y-79324745D02*
X182492455Y-79288460D01*
X182492455Y-79288460D02*
X182528740Y-79252174D01*
X182528740Y-79252174D02*
X182565026Y-79179602D01*
X182565026Y-79179602D02*
X182565026Y-79034460D01*
X182565026Y-79034460D02*
X182528740Y-78961888D01*
X182528740Y-78961888D02*
X182492455Y-78925602D01*
X182492455Y-78925602D02*
X182419883Y-78889317D01*
X174006122Y-78752819D02*
X174577550Y-78752819D01*
X174291836Y-79752819D02*
X174291836Y-78752819D01*
X174815646Y-78752819D02*
X175482312Y-78752819D01*
X175482312Y-78752819D02*
X175053741Y-79752819D01*
X166563922Y-78879819D02*
X167135350Y-78879819D01*
X166849636Y-79879819D02*
X166849636Y-78879819D01*
X167897255Y-78879819D02*
X167706779Y-78879819D01*
X167706779Y-78879819D02*
X167611541Y-78927438D01*
X167611541Y-78927438D02*
X167563922Y-78975057D01*
X167563922Y-78975057D02*
X167468684Y-79117914D01*
X167468684Y-79117914D02*
X167421065Y-79308390D01*
X167421065Y-79308390D02*
X167421065Y-79689342D01*
X167421065Y-79689342D02*
X167468684Y-79784580D01*
X167468684Y-79784580D02*
X167516303Y-79832200D01*
X167516303Y-79832200D02*
X167611541Y-79879819D01*
X167611541Y-79879819D02*
X167802017Y-79879819D01*
X167802017Y-79879819D02*
X167897255Y-79832200D01*
X167897255Y-79832200D02*
X167944874Y-79784580D01*
X167944874Y-79784580D02*
X167992493Y-79689342D01*
X167992493Y-79689342D02*
X167992493Y-79451247D01*
X167992493Y-79451247D02*
X167944874Y-79356009D01*
X167944874Y-79356009D02*
X167897255Y-79308390D01*
X167897255Y-79308390D02*
X167802017Y-79260771D01*
X167802017Y-79260771D02*
X167611541Y-79260771D01*
X167611541Y-79260771D02*
X167516303Y-79308390D01*
X167516303Y-79308390D02*
X167468684Y-79356009D01*
X167468684Y-79356009D02*
X167421065Y-79451247D01*
X158943922Y-78879819D02*
X159515350Y-78879819D01*
X159229636Y-79879819D02*
X159229636Y-78879819D01*
X160324874Y-78879819D02*
X159848684Y-78879819D01*
X159848684Y-78879819D02*
X159801065Y-79356009D01*
X159801065Y-79356009D02*
X159848684Y-79308390D01*
X159848684Y-79308390D02*
X159943922Y-79260771D01*
X159943922Y-79260771D02*
X160182017Y-79260771D01*
X160182017Y-79260771D02*
X160277255Y-79308390D01*
X160277255Y-79308390D02*
X160324874Y-79356009D01*
X160324874Y-79356009D02*
X160372493Y-79451247D01*
X160372493Y-79451247D02*
X160372493Y-79689342D01*
X160372493Y-79689342D02*
X160324874Y-79784580D01*
X160324874Y-79784580D02*
X160277255Y-79832200D01*
X160277255Y-79832200D02*
X160182017Y-79879819D01*
X160182017Y-79879819D02*
X159943922Y-79879819D01*
X159943922Y-79879819D02*
X159848684Y-79832200D01*
X159848684Y-79832200D02*
X159801065Y-79784580D01*
X144338922Y-78879819D02*
X144910350Y-78879819D01*
X144624636Y-79879819D02*
X144624636Y-78879819D01*
X145672255Y-79213152D02*
X145672255Y-79879819D01*
X145434160Y-78832200D02*
X145196065Y-79546485D01*
X145196065Y-79546485D02*
X145815112Y-79546485D01*
X137353922Y-78879819D02*
X137925350Y-78879819D01*
X137639636Y-79879819D02*
X137639636Y-78879819D01*
X138163446Y-78879819D02*
X138782493Y-78879819D01*
X138782493Y-78879819D02*
X138449160Y-79260771D01*
X138449160Y-79260771D02*
X138592017Y-79260771D01*
X138592017Y-79260771D02*
X138687255Y-79308390D01*
X138687255Y-79308390D02*
X138734874Y-79356009D01*
X138734874Y-79356009D02*
X138782493Y-79451247D01*
X138782493Y-79451247D02*
X138782493Y-79689342D01*
X138782493Y-79689342D02*
X138734874Y-79784580D01*
X138734874Y-79784580D02*
X138687255Y-79832200D01*
X138687255Y-79832200D02*
X138592017Y-79879819D01*
X138592017Y-79879819D02*
X138306303Y-79879819D01*
X138306303Y-79879819D02*
X138211065Y-79832200D01*
X138211065Y-79832200D02*
X138163446Y-79784580D01*
X129733922Y-78879819D02*
X130305350Y-78879819D01*
X130019636Y-79879819D02*
X130019636Y-78879819D01*
X130591065Y-78975057D02*
X130638684Y-78927438D01*
X130638684Y-78927438D02*
X130733922Y-78879819D01*
X130733922Y-78879819D02*
X130972017Y-78879819D01*
X130972017Y-78879819D02*
X131067255Y-78927438D01*
X131067255Y-78927438D02*
X131114874Y-78975057D01*
X131114874Y-78975057D02*
X131162493Y-79070295D01*
X131162493Y-79070295D02*
X131162493Y-79165533D01*
X131162493Y-79165533D02*
X131114874Y-79308390D01*
X131114874Y-79308390D02*
X130543446Y-79879819D01*
X130543446Y-79879819D02*
X131162493Y-79879819D01*
X122113922Y-78879819D02*
X122685350Y-78879819D01*
X122399636Y-79879819D02*
X122399636Y-78879819D01*
X123542493Y-79879819D02*
X122971065Y-79879819D01*
X123256779Y-79879819D02*
X123256779Y-78879819D01*
X123256779Y-78879819D02*
X123161541Y-79022676D01*
X123161541Y-79022676D02*
X123066303Y-79117914D01*
X123066303Y-79117914D02*
X122971065Y-79165533D01*
X175930112Y-109201009D02*
X176072969Y-109248628D01*
X176072969Y-109248628D02*
X176120588Y-109296247D01*
X176120588Y-109296247D02*
X176168207Y-109391485D01*
X176168207Y-109391485D02*
X176168207Y-109534342D01*
X176168207Y-109534342D02*
X176120588Y-109629580D01*
X176120588Y-109629580D02*
X176072969Y-109677200D01*
X176072969Y-109677200D02*
X175977731Y-109724819D01*
X175977731Y-109724819D02*
X175596779Y-109724819D01*
X175596779Y-109724819D02*
X175596779Y-108724819D01*
X175596779Y-108724819D02*
X175930112Y-108724819D01*
X175930112Y-108724819D02*
X176025350Y-108772438D01*
X176025350Y-108772438D02*
X176072969Y-108820057D01*
X176072969Y-108820057D02*
X176120588Y-108915295D01*
X176120588Y-108915295D02*
X176120588Y-109010533D01*
X176120588Y-109010533D02*
X176072969Y-109105771D01*
X176072969Y-109105771D02*
X176025350Y-109153390D01*
X176025350Y-109153390D02*
X175930112Y-109201009D01*
X175930112Y-109201009D02*
X175596779Y-109201009D01*
X176453922Y-108724819D02*
X177025350Y-108724819D01*
X176739636Y-109724819D02*
X176739636Y-108724819D01*
X177311065Y-108820057D02*
X177358684Y-108772438D01*
X177358684Y-108772438D02*
X177453922Y-108724819D01*
X177453922Y-108724819D02*
X177692017Y-108724819D01*
X177692017Y-108724819D02*
X177787255Y-108772438D01*
X177787255Y-108772438D02*
X177834874Y-108820057D01*
X177834874Y-108820057D02*
X177882493Y-108915295D01*
X177882493Y-108915295D02*
X177882493Y-109010533D01*
X177882493Y-109010533D02*
X177834874Y-109153390D01*
X177834874Y-109153390D02*
X177263446Y-109724819D01*
X177263446Y-109724819D02*
X177882493Y-109724819D01*
X128305112Y-109201009D02*
X128447969Y-109248628D01*
X128447969Y-109248628D02*
X128495588Y-109296247D01*
X128495588Y-109296247D02*
X128543207Y-109391485D01*
X128543207Y-109391485D02*
X128543207Y-109534342D01*
X128543207Y-109534342D02*
X128495588Y-109629580D01*
X128495588Y-109629580D02*
X128447969Y-109677200D01*
X128447969Y-109677200D02*
X128352731Y-109724819D01*
X128352731Y-109724819D02*
X127971779Y-109724819D01*
X127971779Y-109724819D02*
X127971779Y-108724819D01*
X127971779Y-108724819D02*
X128305112Y-108724819D01*
X128305112Y-108724819D02*
X128400350Y-108772438D01*
X128400350Y-108772438D02*
X128447969Y-108820057D01*
X128447969Y-108820057D02*
X128495588Y-108915295D01*
X128495588Y-108915295D02*
X128495588Y-109010533D01*
X128495588Y-109010533D02*
X128447969Y-109105771D01*
X128447969Y-109105771D02*
X128400350Y-109153390D01*
X128400350Y-109153390D02*
X128305112Y-109201009D01*
X128305112Y-109201009D02*
X127971779Y-109201009D01*
X128828922Y-108724819D02*
X129400350Y-108724819D01*
X129114636Y-109724819D02*
X129114636Y-108724819D01*
X130257493Y-109724819D02*
X129686065Y-109724819D01*
X129971779Y-109724819D02*
X129971779Y-108724819D01*
X129971779Y-108724819D02*
X129876541Y-108867676D01*
X129876541Y-108867676D02*
X129781303Y-108962914D01*
X129781303Y-108962914D02*
X129686065Y-109010533D01*
X156257953Y-119139619D02*
X156591286Y-120139619D01*
X156591286Y-120139619D02*
X156924619Y-119139619D01*
X158543667Y-120139619D02*
X157972239Y-120139619D01*
X158257953Y-120139619D02*
X158257953Y-119139619D01*
X158257953Y-119139619D02*
X158162715Y-119282476D01*
X158162715Y-119282476D02*
X158067477Y-119377714D01*
X158067477Y-119377714D02*
X157972239Y-119425333D01*
X158972239Y-120044380D02*
X159019858Y-120092000D01*
X159019858Y-120092000D02*
X158972239Y-120139619D01*
X158972239Y-120139619D02*
X158924620Y-120092000D01*
X158924620Y-120092000D02*
X158972239Y-120044380D01*
X158972239Y-120044380D02*
X158972239Y-120139619D01*
X159638905Y-119139619D02*
X159734143Y-119139619D01*
X159734143Y-119139619D02*
X159829381Y-119187238D01*
X159829381Y-119187238D02*
X159877000Y-119234857D01*
X159877000Y-119234857D02*
X159924619Y-119330095D01*
X159924619Y-119330095D02*
X159972238Y-119520571D01*
X159972238Y-119520571D02*
X159972238Y-119758666D01*
X159972238Y-119758666D02*
X159924619Y-119949142D01*
X159924619Y-119949142D02*
X159877000Y-120044380D01*
X159877000Y-120044380D02*
X159829381Y-120092000D01*
X159829381Y-120092000D02*
X159734143Y-120139619D01*
X159734143Y-120139619D02*
X159638905Y-120139619D01*
X159638905Y-120139619D02*
X159543667Y-120092000D01*
X159543667Y-120092000D02*
X159496048Y-120044380D01*
X159496048Y-120044380D02*
X159448429Y-119949142D01*
X159448429Y-119949142D02*
X159400810Y-119758666D01*
X159400810Y-119758666D02*
X159400810Y-119520571D01*
X159400810Y-119520571D02*
X159448429Y-119330095D01*
X159448429Y-119330095D02*
X159496048Y-119234857D01*
X159496048Y-119234857D02*
X159543667Y-119187238D01*
X159543667Y-119187238D02*
X159638905Y-119139619D01*
X160400810Y-120044380D02*
X160448429Y-120092000D01*
X160448429Y-120092000D02*
X160400810Y-120139619D01*
X160400810Y-120139619D02*
X160353191Y-120092000D01*
X160353191Y-120092000D02*
X160400810Y-120044380D01*
X160400810Y-120044380D02*
X160400810Y-120139619D01*
X161067476Y-119139619D02*
X161162714Y-119139619D01*
X161162714Y-119139619D02*
X161257952Y-119187238D01*
X161257952Y-119187238D02*
X161305571Y-119234857D01*
X161305571Y-119234857D02*
X161353190Y-119330095D01*
X161353190Y-119330095D02*
X161400809Y-119520571D01*
X161400809Y-119520571D02*
X161400809Y-119758666D01*
X161400809Y-119758666D02*
X161353190Y-119949142D01*
X161353190Y-119949142D02*
X161305571Y-120044380D01*
X161305571Y-120044380D02*
X161257952Y-120092000D01*
X161257952Y-120092000D02*
X161162714Y-120139619D01*
X161162714Y-120139619D02*
X161067476Y-120139619D01*
X161067476Y-120139619D02*
X160972238Y-120092000D01*
X160972238Y-120092000D02*
X160924619Y-120044380D01*
X160924619Y-120044380D02*
X160877000Y-119949142D01*
X160877000Y-119949142D02*
X160829381Y-119758666D01*
X160829381Y-119758666D02*
X160829381Y-119520571D01*
X160829381Y-119520571D02*
X160877000Y-119330095D01*
X160877000Y-119330095D02*
X160924619Y-119234857D01*
X160924619Y-119234857D02*
X160972238Y-119187238D01*
X160972238Y-119187238D02*
X161067476Y-119139619D01*
X137524315Y-118861609D02*
X137190982Y-118861609D01*
X137190982Y-119385419D02*
X137190982Y-118385419D01*
X137190982Y-118385419D02*
X137667172Y-118385419D01*
X138619553Y-119385419D02*
X138286220Y-118909228D01*
X138048125Y-119385419D02*
X138048125Y-118385419D01*
X138048125Y-118385419D02*
X138429077Y-118385419D01*
X138429077Y-118385419D02*
X138524315Y-118433038D01*
X138524315Y-118433038D02*
X138571934Y-118480657D01*
X138571934Y-118480657D02*
X138619553Y-118575895D01*
X138619553Y-118575895D02*
X138619553Y-118718752D01*
X138619553Y-118718752D02*
X138571934Y-118813990D01*
X138571934Y-118813990D02*
X138524315Y-118861609D01*
X138524315Y-118861609D02*
X138429077Y-118909228D01*
X138429077Y-118909228D02*
X138048125Y-118909228D01*
X139000506Y-119099704D02*
X139476696Y-119099704D01*
X138905268Y-119385419D02*
X139238601Y-118385419D01*
X139238601Y-118385419D02*
X139571934Y-119385419D01*
X139905268Y-119385419D02*
X139905268Y-118385419D01*
X139905268Y-118385419D02*
X140476696Y-119385419D01*
X140476696Y-119385419D02*
X140476696Y-118385419D01*
X140857649Y-118385419D02*
X141524315Y-118385419D01*
X141524315Y-118385419D02*
X140857649Y-119385419D01*
X140857649Y-119385419D02*
X141524315Y-119385419D01*
X141905268Y-119385419D02*
X141905268Y-118385419D01*
X142381458Y-119385419D02*
X142381458Y-118385419D01*
X142381458Y-118385419D02*
X142952886Y-119385419D01*
X142952886Y-119385419D02*
X142952886Y-118385419D01*
X143429077Y-119385419D02*
X143429077Y-118385419D01*
X143905267Y-119385419D02*
X143905267Y-118385419D01*
X143905267Y-118385419D02*
X144476695Y-119385419D01*
X144476695Y-119385419D02*
X144476695Y-118385419D01*
X144952886Y-119385419D02*
X144952886Y-118385419D01*
X144952886Y-118861609D02*
X145524314Y-118861609D01*
X145524314Y-119385419D02*
X145524314Y-118385419D01*
X146190981Y-118385419D02*
X146381457Y-118385419D01*
X146381457Y-118385419D02*
X146476695Y-118433038D01*
X146476695Y-118433038D02*
X146571933Y-118528276D01*
X146571933Y-118528276D02*
X146619552Y-118718752D01*
X146619552Y-118718752D02*
X146619552Y-119052085D01*
X146619552Y-119052085D02*
X146571933Y-119242561D01*
X146571933Y-119242561D02*
X146476695Y-119337800D01*
X146476695Y-119337800D02*
X146381457Y-119385419D01*
X146381457Y-119385419D02*
X146190981Y-119385419D01*
X146190981Y-119385419D02*
X146095743Y-119337800D01*
X146095743Y-119337800D02*
X146000505Y-119242561D01*
X146000505Y-119242561D02*
X145952886Y-119052085D01*
X145952886Y-119052085D02*
X145952886Y-118718752D01*
X145952886Y-118718752D02*
X146000505Y-118528276D01*
X146000505Y-118528276D02*
X146095743Y-118433038D01*
X146095743Y-118433038D02*
X146190981Y-118385419D01*
X147714791Y-118385419D02*
X147952886Y-119385419D01*
X147952886Y-119385419D02*
X148143362Y-118671133D01*
X148143362Y-118671133D02*
X148333838Y-119385419D01*
X148333838Y-119385419D02*
X148571934Y-118385419D01*
X148952886Y-119385419D02*
X148952886Y-118385419D01*
X149762409Y-118861609D02*
X149429076Y-118861609D01*
X149429076Y-119385419D02*
X149429076Y-118385419D01*
X149429076Y-118385419D02*
X149905266Y-118385419D01*
X150286219Y-119385419D02*
X150286219Y-118385419D01*
X138690981Y-120995419D02*
X138690981Y-119995419D01*
X138690981Y-119995419D02*
X139024314Y-120709704D01*
X139024314Y-120709704D02*
X139357647Y-119995419D01*
X139357647Y-119995419D02*
X139357647Y-120995419D01*
X139786219Y-120709704D02*
X140262409Y-120709704D01*
X139690981Y-120995419D02*
X140024314Y-119995419D01*
X140024314Y-119995419D02*
X140357647Y-120995419D01*
X140690981Y-120995419D02*
X140690981Y-119995419D01*
X141262409Y-120995419D02*
X140833838Y-120423990D01*
X141262409Y-119995419D02*
X140690981Y-120566847D01*
X141690981Y-120471609D02*
X142024314Y-120471609D01*
X142167171Y-120995419D02*
X141690981Y-120995419D01*
X141690981Y-120995419D02*
X141690981Y-119995419D01*
X141690981Y-119995419D02*
X142167171Y-119995419D01*
X143167171Y-120995419D02*
X142833838Y-120519228D01*
X142595743Y-120995419D02*
X142595743Y-119995419D01*
X142595743Y-119995419D02*
X142976695Y-119995419D01*
X142976695Y-119995419D02*
X143071933Y-120043038D01*
X143071933Y-120043038D02*
X143119552Y-120090657D01*
X143119552Y-120090657D02*
X143167171Y-120185895D01*
X143167171Y-120185895D02*
X143167171Y-120328752D01*
X143167171Y-120328752D02*
X143119552Y-120423990D01*
X143119552Y-120423990D02*
X143071933Y-120471609D01*
X143071933Y-120471609D02*
X142976695Y-120519228D01*
X142976695Y-120519228D02*
X142595743Y-120519228D01*
X144690981Y-120471609D02*
X144833838Y-120519228D01*
X144833838Y-120519228D02*
X144881457Y-120566847D01*
X144881457Y-120566847D02*
X144929076Y-120662085D01*
X144929076Y-120662085D02*
X144929076Y-120804942D01*
X144929076Y-120804942D02*
X144881457Y-120900180D01*
X144881457Y-120900180D02*
X144833838Y-120947800D01*
X144833838Y-120947800D02*
X144738600Y-120995419D01*
X144738600Y-120995419D02*
X144357648Y-120995419D01*
X144357648Y-120995419D02*
X144357648Y-119995419D01*
X144357648Y-119995419D02*
X144690981Y-119995419D01*
X144690981Y-119995419D02*
X144786219Y-120043038D01*
X144786219Y-120043038D02*
X144833838Y-120090657D01*
X144833838Y-120090657D02*
X144881457Y-120185895D01*
X144881457Y-120185895D02*
X144881457Y-120281133D01*
X144881457Y-120281133D02*
X144833838Y-120376371D01*
X144833838Y-120376371D02*
X144786219Y-120423990D01*
X144786219Y-120423990D02*
X144690981Y-120471609D01*
X144690981Y-120471609D02*
X144357648Y-120471609D01*
X145548124Y-119995419D02*
X145738600Y-119995419D01*
X145738600Y-119995419D02*
X145833838Y-120043038D01*
X145833838Y-120043038D02*
X145929076Y-120138276D01*
X145929076Y-120138276D02*
X145976695Y-120328752D01*
X145976695Y-120328752D02*
X145976695Y-120662085D01*
X145976695Y-120662085D02*
X145929076Y-120852561D01*
X145929076Y-120852561D02*
X145833838Y-120947800D01*
X145833838Y-120947800D02*
X145738600Y-120995419D01*
X145738600Y-120995419D02*
X145548124Y-120995419D01*
X145548124Y-120995419D02*
X145452886Y-120947800D01*
X145452886Y-120947800D02*
X145357648Y-120852561D01*
X145357648Y-120852561D02*
X145310029Y-120662085D01*
X145310029Y-120662085D02*
X145310029Y-120328752D01*
X145310029Y-120328752D02*
X145357648Y-120138276D01*
X145357648Y-120138276D02*
X145452886Y-120043038D01*
X145452886Y-120043038D02*
X145548124Y-119995419D01*
X146357648Y-120709704D02*
X146833838Y-120709704D01*
X146262410Y-120995419D02*
X146595743Y-119995419D01*
X146595743Y-119995419D02*
X146929076Y-120995419D01*
X147833838Y-120995419D02*
X147500505Y-120519228D01*
X147262410Y-120995419D02*
X147262410Y-119995419D01*
X147262410Y-119995419D02*
X147643362Y-119995419D01*
X147643362Y-119995419D02*
X147738600Y-120043038D01*
X147738600Y-120043038D02*
X147786219Y-120090657D01*
X147786219Y-120090657D02*
X147833838Y-120185895D01*
X147833838Y-120185895D02*
X147833838Y-120328752D01*
X147833838Y-120328752D02*
X147786219Y-120423990D01*
X147786219Y-120423990D02*
X147738600Y-120471609D01*
X147738600Y-120471609D02*
X147643362Y-120519228D01*
X147643362Y-120519228D02*
X147262410Y-120519228D01*
X148262410Y-120995419D02*
X148262410Y-119995419D01*
X148262410Y-119995419D02*
X148500505Y-119995419D01*
X148500505Y-119995419D02*
X148643362Y-120043038D01*
X148643362Y-120043038D02*
X148738600Y-120138276D01*
X148738600Y-120138276D02*
X148786219Y-120233514D01*
X148786219Y-120233514D02*
X148833838Y-120423990D01*
X148833838Y-120423990D02*
X148833838Y-120566847D01*
X148833838Y-120566847D02*
X148786219Y-120757323D01*
X148786219Y-120757323D02*
X148738600Y-120852561D01*
X148738600Y-120852561D02*
X148643362Y-120947800D01*
X148643362Y-120947800D02*
X148500505Y-120995419D01*
X148500505Y-120995419D02*
X148262410Y-120995419D01*
X148169048Y-79448866D02*
X148930953Y-79448866D01*
X148550000Y-79829819D02*
X148550000Y-79067914D01*
D11*
%TO.C,D1*%
X143675000Y-93245000D02*
X141215000Y-93245000D01*
X141215000Y-94715000D02*
X143675000Y-94715000D01*
X141215000Y-93245000D02*
X141215000Y-94715000D01*
%TO.C,LS1*%
X152410000Y-79915000D02*
X152410000Y-83915000D01*
X150910000Y-83415000D02*
X153910000Y-80415000D01*
X149910000Y-81915000D02*
X154910000Y-81915000D01*
X158460000Y-81915000D02*
G75*
G03*
X158460000Y-81915000I-6100000J0D01*
G01*
%TO.C,D27*%
X148835000Y-108485000D02*
X148835000Y-109955000D01*
X148835000Y-109955000D02*
X151295000Y-109955000D01*
X151295000Y-108485000D02*
X148835000Y-108485000D01*
%TO.C,R17*%
X134190000Y-84074724D02*
X134190000Y-83565276D01*
X133145000Y-84074724D02*
X133145000Y-83565276D01*
%TO.C,R7*%
X167117500Y-95630276D02*
X167117500Y-96139724D01*
X168162500Y-95630276D02*
X168162500Y-96139724D01*
%TO.C,REF\u002A\u002A*%
D12*
X126359726Y-113541380D02*
X126432580Y-113572330D01*
X126455527Y-113587395D01*
X126484854Y-113610548D01*
X126503264Y-113628753D01*
X126506461Y-113634683D01*
X126497435Y-113647840D01*
X126474337Y-113670167D01*
X126455844Y-113685750D01*
X126405228Y-113726426D01*
X126365260Y-113692795D01*
X126334374Y-113671084D01*
X126304259Y-113663590D01*
X126269792Y-113665420D01*
X126215061Y-113679028D01*
X126177386Y-113707272D01*
X126154491Y-113752933D01*
X126144097Y-113818789D01*
X126144095Y-113818831D01*
X126144994Y-113892439D01*
X126158963Y-113946446D01*
X126186828Y-113983216D01*
X126205825Y-113995668D01*
X126256276Y-114011173D01*
X126310163Y-114011183D01*
X126357046Y-113996138D01*
X126368144Y-113988787D01*
X126395976Y-113970011D01*
X126417736Y-113966934D01*
X126441204Y-113980909D01*
X126467149Y-114006010D01*
X126508216Y-114048380D01*
X126462621Y-114085964D01*
X126392174Y-114128382D01*
X126312733Y-114149285D01*
X126229715Y-114147772D01*
X126175194Y-114133911D01*
X126111470Y-114099635D01*
X126060505Y-114045712D01*
X126037351Y-114007649D01*
X126018599Y-113953036D01*
X126009215Y-113883869D01*
X126009143Y-113808907D01*
X126018324Y-113736909D01*
X126036699Y-113676637D01*
X126039593Y-113670458D01*
X126082452Y-113609851D01*
X126140479Y-113565724D01*
X126209091Y-113538993D01*
X126283701Y-113530573D01*
X126359726Y-113541380D01*
G36*
X126359726Y-113541380D02*
G01*
X126432580Y-113572330D01*
X126455527Y-113587395D01*
X126484854Y-113610548D01*
X126503264Y-113628753D01*
X126506461Y-113634683D01*
X126497435Y-113647840D01*
X126474337Y-113670167D01*
X126455844Y-113685750D01*
X126405228Y-113726426D01*
X126365260Y-113692795D01*
X126334374Y-113671084D01*
X126304259Y-113663590D01*
X126269792Y-113665420D01*
X126215061Y-113679028D01*
X126177386Y-113707272D01*
X126154491Y-113752933D01*
X126144097Y-113818789D01*
X126144095Y-113818831D01*
X126144994Y-113892439D01*
X126158963Y-113946446D01*
X126186828Y-113983216D01*
X126205825Y-113995668D01*
X126256276Y-114011173D01*
X126310163Y-114011183D01*
X126357046Y-113996138D01*
X126368144Y-113988787D01*
X126395976Y-113970011D01*
X126417736Y-113966934D01*
X126441204Y-113980909D01*
X126467149Y-114006010D01*
X126508216Y-114048380D01*
X126462621Y-114085964D01*
X126392174Y-114128382D01*
X126312733Y-114149285D01*
X126229715Y-114147772D01*
X126175194Y-114133911D01*
X126111470Y-114099635D01*
X126060505Y-114045712D01*
X126037351Y-114007649D01*
X126018599Y-113953036D01*
X126009215Y-113883869D01*
X126009143Y-113808907D01*
X126018324Y-113736909D01*
X126036699Y-113676637D01*
X126039593Y-113670458D01*
X126082452Y-113609851D01*
X126140479Y-113565724D01*
X126209091Y-113538993D01*
X126283701Y-113530573D01*
X126359726Y-113541380D01*
G37*
X124519464Y-109367518D02*
X124576312Y-109669070D01*
X124995838Y-109842012D01*
X125247484Y-109670895D01*
X125317958Y-109623250D01*
X125381663Y-109580710D01*
X125435626Y-109545215D01*
X125476873Y-109518710D01*
X125502434Y-109503136D01*
X125509395Y-109499778D01*
X125521935Y-109508414D01*
X125548731Y-109532292D01*
X125586780Y-109568359D01*
X125633079Y-109613567D01*
X125684623Y-109664864D01*
X125738409Y-109719201D01*
X125791435Y-109773528D01*
X125840695Y-109824795D01*
X125883187Y-109869951D01*
X125915907Y-109905946D01*
X125935851Y-109929730D01*
X125940619Y-109937690D01*
X125933757Y-109952365D01*
X125914520Y-109984514D01*
X125884930Y-110030992D01*
X125847010Y-110088656D01*
X125802782Y-110154360D01*
X125777154Y-110191836D01*
X125730441Y-110260268D01*
X125688932Y-110322020D01*
X125654640Y-110374019D01*
X125629580Y-110413192D01*
X125615764Y-110436465D01*
X125613688Y-110441355D01*
X125618395Y-110455255D01*
X125631223Y-110487650D01*
X125650238Y-110533985D01*
X125673503Y-110589706D01*
X125699084Y-110650258D01*
X125725045Y-110711086D01*
X125749450Y-110767636D01*
X125770363Y-110815352D01*
X125785849Y-110849681D01*
X125793972Y-110866068D01*
X125794452Y-110866712D01*
X125807207Y-110869841D01*
X125841177Y-110876821D01*
X125892840Y-110886967D01*
X125958676Y-110899592D01*
X126035164Y-110914009D01*
X126079790Y-110922323D01*
X126161521Y-110937884D01*
X126235343Y-110952692D01*
X126297521Y-110965936D01*
X126344322Y-110976805D01*
X126372009Y-110984489D01*
X126377574Y-110986927D01*
X126383026Y-111003430D01*
X126387424Y-111040700D01*
X126390772Y-111094380D01*
X126393074Y-111160112D01*
X126394332Y-111233537D01*
X126394548Y-111310296D01*
X126393727Y-111386032D01*
X126391871Y-111456386D01*
X126388982Y-111517000D01*
X126385065Y-111563516D01*
X126380122Y-111591575D01*
X126377157Y-111597416D01*
X126359434Y-111604417D01*
X126321881Y-111614427D01*
X126269464Y-111626269D01*
X126207152Y-111638767D01*
X126185400Y-111642810D01*
X126080524Y-111662020D01*
X125997680Y-111677491D01*
X125934130Y-111689837D01*
X125887137Y-111699673D01*
X125853963Y-111707614D01*
X125831871Y-111714276D01*
X125818124Y-111720273D01*
X125809984Y-111726219D01*
X125808845Y-111727394D01*
X125797477Y-111746326D01*
X125780135Y-111783169D01*
X125758550Y-111833413D01*
X125734454Y-111892546D01*
X125709579Y-111956056D01*
X125685657Y-112019432D01*
X125664419Y-112078162D01*
X125647597Y-112127735D01*
X125636922Y-112163639D01*
X125634127Y-112181362D01*
X125634360Y-112181983D01*
X125643831Y-112196470D01*
X125665318Y-112228344D01*
X125696563Y-112274289D01*
X125735307Y-112330985D01*
X125779293Y-112395117D01*
X125791819Y-112413342D01*
X125836484Y-112479414D01*
X125875788Y-112539700D01*
X125907588Y-112590735D01*
X125929745Y-112629060D01*
X125940117Y-112651211D01*
X125940619Y-112653932D01*
X125931905Y-112668236D01*
X125907825Y-112696572D01*
X125871476Y-112735896D01*
X125825953Y-112783161D01*
X125774352Y-112835323D01*
X125719767Y-112889335D01*
X125665294Y-112942153D01*
X125614029Y-112990731D01*
X125569067Y-113032023D01*
X125533504Y-113062985D01*
X125510435Y-113080570D01*
X125504054Y-113083441D01*
X125489199Y-113076678D01*
X125458786Y-113058439D01*
X125417768Y-113031797D01*
X125386209Y-113010352D01*
X125329025Y-112971003D01*
X125261306Y-112924671D01*
X125193380Y-112878413D01*
X125156861Y-112853655D01*
X125033252Y-112770047D01*
X124929491Y-112826150D01*
X124882220Y-112850728D01*
X124842023Y-112869831D01*
X124814826Y-112880727D01*
X124807902Y-112882243D01*
X124799577Y-112871049D01*
X124783154Y-112839417D01*
X124759857Y-112790265D01*
X124730914Y-112726510D01*
X124697550Y-112651071D01*
X124660991Y-112566864D01*
X124622464Y-112476808D01*
X124583194Y-112383821D01*
X124544408Y-112290820D01*
X124507330Y-112200723D01*
X124473189Y-112116448D01*
X124443208Y-112040913D01*
X124418616Y-111977034D01*
X124400636Y-111927731D01*
X124390497Y-111895921D01*
X124388866Y-111884996D01*
X124401791Y-111871061D01*
X124430089Y-111848440D01*
X124467846Y-111821833D01*
X124471015Y-111819728D01*
X124568600Y-111741614D01*
X124647286Y-111650482D01*
X124706391Y-111549245D01*
X124745232Y-111440818D01*
X124763128Y-111328114D01*
X124759397Y-111214048D01*
X124733357Y-111101534D01*
X124684325Y-110993485D01*
X124669900Y-110969845D01*
X124594869Y-110874387D01*
X124506230Y-110797732D01*
X124407049Y-110740280D01*
X124300395Y-110702429D01*
X124189336Y-110684578D01*
X124076939Y-110687125D01*
X123966273Y-110710470D01*
X123860406Y-110755010D01*
X123762405Y-110821145D01*
X123732090Y-110847987D01*
X123654938Y-110932012D01*
X123598718Y-111020466D01*
X123560153Y-111119615D01*
X123538674Y-111217803D01*
X123533372Y-111328197D01*
X123551052Y-111439140D01*
X123589919Y-111546881D01*
X123648177Y-111647669D01*
X123724031Y-111737756D01*
X123815683Y-111813392D01*
X123827728Y-111821364D01*
X123865889Y-111847474D01*
X123894899Y-111870095D01*
X123908768Y-111884539D01*
X123908969Y-111884996D01*
X123905992Y-111900621D01*
X123894189Y-111936082D01*
X123874786Y-111988462D01*
X123849012Y-112054845D01*
X123818091Y-112132314D01*
X123783251Y-112217950D01*
X123745717Y-112308837D01*
X123706717Y-112402059D01*
X123667477Y-112494697D01*
X123629224Y-112583835D01*
X123593183Y-112666555D01*
X123560583Y-112739941D01*
X123532648Y-112801075D01*
X123510605Y-112847041D01*
X123495682Y-112874921D01*
X123489672Y-112882243D01*
X123471309Y-112876541D01*
X123436948Y-112861249D01*
X123392516Y-112839099D01*
X123368083Y-112826150D01*
X123264322Y-112770047D01*
X123140713Y-112853655D01*
X123077614Y-112896487D01*
X123008530Y-112943622D01*
X122943793Y-112988003D01*
X122911366Y-113010352D01*
X122865759Y-113040977D01*
X122827140Y-113065247D01*
X122800548Y-113080087D01*
X122791910Y-113083224D01*
X122779339Y-113074761D01*
X122751516Y-113051136D01*
X122711139Y-113014802D01*
X122660905Y-112968211D01*
X122603512Y-112913817D01*
X122567214Y-112878892D01*
X122503710Y-112816496D01*
X122448827Y-112760688D01*
X122404786Y-112713854D01*
X122373805Y-112678382D01*
X122358102Y-112656661D01*
X122356595Y-112652252D01*
X122363586Y-112635485D01*
X122382906Y-112601582D01*
X122412409Y-112553976D01*
X122449955Y-112496099D01*
X122493400Y-112431384D01*
X122505755Y-112413342D01*
X122550773Y-112347767D01*
X122591160Y-112288728D01*
X122624660Y-112239542D01*
X122649014Y-112203528D01*
X122661964Y-112184002D01*
X122663215Y-112181983D01*
X122661344Y-112166422D01*
X122651413Y-112132209D01*
X122635153Y-112083855D01*
X122614295Y-112025871D01*
X122590573Y-111962770D01*
X122565716Y-111899063D01*
X122541458Y-111839261D01*
X122519529Y-111787876D01*
X122501662Y-111749419D01*
X122489587Y-111728402D01*
X122488729Y-111727394D01*
X122481346Y-111721388D01*
X122468875Y-111715448D01*
X122448580Y-111708960D01*
X122417722Y-111701309D01*
X122373566Y-111691880D01*
X122313374Y-111680059D01*
X122234407Y-111665229D01*
X122133930Y-111646777D01*
X122112175Y-111642810D01*
X122047698Y-111630353D01*
X121991489Y-111618166D01*
X121948513Y-111607426D01*
X121923740Y-111599309D01*
X121920418Y-111597416D01*
X121914944Y-111580638D01*
X121910494Y-111543145D01*
X121907072Y-111489294D01*
X121904681Y-111423444D01*
X121903323Y-111349953D01*
X121903001Y-111273180D01*
X121903719Y-111197483D01*
X121905479Y-111127220D01*
X121908284Y-111066750D01*
X121912138Y-111020430D01*
X121917043Y-110992619D01*
X121920000Y-110986927D01*
X121936463Y-110981186D01*
X121973949Y-110971845D01*
X122028725Y-110959715D01*
X122097055Y-110945607D01*
X122175206Y-110930330D01*
X122217784Y-110922323D01*
X122298571Y-110907221D01*
X122370613Y-110893540D01*
X122430389Y-110881967D01*
X122474379Y-110873187D01*
X122499061Y-110867887D01*
X122503123Y-110866712D01*
X122509989Y-110853465D01*
X122524502Y-110821557D01*
X122544729Y-110775547D01*
X122568734Y-110719992D01*
X122594582Y-110659453D01*
X122620340Y-110598486D01*
X122644073Y-110541651D01*
X122663846Y-110493506D01*
X122677724Y-110458610D01*
X122683774Y-110441521D01*
X122683886Y-110440774D01*
X122677028Y-110427293D01*
X122657802Y-110396270D01*
X122628228Y-110350789D01*
X122590327Y-110293932D01*
X122546120Y-110228783D01*
X122520421Y-110191362D01*
X122473593Y-110122747D01*
X122432001Y-110060452D01*
X122397675Y-110007629D01*
X122372643Y-109967427D01*
X122358935Y-109943000D01*
X122356956Y-109937524D01*
X122365466Y-109924778D01*
X122388993Y-109897563D01*
X122424532Y-109858928D01*
X122469077Y-109811923D01*
X122519623Y-109759595D01*
X122573164Y-109704995D01*
X122626695Y-109651170D01*
X122677211Y-109601170D01*
X122721706Y-109558043D01*
X122757175Y-109524839D01*
X122780613Y-109504606D01*
X122788454Y-109499778D01*
X122801220Y-109506567D01*
X122831756Y-109525642D01*
X122877090Y-109555061D01*
X122934256Y-109592881D01*
X123000284Y-109637161D01*
X123050090Y-109670895D01*
X123301736Y-109842012D01*
X123511499Y-109755541D01*
X123721263Y-109669070D01*
X123778111Y-109367518D01*
X123834960Y-109065966D01*
X124462615Y-109065966D01*
X124519464Y-109367518D01*
G36*
X124519464Y-109367518D02*
G01*
X124576312Y-109669070D01*
X124995838Y-109842012D01*
X125247484Y-109670895D01*
X125317958Y-109623250D01*
X125381663Y-109580710D01*
X125435626Y-109545215D01*
X125476873Y-109518710D01*
X125502434Y-109503136D01*
X125509395Y-109499778D01*
X125521935Y-109508414D01*
X125548731Y-109532292D01*
X125586780Y-109568359D01*
X125633079Y-109613567D01*
X125684623Y-109664864D01*
X125738409Y-109719201D01*
X125791435Y-109773528D01*
X125840695Y-109824795D01*
X125883187Y-109869951D01*
X125915907Y-109905946D01*
X125935851Y-109929730D01*
X125940619Y-109937690D01*
X125933757Y-109952365D01*
X125914520Y-109984514D01*
X125884930Y-110030992D01*
X125847010Y-110088656D01*
X125802782Y-110154360D01*
X125777154Y-110191836D01*
X125730441Y-110260268D01*
X125688932Y-110322020D01*
X125654640Y-110374019D01*
X125629580Y-110413192D01*
X125615764Y-110436465D01*
X125613688Y-110441355D01*
X125618395Y-110455255D01*
X125631223Y-110487650D01*
X125650238Y-110533985D01*
X125673503Y-110589706D01*
X125699084Y-110650258D01*
X125725045Y-110711086D01*
X125749450Y-110767636D01*
X125770363Y-110815352D01*
X125785849Y-110849681D01*
X125793972Y-110866068D01*
X125794452Y-110866712D01*
X125807207Y-110869841D01*
X125841177Y-110876821D01*
X125892840Y-110886967D01*
X125958676Y-110899592D01*
X126035164Y-110914009D01*
X126079790Y-110922323D01*
X126161521Y-110937884D01*
X126235343Y-110952692D01*
X126297521Y-110965936D01*
X126344322Y-110976805D01*
X126372009Y-110984489D01*
X126377574Y-110986927D01*
X126383026Y-111003430D01*
X126387424Y-111040700D01*
X126390772Y-111094380D01*
X126393074Y-111160112D01*
X126394332Y-111233537D01*
X126394548Y-111310296D01*
X126393727Y-111386032D01*
X126391871Y-111456386D01*
X126388982Y-111517000D01*
X126385065Y-111563516D01*
X126380122Y-111591575D01*
X126377157Y-111597416D01*
X126359434Y-111604417D01*
X126321881Y-111614427D01*
X126269464Y-111626269D01*
X126207152Y-111638767D01*
X126185400Y-111642810D01*
X126080524Y-111662020D01*
X125997680Y-111677491D01*
X125934130Y-111689837D01*
X125887137Y-111699673D01*
X125853963Y-111707614D01*
X125831871Y-111714276D01*
X125818124Y-111720273D01*
X125809984Y-111726219D01*
X125808845Y-111727394D01*
X125797477Y-111746326D01*
X125780135Y-111783169D01*
X125758550Y-111833413D01*
X125734454Y-111892546D01*
X125709579Y-111956056D01*
X125685657Y-112019432D01*
X125664419Y-112078162D01*
X125647597Y-112127735D01*
X125636922Y-112163639D01*
X125634127Y-112181362D01*
X125634360Y-112181983D01*
X125643831Y-112196470D01*
X125665318Y-112228344D01*
X125696563Y-112274289D01*
X125735307Y-112330985D01*
X125779293Y-112395117D01*
X125791819Y-112413342D01*
X125836484Y-112479414D01*
X125875788Y-112539700D01*
X125907588Y-112590735D01*
X125929745Y-112629060D01*
X125940117Y-112651211D01*
X125940619Y-112653932D01*
X125931905Y-112668236D01*
X125907825Y-112696572D01*
X125871476Y-112735896D01*
X125825953Y-112783161D01*
X125774352Y-112835323D01*
X125719767Y-112889335D01*
X125665294Y-112942153D01*
X125614029Y-112990731D01*
X125569067Y-113032023D01*
X125533504Y-113062985D01*
X125510435Y-113080570D01*
X125504054Y-113083441D01*
X125489199Y-113076678D01*
X125458786Y-113058439D01*
X125417768Y-113031797D01*
X125386209Y-113010352D01*
X125329025Y-112971003D01*
X125261306Y-112924671D01*
X125193380Y-112878413D01*
X125156861Y-112853655D01*
X125033252Y-112770047D01*
X124929491Y-112826150D01*
X124882220Y-112850728D01*
X124842023Y-112869831D01*
X124814826Y-112880727D01*
X124807902Y-112882243D01*
X124799577Y-112871049D01*
X124783154Y-112839417D01*
X124759857Y-112790265D01*
X124730914Y-112726510D01*
X124697550Y-112651071D01*
X124660991Y-112566864D01*
X124622464Y-112476808D01*
X124583194Y-112383821D01*
X124544408Y-112290820D01*
X124507330Y-112200723D01*
X124473189Y-112116448D01*
X124443208Y-112040913D01*
X124418616Y-111977034D01*
X124400636Y-111927731D01*
X124390497Y-111895921D01*
X124388866Y-111884996D01*
X124401791Y-111871061D01*
X124430089Y-111848440D01*
X124467846Y-111821833D01*
X124471015Y-111819728D01*
X124568600Y-111741614D01*
X124647286Y-111650482D01*
X124706391Y-111549245D01*
X124745232Y-111440818D01*
X124763128Y-111328114D01*
X124759397Y-111214048D01*
X124733357Y-111101534D01*
X124684325Y-110993485D01*
X124669900Y-110969845D01*
X124594869Y-110874387D01*
X124506230Y-110797732D01*
X124407049Y-110740280D01*
X124300395Y-110702429D01*
X124189336Y-110684578D01*
X124076939Y-110687125D01*
X123966273Y-110710470D01*
X123860406Y-110755010D01*
X123762405Y-110821145D01*
X123732090Y-110847987D01*
X123654938Y-110932012D01*
X123598718Y-111020466D01*
X123560153Y-111119615D01*
X123538674Y-111217803D01*
X123533372Y-111328197D01*
X123551052Y-111439140D01*
X123589919Y-111546881D01*
X123648177Y-111647669D01*
X123724031Y-111737756D01*
X123815683Y-111813392D01*
X123827728Y-111821364D01*
X123865889Y-111847474D01*
X123894899Y-111870095D01*
X123908768Y-111884539D01*
X123908969Y-111884996D01*
X123905992Y-111900621D01*
X123894189Y-111936082D01*
X123874786Y-111988462D01*
X123849012Y-112054845D01*
X123818091Y-112132314D01*
X123783251Y-112217950D01*
X123745717Y-112308837D01*
X123706717Y-112402059D01*
X123667477Y-112494697D01*
X123629224Y-112583835D01*
X123593183Y-112666555D01*
X123560583Y-112739941D01*
X123532648Y-112801075D01*
X123510605Y-112847041D01*
X123495682Y-112874921D01*
X123489672Y-112882243D01*
X123471309Y-112876541D01*
X123436948Y-112861249D01*
X123392516Y-112839099D01*
X123368083Y-112826150D01*
X123264322Y-112770047D01*
X123140713Y-112853655D01*
X123077614Y-112896487D01*
X123008530Y-112943622D01*
X122943793Y-112988003D01*
X122911366Y-113010352D01*
X122865759Y-113040977D01*
X122827140Y-113065247D01*
X122800548Y-113080087D01*
X122791910Y-113083224D01*
X122779339Y-113074761D01*
X122751516Y-113051136D01*
X122711139Y-113014802D01*
X122660905Y-112968211D01*
X122603512Y-112913817D01*
X122567214Y-112878892D01*
X122503710Y-112816496D01*
X122448827Y-112760688D01*
X122404786Y-112713854D01*
X122373805Y-112678382D01*
X122358102Y-112656661D01*
X122356595Y-112652252D01*
X122363586Y-112635485D01*
X122382906Y-112601582D01*
X122412409Y-112553976D01*
X122449955Y-112496099D01*
X122493400Y-112431384D01*
X122505755Y-112413342D01*
X122550773Y-112347767D01*
X122591160Y-112288728D01*
X122624660Y-112239542D01*
X122649014Y-112203528D01*
X122661964Y-112184002D01*
X122663215Y-112181983D01*
X122661344Y-112166422D01*
X122651413Y-112132209D01*
X122635153Y-112083855D01*
X122614295Y-112025871D01*
X122590573Y-111962770D01*
X122565716Y-111899063D01*
X122541458Y-111839261D01*
X122519529Y-111787876D01*
X122501662Y-111749419D01*
X122489587Y-111728402D01*
X122488729Y-111727394D01*
X122481346Y-111721388D01*
X122468875Y-111715448D01*
X122448580Y-111708960D01*
X122417722Y-111701309D01*
X122373566Y-111691880D01*
X122313374Y-111680059D01*
X122234407Y-111665229D01*
X122133930Y-111646777D01*
X122112175Y-111642810D01*
X122047698Y-111630353D01*
X121991489Y-111618166D01*
X121948513Y-111607426D01*
X121923740Y-111599309D01*
X121920418Y-111597416D01*
X121914944Y-111580638D01*
X121910494Y-111543145D01*
X121907072Y-111489294D01*
X121904681Y-111423444D01*
X121903323Y-111349953D01*
X121903001Y-111273180D01*
X121903719Y-111197483D01*
X121905479Y-111127220D01*
X121908284Y-111066750D01*
X121912138Y-111020430D01*
X121917043Y-110992619D01*
X121920000Y-110986927D01*
X121936463Y-110981186D01*
X121973949Y-110971845D01*
X122028725Y-110959715D01*
X122097055Y-110945607D01*
X122175206Y-110930330D01*
X122217784Y-110922323D01*
X122298571Y-110907221D01*
X122370613Y-110893540D01*
X122430389Y-110881967D01*
X122474379Y-110873187D01*
X122499061Y-110867887D01*
X122503123Y-110866712D01*
X122509989Y-110853465D01*
X122524502Y-110821557D01*
X122544729Y-110775547D01*
X122568734Y-110719992D01*
X122594582Y-110659453D01*
X122620340Y-110598486D01*
X122644073Y-110541651D01*
X122663846Y-110493506D01*
X122677724Y-110458610D01*
X122683774Y-110441521D01*
X122683886Y-110440774D01*
X122677028Y-110427293D01*
X122657802Y-110396270D01*
X122628228Y-110350789D01*
X122590327Y-110293932D01*
X122546120Y-110228783D01*
X122520421Y-110191362D01*
X122473593Y-110122747D01*
X122432001Y-110060452D01*
X122397675Y-110007629D01*
X122372643Y-109967427D01*
X122358935Y-109943000D01*
X122356956Y-109937524D01*
X122365466Y-109924778D01*
X122388993Y-109897563D01*
X122424532Y-109858928D01*
X122469077Y-109811923D01*
X122519623Y-109759595D01*
X122573164Y-109704995D01*
X122626695Y-109651170D01*
X122677211Y-109601170D01*
X122721706Y-109558043D01*
X122757175Y-109524839D01*
X122780613Y-109504606D01*
X122788454Y-109499778D01*
X122801220Y-109506567D01*
X122831756Y-109525642D01*
X122877090Y-109555061D01*
X122934256Y-109592881D01*
X123000284Y-109637161D01*
X123050090Y-109670895D01*
X123301736Y-109842012D01*
X123511499Y-109755541D01*
X123721263Y-109669070D01*
X123778111Y-109367518D01*
X123834960Y-109065966D01*
X124462615Y-109065966D01*
X124519464Y-109367518D01*
G37*
X124424024Y-114481737D02*
X124473755Y-114485471D01*
X124603791Y-114875273D01*
X124624178Y-114806114D01*
X124636446Y-114763374D01*
X124652585Y-114705615D01*
X124670012Y-114642125D01*
X124679226Y-114608070D01*
X124713888Y-114479183D01*
X124856891Y-114479183D01*
X124814146Y-114614357D01*
X124793096Y-114680842D01*
X124767667Y-114761039D01*
X124741110Y-114844693D01*
X124717402Y-114919282D01*
X124663402Y-115089035D01*
X124605098Y-115092828D01*
X124546795Y-115096622D01*
X124515179Y-114992234D01*
X124495682Y-114927389D01*
X124474404Y-114855900D01*
X124455808Y-114792763D01*
X124455074Y-114790250D01*
X124441184Y-114747469D01*
X124428929Y-114718279D01*
X124420346Y-114707241D01*
X124418582Y-114708518D01*
X124412391Y-114725630D01*
X124400628Y-114762287D01*
X124384725Y-114813878D01*
X124366114Y-114875794D01*
X124356043Y-114909852D01*
X124301507Y-115095322D01*
X124185764Y-115095322D01*
X124093237Y-114802971D01*
X124067244Y-114720962D01*
X124043566Y-114646487D01*
X124023320Y-114583044D01*
X124007626Y-114534132D01*
X123997602Y-114503249D01*
X123994555Y-114494226D01*
X123996967Y-114484987D01*
X124015908Y-114480941D01*
X124055323Y-114481346D01*
X124061493Y-114481652D01*
X124134586Y-114485471D01*
X124182457Y-114661510D01*
X124200053Y-114725711D01*
X124215777Y-114782149D01*
X124228246Y-114825922D01*
X124236074Y-114852130D01*
X124237520Y-114856403D01*
X124243514Y-114851490D01*
X124255601Y-114826032D01*
X124272393Y-114783497D01*
X124292503Y-114727350D01*
X124309503Y-114676630D01*
X124374294Y-114478004D01*
X124424024Y-114481737D01*
G36*
X124424024Y-114481737D02*
G01*
X124473755Y-114485471D01*
X124603791Y-114875273D01*
X124624178Y-114806114D01*
X124636446Y-114763374D01*
X124652585Y-114705615D01*
X124670012Y-114642125D01*
X124679226Y-114608070D01*
X124713888Y-114479183D01*
X124856891Y-114479183D01*
X124814146Y-114614357D01*
X124793096Y-114680842D01*
X124767667Y-114761039D01*
X124741110Y-114844693D01*
X124717402Y-114919282D01*
X124663402Y-115089035D01*
X124605098Y-115092828D01*
X124546795Y-115096622D01*
X124515179Y-114992234D01*
X124495682Y-114927389D01*
X124474404Y-114855900D01*
X124455808Y-114792763D01*
X124455074Y-114790250D01*
X124441184Y-114747469D01*
X124428929Y-114718279D01*
X124420346Y-114707241D01*
X124418582Y-114708518D01*
X124412391Y-114725630D01*
X124400628Y-114762287D01*
X124384725Y-114813878D01*
X124366114Y-114875794D01*
X124356043Y-114909852D01*
X124301507Y-115095322D01*
X124185764Y-115095322D01*
X124093237Y-114802971D01*
X124067244Y-114720962D01*
X124043566Y-114646487D01*
X124023320Y-114583044D01*
X124007626Y-114534132D01*
X123997602Y-114503249D01*
X123994555Y-114494226D01*
X123996967Y-114484987D01*
X124015908Y-114480941D01*
X124055323Y-114481346D01*
X124061493Y-114481652D01*
X124134586Y-114485471D01*
X124182457Y-114661510D01*
X124200053Y-114725711D01*
X124215777Y-114782149D01*
X124228246Y-114825922D01*
X124236074Y-114852130D01*
X124237520Y-114856403D01*
X124243514Y-114851490D01*
X124255601Y-114826032D01*
X124272393Y-114783497D01*
X124292503Y-114727350D01*
X124309503Y-114676630D01*
X124374294Y-114478004D01*
X124424024Y-114481737D01*
G37*
X125941960Y-113535530D02*
X125985211Y-113548745D01*
X126013058Y-113565441D01*
X126022129Y-113578645D01*
X126019632Y-113594297D01*
X126003431Y-113618885D01*
X125989732Y-113636300D01*
X125961492Y-113667783D01*
X125940275Y-113681029D01*
X125922188Y-113680164D01*
X125868535Y-113666510D01*
X125829130Y-113667130D01*
X125797132Y-113682604D01*
X125786390Y-113691661D01*
X125752005Y-113723527D01*
X125752005Y-114139679D01*
X125613688Y-114139679D01*
X125613688Y-113536114D01*
X125682847Y-113536114D01*
X125724369Y-113537756D01*
X125745791Y-113543587D01*
X125752002Y-113554961D01*
X125752005Y-113555298D01*
X125754939Y-113567213D01*
X125768204Y-113565659D01*
X125786584Y-113557063D01*
X125824546Y-113541068D01*
X125855372Y-113531445D01*
X125895036Y-113528978D01*
X125941960Y-113535530D01*
G36*
X125941960Y-113535530D02*
G01*
X125985211Y-113548745D01*
X126013058Y-113565441D01*
X126022129Y-113578645D01*
X126019632Y-113594297D01*
X126003431Y-113618885D01*
X125989732Y-113636300D01*
X125961492Y-113667783D01*
X125940275Y-113681029D01*
X125922188Y-113680164D01*
X125868535Y-113666510D01*
X125829130Y-113667130D01*
X125797132Y-113682604D01*
X125786390Y-113691661D01*
X125752005Y-113723527D01*
X125752005Y-114139679D01*
X125613688Y-114139679D01*
X125613688Y-113536114D01*
X125682847Y-113536114D01*
X125724369Y-113537756D01*
X125745791Y-113543587D01*
X125752002Y-113554961D01*
X125752005Y-113555298D01*
X125754939Y-113567213D01*
X125768204Y-113565659D01*
X125786584Y-113557063D01*
X125824546Y-113541068D01*
X125855372Y-113531445D01*
X125895036Y-113528978D01*
X125941960Y-113535530D01*
G37*
X122785801Y-113550114D02*
X122798332Y-113556014D01*
X122841701Y-113587783D01*
X122882710Y-113634146D01*
X122913332Y-113685196D01*
X122922041Y-113708666D01*
X122929988Y-113750591D01*
X122934726Y-113801257D01*
X122935301Y-113822179D01*
X122935371Y-113888193D01*
X122555417Y-113888193D01*
X122563517Y-113922773D01*
X122583396Y-113963670D01*
X122618153Y-113999014D01*
X122659502Y-114021782D01*
X122685851Y-114026510D01*
X122721584Y-114020773D01*
X122764218Y-114006382D01*
X122778701Y-113999762D01*
X122832260Y-113973013D01*
X122877967Y-114007876D01*
X122904342Y-114031455D01*
X122918376Y-114050917D01*
X122919086Y-114056629D01*
X122906549Y-114070473D01*
X122879072Y-114091512D01*
X122854134Y-114107925D01*
X122786836Y-114137430D01*
X122711390Y-114150784D01*
X122636612Y-114147312D01*
X122577005Y-114129163D01*
X122515559Y-114090284D01*
X122471892Y-114039095D01*
X122444574Y-113972867D01*
X122432178Y-113888871D01*
X122431079Y-113850436D01*
X122435478Y-113762361D01*
X122436018Y-113759799D01*
X122561918Y-113759799D01*
X122565385Y-113768058D01*
X122579637Y-113772613D01*
X122609030Y-113774565D01*
X122657925Y-113775017D01*
X122676752Y-113775025D01*
X122734033Y-113774343D01*
X122770359Y-113771864D01*
X122789896Y-113766943D01*
X122796810Y-113758934D01*
X122797055Y-113756362D01*
X122789164Y-113735923D01*
X122769415Y-113707289D01*
X122760925Y-113697263D01*
X122729406Y-113668908D01*
X122696551Y-113657759D01*
X122678849Y-113656827D01*
X122630961Y-113668481D01*
X122590801Y-113699785D01*
X122565327Y-113745252D01*
X122564875Y-113746733D01*
X122561918Y-113759799D01*
X122436018Y-113759799D01*
X122450108Y-113693010D01*
X122476462Y-113637525D01*
X122508693Y-113598139D01*
X122568283Y-113555431D01*
X122638332Y-113532609D01*
X122712839Y-113530546D01*
X122785801Y-113550114D01*
G36*
X122785801Y-113550114D02*
G01*
X122798332Y-113556014D01*
X122841701Y-113587783D01*
X122882710Y-113634146D01*
X122913332Y-113685196D01*
X122922041Y-113708666D01*
X122929988Y-113750591D01*
X122934726Y-113801257D01*
X122935301Y-113822179D01*
X122935371Y-113888193D01*
X122555417Y-113888193D01*
X122563517Y-113922773D01*
X122583396Y-113963670D01*
X122618153Y-113999014D01*
X122659502Y-114021782D01*
X122685851Y-114026510D01*
X122721584Y-114020773D01*
X122764218Y-114006382D01*
X122778701Y-113999762D01*
X122832260Y-113973013D01*
X122877967Y-114007876D01*
X122904342Y-114031455D01*
X122918376Y-114050917D01*
X122919086Y-114056629D01*
X122906549Y-114070473D01*
X122879072Y-114091512D01*
X122854134Y-114107925D01*
X122786836Y-114137430D01*
X122711390Y-114150784D01*
X122636612Y-114147312D01*
X122577005Y-114129163D01*
X122515559Y-114090284D01*
X122471892Y-114039095D01*
X122444574Y-113972867D01*
X122432178Y-113888871D01*
X122431079Y-113850436D01*
X122435478Y-113762361D01*
X122436018Y-113759799D01*
X122561918Y-113759799D01*
X122565385Y-113768058D01*
X122579637Y-113772613D01*
X122609030Y-113774565D01*
X122657925Y-113775017D01*
X122676752Y-113775025D01*
X122734033Y-113774343D01*
X122770359Y-113771864D01*
X122789896Y-113766943D01*
X122796810Y-113758934D01*
X122797055Y-113756362D01*
X122789164Y-113735923D01*
X122769415Y-113707289D01*
X122760925Y-113697263D01*
X122729406Y-113668908D01*
X122696551Y-113657759D01*
X122678849Y-113656827D01*
X122630961Y-113668481D01*
X122590801Y-113699785D01*
X122565327Y-113745252D01*
X122564875Y-113746733D01*
X122561918Y-113759799D01*
X122436018Y-113759799D01*
X122450108Y-113693010D01*
X122476462Y-113637525D01*
X122508693Y-113598139D01*
X122568283Y-113555431D01*
X122638332Y-113532609D01*
X122712839Y-113530546D01*
X122785801Y-113550114D01*
G37*
X126175081Y-114482470D02*
X126235185Y-114498097D01*
X126285521Y-114530348D01*
X126309893Y-114554440D01*
X126349845Y-114611395D01*
X126372742Y-114677465D01*
X126380608Y-114758682D01*
X126380648Y-114765248D01*
X126380718Y-114831263D01*
X126000764Y-114831263D01*
X126008863Y-114865842D01*
X126023487Y-114897159D01*
X126049081Y-114929791D01*
X126054435Y-114935000D01*
X126100443Y-114963194D01*
X126152910Y-114967975D01*
X126213303Y-114949426D01*
X126223540Y-114944431D01*
X126254939Y-114929245D01*
X126275970Y-114920594D01*
X126279639Y-114919793D01*
X126292448Y-114927563D01*
X126316878Y-114946572D01*
X126329279Y-114956960D01*
X126354976Y-114980821D01*
X126363415Y-114996577D01*
X126357558Y-115011071D01*
X126354428Y-115015034D01*
X126333225Y-115032379D01*
X126298238Y-115053459D01*
X126273837Y-115065765D01*
X126204572Y-115087446D01*
X126127888Y-115094471D01*
X126055265Y-115086147D01*
X126034926Y-115080186D01*
X125971976Y-115046452D01*
X125925315Y-114994545D01*
X125894673Y-114923959D01*
X125879782Y-114834192D01*
X125878147Y-114787253D01*
X125882921Y-114718913D01*
X126003490Y-114718913D01*
X126015152Y-114723965D01*
X126046498Y-114727929D01*
X126092071Y-114730268D01*
X126122946Y-114730669D01*
X126178481Y-114730283D01*
X126213533Y-114728475D01*
X126232762Y-114724273D01*
X126240830Y-114716703D01*
X126242401Y-114705718D01*
X126231621Y-114671881D01*
X126204480Y-114638440D01*
X126168777Y-114612772D01*
X126133060Y-114602272D01*
X126084548Y-114611586D01*
X126042553Y-114638513D01*
X126013436Y-114677327D01*
X126003490Y-114718913D01*
X125882921Y-114718913D01*
X125885099Y-114687736D01*
X125906555Y-114608449D01*
X125942970Y-114548763D01*
X125994797Y-114508049D01*
X126062490Y-114485679D01*
X126099162Y-114481371D01*
X126175081Y-114482470D01*
G36*
X126175081Y-114482470D02*
G01*
X126235185Y-114498097D01*
X126285521Y-114530348D01*
X126309893Y-114554440D01*
X126349845Y-114611395D01*
X126372742Y-114677465D01*
X126380608Y-114758682D01*
X126380648Y-114765248D01*
X126380718Y-114831263D01*
X126000764Y-114831263D01*
X126008863Y-114865842D01*
X126023487Y-114897159D01*
X126049081Y-114929791D01*
X126054435Y-114935000D01*
X126100443Y-114963194D01*
X126152910Y-114967975D01*
X126213303Y-114949426D01*
X126223540Y-114944431D01*
X126254939Y-114929245D01*
X126275970Y-114920594D01*
X126279639Y-114919793D01*
X126292448Y-114927563D01*
X126316878Y-114946572D01*
X126329279Y-114956960D01*
X126354976Y-114980821D01*
X126363415Y-114996577D01*
X126357558Y-115011071D01*
X126354428Y-115015034D01*
X126333225Y-115032379D01*
X126298238Y-115053459D01*
X126273837Y-115065765D01*
X126204572Y-115087446D01*
X126127888Y-115094471D01*
X126055265Y-115086147D01*
X126034926Y-115080186D01*
X125971976Y-115046452D01*
X125925315Y-114994545D01*
X125894673Y-114923959D01*
X125879782Y-114834192D01*
X125878147Y-114787253D01*
X125882921Y-114718913D01*
X126003490Y-114718913D01*
X126015152Y-114723965D01*
X126046498Y-114727929D01*
X126092071Y-114730268D01*
X126122946Y-114730669D01*
X126178481Y-114730283D01*
X126213533Y-114728475D01*
X126232762Y-114724273D01*
X126240830Y-114716703D01*
X126242401Y-114705718D01*
X126231621Y-114671881D01*
X126204480Y-114638440D01*
X126168777Y-114612772D01*
X126133060Y-114602272D01*
X126084548Y-114611586D01*
X126042553Y-114638513D01*
X126013436Y-114677327D01*
X126003490Y-114718913D01*
X125882921Y-114718913D01*
X125885099Y-114687736D01*
X125906555Y-114608449D01*
X125942970Y-114548763D01*
X125994797Y-114508049D01*
X126062490Y-114485679D01*
X126099162Y-114481371D01*
X126175081Y-114482470D01*
G37*
X122758290Y-114484055D02*
X122817445Y-114499839D01*
X122862477Y-114528448D01*
X122894254Y-114565919D01*
X122904134Y-114581911D01*
X122911427Y-114598663D01*
X122916526Y-114620092D01*
X122919821Y-114650116D01*
X122921703Y-114692654D01*
X122922563Y-114751622D01*
X122922793Y-114830940D01*
X122922797Y-114851984D01*
X122922797Y-115095322D01*
X122862441Y-115095322D01*
X122823943Y-115092626D01*
X122795477Y-115085795D01*
X122788345Y-115081583D01*
X122768848Y-115074313D01*
X122748934Y-115081583D01*
X122716147Y-115090660D01*
X122668522Y-115094313D01*
X122615736Y-115092728D01*
X122567464Y-115086089D01*
X122539282Y-115077572D01*
X122484747Y-115042563D01*
X122450665Y-114993979D01*
X122435343Y-114929382D01*
X122435201Y-114927723D01*
X122436545Y-114899066D01*
X122558144Y-114899066D01*
X122568774Y-114931661D01*
X122586090Y-114950005D01*
X122620848Y-114963879D01*
X122666727Y-114969417D01*
X122713512Y-114966691D01*
X122750986Y-114955774D01*
X122761485Y-114948769D01*
X122779832Y-114916404D01*
X122784480Y-114879611D01*
X122784480Y-114831263D01*
X122714918Y-114831263D01*
X122648833Y-114836350D01*
X122598736Y-114850763D01*
X122567571Y-114873229D01*
X122558144Y-114899066D01*
X122436545Y-114899066D01*
X122438513Y-114857147D01*
X122461790Y-114801345D01*
X122505552Y-114759147D01*
X122511601Y-114755308D01*
X122537593Y-114742809D01*
X122569765Y-114735240D01*
X122614740Y-114731561D01*
X122668169Y-114730716D01*
X122784480Y-114730669D01*
X122784480Y-114681911D01*
X122779547Y-114644081D01*
X122766957Y-114618736D01*
X122765483Y-114617387D01*
X122737466Y-114606300D01*
X122695174Y-114602003D01*
X122648436Y-114604115D01*
X122607082Y-114612256D01*
X122582543Y-114624465D01*
X122569247Y-114634246D01*
X122555206Y-114636113D01*
X122535829Y-114628100D01*
X122506524Y-114608239D01*
X122462697Y-114574563D01*
X122458675Y-114571409D01*
X122460736Y-114559736D01*
X122477932Y-114540322D01*
X122504067Y-114518748D01*
X122532948Y-114500596D01*
X122542022Y-114496309D01*
X122575120Y-114487756D01*
X122623620Y-114481655D01*
X122677805Y-114479208D01*
X122680339Y-114479203D01*
X122758290Y-114484055D01*
G36*
X122758290Y-114484055D02*
G01*
X122817445Y-114499839D01*
X122862477Y-114528448D01*
X122894254Y-114565919D01*
X122904134Y-114581911D01*
X122911427Y-114598663D01*
X122916526Y-114620092D01*
X122919821Y-114650116D01*
X122921703Y-114692654D01*
X122922563Y-114751622D01*
X122922793Y-114830940D01*
X122922797Y-114851984D01*
X122922797Y-115095322D01*
X122862441Y-115095322D01*
X122823943Y-115092626D01*
X122795477Y-115085795D01*
X122788345Y-115081583D01*
X122768848Y-115074313D01*
X122748934Y-115081583D01*
X122716147Y-115090660D01*
X122668522Y-115094313D01*
X122615736Y-115092728D01*
X122567464Y-115086089D01*
X122539282Y-115077572D01*
X122484747Y-115042563D01*
X122450665Y-114993979D01*
X122435343Y-114929382D01*
X122435201Y-114927723D01*
X122436545Y-114899066D01*
X122558144Y-114899066D01*
X122568774Y-114931661D01*
X122586090Y-114950005D01*
X122620848Y-114963879D01*
X122666727Y-114969417D01*
X122713512Y-114966691D01*
X122750986Y-114955774D01*
X122761485Y-114948769D01*
X122779832Y-114916404D01*
X122784480Y-114879611D01*
X122784480Y-114831263D01*
X122714918Y-114831263D01*
X122648833Y-114836350D01*
X122598736Y-114850763D01*
X122567571Y-114873229D01*
X122558144Y-114899066D01*
X122436545Y-114899066D01*
X122438513Y-114857147D01*
X122461790Y-114801345D01*
X122505552Y-114759147D01*
X122511601Y-114755308D01*
X122537593Y-114742809D01*
X122569765Y-114735240D01*
X122614740Y-114731561D01*
X122668169Y-114730716D01*
X122784480Y-114730669D01*
X122784480Y-114681911D01*
X122779547Y-114644081D01*
X122766957Y-114618736D01*
X122765483Y-114617387D01*
X122737466Y-114606300D01*
X122695174Y-114602003D01*
X122648436Y-114604115D01*
X122607082Y-114612256D01*
X122582543Y-114624465D01*
X122569247Y-114634246D01*
X122555206Y-114636113D01*
X122535829Y-114628100D01*
X122506524Y-114608239D01*
X122462697Y-114574563D01*
X122458675Y-114571409D01*
X122460736Y-114559736D01*
X122477932Y-114540322D01*
X122504067Y-114518748D01*
X122532948Y-114500596D01*
X122542022Y-114496309D01*
X122575120Y-114487756D01*
X122623620Y-114481655D01*
X122677805Y-114479208D01*
X122680339Y-114479203D01*
X122758290Y-114484055D01*
G37*
X125777755Y-114478986D02*
X125826095Y-114488515D01*
X125853614Y-114502625D01*
X125882564Y-114526068D01*
X125841376Y-114578071D01*
X125815982Y-114609564D01*
X125798738Y-114624928D01*
X125781602Y-114627276D01*
X125756527Y-114619717D01*
X125744757Y-114615441D01*
X125696770Y-114609131D01*
X125652824Y-114622656D01*
X125620560Y-114653210D01*
X125615319Y-114662952D01*
X125609612Y-114688758D01*
X125605206Y-114736317D01*
X125602311Y-114802258D01*
X125601131Y-114883210D01*
X125601114Y-114894726D01*
X125601114Y-115095322D01*
X125462797Y-115095322D01*
X125462797Y-114479183D01*
X125531956Y-114479183D01*
X125571833Y-114480225D01*
X125592607Y-114484858D01*
X125600289Y-114495349D01*
X125601114Y-114505245D01*
X125601114Y-114531306D01*
X125634245Y-114505245D01*
X125672235Y-114487465D01*
X125723270Y-114478674D01*
X125777755Y-114478986D01*
G36*
X125777755Y-114478986D02*
G01*
X125826095Y-114488515D01*
X125853614Y-114502625D01*
X125882564Y-114526068D01*
X125841376Y-114578071D01*
X125815982Y-114609564D01*
X125798738Y-114624928D01*
X125781602Y-114627276D01*
X125756527Y-114619717D01*
X125744757Y-114615441D01*
X125696770Y-114609131D01*
X125652824Y-114622656D01*
X125620560Y-114653210D01*
X125615319Y-114662952D01*
X125609612Y-114688758D01*
X125605206Y-114736317D01*
X125602311Y-114802258D01*
X125601131Y-114883210D01*
X125601114Y-114894726D01*
X125601114Y-115095322D01*
X125462797Y-115095322D01*
X125462797Y-114479183D01*
X125531956Y-114479183D01*
X125571833Y-114480225D01*
X125592607Y-114484858D01*
X125600289Y-114495349D01*
X125601114Y-114505245D01*
X125601114Y-114531306D01*
X125634245Y-114505245D01*
X125672235Y-114487465D01*
X125723270Y-114478674D01*
X125777755Y-114478986D01*
G37*
X125135867Y-113731842D02*
X125137055Y-113824063D01*
X125141397Y-113894110D01*
X125150058Y-113944881D01*
X125164204Y-113979272D01*
X125185000Y-114000179D01*
X125213610Y-114010500D01*
X125249035Y-114013136D01*
X125286136Y-114010182D01*
X125314318Y-113999389D01*
X125334743Y-113977860D01*
X125348579Y-113942699D01*
X125356991Y-113891010D01*
X125361143Y-113819894D01*
X125362203Y-113731842D01*
X125362203Y-113536114D01*
X125500520Y-113536114D01*
X125500520Y-114139679D01*
X125431362Y-114139679D01*
X125389670Y-114137989D01*
X125368201Y-114132056D01*
X125362203Y-114120793D01*
X125358591Y-114110761D01*
X125344214Y-114112883D01*
X125315236Y-114127080D01*
X125248819Y-114148980D01*
X125178375Y-114147428D01*
X125110877Y-114123647D01*
X125078733Y-114104862D01*
X125054215Y-114084522D01*
X125036304Y-114059073D01*
X125023979Y-114024958D01*
X125016223Y-113978621D01*
X125012016Y-113916507D01*
X125010340Y-113835061D01*
X125010124Y-113772078D01*
X125010124Y-113536114D01*
X125135867Y-113536114D01*
X125135867Y-113731842D01*
G36*
X125135867Y-113731842D02*
G01*
X125137055Y-113824063D01*
X125141397Y-113894110D01*
X125150058Y-113944881D01*
X125164204Y-113979272D01*
X125185000Y-114000179D01*
X125213610Y-114010500D01*
X125249035Y-114013136D01*
X125286136Y-114010182D01*
X125314318Y-113999389D01*
X125334743Y-113977860D01*
X125348579Y-113942699D01*
X125356991Y-113891010D01*
X125361143Y-113819894D01*
X125362203Y-113731842D01*
X125362203Y-113536114D01*
X125500520Y-113536114D01*
X125500520Y-114139679D01*
X125431362Y-114139679D01*
X125389670Y-114137989D01*
X125368201Y-114132056D01*
X125362203Y-114120793D01*
X125358591Y-114110761D01*
X125344214Y-114112883D01*
X125315236Y-114127080D01*
X125248819Y-114148980D01*
X125178375Y-114147428D01*
X125110877Y-114123647D01*
X125078733Y-114104862D01*
X125054215Y-114084522D01*
X125036304Y-114059073D01*
X125023979Y-114024958D01*
X125016223Y-113978621D01*
X125012016Y-113916507D01*
X125010340Y-113835061D01*
X125010124Y-113772078D01*
X125010124Y-113536114D01*
X125135867Y-113536114D01*
X125135867Y-113731842D01*
G37*
X122233741Y-113546684D02*
X122260253Y-113559782D01*
X122292947Y-113582606D01*
X122316775Y-113607496D01*
X122333094Y-113638749D01*
X122343260Y-113680666D01*
X122348628Y-113737544D01*
X122350556Y-113813684D01*
X122350669Y-113846417D01*
X122350339Y-113918156D01*
X122348973Y-113969427D01*
X122346000Y-114004904D01*
X122340851Y-114029263D01*
X122332957Y-114047180D01*
X122324743Y-114059402D01*
X122272313Y-114111405D01*
X122210570Y-114142684D01*
X122143964Y-114152092D01*
X122076942Y-114138480D01*
X122055708Y-114128854D01*
X122004876Y-114102359D01*
X122004876Y-114517552D01*
X122041975Y-114498368D01*
X122090857Y-114483525D01*
X122150939Y-114479722D01*
X122210936Y-114486743D01*
X122256244Y-114502513D01*
X122293825Y-114532547D01*
X122325936Y-114575524D01*
X122328350Y-114579936D01*
X122338533Y-114600721D01*
X122345970Y-114621670D01*
X122351089Y-114647048D01*
X122354319Y-114681118D01*
X122356087Y-114728141D01*
X122356823Y-114792382D01*
X122356956Y-114864676D01*
X122356956Y-115095322D01*
X122218639Y-115095322D01*
X122218639Y-114670033D01*
X122179951Y-114637479D01*
X122139762Y-114611440D01*
X122101703Y-114606705D01*
X122063434Y-114618889D01*
X122043038Y-114630820D01*
X122027858Y-114647813D01*
X122017062Y-114673495D01*
X122009817Y-114711491D01*
X122005292Y-114765426D01*
X122002656Y-114838925D01*
X122001728Y-114887847D01*
X121998589Y-115089035D01*
X121932574Y-115092836D01*
X121866560Y-115096636D01*
X121866560Y-113848150D01*
X122004876Y-113848150D01*
X122008403Y-113917754D01*
X122020285Y-113966069D01*
X122042480Y-113996131D01*
X122076941Y-114010971D01*
X122111758Y-114013936D01*
X122151171Y-114010528D01*
X122177329Y-113997117D01*
X122193686Y-113979396D01*
X122206563Y-113960335D01*
X122214228Y-113939101D01*
X122217639Y-113909349D01*
X122217751Y-113864736D01*
X122216603Y-113827380D01*
X122213968Y-113771104D01*
X122210044Y-113734158D01*
X122203437Y-113710723D01*
X122192751Y-113694980D01*
X122182667Y-113685880D01*
X122140530Y-113666037D01*
X122090660Y-113662832D01*
X122062024Y-113669668D01*
X122033672Y-113693964D01*
X122014891Y-113741228D01*
X122005788Y-113811124D01*
X122004876Y-113848150D01*
X121866560Y-113848150D01*
X121866560Y-113536114D01*
X121935718Y-113536114D01*
X121977240Y-113537756D01*
X121998662Y-113543587D01*
X122004874Y-113554961D01*
X122004876Y-113555298D01*
X122007758Y-113566438D01*
X122020470Y-113565173D01*
X122045743Y-113552933D01*
X122104631Y-113534207D01*
X122170885Y-113532239D01*
X122233741Y-113546684D01*
G36*
X122233741Y-113546684D02*
G01*
X122260253Y-113559782D01*
X122292947Y-113582606D01*
X122316775Y-113607496D01*
X122333094Y-113638749D01*
X122343260Y-113680666D01*
X122348628Y-113737544D01*
X122350556Y-113813684D01*
X122350669Y-113846417D01*
X122350339Y-113918156D01*
X122348973Y-113969427D01*
X122346000Y-114004904D01*
X122340851Y-114029263D01*
X122332957Y-114047180D01*
X122324743Y-114059402D01*
X122272313Y-114111405D01*
X122210570Y-114142684D01*
X122143964Y-114152092D01*
X122076942Y-114138480D01*
X122055708Y-114128854D01*
X122004876Y-114102359D01*
X122004876Y-114517552D01*
X122041975Y-114498368D01*
X122090857Y-114483525D01*
X122150939Y-114479722D01*
X122210936Y-114486743D01*
X122256244Y-114502513D01*
X122293825Y-114532547D01*
X122325936Y-114575524D01*
X122328350Y-114579936D01*
X122338533Y-114600721D01*
X122345970Y-114621670D01*
X122351089Y-114647048D01*
X122354319Y-114681118D01*
X122356087Y-114728141D01*
X122356823Y-114792382D01*
X122356956Y-114864676D01*
X122356956Y-115095322D01*
X122218639Y-115095322D01*
X122218639Y-114670033D01*
X122179951Y-114637479D01*
X122139762Y-114611440D01*
X122101703Y-114606705D01*
X122063434Y-114618889D01*
X122043038Y-114630820D01*
X122027858Y-114647813D01*
X122017062Y-114673495D01*
X122009817Y-114711491D01*
X122005292Y-114765426D01*
X122002656Y-114838925D01*
X122001728Y-114887847D01*
X121998589Y-115089035D01*
X121932574Y-115092836D01*
X121866560Y-115096636D01*
X121866560Y-113848150D01*
X122004876Y-113848150D01*
X122008403Y-113917754D01*
X122020285Y-113966069D01*
X122042480Y-113996131D01*
X122076941Y-114010971D01*
X122111758Y-114013936D01*
X122151171Y-114010528D01*
X122177329Y-113997117D01*
X122193686Y-113979396D01*
X122206563Y-113960335D01*
X122214228Y-113939101D01*
X122217639Y-113909349D01*
X122217751Y-113864736D01*
X122216603Y-113827380D01*
X122213968Y-113771104D01*
X122210044Y-113734158D01*
X122203437Y-113710723D01*
X122192751Y-113694980D01*
X122182667Y-113685880D01*
X122140530Y-113666037D01*
X122090660Y-113662832D01*
X122062024Y-113669668D01*
X122033672Y-113693964D01*
X122014891Y-113741228D01*
X122005788Y-113811124D01*
X122004876Y-113848150D01*
X121866560Y-113848150D01*
X121866560Y-113536114D01*
X121935718Y-113536114D01*
X121977240Y-113537756D01*
X121998662Y-113543587D01*
X122004874Y-113554961D01*
X122004876Y-113555298D01*
X122007758Y-113566438D01*
X122020470Y-113565173D01*
X122045743Y-113552933D01*
X122104631Y-113534207D01*
X122170885Y-113532239D01*
X122233741Y-113546684D01*
G37*
X125180911Y-114482917D02*
X125233911Y-114495790D01*
X125249231Y-114502610D01*
X125278928Y-114520474D01*
X125301720Y-114540593D01*
X125318583Y-114566462D01*
X125330498Y-114601573D01*
X125338442Y-114649420D01*
X125343394Y-114713496D01*
X125346331Y-114797294D01*
X125347447Y-114853268D01*
X125351552Y-115095322D01*
X125281432Y-115095322D01*
X125238893Y-115093538D01*
X125216976Y-115087442D01*
X125211312Y-115077206D01*
X125208321Y-115066137D01*
X125194951Y-115068254D01*
X125176733Y-115077129D01*
X125131124Y-115090733D01*
X125072507Y-115094399D01*
X125010854Y-115088403D01*
X124956138Y-115073021D01*
X124951230Y-115070886D01*
X124901223Y-115035755D01*
X124868256Y-114986919D01*
X124853087Y-114929833D01*
X124854246Y-114909324D01*
X124978008Y-114909324D01*
X124988913Y-114936925D01*
X125021245Y-114956704D01*
X125073410Y-114967319D01*
X125101287Y-114968728D01*
X125147747Y-114965120D01*
X125178629Y-114951097D01*
X125186164Y-114944431D01*
X125206576Y-114908166D01*
X125211312Y-114875273D01*
X125211312Y-114831263D01*
X125150013Y-114831263D01*
X125078756Y-114834895D01*
X125028776Y-114846318D01*
X124997196Y-114866324D01*
X124990126Y-114875243D01*
X124978008Y-114909324D01*
X124854246Y-114909324D01*
X124856471Y-114869956D01*
X124879163Y-114812744D01*
X124910124Y-114774080D01*
X124928876Y-114757364D01*
X124947233Y-114746378D01*
X124971119Y-114739680D01*
X125006457Y-114735826D01*
X125059169Y-114733373D01*
X125080077Y-114732668D01*
X125211312Y-114728379D01*
X125211120Y-114688658D01*
X125206037Y-114646905D01*
X125187662Y-114621658D01*
X125150539Y-114605530D01*
X125149543Y-114605242D01*
X125096910Y-114598900D01*
X125045406Y-114607184D01*
X125007130Y-114627327D01*
X124991772Y-114637273D01*
X124975230Y-114635897D01*
X124949775Y-114621487D01*
X124934828Y-114611317D01*
X124905591Y-114589588D01*
X124887480Y-114573300D01*
X124884574Y-114568637D01*
X124896540Y-114544505D01*
X124931896Y-114515685D01*
X124947253Y-114505961D01*
X124991401Y-114489214D01*
X125050898Y-114479727D01*
X125116987Y-114477595D01*
X125180911Y-114482917D01*
G36*
X125180911Y-114482917D02*
G01*
X125233911Y-114495790D01*
X125249231Y-114502610D01*
X125278928Y-114520474D01*
X125301720Y-114540593D01*
X125318583Y-114566462D01*
X125330498Y-114601573D01*
X125338442Y-114649420D01*
X125343394Y-114713496D01*
X125346331Y-114797294D01*
X125347447Y-114853268D01*
X125351552Y-115095322D01*
X125281432Y-115095322D01*
X125238893Y-115093538D01*
X125216976Y-115087442D01*
X125211312Y-115077206D01*
X125208321Y-115066137D01*
X125194951Y-115068254D01*
X125176733Y-115077129D01*
X125131124Y-115090733D01*
X125072507Y-115094399D01*
X125010854Y-115088403D01*
X124956138Y-115073021D01*
X124951230Y-115070886D01*
X124901223Y-115035755D01*
X124868256Y-114986919D01*
X124853087Y-114929833D01*
X124854246Y-114909324D01*
X124978008Y-114909324D01*
X124988913Y-114936925D01*
X125021245Y-114956704D01*
X125073410Y-114967319D01*
X125101287Y-114968728D01*
X125147747Y-114965120D01*
X125178629Y-114951097D01*
X125186164Y-114944431D01*
X125206576Y-114908166D01*
X125211312Y-114875273D01*
X125211312Y-114831263D01*
X125150013Y-114831263D01*
X125078756Y-114834895D01*
X125028776Y-114846318D01*
X124997196Y-114866324D01*
X124990126Y-114875243D01*
X124978008Y-114909324D01*
X124854246Y-114909324D01*
X124856471Y-114869956D01*
X124879163Y-114812744D01*
X124910124Y-114774080D01*
X124928876Y-114757364D01*
X124947233Y-114746378D01*
X124971119Y-114739680D01*
X125006457Y-114735826D01*
X125059169Y-114733373D01*
X125080077Y-114732668D01*
X125211312Y-114728379D01*
X125211120Y-114688658D01*
X125206037Y-114646905D01*
X125187662Y-114621658D01*
X125150539Y-114605530D01*
X125149543Y-114605242D01*
X125096910Y-114598900D01*
X125045406Y-114607184D01*
X125007130Y-114627327D01*
X124991772Y-114637273D01*
X124975230Y-114635897D01*
X124949775Y-114621487D01*
X124934828Y-114611317D01*
X124905591Y-114589588D01*
X124887480Y-114573300D01*
X124884574Y-114568637D01*
X124896540Y-114544505D01*
X124931896Y-114515685D01*
X124947253Y-114505961D01*
X124991401Y-114489214D01*
X125050898Y-114479727D01*
X125116987Y-114477595D01*
X125180911Y-114482917D01*
G37*
X123941312Y-115095322D02*
X123872154Y-115095322D01*
X123832012Y-115094145D01*
X123811106Y-115089272D01*
X123803578Y-115078686D01*
X123802995Y-115071529D01*
X123801726Y-115057176D01*
X123793721Y-115054423D01*
X123772685Y-115063271D01*
X123756327Y-115071529D01*
X123693523Y-115091097D01*
X123625252Y-115092229D01*
X123569748Y-115077635D01*
X123518062Y-115042377D01*
X123478662Y-114990335D01*
X123457087Y-114928950D01*
X123456538Y-114925518D01*
X123453333Y-114888071D01*
X123451739Y-114834313D01*
X123451867Y-114793655D01*
X123589221Y-114793655D01*
X123592403Y-114847694D01*
X123599641Y-114892235D01*
X123609440Y-114917388D01*
X123646511Y-114951760D01*
X123690526Y-114964082D01*
X123735916Y-114954118D01*
X123774703Y-114924395D01*
X123789392Y-114904405D01*
X123797981Y-114880550D01*
X123802004Y-114845730D01*
X123802995Y-114793430D01*
X123801222Y-114741639D01*
X123796537Y-114696134D01*
X123789897Y-114665681D01*
X123788790Y-114662952D01*
X123762009Y-114630500D01*
X123722921Y-114612683D01*
X123679185Y-114609806D01*
X123638462Y-114622174D01*
X123608413Y-114650093D01*
X123605296Y-114655648D01*
X123595539Y-114689522D01*
X123590223Y-114738228D01*
X123589221Y-114793655D01*
X123451867Y-114793655D01*
X123451932Y-114773040D01*
X123452836Y-114740063D01*
X123458986Y-114658481D01*
X123471767Y-114597230D01*
X123493029Y-114551949D01*
X123524622Y-114518279D01*
X123555293Y-114498514D01*
X123598146Y-114484620D01*
X123651444Y-114479854D01*
X123706020Y-114483736D01*
X123752708Y-114495782D01*
X123777376Y-114510193D01*
X123802995Y-114533378D01*
X123802995Y-114240273D01*
X123941312Y-114240273D01*
X123941312Y-115095322D01*
G36*
X123941312Y-115095322D02*
G01*
X123872154Y-115095322D01*
X123832012Y-115094145D01*
X123811106Y-115089272D01*
X123803578Y-115078686D01*
X123802995Y-115071529D01*
X123801726Y-115057176D01*
X123793721Y-115054423D01*
X123772685Y-115063271D01*
X123756327Y-115071529D01*
X123693523Y-115091097D01*
X123625252Y-115092229D01*
X123569748Y-115077635D01*
X123518062Y-115042377D01*
X123478662Y-114990335D01*
X123457087Y-114928950D01*
X123456538Y-114925518D01*
X123453333Y-114888071D01*
X123451739Y-114834313D01*
X123451867Y-114793655D01*
X123589221Y-114793655D01*
X123592403Y-114847694D01*
X123599641Y-114892235D01*
X123609440Y-114917388D01*
X123646511Y-114951760D01*
X123690526Y-114964082D01*
X123735916Y-114954118D01*
X123774703Y-114924395D01*
X123789392Y-114904405D01*
X123797981Y-114880550D01*
X123802004Y-114845730D01*
X123802995Y-114793430D01*
X123801222Y-114741639D01*
X123796537Y-114696134D01*
X123789897Y-114665681D01*
X123788790Y-114662952D01*
X123762009Y-114630500D01*
X123722921Y-114612683D01*
X123679185Y-114609806D01*
X123638462Y-114622174D01*
X123608413Y-114650093D01*
X123605296Y-114655648D01*
X123595539Y-114689522D01*
X123590223Y-114738228D01*
X123589221Y-114793655D01*
X123451867Y-114793655D01*
X123451932Y-114773040D01*
X123452836Y-114740063D01*
X123458986Y-114658481D01*
X123471767Y-114597230D01*
X123493029Y-114551949D01*
X123524622Y-114518279D01*
X123555293Y-114498514D01*
X123598146Y-114484620D01*
X123651444Y-114479854D01*
X123706020Y-114483736D01*
X123752708Y-114495782D01*
X123777376Y-114510193D01*
X123802995Y-114533378D01*
X123802995Y-114240273D01*
X123941312Y-114240273D01*
X123941312Y-115095322D01*
G37*
X124156517Y-113533952D02*
X124204134Y-113542982D01*
X124253534Y-113561870D01*
X124258812Y-113564277D01*
X124296274Y-113583976D01*
X124322217Y-113602281D01*
X124330603Y-113614008D01*
X124322617Y-113633132D01*
X124303220Y-113661350D01*
X124294610Y-113671884D01*
X124259128Y-113713347D01*
X124213385Y-113686358D01*
X124169850Y-113668378D01*
X124119550Y-113658767D01*
X124071312Y-113658160D01*
X124033967Y-113667191D01*
X124025005Y-113672827D01*
X124007937Y-113698671D01*
X124005863Y-113728441D01*
X124018634Y-113751697D01*
X124026188Y-113756208D01*
X124048825Y-113761809D01*
X124088615Y-113768392D01*
X124137666Y-113774683D01*
X124146715Y-113775670D01*
X124225496Y-113789298D01*
X124282636Y-113812446D01*
X124320530Y-113847252D01*
X124341579Y-113895854D01*
X124348135Y-113955218D01*
X124339077Y-114022698D01*
X124309664Y-114075688D01*
X124259778Y-114114283D01*
X124189300Y-114138581D01*
X124111065Y-114148167D01*
X124047266Y-114148052D01*
X123995516Y-114139345D01*
X123960173Y-114127325D01*
X123915517Y-114106380D01*
X123874247Y-114082074D01*
X123859579Y-114071376D01*
X123821857Y-114040584D01*
X123867352Y-113994549D01*
X123912847Y-113948513D01*
X123964572Y-113982743D01*
X124016452Y-114008452D01*
X124071851Y-114021899D01*
X124125105Y-114023318D01*
X124170549Y-114012943D01*
X124202516Y-113991007D01*
X124212838Y-113972498D01*
X124211289Y-113942814D01*
X124185640Y-113920115D01*
X124135960Y-113904440D01*
X124081531Y-113897195D01*
X123997764Y-113883373D01*
X123935533Y-113857296D01*
X123894007Y-113818199D01*
X123872353Y-113765320D01*
X123869353Y-113702626D01*
X123884171Y-113637142D01*
X123917954Y-113587644D01*
X123971005Y-113553908D01*
X124043626Y-113535707D01*
X124097428Y-113532139D01*
X124156517Y-113533952D01*
G36*
X124156517Y-113533952D02*
G01*
X124204134Y-113542982D01*
X124253534Y-113561870D01*
X124258812Y-113564277D01*
X124296274Y-113583976D01*
X124322217Y-113602281D01*
X124330603Y-113614008D01*
X124322617Y-113633132D01*
X124303220Y-113661350D01*
X124294610Y-113671884D01*
X124259128Y-113713347D01*
X124213385Y-113686358D01*
X124169850Y-113668378D01*
X124119550Y-113658767D01*
X124071312Y-113658160D01*
X124033967Y-113667191D01*
X124025005Y-113672827D01*
X124007937Y-113698671D01*
X124005863Y-113728441D01*
X124018634Y-113751697D01*
X124026188Y-113756208D01*
X124048825Y-113761809D01*
X124088615Y-113768392D01*
X124137666Y-113774683D01*
X124146715Y-113775670D01*
X124225496Y-113789298D01*
X124282636Y-113812446D01*
X124320530Y-113847252D01*
X124341579Y-113895854D01*
X124348135Y-113955218D01*
X124339077Y-114022698D01*
X124309664Y-114075688D01*
X124259778Y-114114283D01*
X124189300Y-114138581D01*
X124111065Y-114148167D01*
X124047266Y-114148052D01*
X123995516Y-114139345D01*
X123960173Y-114127325D01*
X123915517Y-114106380D01*
X123874247Y-114082074D01*
X123859579Y-114071376D01*
X123821857Y-114040584D01*
X123867352Y-113994549D01*
X123912847Y-113948513D01*
X123964572Y-113982743D01*
X124016452Y-114008452D01*
X124071851Y-114021899D01*
X124125105Y-114023318D01*
X124170549Y-114012943D01*
X124202516Y-113991007D01*
X124212838Y-113972498D01*
X124211289Y-113942814D01*
X124185640Y-113920115D01*
X124135960Y-113904440D01*
X124081531Y-113897195D01*
X123997764Y-113883373D01*
X123935533Y-113857296D01*
X123894007Y-113818199D01*
X123872353Y-113765320D01*
X123869353Y-113702626D01*
X123884171Y-113637142D01*
X123917954Y-113587644D01*
X123971005Y-113553908D01*
X124043626Y-113535707D01*
X124097428Y-113532139D01*
X124156517Y-113533952D01*
G37*
X123149144Y-114480520D02*
X123167961Y-114486160D01*
X123174027Y-114498553D01*
X123174282Y-114504147D01*
X123175371Y-114519730D01*
X123182868Y-114522176D01*
X123203119Y-114511493D01*
X123215149Y-114504194D01*
X123253100Y-114488563D01*
X123298428Y-114480834D01*
X123345956Y-114480240D01*
X123390505Y-114486013D01*
X123426898Y-114497384D01*
X123449957Y-114513588D01*
X123454504Y-114533855D01*
X123452209Y-114539343D01*
X123435480Y-114562126D01*
X123409537Y-114590147D01*
X123404845Y-114594677D01*
X123380117Y-114615505D01*
X123358782Y-114622235D01*
X123328945Y-114617538D01*
X123316992Y-114614417D01*
X123279795Y-114606921D01*
X123253641Y-114610292D01*
X123231554Y-114622181D01*
X123211322Y-114638135D01*
X123196421Y-114658200D01*
X123186066Y-114686202D01*
X123179471Y-114725967D01*
X123175851Y-114781323D01*
X123174422Y-114856094D01*
X123174282Y-114901240D01*
X123174282Y-115095322D01*
X123048540Y-115095322D01*
X123048540Y-114479183D01*
X123111411Y-114479183D01*
X123149144Y-114480520D01*
G36*
X123149144Y-114480520D02*
G01*
X123167961Y-114486160D01*
X123174027Y-114498553D01*
X123174282Y-114504147D01*
X123175371Y-114519730D01*
X123182868Y-114522176D01*
X123203119Y-114511493D01*
X123215149Y-114504194D01*
X123253100Y-114488563D01*
X123298428Y-114480834D01*
X123345956Y-114480240D01*
X123390505Y-114486013D01*
X123426898Y-114497384D01*
X123449957Y-114513588D01*
X123454504Y-114533855D01*
X123452209Y-114539343D01*
X123435480Y-114562126D01*
X123409537Y-114590147D01*
X123404845Y-114594677D01*
X123380117Y-114615505D01*
X123358782Y-114622235D01*
X123328945Y-114617538D01*
X123316992Y-114614417D01*
X123279795Y-114606921D01*
X123253641Y-114610292D01*
X123231554Y-114622181D01*
X123211322Y-114638135D01*
X123196421Y-114658200D01*
X123186066Y-114686202D01*
X123179471Y-114725967D01*
X123175851Y-114781323D01*
X123174422Y-114856094D01*
X123174282Y-114901240D01*
X123174282Y-115095322D01*
X123048540Y-115095322D01*
X123048540Y-114479183D01*
X123111411Y-114479183D01*
X123149144Y-114480520D01*
G37*
X126820398Y-113533957D02*
X126852596Y-113541779D01*
X126914325Y-113570421D01*
X126967110Y-113614167D01*
X127003641Y-113666617D01*
X127008660Y-113678393D01*
X127015545Y-113709240D01*
X127020364Y-113754871D01*
X127022005Y-113800992D01*
X127022005Y-113888193D01*
X126839678Y-113888193D01*
X126764479Y-113888478D01*
X126711503Y-113890204D01*
X126677825Y-113894681D01*
X126660520Y-113903220D01*
X126656663Y-113917130D01*
X126663329Y-113937722D01*
X126675270Y-113961815D01*
X126708580Y-114002025D01*
X126754868Y-114022058D01*
X126811444Y-114021405D01*
X126875531Y-113999601D01*
X126930917Y-113972693D01*
X126976875Y-114009032D01*
X127022833Y-114045372D01*
X126979596Y-114085319D01*
X126921874Y-114123063D01*
X126850886Y-114145820D01*
X126774529Y-114152188D01*
X126700699Y-114140768D01*
X126688787Y-114136893D01*
X126623899Y-114103006D01*
X126575630Y-114052486D01*
X126542965Y-113983825D01*
X126524885Y-113895514D01*
X126524675Y-113893621D01*
X126523056Y-113797378D01*
X126529600Y-113763042D01*
X126657352Y-113763042D01*
X126669084Y-113768322D01*
X126700938Y-113772367D01*
X126747897Y-113774676D01*
X126777654Y-113775025D01*
X126833148Y-113774806D01*
X126867846Y-113773416D01*
X126886101Y-113769751D01*
X126892266Y-113762710D01*
X126890695Y-113751190D01*
X126889378Y-113746733D01*
X126866882Y-113704855D01*
X126831503Y-113671104D01*
X126800280Y-113656273D01*
X126758801Y-113657168D01*
X126716769Y-113675664D01*
X126681512Y-113706286D01*
X126660354Y-113743562D01*
X126657352Y-113763042D01*
X126529600Y-113763042D01*
X126539190Y-113712729D01*
X126571198Y-113641691D01*
X126617201Y-113586279D01*
X126675321Y-113548509D01*
X126743680Y-113530396D01*
X126820398Y-113533957D01*
G36*
X126820398Y-113533957D02*
G01*
X126852596Y-113541779D01*
X126914325Y-113570421D01*
X126967110Y-113614167D01*
X127003641Y-113666617D01*
X127008660Y-113678393D01*
X127015545Y-113709240D01*
X127020364Y-113754871D01*
X127022005Y-113800992D01*
X127022005Y-113888193D01*
X126839678Y-113888193D01*
X126764479Y-113888478D01*
X126711503Y-113890204D01*
X126677825Y-113894681D01*
X126660520Y-113903220D01*
X126656663Y-113917130D01*
X126663329Y-113937722D01*
X126675270Y-113961815D01*
X126708580Y-114002025D01*
X126754868Y-114022058D01*
X126811444Y-114021405D01*
X126875531Y-113999601D01*
X126930917Y-113972693D01*
X126976875Y-114009032D01*
X127022833Y-114045372D01*
X126979596Y-114085319D01*
X126921874Y-114123063D01*
X126850886Y-114145820D01*
X126774529Y-114152188D01*
X126700699Y-114140768D01*
X126688787Y-114136893D01*
X126623899Y-114103006D01*
X126575630Y-114052486D01*
X126542965Y-113983825D01*
X126524885Y-113895514D01*
X126524675Y-113893621D01*
X126523056Y-113797378D01*
X126529600Y-113763042D01*
X126657352Y-113763042D01*
X126669084Y-113768322D01*
X126700938Y-113772367D01*
X126747897Y-113774676D01*
X126777654Y-113775025D01*
X126833148Y-113774806D01*
X126867846Y-113773416D01*
X126886101Y-113769751D01*
X126892266Y-113762710D01*
X126890695Y-113751190D01*
X126889378Y-113746733D01*
X126866882Y-113704855D01*
X126831503Y-113671104D01*
X126800280Y-113656273D01*
X126758801Y-113657168D01*
X126716769Y-113675664D01*
X126681512Y-113706286D01*
X126660354Y-113743562D01*
X126657352Y-113763042D01*
X126529600Y-113763042D01*
X126539190Y-113712729D01*
X126571198Y-113641691D01*
X126617201Y-113586279D01*
X126675321Y-113548509D01*
X126743680Y-113530396D01*
X126820398Y-113533957D01*
G37*
X121604239Y-113542648D02*
X121670021Y-113571731D01*
X121719960Y-113620293D01*
X121754126Y-113688408D01*
X121772593Y-113776151D01*
X121773917Y-113789851D01*
X121774954Y-113886439D01*
X121761507Y-113971102D01*
X121734392Y-114039721D01*
X121719873Y-114061794D01*
X121669299Y-114108511D01*
X121604891Y-114138768D01*
X121532834Y-114151324D01*
X121459315Y-114144939D01*
X121403428Y-114125272D01*
X121355368Y-114092129D01*
X121316088Y-114048675D01*
X121315408Y-114047658D01*
X121299456Y-114020838D01*
X121289090Y-113993868D01*
X121282812Y-113959832D01*
X121279127Y-113911810D01*
X121277503Y-113872431D01*
X121276828Y-113836719D01*
X121402545Y-113836719D01*
X121403774Y-113872270D01*
X121408234Y-113919594D01*
X121416103Y-113949965D01*
X121430293Y-113971572D01*
X121443583Y-113984194D01*
X121490698Y-114010622D01*
X121539995Y-114014153D01*
X121585907Y-113995139D01*
X121608862Y-113973831D01*
X121625404Y-113952359D01*
X121635079Y-113931813D01*
X121639326Y-113905074D01*
X121639580Y-113865023D01*
X121638272Y-113828138D01*
X121635457Y-113775447D01*
X121630995Y-113741272D01*
X121622952Y-113718980D01*
X121609397Y-113701942D01*
X121598655Y-113692203D01*
X121553723Y-113666623D01*
X121505251Y-113665347D01*
X121464606Y-113680499D01*
X121429933Y-113712142D01*
X121409276Y-113764120D01*
X121402545Y-113836719D01*
X121276828Y-113836719D01*
X121276021Y-113794121D01*
X121278552Y-113735556D01*
X121286138Y-113691507D01*
X121299819Y-113656748D01*
X121320635Y-113626051D01*
X121328353Y-113616936D01*
X121376611Y-113571521D01*
X121428372Y-113544993D01*
X121491672Y-113533879D01*
X121522539Y-113532971D01*
X121604239Y-113542648D01*
G36*
X121604239Y-113542648D02*
G01*
X121670021Y-113571731D01*
X121719960Y-113620293D01*
X121754126Y-113688408D01*
X121772593Y-113776151D01*
X121773917Y-113789851D01*
X121774954Y-113886439D01*
X121761507Y-113971102D01*
X121734392Y-114039721D01*
X121719873Y-114061794D01*
X121669299Y-114108511D01*
X121604891Y-114138768D01*
X121532834Y-114151324D01*
X121459315Y-114144939D01*
X121403428Y-114125272D01*
X121355368Y-114092129D01*
X121316088Y-114048675D01*
X121315408Y-114047658D01*
X121299456Y-114020838D01*
X121289090Y-113993868D01*
X121282812Y-113959832D01*
X121279127Y-113911810D01*
X121277503Y-113872431D01*
X121276828Y-113836719D01*
X121402545Y-113836719D01*
X121403774Y-113872270D01*
X121408234Y-113919594D01*
X121416103Y-113949965D01*
X121430293Y-113971572D01*
X121443583Y-113984194D01*
X121490698Y-114010622D01*
X121539995Y-114014153D01*
X121585907Y-113995139D01*
X121608862Y-113973831D01*
X121625404Y-113952359D01*
X121635079Y-113931813D01*
X121639326Y-113905074D01*
X121639580Y-113865023D01*
X121638272Y-113828138D01*
X121635457Y-113775447D01*
X121630995Y-113741272D01*
X121622952Y-113718980D01*
X121609397Y-113701942D01*
X121598655Y-113692203D01*
X121553723Y-113666623D01*
X121505251Y-113665347D01*
X121464606Y-113680499D01*
X121429933Y-113712142D01*
X121409276Y-113764120D01*
X121402545Y-113836719D01*
X121276828Y-113836719D01*
X121276021Y-113794121D01*
X121278552Y-113735556D01*
X121286138Y-113691507D01*
X121299819Y-113656748D01*
X121320635Y-113626051D01*
X121328353Y-113616936D01*
X121376611Y-113571521D01*
X121428372Y-113544993D01*
X121491672Y-113533879D01*
X121522539Y-113532971D01*
X121604239Y-113542648D01*
G37*
X124753262Y-113543555D02*
X124816863Y-113578192D01*
X124866623Y-113632872D01*
X124890068Y-113677342D01*
X124900134Y-113716621D01*
X124906656Y-113772616D01*
X124909451Y-113837121D01*
X124908336Y-113901929D01*
X124903126Y-113958834D01*
X124897041Y-113989227D01*
X124876514Y-114030806D01*
X124840963Y-114074968D01*
X124798119Y-114113587D01*
X124755711Y-114138534D01*
X124754677Y-114138930D01*
X124702053Y-114149831D01*
X124639688Y-114150101D01*
X124580424Y-114140176D01*
X124557540Y-114132222D01*
X124498602Y-114098800D01*
X124456390Y-114055011D01*
X124428656Y-113997038D01*
X124413151Y-113921065D01*
X124409643Y-113881271D01*
X124410090Y-113831266D01*
X124544876Y-113831266D01*
X124549417Y-113904232D01*
X124562486Y-113959834D01*
X124583256Y-113995361D01*
X124598052Y-114005520D01*
X124635964Y-114012604D01*
X124681027Y-114010507D01*
X124719987Y-114000312D01*
X124730204Y-113994704D01*
X124757159Y-113962038D01*
X124774951Y-113912045D01*
X124782524Y-113851205D01*
X124778825Y-113785997D01*
X124770557Y-113746753D01*
X124746820Y-113701305D01*
X124709349Y-113672896D01*
X124664220Y-113663073D01*
X124617511Y-113673387D01*
X124581632Y-113698612D01*
X124562777Y-113719425D01*
X124551772Y-113739939D01*
X124546526Y-113767703D01*
X124544949Y-113810262D01*
X124544876Y-113831266D01*
X124410090Y-113831266D01*
X124410594Y-113775080D01*
X124427888Y-113688001D01*
X124461529Y-113620030D01*
X124511518Y-113571164D01*
X124577856Y-113541399D01*
X124592101Y-113537948D01*
X124677710Y-113529845D01*
X124753262Y-113543555D01*
G36*
X124753262Y-113543555D02*
G01*
X124816863Y-113578192D01*
X124866623Y-113632872D01*
X124890068Y-113677342D01*
X124900134Y-113716621D01*
X124906656Y-113772616D01*
X124909451Y-113837121D01*
X124908336Y-113901929D01*
X124903126Y-113958834D01*
X124897041Y-113989227D01*
X124876514Y-114030806D01*
X124840963Y-114074968D01*
X124798119Y-114113587D01*
X124755711Y-114138534D01*
X124754677Y-114138930D01*
X124702053Y-114149831D01*
X124639688Y-114150101D01*
X124580424Y-114140176D01*
X124557540Y-114132222D01*
X124498602Y-114098800D01*
X124456390Y-114055011D01*
X124428656Y-113997038D01*
X124413151Y-113921065D01*
X124409643Y-113881271D01*
X124410090Y-113831266D01*
X124544876Y-113831266D01*
X124549417Y-113904232D01*
X124562486Y-113959834D01*
X124583256Y-113995361D01*
X124598052Y-114005520D01*
X124635964Y-114012604D01*
X124681027Y-114010507D01*
X124719987Y-114000312D01*
X124730204Y-113994704D01*
X124757159Y-113962038D01*
X124774951Y-113912045D01*
X124782524Y-113851205D01*
X124778825Y-113785997D01*
X124770557Y-113746753D01*
X124746820Y-113701305D01*
X124709349Y-113672896D01*
X124664220Y-113663073D01*
X124617511Y-113673387D01*
X124581632Y-113698612D01*
X124562777Y-113719425D01*
X124551772Y-113739939D01*
X124546526Y-113767703D01*
X124544949Y-113810262D01*
X124544876Y-113831266D01*
X124410090Y-113831266D01*
X124410594Y-113775080D01*
X124427888Y-113688001D01*
X124461529Y-113620030D01*
X124511518Y-113571164D01*
X124577856Y-113541399D01*
X124592101Y-113537948D01*
X124677710Y-113529845D01*
X124753262Y-113543555D01*
G37*
X123388488Y-113546502D02*
X123419783Y-113561450D01*
X123450091Y-113583041D01*
X123473182Y-113607891D01*
X123490000Y-113639587D01*
X123501494Y-113681714D01*
X123508609Y-113737858D01*
X123512293Y-113811606D01*
X123513492Y-113906544D01*
X123513511Y-113916485D01*
X123513787Y-114139679D01*
X123375470Y-114139679D01*
X123375470Y-113933918D01*
X123375372Y-113857689D01*
X123374691Y-113802439D01*
X123372849Y-113764001D01*
X123369267Y-113738206D01*
X123363368Y-113720884D01*
X123354573Y-113707868D01*
X123342320Y-113695007D01*
X123299453Y-113667373D01*
X123252657Y-113662245D01*
X123208076Y-113679717D01*
X123192572Y-113692721D01*
X123181190Y-113704947D01*
X123173019Y-113718040D01*
X123167526Y-113736115D01*
X123164180Y-113763287D01*
X123162449Y-113803670D01*
X123161803Y-113861379D01*
X123161708Y-113931632D01*
X123161708Y-114139679D01*
X123023391Y-114139679D01*
X123023391Y-113536114D01*
X123092550Y-113536114D01*
X123134072Y-113537756D01*
X123155494Y-113543587D01*
X123161705Y-113554961D01*
X123161708Y-113555298D01*
X123164590Y-113566438D01*
X123177301Y-113565174D01*
X123202574Y-113552934D01*
X123259895Y-113534924D01*
X123325463Y-113532921D01*
X123388488Y-113546502D01*
G36*
X123388488Y-113546502D02*
G01*
X123419783Y-113561450D01*
X123450091Y-113583041D01*
X123473182Y-113607891D01*
X123490000Y-113639587D01*
X123501494Y-113681714D01*
X123508609Y-113737858D01*
X123512293Y-113811606D01*
X123513492Y-113906544D01*
X123513511Y-113916485D01*
X123513787Y-114139679D01*
X123375470Y-114139679D01*
X123375470Y-113933918D01*
X123375372Y-113857689D01*
X123374691Y-113802439D01*
X123372849Y-113764001D01*
X123369267Y-113738206D01*
X123363368Y-113720884D01*
X123354573Y-113707868D01*
X123342320Y-113695007D01*
X123299453Y-113667373D01*
X123252657Y-113662245D01*
X123208076Y-113679717D01*
X123192572Y-113692721D01*
X123181190Y-113704947D01*
X123173019Y-113718040D01*
X123167526Y-113736115D01*
X123164180Y-113763287D01*
X123162449Y-113803670D01*
X123161803Y-113861379D01*
X123161708Y-113931632D01*
X123161708Y-114139679D01*
X123023391Y-114139679D01*
X123023391Y-113536114D01*
X123092550Y-113536114D01*
X123134072Y-113537756D01*
X123155494Y-113543587D01*
X123161705Y-113554961D01*
X123161708Y-113555298D01*
X123164590Y-113566438D01*
X123177301Y-113565174D01*
X123202574Y-113552934D01*
X123259895Y-113534924D01*
X123325463Y-113532921D01*
X123388488Y-113546502D01*
G37*
D11*
%TO.C,D11*%
X158915000Y-97055000D02*
X156455000Y-97055000D01*
X156455000Y-98525000D02*
X158915000Y-98525000D01*
X156455000Y-97055000D02*
X156455000Y-98525000D01*
%TO.C,R25*%
X165847500Y-86932224D02*
X165847500Y-86422776D01*
X166892500Y-86932224D02*
X166892500Y-86422776D01*
%TO.C,D29*%
X158915000Y-108485000D02*
X156455000Y-108485000D01*
X156455000Y-109955000D02*
X158915000Y-109955000D01*
X156455000Y-108485000D02*
X156455000Y-109955000D01*
%TO.C,R13*%
X173417776Y-87742500D02*
X173927224Y-87742500D01*
X173417776Y-88787500D02*
X173927224Y-88787500D01*
%TO.C,D2*%
X147485000Y-93245000D02*
X145025000Y-93245000D01*
X145025000Y-94715000D02*
X147485000Y-94715000D01*
X145025000Y-93245000D02*
X145025000Y-94715000D01*
%TO.C,R11*%
X137682500Y-101854724D02*
X137682500Y-101345276D01*
X136637500Y-101854724D02*
X136637500Y-101345276D01*
%TO.C,D12*%
X160265000Y-98525000D02*
X162725000Y-98525000D01*
X162725000Y-97055000D02*
X160265000Y-97055000D01*
X160265000Y-97055000D02*
X160265000Y-98525000D01*
%TO.C,D5*%
X158915000Y-93245000D02*
X156455000Y-93245000D01*
X156455000Y-93245000D02*
X156455000Y-94715000D01*
X156455000Y-94715000D02*
X158915000Y-94715000D01*
%TO.C,R4*%
X140857500Y-95630276D02*
X140857500Y-96139724D01*
X139812500Y-95630276D02*
X139812500Y-96139724D01*
%TO.C,R21*%
X140765000Y-84074724D02*
X140765000Y-83565276D01*
X141810000Y-84074724D02*
X141810000Y-83565276D01*
%TO.C,D22*%
X155105000Y-104675000D02*
X152645000Y-104675000D01*
X152645000Y-106145000D02*
X155105000Y-106145000D01*
X152645000Y-104675000D02*
X152645000Y-106145000D01*
%TO.C,D4*%
X152645000Y-94715000D02*
X155105000Y-94715000D01*
X155105000Y-93245000D02*
X152645000Y-93245000D01*
X152645000Y-93245000D02*
X152645000Y-94715000D01*
%TO.C,Q1*%
X161290000Y-80355000D02*
X161940000Y-80355000D01*
X161290000Y-80355000D02*
X160640000Y-80355000D01*
X161290000Y-83475000D02*
X162965000Y-83475000D01*
X161290000Y-83475000D02*
X160640000Y-83475000D01*
%TO.C,R8*%
X160592224Y-84977500D02*
X160082776Y-84977500D01*
X160592224Y-83932500D02*
X160082776Y-83932500D01*
%TO.C,R20*%
X138860000Y-84074724D02*
X138860000Y-83565276D01*
X139905000Y-84074724D02*
X139905000Y-83565276D01*
%TO.C,R6*%
X165530000Y-95630276D02*
X165530000Y-96139724D01*
X166575000Y-95630276D02*
X166575000Y-96139724D01*
%TO.C,D26*%
X147485000Y-108485000D02*
X145025000Y-108485000D01*
X145025000Y-108485000D02*
X145025000Y-109955000D01*
X145025000Y-109955000D02*
X147485000Y-109955000D01*
%TO.C,D16*%
X152645000Y-100865000D02*
X152645000Y-102335000D01*
X155105000Y-100865000D02*
X152645000Y-100865000D01*
X152645000Y-102335000D02*
X155105000Y-102335000D01*
%TO.C,R9*%
X152654724Y-74817500D02*
X152145276Y-74817500D01*
X152654724Y-73772500D02*
X152145276Y-73772500D01*
%TO.C,D25*%
X143675000Y-108485000D02*
X141215000Y-108485000D01*
X141215000Y-109955000D02*
X143675000Y-109955000D01*
X141215000Y-108485000D02*
X141215000Y-109955000D01*
%TO.C,D31*%
X168253500Y-82677500D02*
X168253500Y-83142500D01*
X168253500Y-80052500D02*
X168253500Y-80517500D01*
X173601314Y-80516673D02*
G75*
G03*
X168253501Y-80052670I-2787814J-1080827D01*
G01*
X168253501Y-83142330D02*
G75*
G03*
X173601314Y-82678327I2559999J1544830D01*
G01*
X173067978Y-80517072D02*
G75*
G03*
X168558817Y-80517500I-2254478J-1080428D01*
G01*
X168558816Y-82677500D02*
G75*
G03*
X173067979Y-82677929I2254684J1080000D01*
G01*
%TO.C,D17*%
X156455000Y-100865000D02*
X156455000Y-102335000D01*
X158915000Y-100865000D02*
X156455000Y-100865000D01*
X156455000Y-102335000D02*
X158915000Y-102335000D01*
%TO.C,D15*%
X148835000Y-102335000D02*
X151295000Y-102335000D01*
X151295000Y-100865000D02*
X148835000Y-100865000D01*
X148835000Y-100865000D02*
X148835000Y-102335000D01*
%TO.C,J15*%
X120615000Y-91990000D02*
X121945000Y-91990000D01*
X123215000Y-91990000D02*
X135975000Y-91990000D01*
X123215000Y-94650000D02*
X123215000Y-91990000D01*
X135975000Y-94650000D02*
X135975000Y-91990000D01*
X120615000Y-93320000D02*
X120615000Y-91990000D01*
X123215000Y-94650000D02*
X135975000Y-94650000D01*
%TO.C,D7*%
X141215000Y-97055000D02*
X141215000Y-98525000D01*
X143675000Y-97055000D02*
X141215000Y-97055000D01*
X141215000Y-98525000D02*
X143675000Y-98525000D01*
%TO.C,D19*%
X143675000Y-104675000D02*
X141215000Y-104675000D01*
X141215000Y-106145000D02*
X143675000Y-106145000D01*
X141215000Y-104675000D02*
X141215000Y-106145000D01*
%TO.C,D28*%
X152645000Y-109955000D02*
X155105000Y-109955000D01*
X152645000Y-108485000D02*
X152645000Y-109955000D01*
X155105000Y-108485000D02*
X152645000Y-108485000D01*
%TO.C,R5*%
X163942500Y-95630276D02*
X163942500Y-96139724D01*
X164987500Y-95630276D02*
X164987500Y-96139724D01*
%TO.C,R14*%
X152830000Y-115950276D02*
X152830000Y-116459724D01*
X153875000Y-115950276D02*
X153875000Y-116459724D01*
%TO.C,R10*%
X167117500Y-101814724D02*
X167117500Y-101305276D01*
X168162500Y-101814724D02*
X168162500Y-101305276D01*
%TO.C,D30*%
X162725000Y-108485000D02*
X160265000Y-108485000D01*
X160265000Y-109955000D02*
X162725000Y-109955000D01*
X160265000Y-108485000D02*
X160265000Y-109955000D01*
%TO.C,J16*%
X168825000Y-92040000D02*
X168825000Y-94700000D01*
X181585000Y-94700000D02*
X168825000Y-94700000D01*
X181585000Y-92040000D02*
X168825000Y-92040000D01*
X181585000Y-92040000D02*
X181585000Y-94700000D01*
X184185000Y-93370000D02*
X184185000Y-94700000D01*
X184185000Y-94700000D02*
X182855000Y-94700000D01*
%TO.C,R3*%
X139270000Y-95630276D02*
X139270000Y-96139724D01*
X138225000Y-95630276D02*
X138225000Y-96139724D01*
%TO.C,D9*%
X151295000Y-97055000D02*
X148835000Y-97055000D01*
X148835000Y-98525000D02*
X151295000Y-98525000D01*
X148835000Y-97055000D02*
X148835000Y-98525000D01*
%TO.C,D3*%
X148835000Y-93245000D02*
X148835000Y-94715000D01*
X148835000Y-94715000D02*
X151295000Y-94715000D01*
X151295000Y-93245000D02*
X148835000Y-93245000D01*
%TO.C,D24*%
X160265000Y-104675000D02*
X160265000Y-106145000D01*
X162725000Y-104675000D02*
X160265000Y-104675000D01*
X160265000Y-106145000D02*
X162725000Y-106145000D01*
%TO.C,D21*%
X151295000Y-104675000D02*
X148835000Y-104675000D01*
X148835000Y-106145000D02*
X151295000Y-106145000D01*
X148835000Y-104675000D02*
X148835000Y-106145000D01*
%TO.C,D18*%
X162725000Y-100865000D02*
X160265000Y-100865000D01*
X160265000Y-100865000D02*
X160265000Y-102335000D01*
X160265000Y-102335000D02*
X162725000Y-102335000D01*
%TO.C,R22*%
X143715000Y-84074724D02*
X143715000Y-83565276D01*
X142670000Y-84074724D02*
X142670000Y-83565276D01*
%TO.C,D23*%
X156455000Y-104675000D02*
X156455000Y-106145000D01*
X158915000Y-104675000D02*
X156455000Y-104675000D01*
X156455000Y-106145000D02*
X158915000Y-106145000D01*
%TO.C,D6*%
X160265000Y-94715000D02*
X162725000Y-94715000D01*
X160265000Y-93245000D02*
X160265000Y-94715000D01*
X162725000Y-93245000D02*
X160265000Y-93245000D01*
%TO.C,R2*%
X137682500Y-95630276D02*
X137682500Y-96139724D01*
X136637500Y-95630276D02*
X136637500Y-96139724D01*
%TO.C,D8*%
X145025000Y-97055000D02*
X145025000Y-98525000D01*
X145025000Y-98525000D02*
X147485000Y-98525000D01*
X147485000Y-97055000D02*
X145025000Y-97055000D01*
%TO.C,R1*%
X150925000Y-115950276D02*
X150925000Y-116459724D01*
X151970000Y-115950276D02*
X151970000Y-116459724D01*
%TO.C,R19*%
X136955000Y-84074724D02*
X136955000Y-83565276D01*
X138000000Y-84074724D02*
X138000000Y-83565276D01*
%TO.C,R18*%
X136095000Y-84074724D02*
X136095000Y-83565276D01*
X135050000Y-84074724D02*
X135050000Y-83565276D01*
%TO.C,R16*%
X131240000Y-84074724D02*
X131240000Y-83565276D01*
X132285000Y-84074724D02*
X132285000Y-83565276D01*
%TO.C,D14*%
X147485000Y-100865000D02*
X145025000Y-100865000D01*
X145025000Y-100865000D02*
X145025000Y-102335000D01*
X145025000Y-102335000D02*
X147485000Y-102335000D01*
%TO.C,D10*%
X152645000Y-98525000D02*
X155105000Y-98525000D01*
X152645000Y-97055000D02*
X152645000Y-98525000D01*
X155105000Y-97055000D02*
X152645000Y-97055000D01*
%TO.C,SW2*%
X122120000Y-102530000D02*
X122120000Y-100590000D01*
X134420000Y-100590000D02*
X134420000Y-102530000D01*
X122120000Y-97530000D02*
X122120000Y-95410000D01*
X134420000Y-107710000D02*
X122120000Y-107710000D01*
X134420000Y-95410000D02*
X134420000Y-97530000D01*
X134420000Y-105590000D02*
X134420000Y-107710000D01*
X122120000Y-95410000D02*
X134420000Y-95410000D01*
X122120000Y-107710000D02*
X122120000Y-105590000D01*
X132949050Y-101600000D02*
G75*
G03*
X132949050Y-101600000I-4579050J0D01*
G01*
%TO.C,R12*%
X172465276Y-87200000D02*
X172974724Y-87200000D01*
X172465276Y-86155000D02*
X172974724Y-86155000D01*
%TO.C,D20*%
X145025000Y-104675000D02*
X145025000Y-106145000D01*
X147485000Y-104675000D02*
X145025000Y-104675000D01*
X145025000Y-106145000D02*
X147485000Y-106145000D01*
%TO.C,D13*%
X141215000Y-100865000D02*
X141215000Y-102335000D01*
X141215000Y-102335000D02*
X143675000Y-102335000D01*
X143675000Y-100865000D02*
X141215000Y-100865000D01*
%TO.C,R23*%
X144575000Y-84074724D02*
X144575000Y-83565276D01*
X145620000Y-84074724D02*
X145620000Y-83565276D01*
%TO.C,SW1*%
X182680000Y-107750000D02*
X170380000Y-107750000D01*
X170380000Y-102570000D02*
X170380000Y-100630000D01*
X170380000Y-95450000D02*
X182680000Y-95450000D01*
X182680000Y-105630000D02*
X182680000Y-107750000D01*
X170380000Y-97570000D02*
X170380000Y-95450000D01*
X182680000Y-100630000D02*
X182680000Y-102570000D01*
X182680000Y-95450000D02*
X182680000Y-97570000D01*
X170380000Y-107750000D02*
X170380000Y-105630000D01*
X181209050Y-101640000D02*
G75*
G03*
X181209050Y-101640000I-4579050J0D01*
G01*
%TO.C,R15*%
X170702500Y-86932224D02*
X170702500Y-86422776D01*
X169657500Y-86932224D02*
X169657500Y-86422776D01*
%TO.C,LDR1*%
X153720000Y-68970000D02*
X151070000Y-68970000D01*
X153720000Y-73270000D02*
X151070000Y-73270000D01*
X151041973Y-68987856D02*
G75*
G03*
X151070000Y-73270000I1378027J-2132144D01*
G01*
X153745476Y-73254387D02*
G75*
G03*
X153720000Y-68970001I-1325476J2134387D01*
G01*
%TO.C,R24*%
X167752500Y-86932224D02*
X167752500Y-86422776D01*
X168797500Y-86932224D02*
X168797500Y-86422776D01*
%TD*%
M02*
