%TF.GenerationSoftware,KiCad,Pcbnew,7.0.6-7.0.6~ubuntu22.04.1*%
%TF.CreationDate,2023-07-15T17:42:53-03:00*%
%TF.ProjectId,FRANZININHO-WIFI-MAKEYMAKEY,4652414e-5a49-44e4-994e-484f2d574946,1.0.0*%
%TF.SameCoordinates,Original*%
%TF.FileFunction,Legend,Bot*%
%TF.FilePolarity,Positive*%
%FSLAX46Y46*%
G04 Gerber Fmt 4.6, Leading zero omitted, Abs format (unit mm)*
G04 Created by KiCad (PCBNEW 7.0.6-7.0.6~ubuntu22.04.1) date 2023-07-15 17:42:53*
%MOMM*%
%LPD*%
G01*
G04 APERTURE LIST*
%ADD10C,0.150000*%
%ADD11C,0.010000*%
%ADD12C,0.254000*%
%ADD13C,0.120000*%
G04 APERTURE END LIST*
D10*
X139472319Y-119522976D02*
X140186604Y-119522976D01*
X140186604Y-119522976D02*
X140329461Y-119475357D01*
X140329461Y-119475357D02*
X140424700Y-119380119D01*
X140424700Y-119380119D02*
X140472319Y-119237262D01*
X140472319Y-119237262D02*
X140472319Y-119142024D01*
X140472319Y-120522976D02*
X140472319Y-119951548D01*
X140472319Y-120237262D02*
X139472319Y-120237262D01*
X139472319Y-120237262D02*
X139615176Y-120142024D01*
X139615176Y-120142024D02*
X139710414Y-120046786D01*
X139710414Y-120046786D02*
X139758033Y-119951548D01*
X139567557Y-120903929D02*
X139519938Y-120951548D01*
X139519938Y-120951548D02*
X139472319Y-121046786D01*
X139472319Y-121046786D02*
X139472319Y-121284881D01*
X139472319Y-121284881D02*
X139519938Y-121380119D01*
X139519938Y-121380119D02*
X139567557Y-121427738D01*
X139567557Y-121427738D02*
X139662795Y-121475357D01*
X139662795Y-121475357D02*
X139758033Y-121475357D01*
X139758033Y-121475357D02*
X139900890Y-121427738D01*
X139900890Y-121427738D02*
X140472319Y-120856310D01*
X140472319Y-120856310D02*
X140472319Y-121475357D01*
X152489819Y-119522976D02*
X153204104Y-119522976D01*
X153204104Y-119522976D02*
X153346961Y-119475357D01*
X153346961Y-119475357D02*
X153442200Y-119380119D01*
X153442200Y-119380119D02*
X153489819Y-119237262D01*
X153489819Y-119237262D02*
X153489819Y-119142024D01*
X153489819Y-120522976D02*
X153489819Y-119951548D01*
X153489819Y-120237262D02*
X152489819Y-120237262D01*
X152489819Y-120237262D02*
X152632676Y-120142024D01*
X152632676Y-120142024D02*
X152727914Y-120046786D01*
X152727914Y-120046786D02*
X152775533Y-119951548D01*
X152489819Y-120856310D02*
X152489819Y-121475357D01*
X152489819Y-121475357D02*
X152870771Y-121142024D01*
X152870771Y-121142024D02*
X152870771Y-121284881D01*
X152870771Y-121284881D02*
X152918390Y-121380119D01*
X152918390Y-121380119D02*
X152966009Y-121427738D01*
X152966009Y-121427738D02*
X153061247Y-121475357D01*
X153061247Y-121475357D02*
X153299342Y-121475357D01*
X153299342Y-121475357D02*
X153394580Y-121427738D01*
X153394580Y-121427738D02*
X153442200Y-121380119D01*
X153442200Y-121380119D02*
X153489819Y-121284881D01*
X153489819Y-121284881D02*
X153489819Y-120999167D01*
X153489819Y-120999167D02*
X153442200Y-120903929D01*
X153442200Y-120903929D02*
X153394580Y-120856310D01*
X126772319Y-119522976D02*
X127486604Y-119522976D01*
X127486604Y-119522976D02*
X127629461Y-119475357D01*
X127629461Y-119475357D02*
X127724700Y-119380119D01*
X127724700Y-119380119D02*
X127772319Y-119237262D01*
X127772319Y-119237262D02*
X127772319Y-119142024D01*
X127772319Y-120522976D02*
X127772319Y-119951548D01*
X127772319Y-120237262D02*
X126772319Y-120237262D01*
X126772319Y-120237262D02*
X126915176Y-120142024D01*
X126915176Y-120142024D02*
X127010414Y-120046786D01*
X127010414Y-120046786D02*
X127058033Y-119951548D01*
X127772319Y-121475357D02*
X127772319Y-120903929D01*
X127772319Y-121189643D02*
X126772319Y-121189643D01*
X126772319Y-121189643D02*
X126915176Y-121094405D01*
X126915176Y-121094405D02*
X127010414Y-120999167D01*
X127010414Y-120999167D02*
X127058033Y-120903929D01*
X146883333Y-83909819D02*
X146883333Y-84624104D01*
X146883333Y-84624104D02*
X146930952Y-84766961D01*
X146930952Y-84766961D02*
X147026190Y-84862200D01*
X147026190Y-84862200D02*
X147169047Y-84909819D01*
X147169047Y-84909819D02*
X147264285Y-84909819D01*
X146407142Y-84909819D02*
X146407142Y-83909819D01*
X146407142Y-83909819D02*
X146026190Y-83909819D01*
X146026190Y-83909819D02*
X145930952Y-83957438D01*
X145930952Y-83957438D02*
X145883333Y-84005057D01*
X145883333Y-84005057D02*
X145835714Y-84100295D01*
X145835714Y-84100295D02*
X145835714Y-84243152D01*
X145835714Y-84243152D02*
X145883333Y-84338390D01*
X145883333Y-84338390D02*
X145930952Y-84386009D01*
X145930952Y-84386009D02*
X146026190Y-84433628D01*
X146026190Y-84433628D02*
X146407142Y-84433628D01*
X144883333Y-84909819D02*
X145454761Y-84909819D01*
X145169047Y-84909819D02*
X145169047Y-83909819D01*
X145169047Y-83909819D02*
X145264285Y-84052676D01*
X145264285Y-84052676D02*
X145359523Y-84147914D01*
X145359523Y-84147914D02*
X145454761Y-84195533D01*
X165189819Y-119522976D02*
X165904104Y-119522976D01*
X165904104Y-119522976D02*
X166046961Y-119475357D01*
X166046961Y-119475357D02*
X166142200Y-119380119D01*
X166142200Y-119380119D02*
X166189819Y-119237262D01*
X166189819Y-119237262D02*
X166189819Y-119142024D01*
X166189819Y-120522976D02*
X166189819Y-119951548D01*
X166189819Y-120237262D02*
X165189819Y-120237262D01*
X165189819Y-120237262D02*
X165332676Y-120142024D01*
X165332676Y-120142024D02*
X165427914Y-120046786D01*
X165427914Y-120046786D02*
X165475533Y-119951548D01*
X165523152Y-121380119D02*
X166189819Y-121380119D01*
X165142200Y-121142024D02*
X165856485Y-120903929D01*
X165856485Y-120903929D02*
X165856485Y-121522976D01*
%TO.C,G\u002A\u002A\u002A*%
D11*
X168307392Y-85750500D02*
X168473260Y-85752887D01*
X168592241Y-85758606D01*
X168667380Y-85767868D01*
X168701721Y-85780880D01*
X168709836Y-85796811D01*
X168719937Y-85852549D01*
X168726891Y-85948737D01*
X168730908Y-86088804D01*
X168732200Y-86276180D01*
X168732200Y-86741000D01*
X168554400Y-86741000D01*
X168554400Y-85928200D01*
X167843200Y-85928200D01*
X167843200Y-85750400D01*
X168257221Y-85750400D01*
X168307392Y-85750500D01*
G36*
X168307392Y-85750500D02*
G01*
X168473260Y-85752887D01*
X168592241Y-85758606D01*
X168667380Y-85767868D01*
X168701721Y-85780880D01*
X168709836Y-85796811D01*
X168719937Y-85852549D01*
X168726891Y-85948737D01*
X168730908Y-86088804D01*
X168732200Y-86276180D01*
X168732200Y-86741000D01*
X168554400Y-86741000D01*
X168554400Y-85928200D01*
X167843200Y-85928200D01*
X167843200Y-85750400D01*
X168257221Y-85750400D01*
X168307392Y-85750500D01*
G37*
X167259725Y-85750443D02*
X167427927Y-85752643D01*
X167548821Y-85758313D01*
X167625315Y-85767657D01*
X167660321Y-85780880D01*
X167668436Y-85796811D01*
X167678537Y-85852549D01*
X167685491Y-85948737D01*
X167689508Y-86088804D01*
X167690800Y-86276180D01*
X167690800Y-86741000D01*
X167513000Y-86741000D01*
X167513000Y-85928200D01*
X166878000Y-85928200D01*
X166878000Y-86040685D01*
X166878731Y-86077369D01*
X166889147Y-86146221D01*
X166918229Y-86191401D01*
X166973960Y-86217717D01*
X167064327Y-86229981D01*
X167197315Y-86233000D01*
X167436800Y-86233000D01*
X167436800Y-86321900D01*
X167433628Y-86375661D01*
X167415454Y-86404525D01*
X167371090Y-86410800D01*
X167316883Y-86427123D01*
X167229980Y-86481899D01*
X167112657Y-86575900D01*
X167098713Y-86587832D01*
X167012904Y-86659514D01*
X166951324Y-86704418D01*
X166901879Y-86728723D01*
X166852474Y-86738608D01*
X166791017Y-86740255D01*
X166662100Y-86739510D01*
X166738725Y-86670405D01*
X166769264Y-86643167D01*
X166845444Y-86576503D01*
X166923574Y-86509364D01*
X167031799Y-86417429D01*
X166956332Y-86402336D01*
X166940363Y-86398078D01*
X166868406Y-86363963D01*
X166797881Y-86313097D01*
X166791472Y-86307333D01*
X166749581Y-86264279D01*
X166725184Y-86219598D01*
X166712256Y-86156900D01*
X166704774Y-86059795D01*
X166703734Y-86040885D01*
X166701058Y-85951400D01*
X166707171Y-85894381D01*
X166725575Y-85854273D01*
X166759771Y-85815520D01*
X166781073Y-85795067D01*
X166807120Y-85776439D01*
X166841059Y-85763878D01*
X166891472Y-85756188D01*
X166966939Y-85752176D01*
X167076044Y-85750644D01*
X167227366Y-85750400D01*
X167259725Y-85750443D01*
G36*
X167259725Y-85750443D02*
G01*
X167427927Y-85752643D01*
X167548821Y-85758313D01*
X167625315Y-85767657D01*
X167660321Y-85780880D01*
X167668436Y-85796811D01*
X167678537Y-85852549D01*
X167685491Y-85948737D01*
X167689508Y-86088804D01*
X167690800Y-86276180D01*
X167690800Y-86741000D01*
X167513000Y-86741000D01*
X167513000Y-85928200D01*
X166878000Y-85928200D01*
X166878000Y-86040685D01*
X166878731Y-86077369D01*
X166889147Y-86146221D01*
X166918229Y-86191401D01*
X166973960Y-86217717D01*
X167064327Y-86229981D01*
X167197315Y-86233000D01*
X167436800Y-86233000D01*
X167436800Y-86321900D01*
X167433628Y-86375661D01*
X167415454Y-86404525D01*
X167371090Y-86410800D01*
X167316883Y-86427123D01*
X167229980Y-86481899D01*
X167112657Y-86575900D01*
X167098713Y-86587832D01*
X167012904Y-86659514D01*
X166951324Y-86704418D01*
X166901879Y-86728723D01*
X166852474Y-86738608D01*
X166791017Y-86740255D01*
X166662100Y-86739510D01*
X166738725Y-86670405D01*
X166769264Y-86643167D01*
X166845444Y-86576503D01*
X166923574Y-86509364D01*
X167031799Y-86417429D01*
X166956332Y-86402336D01*
X166940363Y-86398078D01*
X166868406Y-86363963D01*
X166797881Y-86313097D01*
X166791472Y-86307333D01*
X166749581Y-86264279D01*
X166725184Y-86219598D01*
X166712256Y-86156900D01*
X166704774Y-86059795D01*
X166703734Y-86040885D01*
X166701058Y-85951400D01*
X166707171Y-85894381D01*
X166725575Y-85854273D01*
X166759771Y-85815520D01*
X166781073Y-85795067D01*
X166807120Y-85776439D01*
X166841059Y-85763878D01*
X166891472Y-85756188D01*
X166966939Y-85752176D01*
X167076044Y-85750644D01*
X167227366Y-85750400D01*
X167259725Y-85750443D01*
G37*
X166517607Y-86252320D02*
X166522400Y-86431519D01*
X166522400Y-86741000D01*
X166344600Y-86741000D01*
X166344600Y-86487000D01*
X165709600Y-86487000D01*
X165709600Y-86741000D01*
X165531800Y-86741000D01*
X165531800Y-86309200D01*
X165709600Y-86309200D01*
X166344600Y-86309200D01*
X166344600Y-86213251D01*
X166334399Y-86125674D01*
X166289194Y-86036899D01*
X166205667Y-85975453D01*
X166081422Y-85939748D01*
X165914062Y-85928200D01*
X165709600Y-85928200D01*
X165709600Y-86309200D01*
X165531800Y-86309200D01*
X165531800Y-86274210D01*
X165532220Y-86136990D01*
X165534261Y-86000009D01*
X165538444Y-85902095D01*
X165545259Y-85836649D01*
X165555197Y-85797070D01*
X165568748Y-85776756D01*
X165586455Y-85767871D01*
X165649277Y-85757005D01*
X165754952Y-85752663D01*
X165907274Y-85754596D01*
X165961971Y-85756232D01*
X166077240Y-85761252D01*
X166158009Y-85769021D01*
X166216120Y-85781784D01*
X166263419Y-85801786D01*
X166311749Y-85831274D01*
X166350751Y-85859090D01*
X166420836Y-85926582D01*
X166469934Y-86008711D01*
X166501155Y-86114338D01*
X166512949Y-86213251D01*
X166517607Y-86252320D01*
G36*
X166517607Y-86252320D02*
G01*
X166522400Y-86431519D01*
X166522400Y-86741000D01*
X166344600Y-86741000D01*
X166344600Y-86487000D01*
X165709600Y-86487000D01*
X165709600Y-86741000D01*
X165531800Y-86741000D01*
X165531800Y-86309200D01*
X165709600Y-86309200D01*
X166344600Y-86309200D01*
X166344600Y-86213251D01*
X166334399Y-86125674D01*
X166289194Y-86036899D01*
X166205667Y-85975453D01*
X166081422Y-85939748D01*
X165914062Y-85928200D01*
X165709600Y-85928200D01*
X165709600Y-86309200D01*
X165531800Y-86309200D01*
X165531800Y-86274210D01*
X165532220Y-86136990D01*
X165534261Y-86000009D01*
X165538444Y-85902095D01*
X165545259Y-85836649D01*
X165555197Y-85797070D01*
X165568748Y-85776756D01*
X165586455Y-85767871D01*
X165649277Y-85757005D01*
X165754952Y-85752663D01*
X165907274Y-85754596D01*
X165961971Y-85756232D01*
X166077240Y-85761252D01*
X166158009Y-85769021D01*
X166216120Y-85781784D01*
X166263419Y-85801786D01*
X166311749Y-85831274D01*
X166350751Y-85859090D01*
X166420836Y-85926582D01*
X166469934Y-86008711D01*
X166501155Y-86114338D01*
X166512949Y-86213251D01*
X166517607Y-86252320D01*
G37*
X165268457Y-85728177D02*
X165290604Y-85745661D01*
X165306695Y-85783808D01*
X165317636Y-85848640D01*
X165324331Y-85946181D01*
X165327684Y-86082453D01*
X165328600Y-86263480D01*
X165328600Y-86741000D01*
X165176200Y-86741000D01*
X165176200Y-86398100D01*
X165176080Y-86362849D01*
X165173698Y-86242133D01*
X165168728Y-86144450D01*
X165161784Y-86079054D01*
X165153478Y-86055200D01*
X165130181Y-86072389D01*
X165078008Y-86121080D01*
X165002919Y-86195466D01*
X164910775Y-86289742D01*
X164807435Y-86398100D01*
X164728238Y-86481231D01*
X164612686Y-86597503D01*
X164523436Y-86678526D01*
X164456686Y-86726834D01*
X164408634Y-86744963D01*
X164375479Y-86735448D01*
X164353418Y-86700822D01*
X164349052Y-86670749D01*
X164344638Y-86596374D01*
X164341137Y-86488040D01*
X164338831Y-86354754D01*
X164338000Y-86205522D01*
X164338000Y-85750400D01*
X164515800Y-85750400D01*
X164516550Y-86099650D01*
X164517299Y-86448900D01*
X164872540Y-86086950D01*
X164892370Y-86066777D01*
X165000059Y-85958354D01*
X165095119Y-85864484D01*
X165171869Y-85790647D01*
X165224627Y-85742325D01*
X165247711Y-85725000D01*
X165268457Y-85728177D01*
G36*
X165268457Y-85728177D02*
G01*
X165290604Y-85745661D01*
X165306695Y-85783808D01*
X165317636Y-85848640D01*
X165324331Y-85946181D01*
X165327684Y-86082453D01*
X165328600Y-86263480D01*
X165328600Y-86741000D01*
X165176200Y-86741000D01*
X165176200Y-86398100D01*
X165176080Y-86362849D01*
X165173698Y-86242133D01*
X165168728Y-86144450D01*
X165161784Y-86079054D01*
X165153478Y-86055200D01*
X165130181Y-86072389D01*
X165078008Y-86121080D01*
X165002919Y-86195466D01*
X164910775Y-86289742D01*
X164807435Y-86398100D01*
X164728238Y-86481231D01*
X164612686Y-86597503D01*
X164523436Y-86678526D01*
X164456686Y-86726834D01*
X164408634Y-86744963D01*
X164375479Y-86735448D01*
X164353418Y-86700822D01*
X164349052Y-86670749D01*
X164344638Y-86596374D01*
X164341137Y-86488040D01*
X164338831Y-86354754D01*
X164338000Y-86205522D01*
X164338000Y-85750400D01*
X164515800Y-85750400D01*
X164516550Y-86099650D01*
X164517299Y-86448900D01*
X164872540Y-86086950D01*
X164892370Y-86066777D01*
X165000059Y-85958354D01*
X165095119Y-85864484D01*
X165171869Y-85790647D01*
X165224627Y-85742325D01*
X165247711Y-85725000D01*
X165268457Y-85728177D01*
G37*
X164185600Y-85926636D02*
X163577582Y-85940900D01*
X163881591Y-86278447D01*
X163968851Y-86376685D01*
X164055465Y-86477295D01*
X164124112Y-86560492D01*
X164169316Y-86619618D01*
X164185600Y-86648017D01*
X164182184Y-86666120D01*
X164155120Y-86710520D01*
X164150070Y-86714206D01*
X164105613Y-86726241D01*
X164019583Y-86734579D01*
X163888933Y-86739429D01*
X163710620Y-86741000D01*
X163296600Y-86741000D01*
X163296600Y-86563200D01*
X163588700Y-86563200D01*
X163697335Y-86562162D01*
X163792576Y-86559092D01*
X163857073Y-86554479D01*
X163880800Y-86548816D01*
X163871524Y-86534870D01*
X163833356Y-86488143D01*
X163770828Y-86415202D01*
X163689529Y-86322544D01*
X163595050Y-86216667D01*
X163533692Y-86148366D01*
X163433934Y-86036411D01*
X163362576Y-85953796D01*
X163315786Y-85894988D01*
X163289734Y-85854454D01*
X163280590Y-85826661D01*
X163284524Y-85806078D01*
X163297704Y-85787170D01*
X163305275Y-85780292D01*
X163335006Y-85768073D01*
X163388209Y-85759521D01*
X163471709Y-85754089D01*
X163592334Y-85751231D01*
X163756911Y-85750400D01*
X164185600Y-85750400D01*
X164185600Y-85926636D01*
G36*
X164185600Y-85926636D02*
G01*
X163577582Y-85940900D01*
X163881591Y-86278447D01*
X163968851Y-86376685D01*
X164055465Y-86477295D01*
X164124112Y-86560492D01*
X164169316Y-86619618D01*
X164185600Y-86648017D01*
X164182184Y-86666120D01*
X164155120Y-86710520D01*
X164150070Y-86714206D01*
X164105613Y-86726241D01*
X164019583Y-86734579D01*
X163888933Y-86739429D01*
X163710620Y-86741000D01*
X163296600Y-86741000D01*
X163296600Y-86563200D01*
X163588700Y-86563200D01*
X163697335Y-86562162D01*
X163792576Y-86559092D01*
X163857073Y-86554479D01*
X163880800Y-86548816D01*
X163871524Y-86534870D01*
X163833356Y-86488143D01*
X163770828Y-86415202D01*
X163689529Y-86322544D01*
X163595050Y-86216667D01*
X163533692Y-86148366D01*
X163433934Y-86036411D01*
X163362576Y-85953796D01*
X163315786Y-85894988D01*
X163289734Y-85854454D01*
X163280590Y-85826661D01*
X163284524Y-85806078D01*
X163297704Y-85787170D01*
X163305275Y-85780292D01*
X163335006Y-85768073D01*
X163388209Y-85759521D01*
X163471709Y-85754089D01*
X163592334Y-85751231D01*
X163756911Y-85750400D01*
X164185600Y-85750400D01*
X164185600Y-85926636D01*
G37*
X163118800Y-86741000D02*
X162941000Y-86741000D01*
X162941000Y-85750400D01*
X163118800Y-85750400D01*
X163118800Y-86741000D01*
G36*
X163118800Y-86741000D02*
G01*
X162941000Y-86741000D01*
X162941000Y-85750400D01*
X163118800Y-85750400D01*
X163118800Y-86741000D01*
G37*
X162683125Y-85748325D02*
X162689467Y-85751827D01*
X162706884Y-85764925D01*
X162719520Y-85785899D01*
X162728142Y-85821902D01*
X162733516Y-85880090D01*
X162736407Y-85967615D01*
X162737580Y-86091631D01*
X162737800Y-86259293D01*
X162737800Y-86741000D01*
X162560000Y-86741000D01*
X162557906Y-86042500D01*
X162215866Y-86393492D01*
X162083336Y-86529325D01*
X161973949Y-86637415D01*
X161892494Y-86707088D01*
X161834733Y-86736934D01*
X161796428Y-86725541D01*
X161773340Y-86671497D01*
X161761232Y-86573391D01*
X161755866Y-86429813D01*
X161753002Y-86239350D01*
X161746104Y-85750400D01*
X161925000Y-85750400D01*
X161926634Y-86448900D01*
X162277542Y-86083982D01*
X162285547Y-86075658D01*
X162404042Y-85953127D01*
X162493277Y-85863047D01*
X162558467Y-85801102D01*
X162604831Y-85762974D01*
X162637584Y-85744347D01*
X162661943Y-85740903D01*
X162683125Y-85748325D01*
G36*
X162683125Y-85748325D02*
G01*
X162689467Y-85751827D01*
X162706884Y-85764925D01*
X162719520Y-85785899D01*
X162728142Y-85821902D01*
X162733516Y-85880090D01*
X162736407Y-85967615D01*
X162737580Y-86091631D01*
X162737800Y-86259293D01*
X162737800Y-86741000D01*
X162560000Y-86741000D01*
X162557906Y-86042500D01*
X162215866Y-86393492D01*
X162083336Y-86529325D01*
X161973949Y-86637415D01*
X161892494Y-86707088D01*
X161834733Y-86736934D01*
X161796428Y-86725541D01*
X161773340Y-86671497D01*
X161761232Y-86573391D01*
X161755866Y-86429813D01*
X161753002Y-86239350D01*
X161746104Y-85750400D01*
X161925000Y-85750400D01*
X161926634Y-86448900D01*
X162277542Y-86083982D01*
X162285547Y-86075658D01*
X162404042Y-85953127D01*
X162493277Y-85863047D01*
X162558467Y-85801102D01*
X162604831Y-85762974D01*
X162637584Y-85744347D01*
X162661943Y-85740903D01*
X162683125Y-85748325D01*
G37*
X161544000Y-86741000D02*
X161366200Y-86741000D01*
X161366200Y-85750400D01*
X161544000Y-85750400D01*
X161544000Y-86741000D01*
G36*
X161544000Y-86741000D02*
G01*
X161366200Y-86741000D01*
X161366200Y-85750400D01*
X161544000Y-85750400D01*
X161544000Y-86741000D01*
G37*
X161103359Y-85759869D02*
X161124720Y-85815445D01*
X161134712Y-85916370D01*
X161137587Y-86064455D01*
X161137600Y-86261510D01*
X161137600Y-86741000D01*
X160985200Y-86741000D01*
X160985200Y-86398100D01*
X160985094Y-86362855D01*
X160982973Y-86242137D01*
X160978548Y-86144452D01*
X160972366Y-86079055D01*
X160964971Y-86055200D01*
X160964951Y-86055200D01*
X160941819Y-86072907D01*
X160889843Y-86121959D01*
X160814827Y-86196582D01*
X160722574Y-86291003D01*
X160618888Y-86399449D01*
X160510935Y-86513456D01*
X160400892Y-86626357D01*
X160318913Y-86700302D01*
X160260745Y-86733745D01*
X160222135Y-86725141D01*
X160198829Y-86672945D01*
X160186574Y-86575611D01*
X160181116Y-86431594D01*
X160178202Y-86239350D01*
X160171304Y-85750400D01*
X160324800Y-85750400D01*
X160324800Y-86093300D01*
X160324852Y-86128527D01*
X160325877Y-86249251D01*
X160328014Y-86346941D01*
X160331001Y-86412342D01*
X160334573Y-86436200D01*
X160335728Y-86435601D01*
X160361600Y-86412338D01*
X160416515Y-86359241D01*
X160494953Y-86281753D01*
X160591397Y-86185317D01*
X160700329Y-86075378D01*
X160819151Y-85954846D01*
X160928525Y-85847131D01*
X161009515Y-85777523D01*
X161066375Y-85747832D01*
X161103359Y-85759869D01*
G36*
X161103359Y-85759869D02*
G01*
X161124720Y-85815445D01*
X161134712Y-85916370D01*
X161137587Y-86064455D01*
X161137600Y-86261510D01*
X161137600Y-86741000D01*
X160985200Y-86741000D01*
X160985200Y-86398100D01*
X160985094Y-86362855D01*
X160982973Y-86242137D01*
X160978548Y-86144452D01*
X160972366Y-86079055D01*
X160964971Y-86055200D01*
X160964951Y-86055200D01*
X160941819Y-86072907D01*
X160889843Y-86121959D01*
X160814827Y-86196582D01*
X160722574Y-86291003D01*
X160618888Y-86399449D01*
X160510935Y-86513456D01*
X160400892Y-86626357D01*
X160318913Y-86700302D01*
X160260745Y-86733745D01*
X160222135Y-86725141D01*
X160198829Y-86672945D01*
X160186574Y-86575611D01*
X160181116Y-86431594D01*
X160178202Y-86239350D01*
X160171304Y-85750400D01*
X160324800Y-85750400D01*
X160324800Y-86093300D01*
X160324852Y-86128527D01*
X160325877Y-86249251D01*
X160328014Y-86346941D01*
X160331001Y-86412342D01*
X160334573Y-86436200D01*
X160335728Y-86435601D01*
X160361600Y-86412338D01*
X160416515Y-86359241D01*
X160494953Y-86281753D01*
X160591397Y-86185317D01*
X160700329Y-86075378D01*
X160819151Y-85954846D01*
X160928525Y-85847131D01*
X161009515Y-85777523D01*
X161066375Y-85747832D01*
X161103359Y-85759869D01*
G37*
X159131000Y-86156800D02*
X159766000Y-86156800D01*
X159766000Y-85750400D01*
X159943800Y-85750400D01*
X159943800Y-86741000D01*
X159766000Y-86741000D01*
X159766000Y-86334600D01*
X159131000Y-86334600D01*
X159131000Y-86741000D01*
X158953200Y-86741000D01*
X158953200Y-85750400D01*
X159131000Y-85750400D01*
X159131000Y-86156800D01*
G36*
X159131000Y-86156800D02*
G01*
X159766000Y-86156800D01*
X159766000Y-85750400D01*
X159943800Y-85750400D01*
X159943800Y-86741000D01*
X159766000Y-86741000D01*
X159766000Y-86334600D01*
X159131000Y-86334600D01*
X159131000Y-86741000D01*
X158953200Y-86741000D01*
X158953200Y-85750400D01*
X159131000Y-85750400D01*
X159131000Y-86156800D01*
G37*
X158768145Y-86377311D02*
X158740026Y-86504978D01*
X158684777Y-86603135D01*
X158599438Y-86679959D01*
X158564256Y-86702060D01*
X158517082Y-86722584D01*
X158458527Y-86734365D01*
X158375463Y-86739728D01*
X158254758Y-86741000D01*
X158242275Y-86740977D01*
X158086668Y-86734978D01*
X157970825Y-86715609D01*
X157885197Y-86678889D01*
X157820233Y-86620839D01*
X157766384Y-86537479D01*
X157759135Y-86523003D01*
X157718168Y-86390183D01*
X157705601Y-86237671D01*
X157705766Y-86236086D01*
X157886400Y-86236086D01*
X157886759Y-86276140D01*
X157895037Y-86388283D01*
X157917965Y-86464428D01*
X157960433Y-86515557D01*
X158027329Y-86552650D01*
X158095518Y-86571095D01*
X158205587Y-86583105D01*
X158326865Y-86583294D01*
X158438344Y-86570740D01*
X158500629Y-86546091D01*
X158555640Y-86482812D01*
X158587395Y-86379985D01*
X158597600Y-86234002D01*
X158597524Y-86203673D01*
X158594792Y-86112444D01*
X158585421Y-86053875D01*
X158565734Y-86013557D01*
X158532054Y-85977077D01*
X158509862Y-85957622D01*
X158472602Y-85935123D01*
X158423477Y-85922412D01*
X158349518Y-85916775D01*
X158237755Y-85915500D01*
X158133052Y-85916261D01*
X158059810Y-85920676D01*
X158012893Y-85931838D01*
X157979718Y-85952837D01*
X157947701Y-85986766D01*
X157922862Y-86019012D01*
X157899888Y-86068365D01*
X157889093Y-86135196D01*
X157886400Y-86236086D01*
X157705766Y-86236086D01*
X157721454Y-86085377D01*
X157765750Y-85953213D01*
X157814621Y-85872586D01*
X157881013Y-85806992D01*
X157967910Y-85765571D01*
X158085007Y-85743936D01*
X158242000Y-85737700D01*
X158351542Y-85740101D01*
X158475135Y-85754036D01*
X158567579Y-85784041D01*
X158640006Y-85834242D01*
X158703548Y-85908766D01*
X158727556Y-85947205D01*
X158750473Y-86007066D01*
X158764048Y-86087580D01*
X158771761Y-86203792D01*
X158772092Y-86211958D01*
X158771565Y-86234002D01*
X158768145Y-86377311D01*
G36*
X158768145Y-86377311D02*
G01*
X158740026Y-86504978D01*
X158684777Y-86603135D01*
X158599438Y-86679959D01*
X158564256Y-86702060D01*
X158517082Y-86722584D01*
X158458527Y-86734365D01*
X158375463Y-86739728D01*
X158254758Y-86741000D01*
X158242275Y-86740977D01*
X158086668Y-86734978D01*
X157970825Y-86715609D01*
X157885197Y-86678889D01*
X157820233Y-86620839D01*
X157766384Y-86537479D01*
X157759135Y-86523003D01*
X157718168Y-86390183D01*
X157705601Y-86237671D01*
X157705766Y-86236086D01*
X157886400Y-86236086D01*
X157886759Y-86276140D01*
X157895037Y-86388283D01*
X157917965Y-86464428D01*
X157960433Y-86515557D01*
X158027329Y-86552650D01*
X158095518Y-86571095D01*
X158205587Y-86583105D01*
X158326865Y-86583294D01*
X158438344Y-86570740D01*
X158500629Y-86546091D01*
X158555640Y-86482812D01*
X158587395Y-86379985D01*
X158597600Y-86234002D01*
X158597524Y-86203673D01*
X158594792Y-86112444D01*
X158585421Y-86053875D01*
X158565734Y-86013557D01*
X158532054Y-85977077D01*
X158509862Y-85957622D01*
X158472602Y-85935123D01*
X158423477Y-85922412D01*
X158349518Y-85916775D01*
X158237755Y-85915500D01*
X158133052Y-85916261D01*
X158059810Y-85920676D01*
X158012893Y-85931838D01*
X157979718Y-85952837D01*
X157947701Y-85986766D01*
X157922862Y-86019012D01*
X157899888Y-86068365D01*
X157889093Y-86135196D01*
X157886400Y-86236086D01*
X157705766Y-86236086D01*
X157721454Y-86085377D01*
X157765750Y-85953213D01*
X157814621Y-85872586D01*
X157881013Y-85806992D01*
X157967910Y-85765571D01*
X158085007Y-85743936D01*
X158242000Y-85737700D01*
X158351542Y-85740101D01*
X158475135Y-85754036D01*
X158567579Y-85784041D01*
X158640006Y-85834242D01*
X158703548Y-85908766D01*
X158727556Y-85947205D01*
X158750473Y-86007066D01*
X158764048Y-86087580D01*
X158771761Y-86203792D01*
X158772092Y-86211958D01*
X158771565Y-86234002D01*
X158768145Y-86377311D01*
G37*
X168478200Y-86334600D02*
X167919400Y-86334600D01*
X167919400Y-86156800D01*
X168478200Y-86156800D01*
X168478200Y-86334600D01*
G36*
X168478200Y-86334600D02*
G01*
X167919400Y-86334600D01*
X167919400Y-86156800D01*
X168478200Y-86156800D01*
X168478200Y-86334600D01*
G37*
X163975770Y-82692640D02*
X163910080Y-82782532D01*
X163892688Y-82797484D01*
X163815401Y-82843962D01*
X163736935Y-82849275D01*
X163640509Y-82815475D01*
X163599301Y-82791426D01*
X163533507Y-82720247D01*
X163504533Y-82634944D01*
X163507610Y-82572964D01*
X163606421Y-82572964D01*
X163608290Y-82646736D01*
X163647851Y-82711163D01*
X163675250Y-82731759D01*
X163746880Y-82753597D01*
X163813950Y-82738857D01*
X163867398Y-82696794D01*
X163898164Y-82636660D01*
X163897185Y-82567711D01*
X163855400Y-82499200D01*
X163807494Y-82465933D01*
X163745037Y-82448400D01*
X163692823Y-82459385D01*
X163636510Y-82505346D01*
X163606421Y-82572964D01*
X163507610Y-82572964D01*
X163508957Y-82545842D01*
X163543357Y-82463261D01*
X163604312Y-82397526D01*
X163688399Y-82358958D01*
X163792197Y-82357879D01*
X163812146Y-82361162D01*
X163842714Y-82361199D01*
X163873786Y-82349467D01*
X163911883Y-82320614D01*
X163963527Y-82269289D01*
X164035240Y-82190142D01*
X164133545Y-82077821D01*
X164183487Y-82019862D01*
X164264696Y-81922753D01*
X164328830Y-81842299D01*
X164370313Y-81785589D01*
X164383573Y-81759714D01*
X164381117Y-81756237D01*
X164349022Y-81726361D01*
X164284763Y-81672061D01*
X164194318Y-81598028D01*
X164083666Y-81508950D01*
X163958785Y-81409516D01*
X163825654Y-81304415D01*
X163690252Y-81198337D01*
X163558557Y-81095969D01*
X163436547Y-81002003D01*
X163330202Y-80921126D01*
X163245500Y-80858027D01*
X163188420Y-80817397D01*
X163164939Y-80803923D01*
X163164835Y-80803965D01*
X163143854Y-80825602D01*
X163096892Y-80880830D01*
X163029149Y-80963318D01*
X162945826Y-81066735D01*
X162852122Y-81184750D01*
X162850207Y-81187178D01*
X162756440Y-81304591D01*
X162672705Y-81406739D01*
X162604275Y-81487404D01*
X162556426Y-81540364D01*
X162534432Y-81559400D01*
X162518275Y-81557194D01*
X162504739Y-81540690D01*
X162512793Y-81504767D01*
X162544673Y-81445547D01*
X162602616Y-81359151D01*
X162688861Y-81241701D01*
X162805646Y-81089319D01*
X162835329Y-81051170D01*
X162930832Y-80929891D01*
X163014944Y-80825250D01*
X163082793Y-80743171D01*
X163129506Y-80689580D01*
X163150210Y-80670400D01*
X163174954Y-80685503D01*
X163234986Y-80729095D01*
X163326078Y-80797857D01*
X163444048Y-80888467D01*
X163584714Y-80997606D01*
X163743894Y-81121953D01*
X163917407Y-81258189D01*
X164101070Y-81402993D01*
X164290702Y-81553044D01*
X164482121Y-81705023D01*
X164671145Y-81855609D01*
X164853593Y-82001482D01*
X165025281Y-82139322D01*
X165182029Y-82265809D01*
X165319655Y-82377621D01*
X165433977Y-82471440D01*
X165520813Y-82543944D01*
X165575982Y-82591814D01*
X165595300Y-82611729D01*
X165588805Y-82623133D01*
X165553958Y-82671190D01*
X165491272Y-82753265D01*
X165403335Y-82866092D01*
X165292736Y-83006405D01*
X165162062Y-83170937D01*
X165013903Y-83356423D01*
X164850848Y-83559595D01*
X164675484Y-83777187D01*
X164490400Y-84005933D01*
X164369192Y-84155311D01*
X164189682Y-84376035D01*
X164021091Y-84582729D01*
X163866045Y-84772208D01*
X163727169Y-84941284D01*
X163607088Y-85086772D01*
X163508428Y-85205486D01*
X163433813Y-85294240D01*
X163385869Y-85349848D01*
X163367220Y-85369123D01*
X163349622Y-85359664D01*
X163294838Y-85322684D01*
X163207655Y-85260782D01*
X163092382Y-85177200D01*
X162953326Y-85075183D01*
X162794794Y-84957974D01*
X162621096Y-84828817D01*
X162436538Y-84690955D01*
X162245429Y-84547633D01*
X162052075Y-84402094D01*
X161860786Y-84257582D01*
X161675868Y-84117340D01*
X161501629Y-83984612D01*
X161342378Y-83862641D01*
X161202421Y-83754672D01*
X161086068Y-83663948D01*
X160997624Y-83593713D01*
X160941399Y-83547211D01*
X160921700Y-83527684D01*
X160935764Y-83499796D01*
X160976713Y-83438832D01*
X161039785Y-83351238D01*
X161120201Y-83243133D01*
X161213184Y-83120636D01*
X161313957Y-82989864D01*
X161417740Y-82856937D01*
X161519756Y-82727973D01*
X161615227Y-82609090D01*
X161699375Y-82506408D01*
X161767422Y-82426043D01*
X161814590Y-82374115D01*
X161836100Y-82356743D01*
X161852143Y-82364744D01*
X161860400Y-82385557D01*
X161851138Y-82421555D01*
X161821876Y-82476728D01*
X161770132Y-82555063D01*
X161693423Y-82660551D01*
X161589268Y-82797179D01*
X161455185Y-82968937D01*
X161344573Y-83110154D01*
X161244509Y-83238886D01*
X161159656Y-83349063D01*
X161094089Y-83435362D01*
X161051883Y-83492461D01*
X161037114Y-83515037D01*
X161037872Y-83516076D01*
X161064934Y-83538668D01*
X161127522Y-83587564D01*
X161221189Y-83659437D01*
X161341488Y-83750959D01*
X161483973Y-83858803D01*
X161644197Y-83979641D01*
X161817712Y-84110147D01*
X162000073Y-84246993D01*
X162186833Y-84386851D01*
X162373544Y-84526395D01*
X162555761Y-84662296D01*
X162729037Y-84791229D01*
X162888924Y-84909865D01*
X163030976Y-85014877D01*
X163150747Y-85102938D01*
X163243789Y-85170720D01*
X163305656Y-85214897D01*
X163331902Y-85232140D01*
X163339259Y-85231202D01*
X163375328Y-85205294D01*
X163427917Y-85154551D01*
X163486902Y-85090328D01*
X163542157Y-85023981D01*
X163583557Y-84966867D01*
X163600980Y-84930341D01*
X163600725Y-84929423D01*
X163577212Y-84905686D01*
X163519131Y-84855697D01*
X163431581Y-84783605D01*
X163319657Y-84693559D01*
X163188458Y-84589709D01*
X163043080Y-84476204D01*
X162929524Y-84388010D01*
X162788793Y-84277950D01*
X162680830Y-84191813D01*
X162601102Y-84125391D01*
X162545074Y-84074477D01*
X162508215Y-84034861D01*
X162485990Y-84002337D01*
X162473867Y-83972695D01*
X162467311Y-83941729D01*
X162467127Y-83940582D01*
X162442087Y-83860230D01*
X162397687Y-83820931D01*
X162328085Y-83779995D01*
X162265753Y-83696037D01*
X162247667Y-83606610D01*
X162334881Y-83606610D01*
X162370941Y-83687348D01*
X162386453Y-83705360D01*
X162452774Y-83739469D01*
X162528824Y-83737104D01*
X162594164Y-83697349D01*
X162615557Y-83668803D01*
X162637504Y-83596683D01*
X162622855Y-83529473D01*
X162580806Y-83476176D01*
X162520550Y-83445796D01*
X162451283Y-83447336D01*
X162382200Y-83489800D01*
X162348134Y-83533994D01*
X162334881Y-83606610D01*
X162247667Y-83606610D01*
X162243655Y-83586771D01*
X162246771Y-83534781D01*
X162269941Y-83471866D01*
X162326028Y-83411000D01*
X162334013Y-83404035D01*
X162427344Y-83349013D01*
X162523490Y-83343521D01*
X162628472Y-83387083D01*
X162693272Y-83444022D01*
X162727079Y-83529514D01*
X162730761Y-83596683D01*
X162730790Y-83597223D01*
X162711238Y-83689282D01*
X162669412Y-83764738D01*
X162612247Y-83806841D01*
X162608651Y-83808048D01*
X162570985Y-83839370D01*
X162560043Y-83904261D01*
X162560281Y-83913656D01*
X162564842Y-83939339D01*
X162578649Y-83967017D01*
X162606170Y-84000781D01*
X162651873Y-84044724D01*
X162720226Y-84102936D01*
X162815698Y-84179510D01*
X162942756Y-84278537D01*
X163105868Y-84404108D01*
X163109799Y-84407126D01*
X163254353Y-84517752D01*
X163385910Y-84617793D01*
X163499025Y-84703161D01*
X163588254Y-84769765D01*
X163648152Y-84813516D01*
X163673275Y-84830324D01*
X163687529Y-84825031D01*
X163727610Y-84789605D01*
X163782469Y-84730158D01*
X163843921Y-84656937D01*
X163903784Y-84580188D01*
X163953875Y-84510155D01*
X163986013Y-84457085D01*
X163992013Y-84431224D01*
X163977187Y-84418078D01*
X163912960Y-84363845D01*
X163831757Y-84297931D01*
X163742970Y-84227635D01*
X163655987Y-84160255D01*
X163580199Y-84103090D01*
X163524995Y-84063439D01*
X163499765Y-84048600D01*
X163466125Y-84055670D01*
X163408895Y-84074762D01*
X163386854Y-84081361D01*
X163292970Y-84082020D01*
X163200248Y-84049308D01*
X163131579Y-83990204D01*
X163112208Y-83955939D01*
X163091603Y-83856542D01*
X163098011Y-83822163D01*
X163174031Y-83822163D01*
X163177049Y-83861804D01*
X163210770Y-83914085D01*
X163270335Y-83972684D01*
X163340792Y-83990780D01*
X163417250Y-83959013D01*
X163434665Y-83943937D01*
X163469557Y-83876878D01*
X163469535Y-83798982D01*
X163433115Y-83731542D01*
X163399084Y-83707984D01*
X163325332Y-83695849D01*
X163251340Y-83719142D01*
X163196314Y-83774385D01*
X163174031Y-83822163D01*
X163098011Y-83822163D01*
X163110737Y-83753886D01*
X163167647Y-83665646D01*
X163202811Y-83635360D01*
X163298231Y-83593415D01*
X163398640Y-83600628D01*
X163497852Y-83657157D01*
X163500880Y-83659718D01*
X163549003Y-83709070D01*
X163570848Y-83762879D01*
X163576000Y-83844068D01*
X163576000Y-83876878D01*
X163576000Y-83965221D01*
X163826227Y-84170014D01*
X164076453Y-84374808D01*
X164772377Y-83511878D01*
X164869799Y-83390969D01*
X165009449Y-83217260D01*
X165136851Y-83058321D01*
X165248724Y-82918271D01*
X165341783Y-82801235D01*
X165412746Y-82711333D01*
X165458330Y-82652686D01*
X165475253Y-82629417D01*
X165467212Y-82612681D01*
X165428463Y-82573336D01*
X165368618Y-82522522D01*
X165299505Y-82469263D01*
X165232958Y-82422583D01*
X165180805Y-82391506D01*
X165154879Y-82385054D01*
X165147814Y-82393093D01*
X165112376Y-82435244D01*
X165052043Y-82507827D01*
X164971595Y-82605069D01*
X164875813Y-82721197D01*
X164769476Y-82850440D01*
X164678564Y-82960812D01*
X164579761Y-83079314D01*
X164504342Y-83166734D01*
X164447390Y-83227917D01*
X164403988Y-83267708D01*
X164389920Y-83277112D01*
X164369217Y-83290952D01*
X164338160Y-83302493D01*
X164305901Y-83307177D01*
X164263693Y-83312616D01*
X164217240Y-83333472D01*
X164195547Y-83377429D01*
X164191479Y-83390770D01*
X164142637Y-83464595D01*
X164065098Y-83519245D01*
X163977714Y-83540600D01*
X163884646Y-83526443D01*
X163794910Y-83476518D01*
X163735535Y-83400258D01*
X163711115Y-83307831D01*
X163714567Y-83285371D01*
X163804600Y-83285371D01*
X163814813Y-83344753D01*
X163844515Y-83399085D01*
X163855106Y-83408789D01*
X163922366Y-83439861D01*
X163991442Y-83433614D01*
X164051875Y-83398663D01*
X164093208Y-83343623D01*
X164104984Y-83277112D01*
X164076745Y-83207746D01*
X164019873Y-83160688D01*
X163947137Y-83145163D01*
X163877482Y-83163487D01*
X163825204Y-83211582D01*
X163804600Y-83285371D01*
X163714567Y-83285371D01*
X163726242Y-83209406D01*
X163785511Y-83115150D01*
X163801630Y-83099572D01*
X163862709Y-83067258D01*
X163952079Y-83058000D01*
X163953182Y-83058000D01*
X164030762Y-83064341D01*
X164088184Y-83090535D01*
X164149841Y-83147637D01*
X164200636Y-83196409D01*
X164249065Y-83223167D01*
X164297296Y-83221484D01*
X164316922Y-83211297D01*
X164374730Y-83160735D01*
X164460994Y-83069115D01*
X164575343Y-82936842D01*
X164717406Y-82764321D01*
X164767890Y-82701728D01*
X164866046Y-82578722D01*
X164950241Y-82471466D01*
X165015924Y-82385852D01*
X165058545Y-82327774D01*
X165073552Y-82303124D01*
X165055764Y-82282112D01*
X165005371Y-82237430D01*
X164931270Y-82176362D01*
X164842384Y-82105794D01*
X164747634Y-82032613D01*
X164655943Y-81963706D01*
X164576233Y-81905960D01*
X164517428Y-81866263D01*
X164488448Y-81851500D01*
X164479658Y-81856214D01*
X164440609Y-81891299D01*
X164378261Y-81955022D01*
X164299042Y-82040702D01*
X164209377Y-82141657D01*
X164176533Y-82179457D01*
X164085902Y-82286221D01*
X164024662Y-82363962D01*
X163988613Y-82418830D01*
X163973556Y-82456977D01*
X163975292Y-82484557D01*
X163995371Y-82584721D01*
X163985937Y-82636660D01*
X163975770Y-82692640D01*
G36*
X163975770Y-82692640D02*
G01*
X163910080Y-82782532D01*
X163892688Y-82797484D01*
X163815401Y-82843962D01*
X163736935Y-82849275D01*
X163640509Y-82815475D01*
X163599301Y-82791426D01*
X163533507Y-82720247D01*
X163504533Y-82634944D01*
X163507610Y-82572964D01*
X163606421Y-82572964D01*
X163608290Y-82646736D01*
X163647851Y-82711163D01*
X163675250Y-82731759D01*
X163746880Y-82753597D01*
X163813950Y-82738857D01*
X163867398Y-82696794D01*
X163898164Y-82636660D01*
X163897185Y-82567711D01*
X163855400Y-82499200D01*
X163807494Y-82465933D01*
X163745037Y-82448400D01*
X163692823Y-82459385D01*
X163636510Y-82505346D01*
X163606421Y-82572964D01*
X163507610Y-82572964D01*
X163508957Y-82545842D01*
X163543357Y-82463261D01*
X163604312Y-82397526D01*
X163688399Y-82358958D01*
X163792197Y-82357879D01*
X163812146Y-82361162D01*
X163842714Y-82361199D01*
X163873786Y-82349467D01*
X163911883Y-82320614D01*
X163963527Y-82269289D01*
X164035240Y-82190142D01*
X164133545Y-82077821D01*
X164183487Y-82019862D01*
X164264696Y-81922753D01*
X164328830Y-81842299D01*
X164370313Y-81785589D01*
X164383573Y-81759714D01*
X164381117Y-81756237D01*
X164349022Y-81726361D01*
X164284763Y-81672061D01*
X164194318Y-81598028D01*
X164083666Y-81508950D01*
X163958785Y-81409516D01*
X163825654Y-81304415D01*
X163690252Y-81198337D01*
X163558557Y-81095969D01*
X163436547Y-81002003D01*
X163330202Y-80921126D01*
X163245500Y-80858027D01*
X163188420Y-80817397D01*
X163164939Y-80803923D01*
X163164835Y-80803965D01*
X163143854Y-80825602D01*
X163096892Y-80880830D01*
X163029149Y-80963318D01*
X162945826Y-81066735D01*
X162852122Y-81184750D01*
X162850207Y-81187178D01*
X162756440Y-81304591D01*
X162672705Y-81406739D01*
X162604275Y-81487404D01*
X162556426Y-81540364D01*
X162534432Y-81559400D01*
X162518275Y-81557194D01*
X162504739Y-81540690D01*
X162512793Y-81504767D01*
X162544673Y-81445547D01*
X162602616Y-81359151D01*
X162688861Y-81241701D01*
X162805646Y-81089319D01*
X162835329Y-81051170D01*
X162930832Y-80929891D01*
X163014944Y-80825250D01*
X163082793Y-80743171D01*
X163129506Y-80689580D01*
X163150210Y-80670400D01*
X163174954Y-80685503D01*
X163234986Y-80729095D01*
X163326078Y-80797857D01*
X163444048Y-80888467D01*
X163584714Y-80997606D01*
X163743894Y-81121953D01*
X163917407Y-81258189D01*
X164101070Y-81402993D01*
X164290702Y-81553044D01*
X164482121Y-81705023D01*
X164671145Y-81855609D01*
X164853593Y-82001482D01*
X165025281Y-82139322D01*
X165182029Y-82265809D01*
X165319655Y-82377621D01*
X165433977Y-82471440D01*
X165520813Y-82543944D01*
X165575982Y-82591814D01*
X165595300Y-82611729D01*
X165588805Y-82623133D01*
X165553958Y-82671190D01*
X165491272Y-82753265D01*
X165403335Y-82866092D01*
X165292736Y-83006405D01*
X165162062Y-83170937D01*
X165013903Y-83356423D01*
X164850848Y-83559595D01*
X164675484Y-83777187D01*
X164490400Y-84005933D01*
X164369192Y-84155311D01*
X164189682Y-84376035D01*
X164021091Y-84582729D01*
X163866045Y-84772208D01*
X163727169Y-84941284D01*
X163607088Y-85086772D01*
X163508428Y-85205486D01*
X163433813Y-85294240D01*
X163385869Y-85349848D01*
X163367220Y-85369123D01*
X163349622Y-85359664D01*
X163294838Y-85322684D01*
X163207655Y-85260782D01*
X163092382Y-85177200D01*
X162953326Y-85075183D01*
X162794794Y-84957974D01*
X162621096Y-84828817D01*
X162436538Y-84690955D01*
X162245429Y-84547633D01*
X162052075Y-84402094D01*
X161860786Y-84257582D01*
X161675868Y-84117340D01*
X161501629Y-83984612D01*
X161342378Y-83862641D01*
X161202421Y-83754672D01*
X161086068Y-83663948D01*
X160997624Y-83593713D01*
X160941399Y-83547211D01*
X160921700Y-83527684D01*
X160935764Y-83499796D01*
X160976713Y-83438832D01*
X161039785Y-83351238D01*
X161120201Y-83243133D01*
X161213184Y-83120636D01*
X161313957Y-82989864D01*
X161417740Y-82856937D01*
X161519756Y-82727973D01*
X161615227Y-82609090D01*
X161699375Y-82506408D01*
X161767422Y-82426043D01*
X161814590Y-82374115D01*
X161836100Y-82356743D01*
X161852143Y-82364744D01*
X161860400Y-82385557D01*
X161851138Y-82421555D01*
X161821876Y-82476728D01*
X161770132Y-82555063D01*
X161693423Y-82660551D01*
X161589268Y-82797179D01*
X161455185Y-82968937D01*
X161344573Y-83110154D01*
X161244509Y-83238886D01*
X161159656Y-83349063D01*
X161094089Y-83435362D01*
X161051883Y-83492461D01*
X161037114Y-83515037D01*
X161037872Y-83516076D01*
X161064934Y-83538668D01*
X161127522Y-83587564D01*
X161221189Y-83659437D01*
X161341488Y-83750959D01*
X161483973Y-83858803D01*
X161644197Y-83979641D01*
X161817712Y-84110147D01*
X162000073Y-84246993D01*
X162186833Y-84386851D01*
X162373544Y-84526395D01*
X162555761Y-84662296D01*
X162729037Y-84791229D01*
X162888924Y-84909865D01*
X163030976Y-85014877D01*
X163150747Y-85102938D01*
X163243789Y-85170720D01*
X163305656Y-85214897D01*
X163331902Y-85232140D01*
X163339259Y-85231202D01*
X163375328Y-85205294D01*
X163427917Y-85154551D01*
X163486902Y-85090328D01*
X163542157Y-85023981D01*
X163583557Y-84966867D01*
X163600980Y-84930341D01*
X163600725Y-84929423D01*
X163577212Y-84905686D01*
X163519131Y-84855697D01*
X163431581Y-84783605D01*
X163319657Y-84693559D01*
X163188458Y-84589709D01*
X163043080Y-84476204D01*
X162929524Y-84388010D01*
X162788793Y-84277950D01*
X162680830Y-84191813D01*
X162601102Y-84125391D01*
X162545074Y-84074477D01*
X162508215Y-84034861D01*
X162485990Y-84002337D01*
X162473867Y-83972695D01*
X162467311Y-83941729D01*
X162467127Y-83940582D01*
X162442087Y-83860230D01*
X162397687Y-83820931D01*
X162328085Y-83779995D01*
X162265753Y-83696037D01*
X162247667Y-83606610D01*
X162334881Y-83606610D01*
X162370941Y-83687348D01*
X162386453Y-83705360D01*
X162452774Y-83739469D01*
X162528824Y-83737104D01*
X162594164Y-83697349D01*
X162615557Y-83668803D01*
X162637504Y-83596683D01*
X162622855Y-83529473D01*
X162580806Y-83476176D01*
X162520550Y-83445796D01*
X162451283Y-83447336D01*
X162382200Y-83489800D01*
X162348134Y-83533994D01*
X162334881Y-83606610D01*
X162247667Y-83606610D01*
X162243655Y-83586771D01*
X162246771Y-83534781D01*
X162269941Y-83471866D01*
X162326028Y-83411000D01*
X162334013Y-83404035D01*
X162427344Y-83349013D01*
X162523490Y-83343521D01*
X162628472Y-83387083D01*
X162693272Y-83444022D01*
X162727079Y-83529514D01*
X162730761Y-83596683D01*
X162730790Y-83597223D01*
X162711238Y-83689282D01*
X162669412Y-83764738D01*
X162612247Y-83806841D01*
X162608651Y-83808048D01*
X162570985Y-83839370D01*
X162560043Y-83904261D01*
X162560281Y-83913656D01*
X162564842Y-83939339D01*
X162578649Y-83967017D01*
X162606170Y-84000781D01*
X162651873Y-84044724D01*
X162720226Y-84102936D01*
X162815698Y-84179510D01*
X162942756Y-84278537D01*
X163105868Y-84404108D01*
X163109799Y-84407126D01*
X163254353Y-84517752D01*
X163385910Y-84617793D01*
X163499025Y-84703161D01*
X163588254Y-84769765D01*
X163648152Y-84813516D01*
X163673275Y-84830324D01*
X163687529Y-84825031D01*
X163727610Y-84789605D01*
X163782469Y-84730158D01*
X163843921Y-84656937D01*
X163903784Y-84580188D01*
X163953875Y-84510155D01*
X163986013Y-84457085D01*
X163992013Y-84431224D01*
X163977187Y-84418078D01*
X163912960Y-84363845D01*
X163831757Y-84297931D01*
X163742970Y-84227635D01*
X163655987Y-84160255D01*
X163580199Y-84103090D01*
X163524995Y-84063439D01*
X163499765Y-84048600D01*
X163466125Y-84055670D01*
X163408895Y-84074762D01*
X163386854Y-84081361D01*
X163292970Y-84082020D01*
X163200248Y-84049308D01*
X163131579Y-83990204D01*
X163112208Y-83955939D01*
X163091603Y-83856542D01*
X163098011Y-83822163D01*
X163174031Y-83822163D01*
X163177049Y-83861804D01*
X163210770Y-83914085D01*
X163270335Y-83972684D01*
X163340792Y-83990780D01*
X163417250Y-83959013D01*
X163434665Y-83943937D01*
X163469557Y-83876878D01*
X163469535Y-83798982D01*
X163433115Y-83731542D01*
X163399084Y-83707984D01*
X163325332Y-83695849D01*
X163251340Y-83719142D01*
X163196314Y-83774385D01*
X163174031Y-83822163D01*
X163098011Y-83822163D01*
X163110737Y-83753886D01*
X163167647Y-83665646D01*
X163202811Y-83635360D01*
X163298231Y-83593415D01*
X163398640Y-83600628D01*
X163497852Y-83657157D01*
X163500880Y-83659718D01*
X163549003Y-83709070D01*
X163570848Y-83762879D01*
X163576000Y-83844068D01*
X163576000Y-83876878D01*
X163576000Y-83965221D01*
X163826227Y-84170014D01*
X164076453Y-84374808D01*
X164772377Y-83511878D01*
X164869799Y-83390969D01*
X165009449Y-83217260D01*
X165136851Y-83058321D01*
X165248724Y-82918271D01*
X165341783Y-82801235D01*
X165412746Y-82711333D01*
X165458330Y-82652686D01*
X165475253Y-82629417D01*
X165467212Y-82612681D01*
X165428463Y-82573336D01*
X165368618Y-82522522D01*
X165299505Y-82469263D01*
X165232958Y-82422583D01*
X165180805Y-82391506D01*
X165154879Y-82385054D01*
X165147814Y-82393093D01*
X165112376Y-82435244D01*
X165052043Y-82507827D01*
X164971595Y-82605069D01*
X164875813Y-82721197D01*
X164769476Y-82850440D01*
X164678564Y-82960812D01*
X164579761Y-83079314D01*
X164504342Y-83166734D01*
X164447390Y-83227917D01*
X164403988Y-83267708D01*
X164389920Y-83277112D01*
X164369217Y-83290952D01*
X164338160Y-83302493D01*
X164305901Y-83307177D01*
X164263693Y-83312616D01*
X164217240Y-83333472D01*
X164195547Y-83377429D01*
X164191479Y-83390770D01*
X164142637Y-83464595D01*
X164065098Y-83519245D01*
X163977714Y-83540600D01*
X163884646Y-83526443D01*
X163794910Y-83476518D01*
X163735535Y-83400258D01*
X163711115Y-83307831D01*
X163714567Y-83285371D01*
X163804600Y-83285371D01*
X163814813Y-83344753D01*
X163844515Y-83399085D01*
X163855106Y-83408789D01*
X163922366Y-83439861D01*
X163991442Y-83433614D01*
X164051875Y-83398663D01*
X164093208Y-83343623D01*
X164104984Y-83277112D01*
X164076745Y-83207746D01*
X164019873Y-83160688D01*
X163947137Y-83145163D01*
X163877482Y-83163487D01*
X163825204Y-83211582D01*
X163804600Y-83285371D01*
X163714567Y-83285371D01*
X163726242Y-83209406D01*
X163785511Y-83115150D01*
X163801630Y-83099572D01*
X163862709Y-83067258D01*
X163952079Y-83058000D01*
X163953182Y-83058000D01*
X164030762Y-83064341D01*
X164088184Y-83090535D01*
X164149841Y-83147637D01*
X164200636Y-83196409D01*
X164249065Y-83223167D01*
X164297296Y-83221484D01*
X164316922Y-83211297D01*
X164374730Y-83160735D01*
X164460994Y-83069115D01*
X164575343Y-82936842D01*
X164717406Y-82764321D01*
X164767890Y-82701728D01*
X164866046Y-82578722D01*
X164950241Y-82471466D01*
X165015924Y-82385852D01*
X165058545Y-82327774D01*
X165073552Y-82303124D01*
X165055764Y-82282112D01*
X165005371Y-82237430D01*
X164931270Y-82176362D01*
X164842384Y-82105794D01*
X164747634Y-82032613D01*
X164655943Y-81963706D01*
X164576233Y-81905960D01*
X164517428Y-81866263D01*
X164488448Y-81851500D01*
X164479658Y-81856214D01*
X164440609Y-81891299D01*
X164378261Y-81955022D01*
X164299042Y-82040702D01*
X164209377Y-82141657D01*
X164176533Y-82179457D01*
X164085902Y-82286221D01*
X164024662Y-82363962D01*
X163988613Y-82418830D01*
X163973556Y-82456977D01*
X163975292Y-82484557D01*
X163995371Y-82584721D01*
X163985937Y-82636660D01*
X163975770Y-82692640D01*
G37*
X161762700Y-81010912D02*
X161889884Y-81136024D01*
X162027196Y-81273650D01*
X162110989Y-81358401D01*
X162287022Y-81536614D01*
X162431465Y-81683344D01*
X162547249Y-81801842D01*
X162637306Y-81895357D01*
X162704565Y-81967139D01*
X162751958Y-82020439D01*
X162782416Y-82058506D01*
X162795516Y-82079277D01*
X162798868Y-82084592D01*
X162804246Y-82101945D01*
X162801482Y-82113817D01*
X162793504Y-82123456D01*
X162791409Y-82125771D01*
X162787006Y-82149519D01*
X162807153Y-82187707D01*
X162856321Y-82246775D01*
X162938977Y-82333165D01*
X163011547Y-82408829D01*
X163074492Y-82483805D01*
X163123519Y-82559437D01*
X163168672Y-82651554D01*
X163219997Y-82775984D01*
X163255029Y-82868902D01*
X163280096Y-82944007D01*
X163287608Y-82966518D01*
X163307172Y-83039625D01*
X163310371Y-83077069D01*
X163299573Y-83093370D01*
X163264636Y-83101590D01*
X163245566Y-83094052D01*
X163184926Y-83070101D01*
X163096439Y-83035160D01*
X162991800Y-82993848D01*
X162941736Y-82973751D01*
X162832309Y-82924896D01*
X162746301Y-82874739D01*
X162665346Y-82811469D01*
X162571079Y-82723276D01*
X162524397Y-82678532D01*
X162441727Y-82606302D01*
X162384764Y-82569218D01*
X162349258Y-82564235D01*
X162345162Y-82564839D01*
X162317966Y-82553633D01*
X162270159Y-82519487D01*
X162215801Y-82474023D01*
X162447390Y-82474023D01*
X162607977Y-82636051D01*
X162637264Y-82665113D01*
X162737602Y-82753823D01*
X162835028Y-82817805D01*
X162949663Y-82870889D01*
X162966634Y-82877715D01*
X163053176Y-82912617D01*
X163118716Y-82939201D01*
X163150181Y-82952166D01*
X163159704Y-82954763D01*
X163167716Y-82944007D01*
X163160327Y-82906750D01*
X163135838Y-82836331D01*
X163092553Y-82726090D01*
X163075564Y-82685229D01*
X163020055Y-82574537D01*
X162951995Y-82478972D01*
X162856645Y-82376704D01*
X162698059Y-82219527D01*
X162572724Y-82346775D01*
X162447390Y-82474023D01*
X162215801Y-82474023D01*
X162199250Y-82460180D01*
X162102746Y-82373488D01*
X161978157Y-82257188D01*
X161822989Y-82109059D01*
X161634752Y-81926875D01*
X161630527Y-81922767D01*
X161477322Y-81773086D01*
X161335725Y-81633494D01*
X161209897Y-81508186D01*
X161103997Y-81401358D01*
X161096301Y-81393441D01*
X161238785Y-81393441D01*
X161765816Y-81920920D01*
X161805118Y-81960217D01*
X161936283Y-82090805D01*
X162054494Y-82207649D01*
X162155183Y-82306289D01*
X162233778Y-82382267D01*
X162285710Y-82431123D01*
X162306409Y-82448400D01*
X162318965Y-82439857D01*
X162361491Y-82401978D01*
X162425650Y-82340761D01*
X162503301Y-82263838D01*
X162686631Y-82079277D01*
X161620611Y-81014163D01*
X161238785Y-81393441D01*
X161096301Y-81393441D01*
X161022187Y-81317204D01*
X160968625Y-81259922D01*
X160947471Y-81233706D01*
X160950505Y-81217667D01*
X160959363Y-81203656D01*
X161061400Y-81203656D01*
X161061417Y-81204063D01*
X161078972Y-81232079D01*
X161119670Y-81275085D01*
X161177939Y-81329826D01*
X161555359Y-80949870D01*
X161446461Y-80840972D01*
X161253931Y-81013969D01*
X161196902Y-81065964D01*
X161126982Y-81132207D01*
X161079136Y-81180744D01*
X161061400Y-81203656D01*
X160959363Y-81203656D01*
X160981153Y-81169190D01*
X161036647Y-81100208D01*
X161108964Y-81019034D01*
X161190082Y-80933979D01*
X161271979Y-80853356D01*
X161346632Y-80785477D01*
X161406018Y-80738654D01*
X161442115Y-80721200D01*
X161448924Y-80724078D01*
X161488754Y-80754897D01*
X161557449Y-80815925D01*
X161650326Y-80902738D01*
X161699288Y-80949870D01*
X161762700Y-81010912D01*
G36*
X161762700Y-81010912D02*
G01*
X161889884Y-81136024D01*
X162027196Y-81273650D01*
X162110989Y-81358401D01*
X162287022Y-81536614D01*
X162431465Y-81683344D01*
X162547249Y-81801842D01*
X162637306Y-81895357D01*
X162704565Y-81967139D01*
X162751958Y-82020439D01*
X162782416Y-82058506D01*
X162795516Y-82079277D01*
X162798868Y-82084592D01*
X162804246Y-82101945D01*
X162801482Y-82113817D01*
X162793504Y-82123456D01*
X162791409Y-82125771D01*
X162787006Y-82149519D01*
X162807153Y-82187707D01*
X162856321Y-82246775D01*
X162938977Y-82333165D01*
X163011547Y-82408829D01*
X163074492Y-82483805D01*
X163123519Y-82559437D01*
X163168672Y-82651554D01*
X163219997Y-82775984D01*
X163255029Y-82868902D01*
X163280096Y-82944007D01*
X163287608Y-82966518D01*
X163307172Y-83039625D01*
X163310371Y-83077069D01*
X163299573Y-83093370D01*
X163264636Y-83101590D01*
X163245566Y-83094052D01*
X163184926Y-83070101D01*
X163096439Y-83035160D01*
X162991800Y-82993848D01*
X162941736Y-82973751D01*
X162832309Y-82924896D01*
X162746301Y-82874739D01*
X162665346Y-82811469D01*
X162571079Y-82723276D01*
X162524397Y-82678532D01*
X162441727Y-82606302D01*
X162384764Y-82569218D01*
X162349258Y-82564235D01*
X162345162Y-82564839D01*
X162317966Y-82553633D01*
X162270159Y-82519487D01*
X162215801Y-82474023D01*
X162447390Y-82474023D01*
X162607977Y-82636051D01*
X162637264Y-82665113D01*
X162737602Y-82753823D01*
X162835028Y-82817805D01*
X162949663Y-82870889D01*
X162966634Y-82877715D01*
X163053176Y-82912617D01*
X163118716Y-82939201D01*
X163150181Y-82952166D01*
X163159704Y-82954763D01*
X163167716Y-82944007D01*
X163160327Y-82906750D01*
X163135838Y-82836331D01*
X163092553Y-82726090D01*
X163075564Y-82685229D01*
X163020055Y-82574537D01*
X162951995Y-82478972D01*
X162856645Y-82376704D01*
X162698059Y-82219527D01*
X162572724Y-82346775D01*
X162447390Y-82474023D01*
X162215801Y-82474023D01*
X162199250Y-82460180D01*
X162102746Y-82373488D01*
X161978157Y-82257188D01*
X161822989Y-82109059D01*
X161634752Y-81926875D01*
X161630527Y-81922767D01*
X161477322Y-81773086D01*
X161335725Y-81633494D01*
X161209897Y-81508186D01*
X161103997Y-81401358D01*
X161096301Y-81393441D01*
X161238785Y-81393441D01*
X161765816Y-81920920D01*
X161805118Y-81960217D01*
X161936283Y-82090805D01*
X162054494Y-82207649D01*
X162155183Y-82306289D01*
X162233778Y-82382267D01*
X162285710Y-82431123D01*
X162306409Y-82448400D01*
X162318965Y-82439857D01*
X162361491Y-82401978D01*
X162425650Y-82340761D01*
X162503301Y-82263838D01*
X162686631Y-82079277D01*
X161620611Y-81014163D01*
X161238785Y-81393441D01*
X161096301Y-81393441D01*
X161022187Y-81317204D01*
X160968625Y-81259922D01*
X160947471Y-81233706D01*
X160950505Y-81217667D01*
X160959363Y-81203656D01*
X161061400Y-81203656D01*
X161061417Y-81204063D01*
X161078972Y-81232079D01*
X161119670Y-81275085D01*
X161177939Y-81329826D01*
X161555359Y-80949870D01*
X161446461Y-80840972D01*
X161253931Y-81013969D01*
X161196902Y-81065964D01*
X161126982Y-81132207D01*
X161079136Y-81180744D01*
X161061400Y-81203656D01*
X160959363Y-81203656D01*
X160981153Y-81169190D01*
X161036647Y-81100208D01*
X161108964Y-81019034D01*
X161190082Y-80933979D01*
X161271979Y-80853356D01*
X161346632Y-80785477D01*
X161406018Y-80738654D01*
X161442115Y-80721200D01*
X161448924Y-80724078D01*
X161488754Y-80754897D01*
X161557449Y-80815925D01*
X161650326Y-80902738D01*
X161699288Y-80949870D01*
X161762700Y-81010912D01*
G37*
X161876720Y-81469954D02*
X161922222Y-81504704D01*
X161989894Y-81565586D01*
X162084015Y-81656160D01*
X162208864Y-81779986D01*
X162322545Y-81895743D01*
X162420180Y-81999561D01*
X162493201Y-82082322D01*
X162537524Y-82139392D01*
X162549068Y-82166139D01*
X162535350Y-82179400D01*
X162513579Y-82179035D01*
X162479691Y-82160461D01*
X162429085Y-82119982D01*
X162357157Y-82053899D01*
X162259306Y-81958514D01*
X162130930Y-81830128D01*
X162091316Y-81790114D01*
X161982433Y-81677763D01*
X161905979Y-81593931D01*
X161858198Y-81534040D01*
X161835335Y-81493512D01*
X161833634Y-81467769D01*
X161835111Y-81464606D01*
X161849110Y-81457775D01*
X161876720Y-81469954D01*
G36*
X161876720Y-81469954D02*
G01*
X161922222Y-81504704D01*
X161989894Y-81565586D01*
X162084015Y-81656160D01*
X162208864Y-81779986D01*
X162322545Y-81895743D01*
X162420180Y-81999561D01*
X162493201Y-82082322D01*
X162537524Y-82139392D01*
X162549068Y-82166139D01*
X162535350Y-82179400D01*
X162513579Y-82179035D01*
X162479691Y-82160461D01*
X162429085Y-82119982D01*
X162357157Y-82053899D01*
X162259306Y-81958514D01*
X162130930Y-81830128D01*
X162091316Y-81790114D01*
X161982433Y-81677763D01*
X161905979Y-81593931D01*
X161858198Y-81534040D01*
X161835335Y-81493512D01*
X161833634Y-81467769D01*
X161835111Y-81464606D01*
X161849110Y-81457775D01*
X161876720Y-81469954D01*
G37*
X161607291Y-81184735D02*
X161669986Y-81240909D01*
X161710024Y-81283020D01*
X161747987Y-81332479D01*
X161757349Y-81360327D01*
X161723946Y-81380781D01*
X161669918Y-81359079D01*
X161594753Y-81292650D01*
X161548580Y-81240713D01*
X161528186Y-81200828D01*
X161539008Y-81173232D01*
X161540042Y-81172226D01*
X161567066Y-81163437D01*
X161607291Y-81184735D01*
G36*
X161607291Y-81184735D02*
G01*
X161669986Y-81240909D01*
X161710024Y-81283020D01*
X161747987Y-81332479D01*
X161757349Y-81360327D01*
X161723946Y-81380781D01*
X161669918Y-81359079D01*
X161594753Y-81292650D01*
X161548580Y-81240713D01*
X161528186Y-81200828D01*
X161539008Y-81173232D01*
X161540042Y-81172226D01*
X161567066Y-81163437D01*
X161607291Y-81184735D01*
G37*
D12*
%TO.C,U1*%
X185420000Y-88900000D02*
X120650000Y-88900000D01*
X120650000Y-88900000D02*
X120650000Y-114300000D01*
X120650000Y-114300000D02*
X185420000Y-114300000D01*
X185420000Y-114300000D02*
X185420000Y-88900000D01*
D13*
X151130000Y-92710000D02*
X120650000Y-92710000D01*
X120650000Y-92710000D02*
X120650000Y-110490000D01*
X120650000Y-110490000D02*
X151130000Y-110490000D01*
X151130000Y-110490000D02*
X151130000Y-92710000D01*
G36*
X151130000Y-92710000D02*
G01*
X120650000Y-92710000D01*
X120650000Y-110490000D01*
X151130000Y-110490000D01*
X151130000Y-92710000D01*
G37*
X185420000Y-97790000D02*
X180340000Y-97790000D01*
X180340000Y-97790000D02*
X180340000Y-105410000D01*
X180340000Y-105410000D02*
X185420000Y-105410000D01*
X185420000Y-105410000D02*
X185420000Y-97790000D01*
G36*
X185420000Y-97790000D02*
G01*
X180340000Y-97790000D01*
X180340000Y-105410000D01*
X185420000Y-105410000D01*
X185420000Y-97790000D01*
G37*
D12*
X184711620Y-112395000D02*
G75*
G03*
X184711620Y-112395000I-1831620J0D01*
G01*
X184711620Y-90805000D02*
G75*
G03*
X184711620Y-90805000I-1831620J0D01*
G01*
D13*
%TO.C,J12*%
X143550000Y-118295000D02*
X143550000Y-122655000D01*
X150190000Y-116435000D02*
X150190000Y-114835000D01*
X151110000Y-114835000D02*
X151110000Y-122655000D01*
X140990000Y-116435000D02*
X141910000Y-116435000D01*
X148550000Y-122655000D02*
X148550000Y-118295000D01*
X149350000Y-120395000D02*
X149350000Y-118795000D01*
X150350000Y-118795000D02*
X150350000Y-120395000D01*
X150190000Y-114835000D02*
X151110000Y-114835000D01*
X151110000Y-122655000D02*
X140990000Y-122655000D01*
X142750000Y-118795000D02*
X141750000Y-118795000D01*
X149350000Y-120395000D02*
X149350000Y-122655000D01*
X149350000Y-118795000D02*
X150350000Y-118795000D01*
X142750000Y-120395000D02*
X142750000Y-118795000D01*
X149850000Y-120395000D02*
X149850000Y-122655000D01*
X150350000Y-120395000D02*
X149350000Y-120395000D01*
X140990000Y-114835000D02*
X141910000Y-114835000D01*
X140990000Y-122655000D02*
X140990000Y-114835000D01*
X148550000Y-118295000D02*
X143550000Y-118295000D01*
X141910000Y-114835000D02*
X141910000Y-116435000D01*
X149910000Y-116435000D02*
X150190000Y-116435000D01*
X151110000Y-116435000D02*
X150190000Y-116435000D01*
X141750000Y-118795000D02*
X141750000Y-120395000D01*
X141910000Y-116435000D02*
X142190000Y-116435000D01*
X141750000Y-120395000D02*
X142750000Y-120395000D01*
X149910000Y-116435000D02*
X149910000Y-115220000D01*
%TO.C,J13*%
X156250000Y-118295000D02*
X156250000Y-122655000D01*
X162890000Y-116435000D02*
X162890000Y-114835000D01*
X162610000Y-116435000D02*
X162610000Y-115220000D01*
X161250000Y-118295000D02*
X156250000Y-118295000D01*
X163810000Y-114835000D02*
X163810000Y-122655000D01*
X153690000Y-114835000D02*
X154610000Y-114835000D01*
X162610000Y-116435000D02*
X162890000Y-116435000D01*
X163050000Y-120395000D02*
X162050000Y-120395000D01*
X154610000Y-116435000D02*
X154890000Y-116435000D01*
X154450000Y-118795000D02*
X154450000Y-120395000D01*
X161250000Y-122655000D02*
X161250000Y-118295000D01*
X163810000Y-116435000D02*
X162890000Y-116435000D01*
X155450000Y-118795000D02*
X154450000Y-118795000D01*
X153690000Y-116435000D02*
X154610000Y-116435000D01*
X155450000Y-120395000D02*
X155450000Y-118795000D01*
X162050000Y-120395000D02*
X162050000Y-118795000D01*
X154610000Y-114835000D02*
X154610000Y-116435000D01*
X162550000Y-120395000D02*
X162550000Y-122655000D01*
X163050000Y-118795000D02*
X163050000Y-120395000D01*
X163810000Y-122655000D02*
X153690000Y-122655000D01*
X162050000Y-120395000D02*
X162050000Y-122655000D01*
X153690000Y-122655000D02*
X153690000Y-114835000D01*
X162050000Y-118795000D02*
X163050000Y-118795000D01*
X162890000Y-114835000D02*
X163810000Y-114835000D01*
X154450000Y-120395000D02*
X155450000Y-120395000D01*
%TO.C,J11*%
X129210000Y-114835000D02*
X129210000Y-116435000D01*
X129050000Y-118795000D02*
X129050000Y-120395000D01*
X138410000Y-114835000D02*
X138410000Y-122655000D01*
X137650000Y-120395000D02*
X136650000Y-120395000D01*
X128290000Y-122655000D02*
X128290000Y-114835000D01*
X136650000Y-120395000D02*
X136650000Y-118795000D01*
X129210000Y-116435000D02*
X129490000Y-116435000D01*
X137150000Y-120395000D02*
X137150000Y-122655000D01*
X130050000Y-120395000D02*
X130050000Y-118795000D01*
X135850000Y-118295000D02*
X130850000Y-118295000D01*
X128290000Y-114835000D02*
X129210000Y-114835000D01*
X137210000Y-116435000D02*
X137210000Y-115220000D01*
X137650000Y-118795000D02*
X137650000Y-120395000D01*
X130850000Y-118295000D02*
X130850000Y-122655000D01*
X136650000Y-118795000D02*
X137650000Y-118795000D01*
X129050000Y-120395000D02*
X130050000Y-120395000D01*
X137490000Y-114835000D02*
X138410000Y-114835000D01*
X137210000Y-116435000D02*
X137490000Y-116435000D01*
X130050000Y-118795000D02*
X129050000Y-118795000D01*
X138410000Y-116435000D02*
X137490000Y-116435000D01*
X138410000Y-122655000D02*
X128290000Y-122655000D01*
X128290000Y-116435000D02*
X129210000Y-116435000D01*
X136650000Y-120395000D02*
X136650000Y-122655000D01*
X135850000Y-122655000D02*
X135850000Y-118295000D01*
X137490000Y-116435000D02*
X137490000Y-114835000D01*
%TO.C,JP1*%
X145050000Y-85977500D02*
X145050000Y-87377500D01*
X146350000Y-85277500D02*
X145750000Y-85277500D01*
X145750000Y-88077500D02*
X146350000Y-88077500D01*
X147050000Y-87377500D02*
X147050000Y-85977500D01*
X145750000Y-85277500D02*
G75*
G03*
X145050000Y-85977500I-1J-699999D01*
G01*
X147050000Y-85977500D02*
G75*
G03*
X146350000Y-85277500I-699999J1D01*
G01*
X145050000Y-87377500D02*
G75*
G03*
X145750000Y-88077500I700000J0D01*
G01*
X146350000Y-88077500D02*
G75*
G03*
X147050000Y-87377500I0J700000D01*
G01*
%TO.C,J14*%
X176510000Y-122655000D02*
X166390000Y-122655000D01*
X175590000Y-116435000D02*
X175590000Y-114835000D01*
X175310000Y-116435000D02*
X175310000Y-115220000D01*
X175250000Y-120395000D02*
X175250000Y-122655000D01*
X174750000Y-120395000D02*
X174750000Y-118795000D01*
X167150000Y-120395000D02*
X168150000Y-120395000D01*
X167150000Y-118795000D02*
X167150000Y-120395000D01*
X167310000Y-114835000D02*
X167310000Y-116435000D01*
X175750000Y-120395000D02*
X174750000Y-120395000D01*
X166390000Y-114835000D02*
X167310000Y-114835000D01*
X166390000Y-116435000D02*
X167310000Y-116435000D01*
X168950000Y-118295000D02*
X168950000Y-122655000D01*
X175590000Y-114835000D02*
X176510000Y-114835000D01*
X176510000Y-116435000D02*
X175590000Y-116435000D01*
X175750000Y-118795000D02*
X175750000Y-120395000D01*
X174750000Y-120395000D02*
X174750000Y-122655000D01*
X168150000Y-120395000D02*
X168150000Y-118795000D01*
X166390000Y-122655000D02*
X166390000Y-114835000D01*
X173950000Y-118295000D02*
X168950000Y-118295000D01*
X175310000Y-116435000D02*
X175590000Y-116435000D01*
X167310000Y-116435000D02*
X167590000Y-116435000D01*
X174750000Y-118795000D02*
X175750000Y-118795000D01*
X168150000Y-118795000D02*
X167150000Y-118795000D01*
X176510000Y-114835000D02*
X176510000Y-122655000D01*
X173950000Y-122655000D02*
X173950000Y-118295000D01*
%TD*%
M02*
