%TF.GenerationSoftware,KiCad,Pcbnew,7.0.6-7.0.6~ubuntu22.04.1*%
%TF.CreationDate,2023-07-15T17:42:53-03:00*%
%TF.ProjectId,FRANZININHO-WIFI-MAKEYMAKEY,4652414e-5a49-44e4-994e-484f2d574946,1.0.0*%
%TF.SameCoordinates,Original*%
%TF.FileFunction,Paste,Top*%
%TF.FilePolarity,Positive*%
%FSLAX46Y46*%
G04 Gerber Fmt 4.6, Leading zero omitted, Abs format (unit mm)*
G04 Created by KiCad (PCBNEW 7.0.6-7.0.6~ubuntu22.04.1) date 2023-07-15 17:42:53*
%MOMM*%
%LPD*%
G01*
G04 APERTURE LIST*
G04 Aperture macros list*
%AMRoundRect*
0 Rectangle with rounded corners*
0 $1 Rounding radius*
0 $2 $3 $4 $5 $6 $7 $8 $9 X,Y pos of 4 corners*
0 Add a 4 corners polygon primitive as box body*
4,1,4,$2,$3,$4,$5,$6,$7,$8,$9,$2,$3,0*
0 Add four circle primitives for the rounded corners*
1,1,$1+$1,$2,$3*
1,1,$1+$1,$4,$5*
1,1,$1+$1,$6,$7*
1,1,$1+$1,$8,$9*
0 Add four rect primitives between the rounded corners*
20,1,$1+$1,$2,$3,$4,$5,0*
20,1,$1+$1,$4,$5,$6,$7,0*
20,1,$1+$1,$6,$7,$8,$9,0*
20,1,$1+$1,$8,$9,$2,$3,0*%
G04 Aperture macros list end*
%ADD10RoundRect,0.237500X-0.287500X-0.237500X0.287500X-0.237500X0.287500X0.237500X-0.287500X0.237500X0*%
%ADD11RoundRect,0.237500X0.237500X-0.250000X0.237500X0.250000X-0.237500X0.250000X-0.237500X-0.250000X0*%
%ADD12RoundRect,0.237500X-0.237500X0.250000X-0.237500X-0.250000X0.237500X-0.250000X0.237500X0.250000X0*%
%ADD13RoundRect,0.237500X-0.250000X-0.237500X0.250000X-0.237500X0.250000X0.237500X-0.250000X0.237500X0*%
%ADD14RoundRect,0.150000X0.587500X0.150000X-0.587500X0.150000X-0.587500X-0.150000X0.587500X-0.150000X0*%
%ADD15RoundRect,0.237500X0.250000X0.237500X-0.250000X0.237500X-0.250000X-0.237500X0.250000X-0.237500X0*%
G04 APERTURE END LIST*
D10*
%TO.C,D1*%
X142000000Y-93980000D03*
X143750000Y-93980000D03*
%TD*%
%TO.C,D27*%
X149620000Y-109220000D03*
X151370000Y-109220000D03*
%TD*%
D11*
%TO.C,R17*%
X133667500Y-84732500D03*
X133667500Y-82907500D03*
%TD*%
D12*
%TO.C,R7*%
X167640000Y-94972500D03*
X167640000Y-96797500D03*
%TD*%
D10*
%TO.C,D11*%
X157240000Y-97790000D03*
X158990000Y-97790000D03*
%TD*%
D11*
%TO.C,R25*%
X166370000Y-87590000D03*
X166370000Y-85765000D03*
%TD*%
D10*
%TO.C,D29*%
X157240000Y-109220000D03*
X158990000Y-109220000D03*
%TD*%
D13*
%TO.C,R13*%
X172760000Y-88265000D03*
X174585000Y-88265000D03*
%TD*%
D10*
%TO.C,D2*%
X145810000Y-93980000D03*
X147560000Y-93980000D03*
%TD*%
D11*
%TO.C,R11*%
X137160000Y-102512500D03*
X137160000Y-100687500D03*
%TD*%
D10*
%TO.C,D12*%
X161050000Y-97790000D03*
X162800000Y-97790000D03*
%TD*%
%TO.C,D5*%
X157240000Y-93980000D03*
X158990000Y-93980000D03*
%TD*%
D12*
%TO.C,R4*%
X140335000Y-94972500D03*
X140335000Y-96797500D03*
%TD*%
D11*
%TO.C,R21*%
X141287500Y-84732500D03*
X141287500Y-82907500D03*
%TD*%
D10*
%TO.C,D22*%
X153430000Y-105410000D03*
X155180000Y-105410000D03*
%TD*%
%TO.C,D4*%
X153430000Y-93980000D03*
X155180000Y-93980000D03*
%TD*%
D14*
%TO.C,Q1*%
X162227500Y-82865000D03*
X162227500Y-80965000D03*
X160352500Y-81915000D03*
%TD*%
D15*
%TO.C,R8*%
X161250000Y-84455000D03*
X159425000Y-84455000D03*
%TD*%
D11*
%TO.C,R20*%
X139382500Y-84732500D03*
X139382500Y-82907500D03*
%TD*%
D12*
%TO.C,R6*%
X166052500Y-94972500D03*
X166052500Y-96797500D03*
%TD*%
D10*
%TO.C,D26*%
X145810000Y-109220000D03*
X147560000Y-109220000D03*
%TD*%
%TO.C,D16*%
X153430000Y-101600000D03*
X155180000Y-101600000D03*
%TD*%
D15*
%TO.C,R9*%
X153312500Y-74295000D03*
X151487500Y-74295000D03*
%TD*%
D10*
%TO.C,D25*%
X142000000Y-109220000D03*
X143750000Y-109220000D03*
%TD*%
%TO.C,D17*%
X157240000Y-101600000D03*
X158990000Y-101600000D03*
%TD*%
%TO.C,D15*%
X149620000Y-101600000D03*
X151370000Y-101600000D03*
%TD*%
%TO.C,D7*%
X142000000Y-97790000D03*
X143750000Y-97790000D03*
%TD*%
%TO.C,D19*%
X142000000Y-105410000D03*
X143750000Y-105410000D03*
%TD*%
%TO.C,D28*%
X153430000Y-109220000D03*
X155180000Y-109220000D03*
%TD*%
D12*
%TO.C,R5*%
X164465000Y-94972500D03*
X164465000Y-96797500D03*
%TD*%
%TO.C,R14*%
X153352500Y-115292500D03*
X153352500Y-117117500D03*
%TD*%
D11*
%TO.C,R10*%
X167640000Y-102472500D03*
X167640000Y-100647500D03*
%TD*%
D10*
%TO.C,D30*%
X161050000Y-109220000D03*
X162800000Y-109220000D03*
%TD*%
D12*
%TO.C,R3*%
X138747500Y-94972500D03*
X138747500Y-96797500D03*
%TD*%
D10*
%TO.C,D9*%
X149620000Y-97790000D03*
X151370000Y-97790000D03*
%TD*%
%TO.C,D3*%
X149620000Y-93980000D03*
X151370000Y-93980000D03*
%TD*%
%TO.C,D24*%
X161050000Y-105410000D03*
X162800000Y-105410000D03*
%TD*%
%TO.C,D21*%
X149620000Y-105410000D03*
X151370000Y-105410000D03*
%TD*%
%TO.C,D18*%
X161050000Y-101600000D03*
X162800000Y-101600000D03*
%TD*%
D11*
%TO.C,R22*%
X143192500Y-84732500D03*
X143192500Y-82907500D03*
%TD*%
D10*
%TO.C,D23*%
X157240000Y-105410000D03*
X158990000Y-105410000D03*
%TD*%
%TO.C,D6*%
X161050000Y-93980000D03*
X162800000Y-93980000D03*
%TD*%
D12*
%TO.C,R2*%
X137160000Y-94972500D03*
X137160000Y-96797500D03*
%TD*%
D10*
%TO.C,D8*%
X145810000Y-97790000D03*
X147560000Y-97790000D03*
%TD*%
D12*
%TO.C,R1*%
X151447500Y-115292500D03*
X151447500Y-117117500D03*
%TD*%
D11*
%TO.C,R19*%
X137477500Y-84732500D03*
X137477500Y-82907500D03*
%TD*%
%TO.C,R18*%
X135572500Y-84732500D03*
X135572500Y-82907500D03*
%TD*%
%TO.C,R16*%
X131762500Y-84732500D03*
X131762500Y-82907500D03*
%TD*%
D10*
%TO.C,D14*%
X145810000Y-101600000D03*
X147560000Y-101600000D03*
%TD*%
%TO.C,D10*%
X153430000Y-97790000D03*
X155180000Y-97790000D03*
%TD*%
D13*
%TO.C,R12*%
X171807500Y-86677500D03*
X173632500Y-86677500D03*
%TD*%
D10*
%TO.C,D20*%
X145810000Y-105410000D03*
X147560000Y-105410000D03*
%TD*%
%TO.C,D13*%
X142000000Y-101600000D03*
X143750000Y-101600000D03*
%TD*%
D11*
%TO.C,R23*%
X145097500Y-84732500D03*
X145097500Y-82907500D03*
%TD*%
%TO.C,R15*%
X170180000Y-87590000D03*
X170180000Y-85765000D03*
%TD*%
%TO.C,R24*%
X168275000Y-87590000D03*
X168275000Y-85765000D03*
%TD*%
M02*
