%TF.GenerationSoftware,KiCad,Pcbnew,7.0.6-7.0.6~ubuntu22.04.1*%
%TF.CreationDate,2023-07-15T17:43:01-03:00*%
%TF.ProjectId,FRANZININHO-WIFI-MAKEYMAKEY,4652414e-5a49-44e4-994e-484f2d574946,1.0.0*%
%TF.SameCoordinates,Original*%
%TF.FileFunction,Drillmap*%
%TF.FilePolarity,Positive*%
%FSLAX45Y45*%
G04 Gerber Fmt 4.5, Leading zero omitted, Abs format (unit mm)*
G04 Created by KiCad (PCBNEW 7.0.6-7.0.6~ubuntu22.04.1) date 2023-07-15 17:43:01*
%MOMM*%
%LPD*%
G01*
G04 APERTURE LIST*
%ADD10C,0.100000*%
%ADD11C,0.200000*%
%ADD12C,0.320000*%
G04 APERTURE END LIST*
D10*
X18542000Y-6985000D02*
G75*
G03*
X18288000Y-6731000I-254000J0D01*
G01*
X18288000Y-12192000D02*
G75*
G03*
X18542000Y-11938000I0J254000D01*
G01*
X18542000Y-11938000D02*
X18542000Y-6985000D01*
X11938000Y-6985000D02*
X11938000Y-11938000D01*
X11938000Y-11938000D02*
G75*
G03*
X12192000Y-12192000I254000J0D01*
G01*
X12192000Y-6731000D02*
G75*
G03*
X11938000Y-6985000I0J-254000D01*
G01*
X12192000Y-12192000D02*
X18288000Y-12192000D01*
X18288000Y-6731000D02*
X12192000Y-6731000D01*
D11*
D12*
X12095500Y-11714500D02*
X12415500Y-12034500D01*
X12415500Y-11714500D02*
X12095500Y-12034500D01*
X12444750Y-7872750D02*
X12764750Y-8192750D01*
X12764750Y-7872750D02*
X12444750Y-8192750D01*
X17683500Y-7841000D02*
X18003500Y-8161000D01*
X18003500Y-7841000D02*
X17683500Y-8161000D01*
X18064500Y-11714500D02*
X18384500Y-12034500D01*
X18384500Y-11714500D02*
X18064500Y-12034500D01*
D11*
X12193777Y-12508484D02*
X12193777Y-12308484D01*
X12193777Y-12308484D02*
X12241396Y-12308484D01*
X12241396Y-12308484D02*
X12269967Y-12318008D01*
X12269967Y-12318008D02*
X12289015Y-12337055D01*
X12289015Y-12337055D02*
X12298539Y-12356103D01*
X12298539Y-12356103D02*
X12308062Y-12394198D01*
X12308062Y-12394198D02*
X12308062Y-12422769D01*
X12308062Y-12422769D02*
X12298539Y-12460865D01*
X12298539Y-12460865D02*
X12289015Y-12479912D01*
X12289015Y-12479912D02*
X12269967Y-12498960D01*
X12269967Y-12498960D02*
X12241396Y-12508484D01*
X12241396Y-12508484D02*
X12193777Y-12508484D01*
X12393777Y-12508484D02*
X12393777Y-12375150D01*
X12393777Y-12413246D02*
X12403301Y-12394198D01*
X12403301Y-12394198D02*
X12412824Y-12384674D01*
X12412824Y-12384674D02*
X12431872Y-12375150D01*
X12431872Y-12375150D02*
X12450920Y-12375150D01*
X12517586Y-12508484D02*
X12517586Y-12375150D01*
X12517586Y-12308484D02*
X12508062Y-12318008D01*
X12508062Y-12318008D02*
X12517586Y-12327531D01*
X12517586Y-12327531D02*
X12527110Y-12318008D01*
X12527110Y-12318008D02*
X12517586Y-12308484D01*
X12517586Y-12308484D02*
X12517586Y-12327531D01*
X12641396Y-12508484D02*
X12622348Y-12498960D01*
X12622348Y-12498960D02*
X12612824Y-12479912D01*
X12612824Y-12479912D02*
X12612824Y-12308484D01*
X12746158Y-12508484D02*
X12727110Y-12498960D01*
X12727110Y-12498960D02*
X12717586Y-12479912D01*
X12717586Y-12479912D02*
X12717586Y-12308484D01*
X12974729Y-12508484D02*
X12974729Y-12308484D01*
X12974729Y-12308484D02*
X13041396Y-12451341D01*
X13041396Y-12451341D02*
X13108062Y-12308484D01*
X13108062Y-12308484D02*
X13108062Y-12508484D01*
X13289015Y-12508484D02*
X13289015Y-12403722D01*
X13289015Y-12403722D02*
X13279491Y-12384674D01*
X13279491Y-12384674D02*
X13260443Y-12375150D01*
X13260443Y-12375150D02*
X13222348Y-12375150D01*
X13222348Y-12375150D02*
X13203301Y-12384674D01*
X13289015Y-12498960D02*
X13269967Y-12508484D01*
X13269967Y-12508484D02*
X13222348Y-12508484D01*
X13222348Y-12508484D02*
X13203301Y-12498960D01*
X13203301Y-12498960D02*
X13193777Y-12479912D01*
X13193777Y-12479912D02*
X13193777Y-12460865D01*
X13193777Y-12460865D02*
X13203301Y-12441817D01*
X13203301Y-12441817D02*
X13222348Y-12432293D01*
X13222348Y-12432293D02*
X13269967Y-12432293D01*
X13269967Y-12432293D02*
X13289015Y-12422769D01*
X13384253Y-12375150D02*
X13384253Y-12575150D01*
X13384253Y-12384674D02*
X13403301Y-12375150D01*
X13403301Y-12375150D02*
X13441396Y-12375150D01*
X13441396Y-12375150D02*
X13460443Y-12384674D01*
X13460443Y-12384674D02*
X13469967Y-12394198D01*
X13469967Y-12394198D02*
X13479491Y-12413246D01*
X13479491Y-12413246D02*
X13479491Y-12470388D01*
X13479491Y-12470388D02*
X13469967Y-12489436D01*
X13469967Y-12489436D02*
X13460443Y-12498960D01*
X13460443Y-12498960D02*
X13441396Y-12508484D01*
X13441396Y-12508484D02*
X13403301Y-12508484D01*
X13403301Y-12508484D02*
X13384253Y-12498960D01*
X13565205Y-12489436D02*
X13574729Y-12498960D01*
X13574729Y-12498960D02*
X13565205Y-12508484D01*
X13565205Y-12508484D02*
X13555682Y-12498960D01*
X13555682Y-12498960D02*
X13565205Y-12489436D01*
X13565205Y-12489436D02*
X13565205Y-12508484D01*
X13565205Y-12384674D02*
X13574729Y-12394198D01*
X13574729Y-12394198D02*
X13565205Y-12403722D01*
X13565205Y-12403722D02*
X13555682Y-12394198D01*
X13555682Y-12394198D02*
X13565205Y-12384674D01*
X13565205Y-12384674D02*
X13565205Y-12403722D01*
X11733000Y-12737000D02*
X11933000Y-12937000D01*
X11933000Y-12737000D02*
X11733000Y-12937000D01*
X12174729Y-12728484D02*
X12298539Y-12728484D01*
X12298539Y-12728484D02*
X12231872Y-12804674D01*
X12231872Y-12804674D02*
X12260443Y-12804674D01*
X12260443Y-12804674D02*
X12279491Y-12814198D01*
X12279491Y-12814198D02*
X12289015Y-12823722D01*
X12289015Y-12823722D02*
X12298539Y-12842769D01*
X12298539Y-12842769D02*
X12298539Y-12890388D01*
X12298539Y-12890388D02*
X12289015Y-12909436D01*
X12289015Y-12909436D02*
X12279491Y-12918960D01*
X12279491Y-12918960D02*
X12260443Y-12928484D01*
X12260443Y-12928484D02*
X12203301Y-12928484D01*
X12203301Y-12928484D02*
X12184253Y-12918960D01*
X12184253Y-12918960D02*
X12174729Y-12909436D01*
X12384253Y-12909436D02*
X12393777Y-12918960D01*
X12393777Y-12918960D02*
X12384253Y-12928484D01*
X12384253Y-12928484D02*
X12374729Y-12918960D01*
X12374729Y-12918960D02*
X12384253Y-12909436D01*
X12384253Y-12909436D02*
X12384253Y-12928484D01*
X12469967Y-12747531D02*
X12479491Y-12738008D01*
X12479491Y-12738008D02*
X12498539Y-12728484D01*
X12498539Y-12728484D02*
X12546158Y-12728484D01*
X12546158Y-12728484D02*
X12565205Y-12738008D01*
X12565205Y-12738008D02*
X12574729Y-12747531D01*
X12574729Y-12747531D02*
X12584253Y-12766579D01*
X12584253Y-12766579D02*
X12584253Y-12785627D01*
X12584253Y-12785627D02*
X12574729Y-12814198D01*
X12574729Y-12814198D02*
X12460443Y-12928484D01*
X12460443Y-12928484D02*
X12584253Y-12928484D01*
X12708062Y-12728484D02*
X12727110Y-12728484D01*
X12727110Y-12728484D02*
X12746158Y-12738008D01*
X12746158Y-12738008D02*
X12755682Y-12747531D01*
X12755682Y-12747531D02*
X12765205Y-12766579D01*
X12765205Y-12766579D02*
X12774729Y-12804674D01*
X12774729Y-12804674D02*
X12774729Y-12852293D01*
X12774729Y-12852293D02*
X12765205Y-12890388D01*
X12765205Y-12890388D02*
X12755682Y-12909436D01*
X12755682Y-12909436D02*
X12746158Y-12918960D01*
X12746158Y-12918960D02*
X12727110Y-12928484D01*
X12727110Y-12928484D02*
X12708062Y-12928484D01*
X12708062Y-12928484D02*
X12689015Y-12918960D01*
X12689015Y-12918960D02*
X12679491Y-12909436D01*
X12679491Y-12909436D02*
X12669967Y-12890388D01*
X12669967Y-12890388D02*
X12660443Y-12852293D01*
X12660443Y-12852293D02*
X12660443Y-12804674D01*
X12660443Y-12804674D02*
X12669967Y-12766579D01*
X12669967Y-12766579D02*
X12679491Y-12747531D01*
X12679491Y-12747531D02*
X12689015Y-12738008D01*
X12689015Y-12738008D02*
X12708062Y-12728484D01*
X12898539Y-12728484D02*
X12917586Y-12728484D01*
X12917586Y-12728484D02*
X12936634Y-12738008D01*
X12936634Y-12738008D02*
X12946158Y-12747531D01*
X12946158Y-12747531D02*
X12955682Y-12766579D01*
X12955682Y-12766579D02*
X12965205Y-12804674D01*
X12965205Y-12804674D02*
X12965205Y-12852293D01*
X12965205Y-12852293D02*
X12955682Y-12890388D01*
X12955682Y-12890388D02*
X12946158Y-12909436D01*
X12946158Y-12909436D02*
X12936634Y-12918960D01*
X12936634Y-12918960D02*
X12917586Y-12928484D01*
X12917586Y-12928484D02*
X12898539Y-12928484D01*
X12898539Y-12928484D02*
X12879491Y-12918960D01*
X12879491Y-12918960D02*
X12869967Y-12909436D01*
X12869967Y-12909436D02*
X12860443Y-12890388D01*
X12860443Y-12890388D02*
X12850920Y-12852293D01*
X12850920Y-12852293D02*
X12850920Y-12804674D01*
X12850920Y-12804674D02*
X12860443Y-12766579D01*
X12860443Y-12766579D02*
X12869967Y-12747531D01*
X12869967Y-12747531D02*
X12879491Y-12738008D01*
X12879491Y-12738008D02*
X12898539Y-12728484D01*
X13050920Y-12928484D02*
X13050920Y-12795150D01*
X13050920Y-12814198D02*
X13060443Y-12804674D01*
X13060443Y-12804674D02*
X13079491Y-12795150D01*
X13079491Y-12795150D02*
X13108063Y-12795150D01*
X13108063Y-12795150D02*
X13127110Y-12804674D01*
X13127110Y-12804674D02*
X13136634Y-12823722D01*
X13136634Y-12823722D02*
X13136634Y-12928484D01*
X13136634Y-12823722D02*
X13146158Y-12804674D01*
X13146158Y-12804674D02*
X13165205Y-12795150D01*
X13165205Y-12795150D02*
X13193777Y-12795150D01*
X13193777Y-12795150D02*
X13212824Y-12804674D01*
X13212824Y-12804674D02*
X13222348Y-12823722D01*
X13222348Y-12823722D02*
X13222348Y-12928484D01*
X13317586Y-12928484D02*
X13317586Y-12795150D01*
X13317586Y-12814198D02*
X13327110Y-12804674D01*
X13327110Y-12804674D02*
X13346158Y-12795150D01*
X13346158Y-12795150D02*
X13374729Y-12795150D01*
X13374729Y-12795150D02*
X13393777Y-12804674D01*
X13393777Y-12804674D02*
X13403301Y-12823722D01*
X13403301Y-12823722D02*
X13403301Y-12928484D01*
X13403301Y-12823722D02*
X13412824Y-12804674D01*
X13412824Y-12804674D02*
X13431872Y-12795150D01*
X13431872Y-12795150D02*
X13460443Y-12795150D01*
X13460443Y-12795150D02*
X13479491Y-12804674D01*
X13479491Y-12804674D02*
X13489015Y-12823722D01*
X13489015Y-12823722D02*
X13489015Y-12928484D01*
X13879491Y-12718960D02*
X13708063Y-12976103D01*
X14136634Y-12728484D02*
X14155682Y-12728484D01*
X14155682Y-12728484D02*
X14174729Y-12738008D01*
X14174729Y-12738008D02*
X14184253Y-12747531D01*
X14184253Y-12747531D02*
X14193777Y-12766579D01*
X14193777Y-12766579D02*
X14203301Y-12804674D01*
X14203301Y-12804674D02*
X14203301Y-12852293D01*
X14203301Y-12852293D02*
X14193777Y-12890388D01*
X14193777Y-12890388D02*
X14184253Y-12909436D01*
X14184253Y-12909436D02*
X14174729Y-12918960D01*
X14174729Y-12918960D02*
X14155682Y-12928484D01*
X14155682Y-12928484D02*
X14136634Y-12928484D01*
X14136634Y-12928484D02*
X14117586Y-12918960D01*
X14117586Y-12918960D02*
X14108063Y-12909436D01*
X14108063Y-12909436D02*
X14098539Y-12890388D01*
X14098539Y-12890388D02*
X14089015Y-12852293D01*
X14089015Y-12852293D02*
X14089015Y-12804674D01*
X14089015Y-12804674D02*
X14098539Y-12766579D01*
X14098539Y-12766579D02*
X14108063Y-12747531D01*
X14108063Y-12747531D02*
X14117586Y-12738008D01*
X14117586Y-12738008D02*
X14136634Y-12728484D01*
X14289015Y-12909436D02*
X14298539Y-12918960D01*
X14298539Y-12918960D02*
X14289015Y-12928484D01*
X14289015Y-12928484D02*
X14279491Y-12918960D01*
X14279491Y-12918960D02*
X14289015Y-12909436D01*
X14289015Y-12909436D02*
X14289015Y-12928484D01*
X14489015Y-12928484D02*
X14374729Y-12928484D01*
X14431872Y-12928484D02*
X14431872Y-12728484D01*
X14431872Y-12728484D02*
X14412825Y-12757055D01*
X14412825Y-12757055D02*
X14393777Y-12776103D01*
X14393777Y-12776103D02*
X14374729Y-12785627D01*
X14565206Y-12747531D02*
X14574729Y-12738008D01*
X14574729Y-12738008D02*
X14593777Y-12728484D01*
X14593777Y-12728484D02*
X14641396Y-12728484D01*
X14641396Y-12728484D02*
X14660444Y-12738008D01*
X14660444Y-12738008D02*
X14669967Y-12747531D01*
X14669967Y-12747531D02*
X14679491Y-12766579D01*
X14679491Y-12766579D02*
X14679491Y-12785627D01*
X14679491Y-12785627D02*
X14669967Y-12814198D01*
X14669967Y-12814198D02*
X14555682Y-12928484D01*
X14555682Y-12928484D02*
X14679491Y-12928484D01*
X14850920Y-12728484D02*
X14812825Y-12728484D01*
X14812825Y-12728484D02*
X14793777Y-12738008D01*
X14793777Y-12738008D02*
X14784253Y-12747531D01*
X14784253Y-12747531D02*
X14765206Y-12776103D01*
X14765206Y-12776103D02*
X14755682Y-12814198D01*
X14755682Y-12814198D02*
X14755682Y-12890388D01*
X14755682Y-12890388D02*
X14765206Y-12909436D01*
X14765206Y-12909436D02*
X14774729Y-12918960D01*
X14774729Y-12918960D02*
X14793777Y-12928484D01*
X14793777Y-12928484D02*
X14831872Y-12928484D01*
X14831872Y-12928484D02*
X14850920Y-12918960D01*
X14850920Y-12918960D02*
X14860444Y-12909436D01*
X14860444Y-12909436D02*
X14869967Y-12890388D01*
X14869967Y-12890388D02*
X14869967Y-12842769D01*
X14869967Y-12842769D02*
X14860444Y-12823722D01*
X14860444Y-12823722D02*
X14850920Y-12814198D01*
X14850920Y-12814198D02*
X14831872Y-12804674D01*
X14831872Y-12804674D02*
X14793777Y-12804674D01*
X14793777Y-12804674D02*
X14774729Y-12814198D01*
X14774729Y-12814198D02*
X14765206Y-12823722D01*
X14765206Y-12823722D02*
X14755682Y-12842769D01*
X14993777Y-12728484D02*
X15012825Y-12728484D01*
X15012825Y-12728484D02*
X15031872Y-12738008D01*
X15031872Y-12738008D02*
X15041396Y-12747531D01*
X15041396Y-12747531D02*
X15050920Y-12766579D01*
X15050920Y-12766579D02*
X15060444Y-12804674D01*
X15060444Y-12804674D02*
X15060444Y-12852293D01*
X15060444Y-12852293D02*
X15050920Y-12890388D01*
X15050920Y-12890388D02*
X15041396Y-12909436D01*
X15041396Y-12909436D02*
X15031872Y-12918960D01*
X15031872Y-12918960D02*
X15012825Y-12928484D01*
X15012825Y-12928484D02*
X14993777Y-12928484D01*
X14993777Y-12928484D02*
X14974729Y-12918960D01*
X14974729Y-12918960D02*
X14965206Y-12909436D01*
X14965206Y-12909436D02*
X14955682Y-12890388D01*
X14955682Y-12890388D02*
X14946158Y-12852293D01*
X14946158Y-12852293D02*
X14946158Y-12804674D01*
X14946158Y-12804674D02*
X14955682Y-12766579D01*
X14955682Y-12766579D02*
X14965206Y-12747531D01*
X14965206Y-12747531D02*
X14974729Y-12738008D01*
X14974729Y-12738008D02*
X14993777Y-12728484D01*
X15136634Y-12728484D02*
X15136634Y-12766579D01*
X15212825Y-12728484D02*
X15212825Y-12766579D01*
X15508063Y-13004674D02*
X15498539Y-12995150D01*
X15498539Y-12995150D02*
X15479491Y-12966579D01*
X15479491Y-12966579D02*
X15469968Y-12947531D01*
X15469968Y-12947531D02*
X15460444Y-12918960D01*
X15460444Y-12918960D02*
X15450920Y-12871341D01*
X15450920Y-12871341D02*
X15450920Y-12833246D01*
X15450920Y-12833246D02*
X15460444Y-12785627D01*
X15460444Y-12785627D02*
X15469968Y-12757055D01*
X15469968Y-12757055D02*
X15479491Y-12738008D01*
X15479491Y-12738008D02*
X15498539Y-12709436D01*
X15498539Y-12709436D02*
X15508063Y-12699912D01*
X15669968Y-12795150D02*
X15669968Y-12928484D01*
X15622348Y-12718960D02*
X15574729Y-12861817D01*
X15574729Y-12861817D02*
X15698539Y-12861817D01*
X15927110Y-12928484D02*
X15927110Y-12728484D01*
X16012825Y-12928484D02*
X16012825Y-12823722D01*
X16012825Y-12823722D02*
X16003301Y-12804674D01*
X16003301Y-12804674D02*
X15984253Y-12795150D01*
X15984253Y-12795150D02*
X15955682Y-12795150D01*
X15955682Y-12795150D02*
X15936634Y-12804674D01*
X15936634Y-12804674D02*
X15927110Y-12814198D01*
X16136634Y-12928484D02*
X16117587Y-12918960D01*
X16117587Y-12918960D02*
X16108063Y-12909436D01*
X16108063Y-12909436D02*
X16098539Y-12890388D01*
X16098539Y-12890388D02*
X16098539Y-12833246D01*
X16098539Y-12833246D02*
X16108063Y-12814198D01*
X16108063Y-12814198D02*
X16117587Y-12804674D01*
X16117587Y-12804674D02*
X16136634Y-12795150D01*
X16136634Y-12795150D02*
X16165206Y-12795150D01*
X16165206Y-12795150D02*
X16184253Y-12804674D01*
X16184253Y-12804674D02*
X16193777Y-12814198D01*
X16193777Y-12814198D02*
X16203301Y-12833246D01*
X16203301Y-12833246D02*
X16203301Y-12890388D01*
X16203301Y-12890388D02*
X16193777Y-12909436D01*
X16193777Y-12909436D02*
X16184253Y-12918960D01*
X16184253Y-12918960D02*
X16165206Y-12928484D01*
X16165206Y-12928484D02*
X16136634Y-12928484D01*
X16317587Y-12928484D02*
X16298539Y-12918960D01*
X16298539Y-12918960D02*
X16289015Y-12899912D01*
X16289015Y-12899912D02*
X16289015Y-12728484D01*
X16469968Y-12918960D02*
X16450920Y-12928484D01*
X16450920Y-12928484D02*
X16412825Y-12928484D01*
X16412825Y-12928484D02*
X16393777Y-12918960D01*
X16393777Y-12918960D02*
X16384253Y-12899912D01*
X16384253Y-12899912D02*
X16384253Y-12823722D01*
X16384253Y-12823722D02*
X16393777Y-12804674D01*
X16393777Y-12804674D02*
X16412825Y-12795150D01*
X16412825Y-12795150D02*
X16450920Y-12795150D01*
X16450920Y-12795150D02*
X16469968Y-12804674D01*
X16469968Y-12804674D02*
X16479491Y-12823722D01*
X16479491Y-12823722D02*
X16479491Y-12842769D01*
X16479491Y-12842769D02*
X16384253Y-12861817D01*
X16555682Y-12918960D02*
X16574730Y-12928484D01*
X16574730Y-12928484D02*
X16612825Y-12928484D01*
X16612825Y-12928484D02*
X16631872Y-12918960D01*
X16631872Y-12918960D02*
X16641396Y-12899912D01*
X16641396Y-12899912D02*
X16641396Y-12890388D01*
X16641396Y-12890388D02*
X16631872Y-12871341D01*
X16631872Y-12871341D02*
X16612825Y-12861817D01*
X16612825Y-12861817D02*
X16584253Y-12861817D01*
X16584253Y-12861817D02*
X16565206Y-12852293D01*
X16565206Y-12852293D02*
X16555682Y-12833246D01*
X16555682Y-12833246D02*
X16555682Y-12823722D01*
X16555682Y-12823722D02*
X16565206Y-12804674D01*
X16565206Y-12804674D02*
X16584253Y-12795150D01*
X16584253Y-12795150D02*
X16612825Y-12795150D01*
X16612825Y-12795150D02*
X16631872Y-12804674D01*
X16708063Y-13004674D02*
X16717587Y-12995150D01*
X16717587Y-12995150D02*
X16736634Y-12966579D01*
X16736634Y-12966579D02*
X16746158Y-12947531D01*
X16746158Y-12947531D02*
X16755682Y-12918960D01*
X16755682Y-12918960D02*
X16765206Y-12871341D01*
X16765206Y-12871341D02*
X16765206Y-12833246D01*
X16765206Y-12833246D02*
X16755682Y-12785627D01*
X16755682Y-12785627D02*
X16746158Y-12757055D01*
X16746158Y-12757055D02*
X16736634Y-12738008D01*
X16736634Y-12738008D02*
X16717587Y-12709436D01*
X16717587Y-12709436D02*
X16708063Y-12699912D01*
X17069968Y-13004674D02*
X17060444Y-12995150D01*
X17060444Y-12995150D02*
X17041396Y-12966579D01*
X17041396Y-12966579D02*
X17031873Y-12947531D01*
X17031873Y-12947531D02*
X17022349Y-12918960D01*
X17022349Y-12918960D02*
X17012825Y-12871341D01*
X17012825Y-12871341D02*
X17012825Y-12833246D01*
X17012825Y-12833246D02*
X17022349Y-12785627D01*
X17022349Y-12785627D02*
X17031873Y-12757055D01*
X17031873Y-12757055D02*
X17041396Y-12738008D01*
X17041396Y-12738008D02*
X17060444Y-12709436D01*
X17060444Y-12709436D02*
X17069968Y-12699912D01*
X17146158Y-12795150D02*
X17146158Y-12928484D01*
X17146158Y-12814198D02*
X17155682Y-12804674D01*
X17155682Y-12804674D02*
X17174730Y-12795150D01*
X17174730Y-12795150D02*
X17203301Y-12795150D01*
X17203301Y-12795150D02*
X17222349Y-12804674D01*
X17222349Y-12804674D02*
X17231873Y-12823722D01*
X17231873Y-12823722D02*
X17231873Y-12928484D01*
X17355682Y-12928484D02*
X17336634Y-12918960D01*
X17336634Y-12918960D02*
X17327111Y-12909436D01*
X17327111Y-12909436D02*
X17317587Y-12890388D01*
X17317587Y-12890388D02*
X17317587Y-12833246D01*
X17317587Y-12833246D02*
X17327111Y-12814198D01*
X17327111Y-12814198D02*
X17336634Y-12804674D01*
X17336634Y-12804674D02*
X17355682Y-12795150D01*
X17355682Y-12795150D02*
X17384254Y-12795150D01*
X17384254Y-12795150D02*
X17403301Y-12804674D01*
X17403301Y-12804674D02*
X17412825Y-12814198D01*
X17412825Y-12814198D02*
X17422349Y-12833246D01*
X17422349Y-12833246D02*
X17422349Y-12890388D01*
X17422349Y-12890388D02*
X17412825Y-12909436D01*
X17412825Y-12909436D02*
X17403301Y-12918960D01*
X17403301Y-12918960D02*
X17384254Y-12928484D01*
X17384254Y-12928484D02*
X17355682Y-12928484D01*
X17479492Y-12795150D02*
X17555682Y-12795150D01*
X17508063Y-12728484D02*
X17508063Y-12899912D01*
X17508063Y-12899912D02*
X17517587Y-12918960D01*
X17517587Y-12918960D02*
X17536634Y-12928484D01*
X17536634Y-12928484D02*
X17555682Y-12928484D01*
X17774730Y-12795150D02*
X17774730Y-12995150D01*
X17774730Y-12804674D02*
X17793777Y-12795150D01*
X17793777Y-12795150D02*
X17831873Y-12795150D01*
X17831873Y-12795150D02*
X17850920Y-12804674D01*
X17850920Y-12804674D02*
X17860444Y-12814198D01*
X17860444Y-12814198D02*
X17869968Y-12833246D01*
X17869968Y-12833246D02*
X17869968Y-12890388D01*
X17869968Y-12890388D02*
X17860444Y-12909436D01*
X17860444Y-12909436D02*
X17850920Y-12918960D01*
X17850920Y-12918960D02*
X17831873Y-12928484D01*
X17831873Y-12928484D02*
X17793777Y-12928484D01*
X17793777Y-12928484D02*
X17774730Y-12918960D01*
X17984254Y-12928484D02*
X17965206Y-12918960D01*
X17965206Y-12918960D02*
X17955682Y-12899912D01*
X17955682Y-12899912D02*
X17955682Y-12728484D01*
X18146158Y-12928484D02*
X18146158Y-12823722D01*
X18146158Y-12823722D02*
X18136635Y-12804674D01*
X18136635Y-12804674D02*
X18117587Y-12795150D01*
X18117587Y-12795150D02*
X18079492Y-12795150D01*
X18079492Y-12795150D02*
X18060444Y-12804674D01*
X18146158Y-12918960D02*
X18127111Y-12928484D01*
X18127111Y-12928484D02*
X18079492Y-12928484D01*
X18079492Y-12928484D02*
X18060444Y-12918960D01*
X18060444Y-12918960D02*
X18050920Y-12899912D01*
X18050920Y-12899912D02*
X18050920Y-12880865D01*
X18050920Y-12880865D02*
X18060444Y-12861817D01*
X18060444Y-12861817D02*
X18079492Y-12852293D01*
X18079492Y-12852293D02*
X18127111Y-12852293D01*
X18127111Y-12852293D02*
X18146158Y-12842769D01*
X18212825Y-12795150D02*
X18289015Y-12795150D01*
X18241396Y-12728484D02*
X18241396Y-12899912D01*
X18241396Y-12899912D02*
X18250920Y-12918960D01*
X18250920Y-12918960D02*
X18269968Y-12928484D01*
X18269968Y-12928484D02*
X18289015Y-12928484D01*
X18431873Y-12918960D02*
X18412825Y-12928484D01*
X18412825Y-12928484D02*
X18374730Y-12928484D01*
X18374730Y-12928484D02*
X18355682Y-12918960D01*
X18355682Y-12918960D02*
X18346158Y-12899912D01*
X18346158Y-12899912D02*
X18346158Y-12823722D01*
X18346158Y-12823722D02*
X18355682Y-12804674D01*
X18355682Y-12804674D02*
X18374730Y-12795150D01*
X18374730Y-12795150D02*
X18412825Y-12795150D01*
X18412825Y-12795150D02*
X18431873Y-12804674D01*
X18431873Y-12804674D02*
X18441396Y-12823722D01*
X18441396Y-12823722D02*
X18441396Y-12842769D01*
X18441396Y-12842769D02*
X18346158Y-12861817D01*
X18612825Y-12928484D02*
X18612825Y-12728484D01*
X18612825Y-12918960D02*
X18593777Y-12928484D01*
X18593777Y-12928484D02*
X18555682Y-12928484D01*
X18555682Y-12928484D02*
X18536635Y-12918960D01*
X18536635Y-12918960D02*
X18527111Y-12909436D01*
X18527111Y-12909436D02*
X18517587Y-12890388D01*
X18517587Y-12890388D02*
X18517587Y-12833246D01*
X18517587Y-12833246D02*
X18527111Y-12814198D01*
X18527111Y-12814198D02*
X18536635Y-12804674D01*
X18536635Y-12804674D02*
X18555682Y-12795150D01*
X18555682Y-12795150D02*
X18593777Y-12795150D01*
X18593777Y-12795150D02*
X18612825Y-12804674D01*
X18689016Y-13004674D02*
X18698539Y-12995150D01*
X18698539Y-12995150D02*
X18717587Y-12966579D01*
X18717587Y-12966579D02*
X18727111Y-12947531D01*
X18727111Y-12947531D02*
X18736635Y-12918960D01*
X18736635Y-12918960D02*
X18746158Y-12871341D01*
X18746158Y-12871341D02*
X18746158Y-12833246D01*
X18746158Y-12833246D02*
X18736635Y-12785627D01*
X18736635Y-12785627D02*
X18727111Y-12757055D01*
X18727111Y-12757055D02*
X18717587Y-12738008D01*
X18717587Y-12738008D02*
X18698539Y-12709436D01*
X18698539Y-12709436D02*
X18689016Y-12699912D01*
M02*
