%TF.GenerationSoftware,KiCad,Pcbnew,7.0.6-7.0.6~ubuntu22.04.1*%
%TF.CreationDate,2023-07-15T17:42:53-03:00*%
%TF.ProjectId,FRANZININHO-WIFI-MAKEYMAKEY,4652414e-5a49-44e4-994e-484f2d574946,1.0.0*%
%TF.SameCoordinates,Original*%
%TF.FileFunction,Soldermask,Top*%
%TF.FilePolarity,Negative*%
%FSLAX46Y46*%
G04 Gerber Fmt 4.6, Leading zero omitted, Abs format (unit mm)*
G04 Created by KiCad (PCBNEW 7.0.6-7.0.6~ubuntu22.04.1) date 2023-07-15 17:42:53*
%MOMM*%
%LPD*%
G01*
G04 APERTURE LIST*
G04 Aperture macros list*
%AMRoundRect*
0 Rectangle with rounded corners*
0 $1 Rounding radius*
0 $2 $3 $4 $5 $6 $7 $8 $9 X,Y pos of 4 corners*
0 Add a 4 corners polygon primitive as box body*
4,1,4,$2,$3,$4,$5,$6,$7,$8,$9,$2,$3,0*
0 Add four circle primitives for the rounded corners*
1,1,$1+$1,$2,$3*
1,1,$1+$1,$4,$5*
1,1,$1+$1,$6,$7*
1,1,$1+$1,$8,$9*
0 Add four rect primitives between the rounded corners*
20,1,$1+$1,$2,$3,$4,$5,0*
20,1,$1+$1,$4,$5,$6,$7,0*
20,1,$1+$1,$6,$7,$8,$9,0*
20,1,$1+$1,$8,$9,$2,$3,0*%
G04 Aperture macros list end*
%ADD10RoundRect,0.237500X-0.287500X-0.237500X0.287500X-0.237500X0.287500X0.237500X-0.287500X0.237500X0*%
%ADD11C,2.000000*%
%ADD12RoundRect,0.237500X0.237500X-0.250000X0.237500X0.250000X-0.237500X0.250000X-0.237500X-0.250000X0*%
%ADD13C,1.500000*%
%ADD14C,3.200000*%
%ADD15RoundRect,0.237500X-0.237500X0.250000X-0.237500X-0.250000X0.237500X-0.250000X0.237500X0.250000X0*%
%ADD16C,5.080000*%
%ADD17R,5.080000X5.080000*%
%ADD18RoundRect,0.237500X-0.250000X-0.237500X0.250000X-0.237500X0.250000X0.237500X-0.250000X0.237500X0*%
%ADD19RoundRect,0.150000X0.587500X0.150000X-0.587500X0.150000X-0.587500X-0.150000X0.587500X-0.150000X0*%
%ADD20RoundRect,0.237500X0.250000X0.237500X-0.250000X0.237500X-0.250000X-0.237500X0.250000X-0.237500X0*%
%ADD21R,1.800000X1.800000*%
%ADD22C,1.800000*%
%ADD23R,1.700000X1.700000*%
%ADD24O,1.700000X1.700000*%
%ADD25O,3.000000X2.500000*%
%ADD26C,1.600000*%
%ADD27O,1.524000X2.032000*%
%ADD28R,1.524000X2.032000*%
%ADD29RoundRect,0.250000X0.350000X0.625000X-0.350000X0.625000X-0.350000X-0.625000X0.350000X-0.625000X0*%
%ADD30O,1.200000X1.750000*%
G04 APERTURE END LIST*
D10*
%TO.C,D1*%
X142000000Y-93980000D03*
X143750000Y-93980000D03*
%TD*%
D11*
%TO.C,LS1*%
X150110000Y-84215000D03*
X148610000Y-81915000D03*
X152410000Y-84915000D03*
X152410000Y-78915000D03*
X154710000Y-79615000D03*
X156210000Y-81915000D03*
%TD*%
D10*
%TO.C,D27*%
X149620000Y-109220000D03*
X151370000Y-109220000D03*
%TD*%
D12*
%TO.C,R17*%
X133667500Y-84732500D03*
X133667500Y-82907500D03*
%TD*%
D13*
%TO.C,FID3*%
X183515000Y-109855000D03*
%TD*%
D14*
%TO.C,H3*%
X122555000Y-118745000D03*
%TD*%
D13*
%TO.C,FID2*%
X183515000Y-80010000D03*
%TD*%
D15*
%TO.C,R7*%
X167640000Y-94972500D03*
X167640000Y-96797500D03*
%TD*%
D16*
%TO.C,J10*%
X177165000Y-86042500D03*
D17*
X179705000Y-86042500D03*
X179705000Y-86042500D03*
D16*
X182245000Y-86042500D03*
%TD*%
D10*
%TO.C,D11*%
X157240000Y-97790000D03*
X158990000Y-97790000D03*
%TD*%
D12*
%TO.C,R25*%
X166370000Y-87590000D03*
X166370000Y-85765000D03*
%TD*%
D10*
%TO.C,D29*%
X157240000Y-109220000D03*
X158990000Y-109220000D03*
%TD*%
D18*
%TO.C,R13*%
X172760000Y-88265000D03*
X174585000Y-88265000D03*
%TD*%
D10*
%TO.C,D2*%
X145810000Y-93980000D03*
X147560000Y-93980000D03*
%TD*%
D12*
%TO.C,R11*%
X137160000Y-102512500D03*
X137160000Y-100687500D03*
%TD*%
D10*
%TO.C,D12*%
X161050000Y-97790000D03*
X162800000Y-97790000D03*
%TD*%
%TO.C,D5*%
X157240000Y-93980000D03*
X158990000Y-93980000D03*
%TD*%
D17*
%TO.C,J4*%
X145415000Y-73025000D03*
X145415000Y-73025000D03*
D16*
X145415000Y-70485000D03*
X145415000Y-75565000D03*
%TD*%
D15*
%TO.C,R4*%
X140335000Y-94972500D03*
X140335000Y-96797500D03*
%TD*%
D12*
%TO.C,R21*%
X141287500Y-84732500D03*
X141287500Y-82907500D03*
%TD*%
D17*
%TO.C,J2*%
X130175000Y-73025000D03*
X130175000Y-73025000D03*
D16*
X130175000Y-75565000D03*
X130175000Y-70485000D03*
%TD*%
D10*
%TO.C,D22*%
X153430000Y-105410000D03*
X155180000Y-105410000D03*
%TD*%
%TO.C,D4*%
X153430000Y-93980000D03*
X155180000Y-93980000D03*
%TD*%
D17*
%TO.C,J6*%
X167005000Y-73025000D03*
D16*
X167005000Y-70485000D03*
X167005000Y-75565000D03*
D17*
X167005000Y-73025000D03*
%TD*%
D19*
%TO.C,Q1*%
X162227500Y-82865000D03*
X162227500Y-80965000D03*
X160352500Y-81915000D03*
%TD*%
D20*
%TO.C,R8*%
X161250000Y-84455000D03*
X159425000Y-84455000D03*
%TD*%
D12*
%TO.C,R20*%
X139382500Y-84732500D03*
X139382500Y-82907500D03*
%TD*%
D15*
%TO.C,R6*%
X166052500Y-94972500D03*
X166052500Y-96797500D03*
%TD*%
D10*
%TO.C,D26*%
X145810000Y-109220000D03*
X147560000Y-109220000D03*
%TD*%
%TO.C,D16*%
X153430000Y-101600000D03*
X155180000Y-101600000D03*
%TD*%
D20*
%TO.C,R9*%
X153312500Y-74295000D03*
X151487500Y-74295000D03*
%TD*%
D10*
%TO.C,D25*%
X142000000Y-109220000D03*
X143750000Y-109220000D03*
%TD*%
D21*
%TO.C,D31*%
X167575000Y-81597500D03*
D22*
X169734000Y-81597500D03*
X171893000Y-81597500D03*
X174052000Y-81597500D03*
%TD*%
D10*
%TO.C,D17*%
X157240000Y-101600000D03*
X158990000Y-101600000D03*
%TD*%
%TO.C,D15*%
X149620000Y-101600000D03*
X151370000Y-101600000D03*
%TD*%
D17*
%TO.C,J9*%
X125095000Y-86042500D03*
X125095000Y-86042500D03*
D16*
X122555000Y-86042500D03*
X127635000Y-86042500D03*
%TD*%
D23*
%TO.C,J15*%
X121945000Y-93320000D03*
D24*
X124485000Y-93320000D03*
X127025000Y-93320000D03*
X129565000Y-93320000D03*
X132105000Y-93320000D03*
X134645000Y-93320000D03*
%TD*%
D10*
%TO.C,D7*%
X142000000Y-97790000D03*
X143750000Y-97790000D03*
%TD*%
%TO.C,D19*%
X142000000Y-105410000D03*
X143750000Y-105410000D03*
%TD*%
D13*
%TO.C,FID1*%
X121285000Y-80645000D03*
%TD*%
D10*
%TO.C,D28*%
X153430000Y-109220000D03*
X155180000Y-109220000D03*
%TD*%
D15*
%TO.C,R5*%
X164465000Y-94972500D03*
X164465000Y-96797500D03*
%TD*%
D16*
%TO.C,J7*%
X174625000Y-70485000D03*
D17*
X174625000Y-73025000D03*
D16*
X174625000Y-75565000D03*
D17*
X174625000Y-73025000D03*
%TD*%
D15*
%TO.C,R14*%
X153352500Y-115292500D03*
X153352500Y-117117500D03*
%TD*%
D12*
%TO.C,R10*%
X167640000Y-102472500D03*
X167640000Y-100647500D03*
%TD*%
D10*
%TO.C,D30*%
X161050000Y-109220000D03*
X162800000Y-109220000D03*
%TD*%
D23*
%TO.C,J16*%
X182855000Y-93370000D03*
D24*
X180315000Y-93370000D03*
X177775000Y-93370000D03*
X175235000Y-93370000D03*
X172695000Y-93370000D03*
X170155000Y-93370000D03*
%TD*%
D15*
%TO.C,R3*%
X138747500Y-94972500D03*
X138747500Y-96797500D03*
%TD*%
D16*
%TO.C,J1*%
X122555000Y-70485000D03*
D17*
X122555000Y-73025000D03*
X122555000Y-73025000D03*
D16*
X122555000Y-75565000D03*
%TD*%
D10*
%TO.C,D9*%
X149620000Y-97790000D03*
X151370000Y-97790000D03*
%TD*%
%TO.C,D3*%
X149620000Y-93980000D03*
X151370000Y-93980000D03*
%TD*%
D14*
%TO.C,H2*%
X178435000Y-80010000D03*
%TD*%
D10*
%TO.C,D24*%
X161050000Y-105410000D03*
X162800000Y-105410000D03*
%TD*%
%TO.C,D21*%
X149620000Y-105410000D03*
X151370000Y-105410000D03*
%TD*%
%TO.C,D18*%
X161050000Y-101600000D03*
X162800000Y-101600000D03*
%TD*%
D12*
%TO.C,R22*%
X143192500Y-84732500D03*
X143192500Y-82907500D03*
%TD*%
D10*
%TO.C,D23*%
X157240000Y-105410000D03*
X158990000Y-105410000D03*
%TD*%
%TO.C,D6*%
X161050000Y-93980000D03*
X162800000Y-93980000D03*
%TD*%
D16*
%TO.C,J8*%
X182245000Y-75565000D03*
D17*
X182245000Y-73025000D03*
D16*
X182245000Y-70485000D03*
D17*
X182245000Y-73025000D03*
%TD*%
D15*
%TO.C,R2*%
X137160000Y-94972500D03*
X137160000Y-96797500D03*
%TD*%
D10*
%TO.C,D8*%
X145810000Y-97790000D03*
X147560000Y-97790000D03*
%TD*%
D15*
%TO.C,R1*%
X151447500Y-115292500D03*
X151447500Y-117117500D03*
%TD*%
D12*
%TO.C,R19*%
X137477500Y-84732500D03*
X137477500Y-82907500D03*
%TD*%
D16*
%TO.C,J5*%
X159385000Y-75565000D03*
D17*
X159385000Y-73025000D03*
X159385000Y-73025000D03*
D16*
X159385000Y-70485000D03*
%TD*%
D12*
%TO.C,R18*%
X135572500Y-84732500D03*
X135572500Y-82907500D03*
%TD*%
D16*
%TO.C,J3*%
X137795000Y-75565000D03*
X137795000Y-70485000D03*
D17*
X137795000Y-73025000D03*
X137795000Y-73025000D03*
%TD*%
D12*
%TO.C,R16*%
X131762500Y-84732500D03*
X131762500Y-82907500D03*
%TD*%
D10*
%TO.C,D14*%
X145810000Y-101600000D03*
X147560000Y-101600000D03*
%TD*%
%TO.C,D10*%
X153430000Y-97790000D03*
X155180000Y-97790000D03*
%TD*%
D25*
%TO.C,SW2*%
X122020000Y-99060000D03*
X134520000Y-99060000D03*
X122020000Y-104060000D03*
X134520000Y-104060000D03*
%TD*%
D18*
%TO.C,R12*%
X171807500Y-86677500D03*
X173632500Y-86677500D03*
%TD*%
D10*
%TO.C,D20*%
X145810000Y-105410000D03*
X147560000Y-105410000D03*
%TD*%
%TO.C,D13*%
X142000000Y-101600000D03*
X143750000Y-101600000D03*
%TD*%
D14*
%TO.C,H4*%
X182245000Y-118745000D03*
%TD*%
D12*
%TO.C,R23*%
X145097500Y-84732500D03*
X145097500Y-82907500D03*
%TD*%
D25*
%TO.C,SW1*%
X182780000Y-99100000D03*
X170280000Y-99100000D03*
X170280000Y-104100000D03*
X182780000Y-104100000D03*
%TD*%
D12*
%TO.C,R15*%
X170180000Y-87590000D03*
X170180000Y-85765000D03*
%TD*%
D26*
%TO.C,LDR1*%
X153670000Y-71120000D03*
X151130000Y-71120000D03*
%TD*%
D14*
%TO.C,H1*%
X126047500Y-80327500D03*
%TD*%
D12*
%TO.C,R24*%
X168275000Y-87590000D03*
X168275000Y-85765000D03*
%TD*%
D27*
%TO.C,U1*%
X129540000Y-90170000D03*
X132080000Y-90170000D03*
X134620000Y-90170000D03*
X137160000Y-90170000D03*
X139700000Y-90170000D03*
X142240000Y-90170000D03*
X144780000Y-90170000D03*
X147320000Y-90170000D03*
X149860000Y-90170000D03*
X152400000Y-90170000D03*
X154940000Y-90170000D03*
X157480000Y-90170000D03*
X160020000Y-90170000D03*
X162560000Y-90170000D03*
X165100000Y-90170000D03*
X167640000Y-90170000D03*
X170180000Y-90170000D03*
X172720000Y-90170000D03*
X175260000Y-90170000D03*
D28*
X177800000Y-90170000D03*
X177800000Y-113030000D03*
D27*
X175260000Y-113030000D03*
X172720000Y-113030000D03*
X170180000Y-113030000D03*
X167640000Y-113030000D03*
X165100000Y-113030000D03*
X162560000Y-113030000D03*
X160020000Y-113030000D03*
X157480000Y-113030000D03*
X154940000Y-113030000D03*
X152400000Y-113030000D03*
X149860000Y-113030000D03*
X147320000Y-113030000D03*
X144780000Y-113030000D03*
X142240000Y-113030000D03*
X139700000Y-113030000D03*
X137160000Y-113030000D03*
X134620000Y-113030000D03*
X132080000Y-113030000D03*
X129540000Y-113030000D03*
%TD*%
D29*
%TO.C,J12*%
X149050000Y-116295000D03*
D30*
X147050000Y-116295000D03*
X145050000Y-116295000D03*
X143050000Y-116295000D03*
%TD*%
D29*
%TO.C,J13*%
X161750000Y-116295000D03*
D30*
X159750000Y-116295000D03*
X157750000Y-116295000D03*
X155750000Y-116295000D03*
%TD*%
D29*
%TO.C,J11*%
X136350000Y-116295000D03*
D30*
X134350000Y-116295000D03*
X132350000Y-116295000D03*
X130350000Y-116295000D03*
%TD*%
D29*
%TO.C,J14*%
X174450000Y-116295000D03*
D30*
X172450000Y-116295000D03*
X170450000Y-116295000D03*
X168450000Y-116295000D03*
%TD*%
M02*
