%TF.GenerationSoftware,KiCad,Pcbnew,7.0.6-7.0.6~ubuntu22.04.1*%
%TF.CreationDate,2023-07-15T17:42:53-03:00*%
%TF.ProjectId,FRANZININHO-WIFI-MAKEYMAKEY,4652414e-5a49-44e4-994e-484f2d574946,1.0.0*%
%TF.SameCoordinates,Original*%
%TF.FileFunction,Soldermask,Bot*%
%TF.FilePolarity,Negative*%
%FSLAX46Y46*%
G04 Gerber Fmt 4.6, Leading zero omitted, Abs format (unit mm)*
G04 Created by KiCad (PCBNEW 7.0.6-7.0.6~ubuntu22.04.1) date 2023-07-15 17:42:53*
%MOMM*%
%LPD*%
G01*
G04 APERTURE LIST*
G04 Aperture macros list*
%AMRoundRect*
0 Rectangle with rounded corners*
0 $1 Rounding radius*
0 $2 $3 $4 $5 $6 $7 $8 $9 X,Y pos of 4 corners*
0 Add a 4 corners polygon primitive as box body*
4,1,4,$2,$3,$4,$5,$6,$7,$8,$9,$2,$3,0*
0 Add four circle primitives for the rounded corners*
1,1,$1+$1,$2,$3*
1,1,$1+$1,$4,$5*
1,1,$1+$1,$6,$7*
1,1,$1+$1,$8,$9*
0 Add four rect primitives between the rounded corners*
20,1,$1+$1,$2,$3,$4,$5,0*
20,1,$1+$1,$4,$5,$6,$7,0*
20,1,$1+$1,$6,$7,$8,$9,0*
20,1,$1+$1,$8,$9,$2,$3,0*%
%AMFreePoly0*
4,1,19,0.500000,-0.750000,0.000000,-0.750000,0.000000,-0.744911,-0.071157,-0.744911,-0.207708,-0.704816,-0.327430,-0.627875,-0.420627,-0.520320,-0.479746,-0.390866,-0.500000,-0.250000,-0.500000,0.250000,-0.479746,0.390866,-0.420627,0.520320,-0.327430,0.627875,-0.207708,0.704816,-0.071157,0.744911,0.000000,0.744911,0.000000,0.750000,0.500000,0.750000,0.500000,-0.750000,0.500000,-0.750000,
$1*%
%AMFreePoly1*
4,1,19,0.000000,0.744911,0.071157,0.744911,0.207708,0.704816,0.327430,0.627875,0.420627,0.520320,0.479746,0.390866,0.500000,0.250000,0.500000,-0.250000,0.479746,-0.390866,0.420627,-0.520320,0.327430,-0.627875,0.207708,-0.704816,0.071157,-0.744911,0.000000,-0.744911,0.000000,-0.750000,-0.500000,-0.750000,-0.500000,0.750000,0.000000,0.750000,0.000000,0.744911,0.000000,0.744911,
$1*%
G04 Aperture macros list end*
%ADD10C,2.000000*%
%ADD11C,3.200000*%
%ADD12C,5.080000*%
%ADD13R,5.080000X5.080000*%
%ADD14R,1.800000X1.800000*%
%ADD15C,1.800000*%
%ADD16R,1.700000X1.700000*%
%ADD17O,1.700000X1.700000*%
%ADD18O,3.000000X2.500000*%
%ADD19C,1.600000*%
%ADD20O,1.524000X2.032000*%
%ADD21R,1.524000X2.032000*%
%ADD22RoundRect,0.250000X0.350000X0.625000X-0.350000X0.625000X-0.350000X-0.625000X0.350000X-0.625000X0*%
%ADD23O,1.200000X1.750000*%
%ADD24FreePoly0,270.000000*%
%ADD25FreePoly1,270.000000*%
G04 APERTURE END LIST*
D10*
%TO.C,LS1*%
X150110000Y-84215000D03*
X148610000Y-81915000D03*
X152410000Y-84915000D03*
X152410000Y-78915000D03*
X154710000Y-79615000D03*
X156210000Y-81915000D03*
%TD*%
D11*
%TO.C,H3*%
X122555000Y-118745000D03*
%TD*%
D12*
%TO.C,J10*%
X177165000Y-86042500D03*
D13*
X179705000Y-86042500D03*
D12*
X182245000Y-86042500D03*
%TD*%
D13*
%TO.C,J4*%
X145415000Y-73025000D03*
D12*
X145415000Y-70485000D03*
X145415000Y-75565000D03*
%TD*%
D13*
%TO.C,J2*%
X130175000Y-73025000D03*
D12*
X130175000Y-75565000D03*
X130175000Y-70485000D03*
%TD*%
%TO.C,J6*%
X167005000Y-70485000D03*
X167005000Y-75565000D03*
D13*
X167005000Y-73025000D03*
%TD*%
D14*
%TO.C,D31*%
X167575000Y-81597500D03*
D15*
X169734000Y-81597500D03*
X171893000Y-81597500D03*
X174052000Y-81597500D03*
%TD*%
D13*
%TO.C,J9*%
X125095000Y-86042500D03*
D12*
X122555000Y-86042500D03*
X127635000Y-86042500D03*
%TD*%
D16*
%TO.C,J15*%
X121945000Y-93320000D03*
D17*
X124485000Y-93320000D03*
X127025000Y-93320000D03*
X129565000Y-93320000D03*
X132105000Y-93320000D03*
X134645000Y-93320000D03*
%TD*%
D12*
%TO.C,J7*%
X174625000Y-70485000D03*
D13*
X174625000Y-73025000D03*
D12*
X174625000Y-75565000D03*
%TD*%
D16*
%TO.C,J16*%
X182855000Y-93370000D03*
D17*
X180315000Y-93370000D03*
X177775000Y-93370000D03*
X175235000Y-93370000D03*
X172695000Y-93370000D03*
X170155000Y-93370000D03*
%TD*%
D12*
%TO.C,J1*%
X122555000Y-70485000D03*
D13*
X122555000Y-73025000D03*
D12*
X122555000Y-75565000D03*
%TD*%
D11*
%TO.C,H2*%
X178435000Y-80010000D03*
%TD*%
D12*
%TO.C,J8*%
X182245000Y-75565000D03*
D13*
X182245000Y-73025000D03*
D12*
X182245000Y-70485000D03*
%TD*%
%TO.C,J5*%
X159385000Y-75565000D03*
D13*
X159385000Y-73025000D03*
D12*
X159385000Y-70485000D03*
%TD*%
%TO.C,J3*%
X137795000Y-75565000D03*
X137795000Y-70485000D03*
D13*
X137795000Y-73025000D03*
%TD*%
D18*
%TO.C,SW2*%
X122020000Y-99060000D03*
X134520000Y-99060000D03*
X122020000Y-104060000D03*
X134520000Y-104060000D03*
%TD*%
D11*
%TO.C,H4*%
X182245000Y-118745000D03*
%TD*%
D18*
%TO.C,SW1*%
X182780000Y-99100000D03*
X170280000Y-99100000D03*
X170280000Y-104100000D03*
X182780000Y-104100000D03*
%TD*%
D19*
%TO.C,LDR1*%
X153670000Y-71120000D03*
X151130000Y-71120000D03*
%TD*%
D11*
%TO.C,H1*%
X126047500Y-80327500D03*
%TD*%
D20*
%TO.C,U1*%
X129540000Y-90170000D03*
X132080000Y-90170000D03*
X134620000Y-90170000D03*
X137160000Y-90170000D03*
X139700000Y-90170000D03*
X142240000Y-90170000D03*
X144780000Y-90170000D03*
X147320000Y-90170000D03*
X149860000Y-90170000D03*
X152400000Y-90170000D03*
X154940000Y-90170000D03*
X157480000Y-90170000D03*
X160020000Y-90170000D03*
X162560000Y-90170000D03*
X165100000Y-90170000D03*
X167640000Y-90170000D03*
X170180000Y-90170000D03*
X172720000Y-90170000D03*
X175260000Y-90170000D03*
D21*
X177800000Y-90170000D03*
X177800000Y-113030000D03*
D20*
X175260000Y-113030000D03*
X172720000Y-113030000D03*
X170180000Y-113030000D03*
X167640000Y-113030000D03*
X165100000Y-113030000D03*
X162560000Y-113030000D03*
X160020000Y-113030000D03*
X157480000Y-113030000D03*
X154940000Y-113030000D03*
X152400000Y-113030000D03*
X149860000Y-113030000D03*
X147320000Y-113030000D03*
X144780000Y-113030000D03*
X142240000Y-113030000D03*
X139700000Y-113030000D03*
X137160000Y-113030000D03*
X134620000Y-113030000D03*
X132080000Y-113030000D03*
X129540000Y-113030000D03*
%TD*%
D22*
%TO.C,J12*%
X149050000Y-116295000D03*
D23*
X147050000Y-116295000D03*
X145050000Y-116295000D03*
X143050000Y-116295000D03*
%TD*%
D22*
%TO.C,J13*%
X161750000Y-116295000D03*
D23*
X159750000Y-116295000D03*
X157750000Y-116295000D03*
X155750000Y-116295000D03*
%TD*%
D22*
%TO.C,J11*%
X136350000Y-116295000D03*
D23*
X134350000Y-116295000D03*
X132350000Y-116295000D03*
X130350000Y-116295000D03*
%TD*%
D24*
%TO.C,JP1*%
X146050000Y-86027500D03*
D25*
X146050000Y-87327500D03*
%TD*%
D22*
%TO.C,J14*%
X174450000Y-116295000D03*
D23*
X172450000Y-116295000D03*
X170450000Y-116295000D03*
X168450000Y-116295000D03*
%TD*%
M02*
