M48
; DRILL file {KiCad 7.0.6-7.0.6~ubuntu22.04.1} date Sat 15 Jul 2023 17:42:57 -03
; FORMAT={-:-/ absolute / inch / decimal}
; #@! TF.CreationDate,2023-07-15T17:42:57-03:00
; #@! TF.GenerationSoftware,Kicad,Pcbnew,7.0.6-7.0.6~ubuntu22.04.1
; #@! TF.FileFunction,Plated,1,2,PTH
FMAT,2
INCH
; #@! TA.AperFunction,Plated,PTH,ViaDrill
T1C0.0157
; #@! TA.AperFunction,Plated,PTH,ComponentDrill
T2C0.0295
; #@! TA.AperFunction,Plated,PTH,ComponentDrill
T3C0.0315
; #@! TA.AperFunction,Plated,PTH,ComponentDrill
T4C0.0350
; #@! TA.AperFunction,Plated,PTH,ComponentDrill
T5C0.0354
; #@! TA.AperFunction,Plated,PTH,ComponentDrill
T6C0.0394
; #@! TA.AperFunction,Plated,PTH,ComponentDrill
T7C0.0472
; #@! TA.AperFunction,Plated,PTH,ComponentDrill
T8C0.1575
%
G90
G05
T1
X4.825Y-3.225
X4.975Y-2.7
X5.05Y-3.9984
X5.05Y-4.3875
X5.15Y-3.7375
X5.1875Y-3.1625
X5.1875Y-3.2125
X5.225Y-3.375
X5.25Y-4.3875
X5.2625Y-3.2125
X5.275Y-2.7
X5.275Y-3.05
X5.3Y-3.375
X5.3375Y-3.1625
X5.3375Y-3.2125
X5.375Y-3.375
X5.4Y-3.925
X5.4125Y-3.2125
X5.425Y-3.85
X5.45Y-3.375
X5.45Y-4.3875
X5.4875Y-3.2125
X5.5Y-4.575
X5.525Y-3.375
X5.55Y-3.85
X5.562Y-3.7875
X5.5625Y-3.2125
X5.575Y-2.7
X5.5875Y-3.05
X5.6Y-3.375
X5.6375Y-3.2125
X5.6736Y-3.375
X5.7Y-3.775
X5.7Y-3.85
X5.7Y-3.925
X5.7Y-4.0
X5.7Y-4.15
X5.7Y-4.225
X5.714Y-3.2125
X5.8375Y-3.4375
X5.85Y-3.775
X5.85Y-3.925
X5.85Y-4.075
X5.85Y-4.225
X5.875Y-2.925
X5.9Y-3.15
X5.925Y-4.0375
X5.9875Y-4.691
X6.0Y-2.8375
X6.0Y-3.7
X6.0Y-3.775
X6.0Y-3.925
X6.0Y-4.075
X6.0Y-4.15
X6.0Y-4.225
X6.0Y-4.3
X6.05Y-3.4125
X6.075Y-3.275
X6.075Y-4.75
X6.125Y-2.925
X6.15Y-3.7375
X6.15Y-3.925
X6.15Y-3.975
X6.15Y-4.225
X6.225Y-4.1125
X6.25Y-3.4125
X6.3Y-3.7625
X6.3Y-3.85
X6.3Y-3.925
X6.3Y-4.075
X6.3Y-4.225
X6.3Y-4.3
X6.375Y-4.1125
X6.425Y-2.7
X6.425Y-3.05
X6.425Y-3.225
X6.4375Y-3.65
X6.45Y-3.3285
X6.45Y-4.075
X6.45Y-4.225
X6.45Y-4.3
X6.4625Y-3.4125
X6.5Y-4.575
X6.5125Y-3.4875
X6.5375Y-3.8875
X6.55Y-3.6375
X6.5875Y-3.4875
X6.6Y-4.1125
X6.65Y-4.3625
X6.6625Y-3.4864
X6.6625Y-3.8125
X6.7125Y-4.025
X6.725Y-2.7
X6.725Y-3.05
X6.8125Y-3.75
X6.85Y-4.3625
X6.8785Y-3.7375
X6.8875Y-3.9875
X6.8965Y-3.8035
X6.95Y-4.1625
X6.9875Y-4.025
X6.9875Y-4.075
X7.025Y-2.7
X7.05Y-3.7375
X7.1Y-3.55
X7.175Y-3.225
T2
X5.1319Y-4.5785
X5.2106Y-4.5785
X5.2894Y-4.5785
X5.3681Y-4.5785
X5.6319Y-4.5785
X5.7106Y-4.5785
X5.7894Y-4.5785
X5.8681Y-4.5785
X6.1319Y-4.5785
X6.2106Y-4.5785
X6.2894Y-4.5785
X6.3681Y-4.5785
X6.6319Y-4.5785
X6.7106Y-4.5785
X6.7894Y-4.5785
X6.8681Y-4.5785
T3
X5.95Y-2.8
X6.05Y-2.8
T4
X5.1Y-3.55
X5.1Y-4.45
X5.2Y-3.55
X5.2Y-4.45
X5.3Y-3.55
X5.3Y-4.45
X5.4Y-3.55
X5.4Y-4.45
X5.5Y-3.55
X5.5Y-4.45
X5.6Y-3.55
X5.6Y-4.45
X5.7Y-3.55
X5.7Y-4.45
X5.8Y-3.55
X5.8Y-4.45
X5.9Y-3.55
X5.9Y-4.45
X6.0Y-3.55
X6.0Y-4.45
X6.1Y-3.55
X6.1Y-4.45
X6.2Y-3.55
X6.2Y-4.45
X6.3Y-3.55
X6.3Y-4.45
X6.4Y-3.55
X6.4Y-4.45
X6.5Y-3.55
X6.5Y-4.45
X6.6Y-3.55
X6.6Y-4.45
X6.7Y-3.55
X6.7Y-4.45
X6.8Y-3.55
X6.8Y-4.45
X6.9Y-3.55
X6.9Y-4.45
X7.0Y-3.55
X7.0Y-4.45
T5
X6.5974Y-3.2125
X6.6824Y-3.2125
X6.7674Y-3.2125
X6.8524Y-3.2125
T6
X4.801Y-3.674
X4.901Y-3.674
X5.001Y-3.674
X5.101Y-3.674
X5.201Y-3.674
X5.301Y-3.674
X5.8508Y-3.225
X5.9098Y-3.3156
X6.0004Y-3.1069
X6.0004Y-3.3431
X6.0909Y-3.1344
X6.15Y-3.225
X6.699Y-3.676
X6.799Y-3.676
X6.899Y-3.676
X6.999Y-3.676
X7.099Y-3.676
X7.199Y-3.676
T7
X4.8039Y-3.9
X4.8039Y-4.0969
X5.2961Y-3.9
X5.2961Y-4.0969
X6.7039Y-3.9016
X6.7039Y-4.0984
X7.1961Y-3.9016
X7.1961Y-4.0984
T8
X4.825Y-2.775
X4.825Y-2.975
X4.825Y-3.3875
X5.025Y-3.3875
X5.125Y-2.775
X5.125Y-2.975
X5.425Y-2.775
X5.425Y-2.975
X5.725Y-2.775
X5.725Y-2.975
X6.275Y-2.775
X6.275Y-2.975
X6.575Y-2.775
X6.575Y-2.975
X6.875Y-2.775
X6.875Y-2.975
X6.975Y-3.3875
X7.175Y-2.775
X7.175Y-2.975
X7.175Y-3.3875
T0
M30
